G04 DesignSpark PCB Gerber Version 10.0 Build 5299*
G04 #@! TF.Part,Single*
G04 #@! TF.FilePolarity,Positive*
%FSLAX35Y35*%
%MOIN*%
G04 #@! TA.AperFunction,ComponentDrill*
%ADD94C,0.02200*%
G04 #@! TA.AperFunction,ViaDrill*
%ADD91C,0.02400*%
G04 #@! TA.AperFunction,ComponentDrill*
%ADD96C,0.03100*%
G04 #@! TA.AperFunction,ViaDrill*
%ADD92C,0.03200*%
G04 #@! TA.AperFunction,ComponentDrill*
%ADD93C,0.03307*%
%ADD95C,0.03465*%
G04 #@! TD.AperFunction*
X0Y0D02*
D02*
D91*
X20250Y112750D03*
X22750Y287750D03*
X40250Y70250D03*
X65250Y157750D03*
X75250Y167750D03*
X77750Y247750D03*
X85250Y362750D03*
X90250Y112750D03*
X95250Y127750D03*
X100250Y117750D03*
Y230250D03*
Y240250D03*
X102750Y22750D03*
Y92750D03*
X105250Y210250D03*
Y272750D03*
X110250Y327750D03*
Y342750D03*
X112750Y27750D03*
Y82750D03*
Y140250D03*
X117750Y262750D03*
Y332750D03*
X137750Y42750D03*
Y145250D03*
Y162750D03*
Y267750D03*
X145250Y52750D03*
Y172750D03*
X147750Y250250D03*
X165250Y207750D03*
X200250Y47750D03*
Y67750D03*
Y287750D03*
Y307750D03*
X205250Y107750D03*
Y137750D03*
Y167750D03*
Y187750D03*
X237750Y147750D03*
Y217750D03*
X240250Y22750D03*
Y92750D03*
X245250Y162750D03*
Y207750D03*
Y262750D03*
Y332750D03*
X265250Y172750D03*
X267750Y27750D03*
Y42750D03*
X270250Y167750D03*
X275250Y52750D03*
Y177750D03*
X280250Y37750D03*
Y87750D03*
X295250Y137750D03*
Y327750D03*
X335250Y287750D03*
Y307750D03*
X337750Y47750D03*
Y77750D03*
D02*
D92*
X25250Y60250D03*
X30250Y172750D03*
Y190250D03*
X35250Y60250D03*
Y207750D03*
Y217750D03*
Y227750D03*
Y237750D03*
Y247750D03*
Y257750D03*
Y267750D03*
Y292750D03*
Y302750D03*
Y312750D03*
Y322750D03*
Y332750D03*
Y342750D03*
Y352750D03*
X40250Y172750D03*
Y190250D03*
X65250Y207750D03*
Y217750D03*
Y227750D03*
Y237750D03*
Y247750D03*
Y257750D03*
Y267750D03*
Y292750D03*
Y302750D03*
Y312750D03*
Y322750D03*
Y332750D03*
Y342750D03*
Y352750D03*
X70250Y60250D03*
X72750Y105250D03*
Y122750D03*
Y137750D03*
X80250Y60250D03*
Y340250D03*
Y350250D03*
X82750Y105250D03*
Y122750D03*
X127750Y32750D03*
Y42750D03*
Y52750D03*
Y62750D03*
Y72750D03*
Y82750D03*
Y92750D03*
Y102750D03*
Y112750D03*
Y122750D03*
Y152750D03*
Y162750D03*
Y172750D03*
Y182750D03*
Y192750D03*
Y202750D03*
Y212750D03*
Y222750D03*
Y232750D03*
Y242750D03*
Y272750D03*
Y282750D03*
Y292750D03*
Y302750D03*
Y312750D03*
Y322750D03*
Y332750D03*
Y342750D03*
Y352750D03*
Y362750D03*
X157750Y32750D03*
Y42750D03*
Y52750D03*
Y62750D03*
Y72750D03*
Y82750D03*
Y92750D03*
Y102750D03*
Y112750D03*
Y122750D03*
Y152750D03*
Y162750D03*
Y172750D03*
Y182750D03*
Y192750D03*
Y202750D03*
Y212750D03*
Y222750D03*
Y232750D03*
Y242750D03*
Y272750D03*
Y282750D03*
Y292750D03*
Y302750D03*
Y312750D03*
Y322750D03*
Y332750D03*
Y342750D03*
Y352750D03*
Y362750D03*
X170250Y132750D03*
Y222750D03*
X180250Y132750D03*
Y222750D03*
X257750Y32750D03*
Y42750D03*
Y52750D03*
Y62750D03*
Y72750D03*
Y82750D03*
Y92750D03*
Y102750D03*
Y112750D03*
Y122750D03*
Y157750D03*
Y167750D03*
Y177750D03*
Y187750D03*
Y197750D03*
Y207750D03*
Y217750D03*
Y227750D03*
Y237750D03*
Y247750D03*
Y272750D03*
Y282750D03*
Y292750D03*
Y302750D03*
Y312750D03*
Y322750D03*
Y332750D03*
Y342750D03*
Y352750D03*
Y362750D03*
X287750Y32750D03*
Y42750D03*
Y52750D03*
Y62750D03*
Y72750D03*
Y82750D03*
Y92750D03*
Y102750D03*
Y112750D03*
Y122750D03*
Y157750D03*
Y167750D03*
Y177750D03*
Y187750D03*
Y197750D03*
Y207750D03*
Y217750D03*
Y227750D03*
Y237750D03*
Y247750D03*
Y272750D03*
Y282750D03*
Y292750D03*
Y302750D03*
Y312750D03*
Y322750D03*
Y332750D03*
Y342750D03*
Y352750D03*
Y362750D03*
X302750Y137750D03*
Y227750D03*
X312750Y137750D03*
Y227750D03*
D02*
D93*
X35250Y92750D03*
Y102750D03*
Y112750D03*
Y122750D03*
Y132750D03*
X45250Y92750D03*
Y102750D03*
Y112750D03*
Y122750D03*
Y132750D03*
X90250Y210368D03*
Y220368D03*
Y230368D03*
Y240368D03*
Y250368D03*
X190250Y12632D03*
Y22632D03*
Y32632D03*
Y42632D03*
Y52632D03*
Y62868D03*
Y72868D03*
Y82868D03*
Y92868D03*
Y102868D03*
Y132632D03*
Y142632D03*
Y152632D03*
Y162632D03*
Y172632D03*
Y182868D03*
Y192868D03*
Y202868D03*
Y212868D03*
Y222868D03*
Y252632D03*
Y262632D03*
Y272632D03*
Y282632D03*
Y292632D03*
Y302868D03*
Y312868D03*
Y322868D03*
Y332868D03*
Y342868D03*
X322750Y12632D03*
Y22632D03*
Y32632D03*
Y42632D03*
Y52632D03*
Y62868D03*
Y72868D03*
Y82868D03*
Y92868D03*
Y102868D03*
Y137632D03*
Y147632D03*
Y157632D03*
Y167632D03*
Y177632D03*
Y187868D03*
Y197868D03*
Y207868D03*
Y217868D03*
Y227868D03*
Y252632D03*
Y262632D03*
Y272632D03*
Y282632D03*
Y292632D03*
Y302868D03*
Y312868D03*
Y322868D03*
Y332868D03*
Y342868D03*
D02*
D94*
X70250Y82750D03*
X80250Y92750D03*
X90250Y82750D03*
D02*
D95*
X25250Y25250D03*
X35250Y45250D03*
X45250Y25250D03*
X70250D03*
X80250Y45250D03*
X90250Y25250D03*
D02*
D96*
X170250Y22750D03*
Y32750D03*
Y42750D03*
Y52750D03*
Y62750D03*
Y72750D03*
Y82750D03*
Y92750D03*
Y142750D03*
Y152750D03*
Y162750D03*
Y172750D03*
Y182750D03*
Y192750D03*
Y202750D03*
Y212750D03*
Y262750D03*
Y272750D03*
Y282750D03*
Y292750D03*
Y302750D03*
Y312750D03*
Y322750D03*
Y332750D03*
X180250Y22750D03*
Y32750D03*
Y42750D03*
Y52750D03*
Y62750D03*
Y72750D03*
Y82750D03*
Y92750D03*
Y142750D03*
Y152750D03*
Y162750D03*
Y172750D03*
Y182750D03*
Y192750D03*
Y202750D03*
Y212750D03*
Y262750D03*
Y272750D03*
Y282750D03*
Y292750D03*
Y302750D03*
Y312750D03*
Y322750D03*
Y332750D03*
X302750Y22750D03*
Y32750D03*
Y42750D03*
Y52750D03*
Y62750D03*
Y72750D03*
Y82750D03*
Y92750D03*
Y147750D03*
Y157750D03*
Y167750D03*
Y177750D03*
Y187750D03*
Y197750D03*
Y207750D03*
Y217750D03*
Y262750D03*
Y272750D03*
Y282750D03*
Y292750D03*
Y302750D03*
Y312750D03*
Y322750D03*
Y332750D03*
X312750Y22750D03*
Y32750D03*
Y42750D03*
Y52750D03*
Y62750D03*
Y72750D03*
Y82750D03*
Y92750D03*
Y147750D03*
Y157750D03*
Y167750D03*
Y177750D03*
Y187750D03*
Y197750D03*
Y207750D03*
Y217750D03*
Y262750D03*
Y272750D03*
Y282750D03*
Y292750D03*
Y302750D03*
Y312750D03*
Y322750D03*
Y332750D03*
X0Y0D02*
M02*
