G04 DesignSpark PCB Gerber Version 10.0 Build 5299*
G04 #@! TF.Part,Single*
G04 #@! TF.FileFunction,Legend,Top*
G04 #@! TF.FilePolarity,Positive*
%FSLAX35Y35*%
%MOIN*%
%ADD10C,0.00100*%
%ADD11C,0.00394*%
%ADD13C,0.00500*%
%ADD12C,0.00787*%
%ADD15C,0.00800*%
%ADD14C,0.01000*%
G04 #@! TD.AperFunction*
X0Y0D02*
D02*
D10*
X8687Y131656D02*
X10563D01*
X9625D02*
Y137281D01*
X8687Y136344D01*
X27750Y9156D02*
Y14781D01*
X32437D01*
X31500Y11969D02*
X27750D01*
X35250Y14781D02*
X35719Y9156D01*
X37594Y11969D01*
X39469Y9156D01*
X39937Y14781D01*
X42750Y9156D02*
Y14781D01*
X45563D01*
X46500Y14313D01*
X46969Y13844D01*
X47437Y12906D01*
Y11031D01*
X46969Y10094D01*
X46500Y9625D01*
X45563Y9156D01*
X42750D01*
X70250D02*
Y14781D01*
X73531D01*
X74469Y14313D01*
X74937Y13375D01*
X74469Y12437D01*
X73531Y11969D01*
X70250D01*
X73531D02*
X74937Y9156D01*
X77750D02*
Y14781D01*
X82437D01*
X81500Y11969D02*
X77750D01*
Y9156D02*
X82437D01*
X85250Y14781D02*
X87594Y9156D01*
X89937Y14781D01*
X111813Y177750D02*
X108063D01*
Y179937D01*
X108375Y180563D01*
X109000Y180875D01*
X109625Y180563D01*
X109937Y179937D01*
Y177750D01*
Y179937D02*
X111813Y180875D01*
Y182750D02*
X108063Y185875D01*
Y182750D02*
X111813Y185875D01*
Y188375D02*
Y189625D01*
Y189000D02*
X108063D01*
X108687Y188375D01*
X140250Y379937D02*
Y376187D01*
X143375D01*
X145250Y378375D02*
X145875Y378687D01*
X146813D01*
X147437Y378375D01*
X147750Y377750D01*
Y376813D01*
X147437Y376500D01*
X146813Y376187D01*
X146187D01*
X145563Y376500D01*
X145250Y376813D01*
Y377125D01*
X145563Y377437D01*
X146187Y377750D01*
X146813D01*
X147437Y377437D01*
X147750Y377125D01*
Y376813D02*
Y376187D01*
X150250Y378687D02*
Y377125D01*
X150563Y376500D01*
X151187Y376187D01*
X151813D01*
X152437Y376500D01*
X152750Y377125D01*
Y378687D02*
Y376187D01*
X155250D02*
Y378687D01*
Y377750D02*
X155563Y378375D01*
X156187Y378687D01*
X156813D01*
X157437Y378375D01*
X162750Y376500D02*
X162437Y376187D01*
X161813D01*
X161187D01*
X160563Y376500D01*
X160250Y377125D01*
Y378063D01*
X160563Y378375D01*
X161187Y378687D01*
X161813D01*
X162437Y378375D01*
X162750Y378063D01*
Y377750D01*
X162437Y377437D01*
X161813Y377125D01*
X161187D01*
X160563Y377437D01*
X160250Y377750D01*
X165250Y376187D02*
Y378687D01*
Y377750D02*
X165563Y378375D01*
X166187Y378687D01*
X166813D01*
X167437Y378375D01*
X167750Y377750D01*
Y376187D01*
X172750Y378375D02*
X172125Y378687D01*
X171187D01*
X170563Y378375D01*
X170250Y377750D01*
Y377125D01*
X170563Y376500D01*
X171187Y376187D01*
X172125D01*
X172750Y376500D01*
X177750D02*
X177437Y376187D01*
X176813D01*
X176187D01*
X175563Y376500D01*
X175250Y377125D01*
Y378063D01*
X175563Y378375D01*
X176187Y378687D01*
X176813D01*
X177437Y378375D01*
X177750Y378063D01*
Y377750D01*
X177437Y377437D01*
X176813Y377125D01*
X176187D01*
X175563Y377437D01*
X175250Y377750D01*
X187437Y378063D02*
X188063Y377750D01*
X188375Y377125D01*
X188063Y376500D01*
X187437Y376187D01*
X185250D01*
Y379937D01*
X187437D01*
X188063Y379625D01*
X188375Y379000D01*
X188063Y378375D01*
X187437Y378063D01*
X185250D01*
X190250Y378375D02*
X190875Y378687D01*
X191813D01*
X192437Y378375D01*
X192750Y377750D01*
Y376813D01*
X192437Y376500D01*
X191813Y376187D01*
X191187D01*
X190563Y376500D01*
X190250Y376813D01*
Y377125D01*
X190563Y377437D01*
X191187Y377750D01*
X191813D01*
X192437Y377437D01*
X192750Y377125D01*
Y376813D02*
Y376187D01*
X195250D02*
Y378687D01*
Y377750D02*
X195563Y378375D01*
X196187Y378687D01*
X196813D01*
X197437Y378375D01*
X200250Y376187D02*
Y379937D01*
Y377437D02*
X201187D01*
X202750Y378687D01*
X201187Y377437D02*
X202750Y376187D01*
X207750Y376500D02*
X207437Y376187D01*
X206813D01*
X206187D01*
X205563Y376500D01*
X205250Y377125D01*
Y378063D01*
X205563Y378375D01*
X206187Y378687D01*
X206813D01*
X207437Y378375D01*
X207750Y378063D01*
Y377750D01*
X207437Y377437D01*
X206813Y377125D01*
X206187D01*
X205563Y377437D01*
X205250Y377750D01*
X210250Y376187D02*
Y378687D01*
Y377750D02*
X210563Y378375D01*
X211187Y378687D01*
X211813D01*
X212437Y378375D01*
X222437Y377750D02*
X223375D01*
Y377437D01*
X223063Y376813D01*
X222750Y376500D01*
X222125Y376187D01*
X221500D01*
X220875Y376500D01*
X220563Y376813D01*
X220250Y377437D01*
Y378687D01*
X220563Y379313D01*
X220875Y379625D01*
X221500Y379937D01*
X222125D01*
X222750Y379625D01*
X223063Y379313D01*
X223375Y378687D01*
X226187Y378063D02*
X226813D01*
X227437Y378375D01*
X227750Y379000D01*
X227437Y379625D01*
X226813Y379937D01*
X226187D01*
X225563Y379625D01*
X225250Y379000D01*
X225563Y378375D01*
X226187Y378063D01*
X225563Y377750D01*
X225250Y377125D01*
X225563Y376500D01*
X226187Y376187D01*
X226813D01*
X227437Y376500D01*
X227750Y377125D01*
X227437Y377750D01*
X226813Y378063D01*
X230250Y376187D02*
Y379937D01*
X233375Y376187D01*
Y379937D01*
X235250Y376813D02*
X235563Y376500D01*
X236187Y376187D01*
X236813Y376500D01*
X237125Y376813D01*
Y379937D01*
X237750D01*
X237125D02*
X235875D01*
X240250Y376813D02*
X240563Y376500D01*
X241187Y376187D01*
X241813Y376500D01*
X242125Y376813D01*
Y379937D01*
X242750D01*
X242125D02*
X240875D01*
X167750Y18281D02*
Y16406D01*
Y17344D02*
X167281D01*
X166187Y16406D01*
X167281Y17344D02*
X166187Y18281D01*
X167750Y28281D02*
Y26406D01*
Y27344D02*
X167281D01*
X166187Y26406D01*
X167281Y27344D02*
X166187Y28281D01*
X167750Y38281D02*
Y36406D01*
Y37344D02*
X167281D01*
X166187Y36406D01*
X167281Y37344D02*
X166187Y38281D01*
X167750Y48281D02*
Y46406D01*
Y47344D02*
X167281D01*
X166187Y46406D01*
X167281Y47344D02*
X166187Y48281D01*
X167750Y58281D02*
Y56406D01*
Y57344D02*
X167281D01*
X166187Y56406D01*
X167281Y57344D02*
X166187Y58281D01*
X167750Y68281D02*
Y66406D01*
Y67344D02*
X167281D01*
X166187Y66406D01*
X167281Y67344D02*
X166187Y68281D01*
X167750Y78281D02*
Y76406D01*
Y77344D02*
X167281D01*
X166187Y76406D01*
X167281Y77344D02*
X166187Y78281D01*
X167750Y88281D02*
Y86406D01*
Y87344D02*
X167281D01*
X166187Y86406D01*
X167281Y87344D02*
X166187Y88281D01*
X167750Y138281D02*
Y136406D01*
Y137344D02*
X167281D01*
X166187Y136406D01*
X167281Y137344D02*
X166187Y138281D01*
X167750Y148281D02*
Y146406D01*
Y147344D02*
X167281D01*
X166187Y146406D01*
X167281Y147344D02*
X166187Y148281D01*
X167750Y158281D02*
Y156406D01*
Y157344D02*
X167281D01*
X166187Y156406D01*
X167281Y157344D02*
X166187Y158281D01*
X167750Y168281D02*
Y166406D01*
Y167344D02*
X167281D01*
X166187Y166406D01*
X167281Y167344D02*
X166187Y168281D01*
X167750Y178281D02*
Y176406D01*
Y177344D02*
X167281D01*
X166187Y176406D01*
X167281Y177344D02*
X166187Y178281D01*
X167750Y188281D02*
Y186406D01*
Y187344D02*
X167281D01*
X166187Y186406D01*
X167281Y187344D02*
X166187Y188281D01*
X167750Y198281D02*
Y196406D01*
Y197344D02*
X167281D01*
X166187Y196406D01*
X167281Y197344D02*
X166187Y198281D01*
X167750Y208281D02*
Y206406D01*
Y207344D02*
X167281D01*
X166187Y206406D01*
X167281Y207344D02*
X166187Y208281D01*
X167750Y258281D02*
Y256406D01*
Y257344D02*
X167281D01*
X166187Y256406D01*
X167281Y257344D02*
X166187Y258281D01*
X167750Y268281D02*
Y266406D01*
Y267344D02*
X167281D01*
X166187Y266406D01*
X167281Y267344D02*
X166187Y268281D01*
X167750Y278281D02*
Y276406D01*
Y277344D02*
X167281D01*
X166187Y276406D01*
X167281Y277344D02*
X166187Y278281D01*
X167750Y288281D02*
Y286406D01*
Y287344D02*
X167281D01*
X166187Y286406D01*
X167281Y287344D02*
X166187Y288281D01*
X167750Y298281D02*
Y296406D01*
Y297344D02*
X167281D01*
X166187Y296406D01*
X167281Y297344D02*
X166187Y298281D01*
X167750Y308281D02*
Y306406D01*
Y307344D02*
X167281D01*
X166187Y306406D01*
X167281Y307344D02*
X166187Y308281D01*
X167750Y318281D02*
Y316406D01*
Y317344D02*
X167281D01*
X166187Y316406D01*
X167281Y317344D02*
X166187Y318281D01*
X167750Y328281D02*
Y326406D01*
Y327344D02*
X167281D01*
X166187Y326406D01*
X167281Y327344D02*
X166187Y328281D01*
X200250Y9156D02*
X202594Y14781D01*
X204937Y9156D01*
X201187Y11500D02*
X204000D01*
X207750Y14781D02*
Y9156D01*
X212437D01*
X215250D02*
Y14781D01*
X219937D01*
X219000Y11969D02*
X215250D01*
Y9156D02*
X219937D01*
X222750D02*
X227437Y14781D01*
X222750D02*
X227437Y9156D01*
X240094D02*
Y14781D01*
X237750D02*
X242437D01*
X245250Y9156D02*
Y14781D01*
X249937D01*
X249000Y11969D02*
X245250D01*
Y9156D02*
X249937D01*
X252750Y10563D02*
X253219Y9625D01*
X254156Y9156D01*
X256031D01*
X256969Y9625D01*
X257437Y10563D01*
X256969Y11500D01*
X256031Y11969D01*
X254156D01*
X253219Y12437D01*
X252750Y13375D01*
X253219Y14313D01*
X254156Y14781D01*
X256031D01*
X256969Y14313D01*
X257437Y13375D01*
X262594Y9156D02*
Y14781D01*
X260250D02*
X264937D01*
X275250Y10094D02*
X275719Y9625D01*
X276656Y9156D01*
X277594Y9625D01*
X278063Y10094D01*
Y14781D01*
X279000D01*
X278063D02*
X276187D01*
X284156Y9156D02*
X286031D01*
X285094D02*
Y14781D01*
X284156D02*
X286031D01*
X293531Y11500D02*
X294937D01*
Y11031D01*
X294469Y10094D01*
X294000Y9625D01*
X293063Y9156D01*
X292125D01*
X291187Y9625D01*
X290719Y10094D01*
X290250Y11031D01*
Y12906D01*
X290719Y13844D01*
X291187Y14313D01*
X292125Y14781D01*
X293063D01*
X294000Y14313D01*
X294469Y13844D01*
X294937Y12906D01*
X205250Y260906D02*
Y263531D01*
X207437Y260906D01*
Y263531D01*
X210937Y261344D02*
X210719Y261125D01*
X210281Y260906D01*
X209625D01*
X209187Y261125D01*
X208969Y261344D01*
X208750Y261781D01*
Y262656D01*
X208969Y263094D01*
X209187Y263313D01*
X209625Y263531D01*
X210281D01*
X210719Y263313D01*
X210937Y263094D01*
X205250Y270906D02*
Y273531D01*
X207437Y270906D01*
Y273531D01*
X210937Y271344D02*
X210719Y271125D01*
X210281Y270906D01*
X209625D01*
X209187Y271125D01*
X208969Y271344D01*
X208750Y271781D01*
Y272656D01*
X208969Y273094D01*
X209187Y273313D01*
X209625Y273531D01*
X210281D01*
X210719Y273313D01*
X210937Y273094D01*
X206344Y280906D02*
Y283531D01*
X205250D02*
X207437D01*
X208750Y280906D02*
X210937Y283531D01*
X208750D02*
X210937Y280906D01*
X212250D02*
Y283531D01*
X213781D01*
X214219Y283313D01*
X214437Y282875D01*
X214219Y282437D01*
X213781Y282219D01*
X212250D01*
X213781D02*
X214437Y280906D01*
X215750D02*
X217937Y283531D01*
X215750D02*
X217937Y280906D01*
X219250D02*
X221437D01*
X222750Y281563D02*
X222969Y281125D01*
X223406Y280906D01*
X224281D01*
X224719Y281125D01*
X224937Y281563D01*
X224719Y282000D01*
X224281Y282219D01*
X223406D01*
X222969Y282437D01*
X222750Y282875D01*
X222969Y283313D01*
X223406Y283531D01*
X224281D01*
X224719Y283313D01*
X224937Y282875D01*
X227344Y280906D02*
Y283531D01*
X226250D02*
X228437D01*
X229750Y280906D02*
X230844Y283531D01*
X231937Y280906D01*
X230187Y282000D02*
X231500D01*
X234344Y280906D02*
Y283531D01*
X233250D02*
X235437D01*
X236750D02*
Y281563D01*
X236969Y281125D01*
X237406Y280906D01*
X238281D01*
X238719Y281125D01*
X238937Y281563D01*
Y283531D01*
X240250Y281563D02*
X240469Y281125D01*
X240906Y280906D01*
X241781D01*
X242219Y281125D01*
X242437Y281563D01*
X242219Y282000D01*
X241781Y282219D01*
X240906D01*
X240469Y282437D01*
X240250Y282875D01*
X240469Y283313D01*
X240906Y283531D01*
X241781D01*
X242219Y283313D01*
X242437Y282875D01*
X206344Y290906D02*
Y292219D01*
X205250Y293531D01*
X206344Y292219D02*
X207437Y293531D01*
X208750Y290906D02*
Y293531D01*
X210937D01*
X210500Y292219D02*
X208750D01*
Y290906D02*
X210937D01*
X212250Y293531D02*
Y290906D01*
X214437D01*
X215750Y293531D02*
Y290906D01*
X217937D01*
X219250Y291781D02*
Y292656D01*
X219469Y293094D01*
X219687Y293313D01*
X220125Y293531D01*
X220563D01*
X221000Y293313D01*
X221219Y293094D01*
X221437Y292656D01*
Y291781D01*
X221219Y291344D01*
X221000Y291125D01*
X220563Y290906D01*
X220125D01*
X219687Y291125D01*
X219469Y291344D01*
X219250Y291781D01*
X222750Y293531D02*
X222969Y290906D01*
X223844Y292219D01*
X224719Y290906D01*
X224937Y293531D01*
X207000Y300906D02*
X205250D01*
X206781Y302437D01*
X207000Y302875D01*
X206781Y303313D01*
X206344Y303531D01*
X205687D01*
X205250Y303313D01*
X208969Y301125D02*
X209406Y300906D01*
X209844D01*
X210281Y301125D01*
X210500Y301563D01*
Y302875D01*
X210281Y303313D01*
X209844Y303531D01*
X209406D01*
X208969Y303313D01*
X208750Y302875D01*
Y301563D01*
X208969Y301125D01*
X210281Y303313D01*
X212250Y301781D02*
X214000D01*
X215969Y301125D02*
X216406Y300906D01*
X216844D01*
X217281Y301125D01*
X217500Y301563D01*
X217281Y302000D01*
X216844Y302219D01*
X216406D01*
X216844D02*
X217281Y302437D01*
X217500Y302875D01*
X217281Y303313D01*
X216844Y303531D01*
X216406D01*
X215969Y303313D01*
X219469Y301125D02*
X219906Y300906D01*
X220344D01*
X220781Y301125D01*
X221000Y301563D01*
Y302875D01*
X220781Y303313D01*
X220344Y303531D01*
X219906D01*
X219469Y303313D01*
X219250Y302875D01*
Y301563D01*
X219469Y301125D01*
X220781Y303313D01*
X222750Y300906D02*
Y303531D01*
X223844Y302219D01*
X224937Y303531D01*
Y300906D01*
X229750Y303531D02*
Y300906D01*
X231937D01*
X233250D02*
Y303531D01*
X234781D01*
X235219Y303313D01*
X235437Y302875D01*
X235219Y302437D01*
X234781Y302219D01*
X233250D01*
X236750Y300906D02*
Y303531D01*
X238937D01*
X238500Y302219D02*
X236750D01*
X206344Y310906D02*
Y313531D01*
X205250Y311781D01*
X207000D01*
X208969Y311125D02*
X209406Y310906D01*
X209844D01*
X210281Y311125D01*
X210500Y311563D01*
Y312875D01*
X210281Y313313D01*
X209844Y313531D01*
X209406D01*
X208969Y313313D01*
X208750Y312875D01*
Y311563D01*
X208969Y311125D01*
X210281Y313313D01*
X212250Y311781D02*
X214000D01*
X215750Y311563D02*
X215969Y312000D01*
X216406Y312219D01*
X216844D01*
X217281Y312000D01*
X217500Y311563D01*
X217281Y311125D01*
X216844Y310906D01*
X216406D01*
X215969Y311125D01*
X215750Y311563D01*
Y312219D01*
X215969Y312875D01*
X216406Y313313D01*
X216844Y313531D01*
X219469Y311125D02*
X219906Y310906D01*
X220344D01*
X220781Y311125D01*
X221000Y311563D01*
Y312875D01*
X220781Y313313D01*
X220344Y313531D01*
X219906D01*
X219469Y313313D01*
X219250Y312875D01*
Y311563D01*
X219469Y311125D01*
X220781Y313313D01*
X222750Y310906D02*
Y313531D01*
X223844Y312219D01*
X224937Y313531D01*
Y310906D01*
X229750Y313531D02*
Y310906D01*
X231937D01*
X233250D02*
Y313531D01*
X234781D01*
X235219Y313313D01*
X235437Y312875D01*
X235219Y312437D01*
X234781Y312219D01*
X233250D01*
X236750Y310906D02*
Y313531D01*
X238937D01*
X238500Y312219D02*
X236750D01*
X205906Y322219D02*
X206344D01*
X206781Y322437D01*
X207000Y322875D01*
X206781Y323313D01*
X206344Y323531D01*
X205906D01*
X205469Y323313D01*
X205250Y322875D01*
X205469Y322437D01*
X205906Y322219D01*
X205469Y322000D01*
X205250Y321563D01*
X205469Y321125D01*
X205906Y320906D01*
X206344D01*
X206781Y321125D01*
X207000Y321563D01*
X206781Y322000D01*
X206344Y322219D01*
X208969Y321125D02*
X209406Y320906D01*
X209844D01*
X210281Y321125D01*
X210500Y321563D01*
Y322875D01*
X210281Y323313D01*
X209844Y323531D01*
X209406D01*
X208969Y323313D01*
X208750Y322875D01*
Y321563D01*
X208969Y321125D01*
X210281Y323313D01*
X212250Y320906D02*
Y323531D01*
X213344Y322219D01*
X214437Y323531D01*
Y320906D01*
X219250Y323531D02*
Y320906D01*
X221437D01*
X222750D02*
Y323531D01*
X224281D01*
X224719Y323313D01*
X224937Y322875D01*
X224719Y322437D01*
X224281Y322219D01*
X222750D01*
X226250Y320906D02*
Y323531D01*
X228437D01*
X228000Y322219D02*
X226250D01*
X205687Y330906D02*
X206563D01*
X206125D02*
Y333531D01*
X205687Y333094D01*
X208750Y331563D02*
X208969Y332000D01*
X209406Y332219D01*
X209844D01*
X210281Y332000D01*
X210500Y331563D01*
X210281Y331125D01*
X209844Y330906D01*
X209406D01*
X208969Y331125D01*
X208750Y331563D01*
Y332219D01*
X208969Y332875D01*
X209406Y333313D01*
X209844Y333531D01*
X212469Y331125D02*
X212906Y330906D01*
X213344D01*
X213781Y331125D01*
X214000Y331563D01*
Y332875D01*
X213781Y333313D01*
X213344Y333531D01*
X212906D01*
X212469Y333313D01*
X212250Y332875D01*
Y331563D01*
X212469Y331125D01*
X213781Y333313D01*
X215750Y330906D02*
Y333531D01*
X216844Y332219D01*
X217937Y333531D01*
Y330906D01*
X222750Y333531D02*
Y330906D01*
X224937D01*
X226250D02*
Y333531D01*
X227781D01*
X228219Y333313D01*
X228437Y332875D01*
X228219Y332437D01*
X227781Y332219D01*
X226250D01*
X229750Y330906D02*
Y333531D01*
X231937D01*
X231500Y332219D02*
X229750D01*
X208844Y23406D02*
Y24719D01*
X207750Y26031D01*
X208844Y24719D02*
X209937Y26031D01*
X211250Y23406D02*
Y26031D01*
X213437D01*
X213000Y24719D02*
X211250D01*
Y23406D02*
X213437D01*
X214750Y26031D02*
Y23406D01*
X216937D01*
X218250Y26031D02*
Y23406D01*
X220437D01*
X221750Y24281D02*
Y25156D01*
X221969Y25594D01*
X222187Y25813D01*
X222625Y26031D01*
X223063D01*
X223500Y25813D01*
X223719Y25594D01*
X223937Y25156D01*
Y24281D01*
X223719Y23844D01*
X223500Y23625D01*
X223063Y23406D01*
X222625D01*
X222187Y23625D01*
X221969Y23844D01*
X221750Y24281D01*
X225250Y26031D02*
X225469Y23406D01*
X226344Y24719D01*
X227219Y23406D01*
X227437Y26031D01*
X208187Y33406D02*
X209063D01*
X208625D02*
Y36031D01*
X208187Y35594D01*
X211469Y33625D02*
X211906Y33406D01*
X212344D01*
X212781Y33625D01*
X213000Y34063D01*
Y35375D01*
X212781Y35813D01*
X212344Y36031D01*
X211906D01*
X211469Y35813D01*
X211250Y35375D01*
Y34063D01*
X211469Y33625D01*
X212781Y35813D01*
X214750Y34281D02*
X216500D01*
X220000Y33406D02*
X218250D01*
X219781Y34937D01*
X220000Y35375D01*
X219781Y35813D01*
X219344Y36031D01*
X218687D01*
X218250Y35813D01*
X223500Y33406D02*
X221750D01*
X223281Y34937D01*
X223500Y35375D01*
X223281Y35813D01*
X222844Y36031D01*
X222187D01*
X221750Y35813D01*
X225250Y33406D02*
Y36031D01*
X226344Y34719D01*
X227437Y36031D01*
Y33406D01*
X228750D02*
Y36031D01*
Y34719D02*
X230937D01*
Y33406D02*
Y36031D01*
X232250Y35156D02*
X234000D01*
X232250Y33406D01*
X234000D01*
X240781Y34719D02*
X241219Y34500D01*
X241437Y34063D01*
X241219Y33625D01*
X240781Y33406D01*
X239250D01*
Y36031D01*
X240781D01*
X241219Y35813D01*
X241437Y35375D01*
X241219Y34937D01*
X240781Y34719D01*
X239250D01*
X242750Y33406D02*
Y36031D01*
X244281D01*
X244719Y35813D01*
X244937Y35375D01*
X244719Y34937D01*
X244281Y34719D01*
X242750D01*
X246250Y33406D02*
Y36031D01*
X248437D01*
X248000Y34719D02*
X246250D01*
X209500Y43406D02*
X207750D01*
X209281Y44937D01*
X209500Y45375D01*
X209281Y45813D01*
X208844Y46031D01*
X208187D01*
X207750Y45813D01*
X213000Y43406D02*
X211250D01*
X212781Y44937D01*
X213000Y45375D01*
X212781Y45813D01*
X212344Y46031D01*
X211687D01*
X211250Y45813D01*
X214750Y44281D02*
X216500D01*
X218469Y43625D02*
X218906Y43406D01*
X219344D01*
X219781Y43625D01*
X220000Y44063D01*
X219781Y44500D01*
X219344Y44719D01*
X218906D01*
X219344D02*
X219781Y44937D01*
X220000Y45375D01*
X219781Y45813D01*
X219344Y46031D01*
X218906D01*
X218469Y45813D01*
X221750Y43625D02*
X222187Y43406D01*
X222844D01*
X223281Y43625D01*
X223500Y44063D01*
Y44281D01*
X223281Y44719D01*
X222844Y44937D01*
X221750D01*
Y46031D01*
X223500D01*
X225250Y43406D02*
Y46031D01*
X226344Y44719D01*
X227437Y46031D01*
Y43406D01*
X228750D02*
Y46031D01*
Y44719D02*
X230937D01*
Y43406D02*
Y46031D01*
X232250Y45156D02*
X234000D01*
X232250Y43406D01*
X234000D01*
X240781Y44719D02*
X241219Y44500D01*
X241437Y44063D01*
X241219Y43625D01*
X240781Y43406D01*
X239250D01*
Y46031D01*
X240781D01*
X241219Y45813D01*
X241437Y45375D01*
X241219Y44937D01*
X240781Y44719D01*
X239250D01*
X242750Y43406D02*
Y46031D01*
X244281D01*
X244719Y45813D01*
X244937Y45375D01*
X244719Y44937D01*
X244281Y44719D01*
X242750D01*
X246250Y43406D02*
Y46031D01*
X248437D01*
X248000Y44719D02*
X246250D01*
X207750Y53625D02*
X208187Y53406D01*
X208844D01*
X209281Y53625D01*
X209500Y54063D01*
Y54281D01*
X209281Y54719D01*
X208844Y54937D01*
X207750D01*
Y56031D01*
X209500D01*
X211469Y53625D02*
X211906Y53406D01*
X212344D01*
X212781Y53625D01*
X213000Y54063D01*
Y55375D01*
X212781Y55813D01*
X212344Y56031D01*
X211906D01*
X211469Y55813D01*
X211250Y55375D01*
Y54063D01*
X211469Y53625D01*
X212781Y55813D01*
X214750Y53406D02*
Y56031D01*
X215844Y54719D01*
X216937Y56031D01*
Y53406D01*
X218250D02*
Y56031D01*
Y54719D02*
X220437D01*
Y53406D02*
Y56031D01*
X221750Y55156D02*
X223500D01*
X221750Y53406D01*
X223500D01*
X230281Y54719D02*
X230719Y54500D01*
X230937Y54063D01*
X230719Y53625D01*
X230281Y53406D01*
X228750D01*
Y56031D01*
X230281D01*
X230719Y55813D01*
X230937Y55375D01*
X230719Y54937D01*
X230281Y54719D01*
X228750D01*
X232250Y53406D02*
Y56031D01*
X233781D01*
X234219Y55813D01*
X234437Y55375D01*
X234219Y54937D01*
X233781Y54719D01*
X232250D01*
X235750Y53406D02*
Y56031D01*
X237937D01*
X237500Y54719D02*
X235750D01*
X207750Y64063D02*
X207969Y64500D01*
X208406Y64719D01*
X208844D01*
X209281Y64500D01*
X209500Y64063D01*
X209281Y63625D01*
X208844Y63406D01*
X208406D01*
X207969Y63625D01*
X207750Y64063D01*
Y64719D01*
X207969Y65375D01*
X208406Y65813D01*
X208844Y66031D01*
X211250Y64281D02*
X213000D01*
X215187Y63406D02*
X216063D01*
X215625D02*
Y66031D01*
X215187Y65594D01*
X218469Y63625D02*
X218906Y63406D01*
X219344D01*
X219781Y63625D01*
X220000Y64063D01*
Y65375D01*
X219781Y65813D01*
X219344Y66031D01*
X218906D01*
X218469Y65813D01*
X218250Y65375D01*
Y64063D01*
X218469Y63625D01*
X219781Y65813D01*
X221750Y63406D02*
Y66031D01*
X222844Y64719D01*
X223937Y66031D01*
Y63406D01*
X225250D02*
Y66031D01*
Y64719D02*
X227437D01*
Y63406D02*
Y66031D01*
X228750Y65156D02*
X230500D01*
X228750Y63406D01*
X230500D01*
X237281Y64719D02*
X237719Y64500D01*
X237937Y64063D01*
X237719Y63625D01*
X237281Y63406D01*
X235750D01*
Y66031D01*
X237281D01*
X237719Y65813D01*
X237937Y65375D01*
X237719Y64937D01*
X237281Y64719D01*
X235750D01*
X239250Y63406D02*
Y66031D01*
X240781D01*
X241219Y65813D01*
X241437Y65375D01*
X241219Y64937D01*
X240781Y64719D01*
X239250D01*
X242750Y63406D02*
Y66031D01*
X244937D01*
X244500Y64719D02*
X242750D01*
X209500Y73406D02*
X207750D01*
X209281Y74937D01*
X209500Y75375D01*
X209281Y75813D01*
X208844Y76031D01*
X208187D01*
X207750Y75813D01*
X211469Y73406D02*
X211687Y73625D01*
X211469Y73844D01*
X211250Y73625D01*
X211469Y73406D01*
X214750Y74063D02*
X214969Y74500D01*
X215406Y74719D01*
X215844D01*
X216281Y74500D01*
X216500Y74063D01*
X216281Y73625D01*
X215844Y73406D01*
X215406D01*
X214969Y73625D01*
X214750Y74063D01*
Y74719D01*
X214969Y75375D01*
X215406Y75813D01*
X215844Y76031D01*
X218250Y74281D02*
X220000D01*
X221750Y74063D02*
X221969Y74500D01*
X222406Y74719D01*
X222844D01*
X223281Y74500D01*
X223500Y74063D01*
X223281Y73625D01*
X222844Y73406D01*
X222406D01*
X221969Y73625D01*
X221750Y74063D01*
Y74719D01*
X221969Y75375D01*
X222406Y75813D01*
X222844Y76031D01*
X225250Y73406D02*
Y76031D01*
X226344Y74719D01*
X227437Y76031D01*
Y73406D01*
X228750D02*
Y76031D01*
Y74719D02*
X230937D01*
Y73406D02*
Y76031D01*
X232250Y75156D02*
X234000D01*
X232250Y73406D01*
X234000D01*
X240781Y74719D02*
X241219Y74500D01*
X241437Y74063D01*
X241219Y73625D01*
X240781Y73406D01*
X239250D01*
Y76031D01*
X240781D01*
X241219Y75813D01*
X241437Y75375D01*
X241219Y74937D01*
X240781Y74719D01*
X239250D01*
X242750Y73406D02*
Y76031D01*
X244281D01*
X244719Y75813D01*
X244937Y75375D01*
X244719Y74937D01*
X244281Y74719D01*
X242750D01*
X246250Y73406D02*
Y76031D01*
X248437D01*
X248000Y74719D02*
X246250D01*
X208187Y83406D02*
X209063D01*
X208625D02*
Y86031D01*
X208187Y85594D01*
X211250Y84281D02*
X213000D01*
X216500Y83406D02*
X214750D01*
X216281Y84937D01*
X216500Y85375D01*
X216281Y85813D01*
X215844Y86031D01*
X215187D01*
X214750Y85813D01*
X218469Y83406D02*
X218687Y83625D01*
X218469Y83844D01*
X218250Y83625D01*
X218469Y83406D01*
X221750Y83625D02*
X222187Y83406D01*
X222844D01*
X223281Y83625D01*
X223500Y84063D01*
Y84281D01*
X223281Y84719D01*
X222844Y84937D01*
X221750D01*
Y86031D01*
X223500D01*
X225250Y83406D02*
Y86031D01*
X226344Y84719D01*
X227437Y86031D01*
Y83406D01*
X228750D02*
Y86031D01*
Y84719D02*
X230937D01*
Y83406D02*
Y86031D01*
X232250Y85156D02*
X234000D01*
X232250Y83406D01*
X234000D01*
X240781Y84719D02*
X241219Y84500D01*
X241437Y84063D01*
X241219Y83625D01*
X240781Y83406D01*
X239250D01*
Y86031D01*
X240781D01*
X241219Y85813D01*
X241437Y85375D01*
X241219Y84937D01*
X240781Y84719D01*
X239250D01*
X242750Y83406D02*
Y86031D01*
X244281D01*
X244719Y85813D01*
X244937Y85375D01*
X244719Y84937D01*
X244281Y84719D01*
X242750D01*
X246250Y83406D02*
Y86031D01*
X248437D01*
X248000Y84719D02*
X246250D01*
X207750Y93406D02*
Y96031D01*
X209937Y93406D01*
Y96031D01*
X211250Y93406D02*
X212344Y96031D01*
X213437Y93406D01*
X211687Y94500D02*
X213000D01*
X208844Y140906D02*
Y142219D01*
X207750Y143531D01*
X208844Y142219D02*
X209937Y143531D01*
X211250Y140906D02*
Y143531D01*
X213437D01*
X213000Y142219D02*
X211250D01*
Y140906D02*
X213437D01*
X214750Y143531D02*
Y140906D01*
X216937D01*
X218250Y143531D02*
Y140906D01*
X220437D01*
X221750Y141781D02*
Y142656D01*
X221969Y143094D01*
X222187Y143313D01*
X222625Y143531D01*
X223063D01*
X223500Y143313D01*
X223719Y143094D01*
X223937Y142656D01*
Y141781D01*
X223719Y141344D01*
X223500Y141125D01*
X223063Y140906D01*
X222625D01*
X222187Y141125D01*
X221969Y141344D01*
X221750Y141781D01*
X225250Y143531D02*
X225469Y140906D01*
X226344Y142219D01*
X227219Y140906D01*
X227437Y143531D01*
X208187Y150906D02*
X209063D01*
X208625D02*
Y153531D01*
X208187Y153094D01*
X211469Y151125D02*
X211906Y150906D01*
X212344D01*
X212781Y151125D01*
X213000Y151563D01*
Y152875D01*
X212781Y153313D01*
X212344Y153531D01*
X211906D01*
X211469Y153313D01*
X211250Y152875D01*
Y151563D01*
X211469Y151125D01*
X212781Y153313D01*
X214750Y151781D02*
X216500D01*
X220000Y150906D02*
X218250D01*
X219781Y152437D01*
X220000Y152875D01*
X219781Y153313D01*
X219344Y153531D01*
X218687D01*
X218250Y153313D01*
X223500Y150906D02*
X221750D01*
X223281Y152437D01*
X223500Y152875D01*
X223281Y153313D01*
X222844Y153531D01*
X222187D01*
X221750Y153313D01*
X225250Y150906D02*
Y153531D01*
X226344Y152219D01*
X227437Y153531D01*
Y150906D01*
X228750D02*
Y153531D01*
Y152219D02*
X230937D01*
Y150906D02*
Y153531D01*
X232250Y152656D02*
X234000D01*
X232250Y150906D01*
X234000D01*
X240781Y152219D02*
X241219Y152000D01*
X241437Y151563D01*
X241219Y151125D01*
X240781Y150906D01*
X239250D01*
Y153531D01*
X240781D01*
X241219Y153313D01*
X241437Y152875D01*
X241219Y152437D01*
X240781Y152219D01*
X239250D01*
X242750Y150906D02*
Y153531D01*
X244281D01*
X244719Y153313D01*
X244937Y152875D01*
X244719Y152437D01*
X244281Y152219D01*
X242750D01*
X246250Y150906D02*
Y153531D01*
X248437D01*
X248000Y152219D02*
X246250D01*
X209500Y160906D02*
X207750D01*
X209281Y162437D01*
X209500Y162875D01*
X209281Y163313D01*
X208844Y163531D01*
X208187D01*
X207750Y163313D01*
X213000Y160906D02*
X211250D01*
X212781Y162437D01*
X213000Y162875D01*
X212781Y163313D01*
X212344Y163531D01*
X211687D01*
X211250Y163313D01*
X214750Y161781D02*
X216500D01*
X218469Y161125D02*
X218906Y160906D01*
X219344D01*
X219781Y161125D01*
X220000Y161563D01*
X219781Y162000D01*
X219344Y162219D01*
X218906D01*
X219344D02*
X219781Y162437D01*
X220000Y162875D01*
X219781Y163313D01*
X219344Y163531D01*
X218906D01*
X218469Y163313D01*
X221750Y161125D02*
X222187Y160906D01*
X222844D01*
X223281Y161125D01*
X223500Y161563D01*
Y161781D01*
X223281Y162219D01*
X222844Y162437D01*
X221750D01*
Y163531D01*
X223500D01*
X225250Y160906D02*
Y163531D01*
X226344Y162219D01*
X227437Y163531D01*
Y160906D01*
X228750D02*
Y163531D01*
Y162219D02*
X230937D01*
Y160906D02*
Y163531D01*
X232250Y162656D02*
X234000D01*
X232250Y160906D01*
X234000D01*
X240781Y162219D02*
X241219Y162000D01*
X241437Y161563D01*
X241219Y161125D01*
X240781Y160906D01*
X239250D01*
Y163531D01*
X240781D01*
X241219Y163313D01*
X241437Y162875D01*
X241219Y162437D01*
X240781Y162219D01*
X239250D01*
X242750Y160906D02*
Y163531D01*
X244281D01*
X244719Y163313D01*
X244937Y162875D01*
X244719Y162437D01*
X244281Y162219D01*
X242750D01*
X246250Y160906D02*
Y163531D01*
X248437D01*
X248000Y162219D02*
X246250D01*
X207750Y171125D02*
X208187Y170906D01*
X208844D01*
X209281Y171125D01*
X209500Y171563D01*
Y171781D01*
X209281Y172219D01*
X208844Y172437D01*
X207750D01*
Y173531D01*
X209500D01*
X211469Y171125D02*
X211906Y170906D01*
X212344D01*
X212781Y171125D01*
X213000Y171563D01*
Y172875D01*
X212781Y173313D01*
X212344Y173531D01*
X211906D01*
X211469Y173313D01*
X211250Y172875D01*
Y171563D01*
X211469Y171125D01*
X212781Y173313D01*
X214750Y170906D02*
Y173531D01*
X215844Y172219D01*
X216937Y173531D01*
Y170906D01*
X218250D02*
Y173531D01*
Y172219D02*
X220437D01*
Y170906D02*
Y173531D01*
X221750Y172656D02*
X223500D01*
X221750Y170906D01*
X223500D01*
X230281Y172219D02*
X230719Y172000D01*
X230937Y171563D01*
X230719Y171125D01*
X230281Y170906D01*
X228750D01*
Y173531D01*
X230281D01*
X230719Y173313D01*
X230937Y172875D01*
X230719Y172437D01*
X230281Y172219D01*
X228750D01*
X232250Y170906D02*
Y173531D01*
X233781D01*
X234219Y173313D01*
X234437Y172875D01*
X234219Y172437D01*
X233781Y172219D01*
X232250D01*
X235750Y170906D02*
Y173531D01*
X237937D01*
X237500Y172219D02*
X235750D01*
X207750Y181563D02*
X207969Y182000D01*
X208406Y182219D01*
X208844D01*
X209281Y182000D01*
X209500Y181563D01*
X209281Y181125D01*
X208844Y180906D01*
X208406D01*
X207969Y181125D01*
X207750Y181563D01*
Y182219D01*
X207969Y182875D01*
X208406Y183313D01*
X208844Y183531D01*
X211250Y181781D02*
X213000D01*
X215187Y180906D02*
X216063D01*
X215625D02*
Y183531D01*
X215187Y183094D01*
X218469Y181125D02*
X218906Y180906D01*
X219344D01*
X219781Y181125D01*
X220000Y181563D01*
Y182875D01*
X219781Y183313D01*
X219344Y183531D01*
X218906D01*
X218469Y183313D01*
X218250Y182875D01*
Y181563D01*
X218469Y181125D01*
X219781Y183313D01*
X221750Y180906D02*
Y183531D01*
X222844Y182219D01*
X223937Y183531D01*
Y180906D01*
X225250D02*
Y183531D01*
Y182219D02*
X227437D01*
Y180906D02*
Y183531D01*
X228750Y182656D02*
X230500D01*
X228750Y180906D01*
X230500D01*
X237281Y182219D02*
X237719Y182000D01*
X237937Y181563D01*
X237719Y181125D01*
X237281Y180906D01*
X235750D01*
Y183531D01*
X237281D01*
X237719Y183313D01*
X237937Y182875D01*
X237719Y182437D01*
X237281Y182219D01*
X235750D01*
X239250Y180906D02*
Y183531D01*
X240781D01*
X241219Y183313D01*
X241437Y182875D01*
X241219Y182437D01*
X240781Y182219D01*
X239250D01*
X242750Y180906D02*
Y183531D01*
X244937D01*
X244500Y182219D02*
X242750D01*
X209500Y190906D02*
X207750D01*
X209281Y192437D01*
X209500Y192875D01*
X209281Y193313D01*
X208844Y193531D01*
X208187D01*
X207750Y193313D01*
X211469Y190906D02*
X211687Y191125D01*
X211469Y191344D01*
X211250Y191125D01*
X211469Y190906D01*
X214750Y191563D02*
X214969Y192000D01*
X215406Y192219D01*
X215844D01*
X216281Y192000D01*
X216500Y191563D01*
X216281Y191125D01*
X215844Y190906D01*
X215406D01*
X214969Y191125D01*
X214750Y191563D01*
Y192219D01*
X214969Y192875D01*
X215406Y193313D01*
X215844Y193531D01*
X218250Y191781D02*
X220000D01*
X221750Y191563D02*
X221969Y192000D01*
X222406Y192219D01*
X222844D01*
X223281Y192000D01*
X223500Y191563D01*
X223281Y191125D01*
X222844Y190906D01*
X222406D01*
X221969Y191125D01*
X221750Y191563D01*
Y192219D01*
X221969Y192875D01*
X222406Y193313D01*
X222844Y193531D01*
X225250Y190906D02*
Y193531D01*
X226344Y192219D01*
X227437Y193531D01*
Y190906D01*
X228750D02*
Y193531D01*
Y192219D02*
X230937D01*
Y190906D02*
Y193531D01*
X232250Y192656D02*
X234000D01*
X232250Y190906D01*
X234000D01*
X240781Y192219D02*
X241219Y192000D01*
X241437Y191563D01*
X241219Y191125D01*
X240781Y190906D01*
X239250D01*
Y193531D01*
X240781D01*
X241219Y193313D01*
X241437Y192875D01*
X241219Y192437D01*
X240781Y192219D01*
X239250D01*
X242750Y190906D02*
Y193531D01*
X244281D01*
X244719Y193313D01*
X244937Y192875D01*
X244719Y192437D01*
X244281Y192219D01*
X242750D01*
X246250Y190906D02*
Y193531D01*
X248437D01*
X248000Y192219D02*
X246250D01*
X208187Y200906D02*
X209063D01*
X208625D02*
Y203531D01*
X208187Y203094D01*
X211250Y201781D02*
X213000D01*
X216500Y200906D02*
X214750D01*
X216281Y202437D01*
X216500Y202875D01*
X216281Y203313D01*
X215844Y203531D01*
X215187D01*
X214750Y203313D01*
X218469Y200906D02*
X218687Y201125D01*
X218469Y201344D01*
X218250Y201125D01*
X218469Y200906D01*
X221750Y201125D02*
X222187Y200906D01*
X222844D01*
X223281Y201125D01*
X223500Y201563D01*
Y201781D01*
X223281Y202219D01*
X222844Y202437D01*
X221750D01*
Y203531D01*
X223500D01*
X225250Y200906D02*
Y203531D01*
X226344Y202219D01*
X227437Y203531D01*
Y200906D01*
X228750D02*
Y203531D01*
Y202219D02*
X230937D01*
Y200906D02*
Y203531D01*
X232250Y202656D02*
X234000D01*
X232250Y200906D01*
X234000D01*
X240781Y202219D02*
X241219Y202000D01*
X241437Y201563D01*
X241219Y201125D01*
X240781Y200906D01*
X239250D01*
Y203531D01*
X240781D01*
X241219Y203313D01*
X241437Y202875D01*
X241219Y202437D01*
X240781Y202219D01*
X239250D01*
X242750Y200906D02*
Y203531D01*
X244281D01*
X244719Y203313D01*
X244937Y202875D01*
X244719Y202437D01*
X244281Y202219D01*
X242750D01*
X246250Y200906D02*
Y203531D01*
X248437D01*
X248000Y202219D02*
X246250D01*
X207750Y210906D02*
Y213531D01*
X209937Y210906D01*
Y213531D01*
X211250Y210906D02*
X212344Y213531D01*
X213437Y210906D01*
X211687Y212000D02*
X213000D01*
X211813Y343687D02*
Y347437D01*
X210250D02*
X213375D01*
X215250Y343687D02*
X218375Y347437D01*
X215250D02*
X218375Y343687D01*
X212750Y221187D02*
Y224937D01*
X214937D01*
X215563Y224625D01*
X215875Y224000D01*
X215563Y223375D01*
X214937Y223063D01*
X212750D01*
X214937D02*
X215875Y221187D01*
X217750D02*
X220875Y224937D01*
X217750D02*
X220875Y221187D01*
X223375D02*
X224625D01*
X224000D02*
Y224937D01*
X223375Y224313D01*
X215250Y98687D02*
Y102437D01*
X217437D01*
X218063Y102125D01*
X218375Y101500D01*
X218063Y100875D01*
X217437Y100563D01*
X215250D01*
X217437D02*
X218375Y98687D01*
X220250D02*
X223375Y102437D01*
X220250D02*
X223375Y98687D01*
X227750D02*
X225250D01*
X227437Y100875D01*
X227750Y101500D01*
X227437Y102125D01*
X226813Y102437D01*
X225875D01*
X225250Y102125D01*
X300250Y18281D02*
Y16406D01*
Y17344D02*
X299781D01*
X298687Y16406D01*
X299781Y17344D02*
X298687Y18281D01*
X300250Y28281D02*
Y26406D01*
Y27344D02*
X299781D01*
X298687Y26406D01*
X299781Y27344D02*
X298687Y28281D01*
X300250Y38281D02*
Y36406D01*
Y37344D02*
X299781D01*
X298687Y36406D01*
X299781Y37344D02*
X298687Y38281D01*
X300250Y48281D02*
Y46406D01*
Y47344D02*
X299781D01*
X298687Y46406D01*
X299781Y47344D02*
X298687Y48281D01*
X300250Y58281D02*
Y56406D01*
Y57344D02*
X299781D01*
X298687Y56406D01*
X299781Y57344D02*
X298687Y58281D01*
X300250Y68281D02*
Y66406D01*
Y67344D02*
X299781D01*
X298687Y66406D01*
X299781Y67344D02*
X298687Y68281D01*
X300250Y78281D02*
Y76406D01*
Y77344D02*
X299781D01*
X298687Y76406D01*
X299781Y77344D02*
X298687Y78281D01*
X300250Y88281D02*
Y86406D01*
Y87344D02*
X299781D01*
X298687Y86406D01*
X299781Y87344D02*
X298687Y88281D01*
X300250Y143281D02*
Y141406D01*
Y142344D02*
X299781D01*
X298687Y141406D01*
X299781Y142344D02*
X298687Y143281D01*
X300250Y153281D02*
Y151406D01*
Y152344D02*
X299781D01*
X298687Y151406D01*
X299781Y152344D02*
X298687Y153281D01*
X300250Y163281D02*
Y161406D01*
Y162344D02*
X299781D01*
X298687Y161406D01*
X299781Y162344D02*
X298687Y163281D01*
X300250Y173281D02*
Y171406D01*
Y172344D02*
X299781D01*
X298687Y171406D01*
X299781Y172344D02*
X298687Y173281D01*
X300250Y183281D02*
Y181406D01*
Y182344D02*
X299781D01*
X298687Y181406D01*
X299781Y182344D02*
X298687Y183281D01*
X300250Y193281D02*
Y191406D01*
Y192344D02*
X299781D01*
X298687Y191406D01*
X299781Y192344D02*
X298687Y193281D01*
X300250Y203281D02*
Y201406D01*
Y202344D02*
X299781D01*
X298687Y201406D01*
X299781Y202344D02*
X298687Y203281D01*
X300250Y213281D02*
Y211406D01*
Y212344D02*
X299781D01*
X298687Y211406D01*
X299781Y212344D02*
X298687Y213281D01*
X300250Y258281D02*
Y256406D01*
Y257344D02*
X299781D01*
X298687Y256406D01*
X299781Y257344D02*
X298687Y258281D01*
X300250Y268281D02*
Y266406D01*
Y267344D02*
X299781D01*
X298687Y266406D01*
X299781Y267344D02*
X298687Y268281D01*
X300250Y278281D02*
Y276406D01*
Y277344D02*
X299781D01*
X298687Y276406D01*
X299781Y277344D02*
X298687Y278281D01*
X300250Y288281D02*
Y286406D01*
Y287344D02*
X299781D01*
X298687Y286406D01*
X299781Y287344D02*
X298687Y288281D01*
X300250Y298281D02*
Y296406D01*
Y297344D02*
X299781D01*
X298687Y296406D01*
X299781Y297344D02*
X298687Y298281D01*
X300250Y308281D02*
Y306406D01*
Y307344D02*
X299781D01*
X298687Y306406D01*
X299781Y307344D02*
X298687Y308281D01*
X300250Y318281D02*
Y316406D01*
Y317344D02*
X299781D01*
X298687Y316406D01*
X299781Y317344D02*
X298687Y318281D01*
X300250Y328281D02*
Y326406D01*
Y327344D02*
X299781D01*
X298687Y326406D01*
X299781Y327344D02*
X298687Y328281D01*
X340250Y148406D02*
X342437Y151031D01*
X340250D02*
X342437Y148406D01*
X343750Y151031D02*
X344844Y148406D01*
X345937Y151031D01*
X348344Y148406D02*
Y151031D01*
X347250D02*
X349437D01*
X350750Y148406D02*
Y151031D01*
X352281D01*
X352719Y150813D01*
X352937Y150375D01*
X352719Y149937D01*
X352281Y149719D01*
X350750D01*
X352281D02*
X352937Y148406D01*
X340250Y158406D02*
Y161031D01*
X342437D01*
X342000Y159719D02*
X340250D01*
Y158406D02*
X342437D01*
X343750D02*
X345937Y161031D01*
X343750D02*
X345937Y158406D01*
X348344D02*
Y161031D01*
X347250D02*
X349437D01*
X351187Y158406D02*
X352063D01*
X351625D02*
Y161031D01*
X351187Y160594D01*
X358406Y158406D02*
X359281D01*
X358844D02*
Y161031D01*
X358406D02*
X359281D01*
X361250Y158406D02*
Y161031D01*
X363437Y158406D01*
Y161031D01*
X340250Y168406D02*
Y171031D01*
X342437Y168406D01*
Y171031D01*
X343750Y168406D02*
X344844Y171031D01*
X345937Y168406D01*
X344187Y169500D02*
X345500D01*
X340250Y178406D02*
Y181031D01*
X341781D01*
X342219Y180813D01*
X342437Y180375D01*
X342219Y179937D01*
X341781Y179719D01*
X340250D01*
X343750Y179063D02*
X343969Y178625D01*
X344406Y178406D01*
X345281D01*
X345719Y178625D01*
X345937Y179063D01*
X345719Y179500D01*
X345281Y179719D01*
X344406D01*
X343969Y179937D01*
X343750Y180375D01*
X343969Y180813D01*
X344406Y181031D01*
X345281D01*
X345719Y180813D01*
X345937Y180375D01*
X350750Y178406D02*
Y181031D01*
X352281D01*
X352719Y180813D01*
X352937Y180375D01*
X352719Y179937D01*
X352281Y179719D01*
X350750D01*
X352281D02*
X352937Y178406D01*
X354250D02*
X356437Y181031D01*
X354250D02*
X356437Y178406D01*
X362781Y179719D02*
X363219Y179500D01*
X363437Y179063D01*
X363219Y178625D01*
X362781Y178406D01*
X361250D01*
Y181031D01*
X362781D01*
X363219Y180813D01*
X363437Y180375D01*
X363219Y179937D01*
X362781Y179719D01*
X361250D01*
X365844Y178406D02*
Y179719D01*
X364750Y181031D01*
X365844Y179719D02*
X366937Y181031D01*
X368250Y178406D02*
Y181031D01*
X369781D01*
X370219Y180813D01*
X370437Y180375D01*
X370219Y179937D01*
X369781Y179719D01*
X368250D01*
X371750Y178406D02*
X372844Y181031D01*
X373937Y178406D01*
X372187Y179500D02*
X373500D01*
X375250Y179063D02*
X375469Y178625D01*
X375906Y178406D01*
X376781D01*
X377219Y178625D01*
X377437Y179063D01*
X377219Y179500D01*
X376781Y179719D01*
X375906D01*
X375469Y179937D01*
X375250Y180375D01*
X375469Y180813D01*
X375906Y181031D01*
X376781D01*
X377219Y180813D01*
X377437Y180375D01*
X378750Y179063D02*
X378969Y178625D01*
X379406Y178406D01*
X380281D01*
X380719Y178625D01*
X380937Y179063D01*
X380719Y179500D01*
X380281Y179719D01*
X379406D01*
X378969Y179937D01*
X378750Y180375D01*
X378969Y180813D01*
X379406Y181031D01*
X380281D01*
X380719Y180813D01*
X380937Y180375D01*
X340250Y188406D02*
Y191031D01*
X341781D01*
X342219Y190813D01*
X342437Y190375D01*
X342219Y189937D01*
X341781Y189719D01*
X340250D01*
X341781D02*
X342437Y188406D01*
X343750D02*
X345937Y191031D01*
X343750D02*
X345937Y188406D01*
X347687D02*
X348563D01*
X348125D02*
Y191031D01*
X347687Y190594D01*
X354250Y188406D02*
Y191031D01*
X356437D01*
X356000Y189719D02*
X354250D01*
X357750Y191031D02*
Y188406D01*
X359937D01*
X362344D02*
Y191031D01*
X361250D02*
X363437D01*
X369781Y189719D02*
X370219Y189500D01*
X370437Y189063D01*
X370219Y188625D01*
X369781Y188406D01*
X368250D01*
Y191031D01*
X369781D01*
X370219Y190813D01*
X370437Y190375D01*
X370219Y189937D01*
X369781Y189719D01*
X368250D01*
X372844Y188406D02*
Y189719D01*
X371750Y191031D01*
X372844Y189719D02*
X373937Y191031D01*
X375250Y188406D02*
Y191031D01*
X376781D01*
X377219Y190813D01*
X377437Y190375D01*
X377219Y189937D01*
X376781Y189719D01*
X375250D01*
X378750Y188406D02*
X379844Y191031D01*
X380937Y188406D01*
X379187Y189500D02*
X380500D01*
X382250Y189063D02*
X382469Y188625D01*
X382906Y188406D01*
X383781D01*
X384219Y188625D01*
X384437Y189063D01*
X384219Y189500D01*
X383781Y189719D01*
X382906D01*
X382469Y189937D01*
X382250Y190375D01*
X382469Y190813D01*
X382906Y191031D01*
X383781D01*
X384219Y190813D01*
X384437Y190375D01*
X340250Y198406D02*
Y201031D01*
X342437Y198406D01*
Y201031D01*
X343750Y198406D02*
X344844Y201031D01*
X345937Y198406D01*
X344187Y199500D02*
X345500D01*
X340250Y208406D02*
Y211031D01*
X341781D01*
X342219Y210813D01*
X342437Y210375D01*
X342219Y209937D01*
X341781Y209719D01*
X340250D01*
X341781D02*
X342437Y208406D01*
X343750D02*
X345937Y211031D01*
X343750D02*
X345937Y208406D01*
X350750D02*
Y211031D01*
X351844Y209719D01*
X352937Y211031D01*
Y208406D01*
X354250D02*
X355344Y211031D01*
X356437Y208406D01*
X354687Y209500D02*
X356000D01*
X357750Y209063D02*
X357969Y208625D01*
X358406Y208406D01*
X359281D01*
X359719Y208625D01*
X359937Y209063D01*
X359719Y209500D01*
X359281Y209719D01*
X358406D01*
X357969Y209937D01*
X357750Y210375D01*
X357969Y210813D01*
X358406Y211031D01*
X359281D01*
X359719Y210813D01*
X359937Y210375D01*
X362344Y208406D02*
Y211031D01*
X361250D02*
X363437D01*
X364750Y208406D02*
Y211031D01*
X366937D01*
X366500Y209719D02*
X364750D01*
Y208406D02*
X366937D01*
X368250D02*
Y211031D01*
X369781D01*
X370219Y210813D01*
X370437Y210375D01*
X370219Y209937D01*
X369781Y209719D01*
X368250D01*
X369781D02*
X370437Y208406D01*
X375906D02*
X376781D01*
X376344D02*
Y211031D01*
X375906D02*
X376781D01*
X378750Y208406D02*
Y211031D01*
X380937Y208406D01*
Y211031D01*
X340250Y218406D02*
Y221031D01*
X341781D01*
X342219Y220813D01*
X342437Y220375D01*
X342219Y219937D01*
X341781Y219719D01*
X340250D01*
X341781D02*
X342437Y218406D01*
X343750D02*
Y221031D01*
X345937D01*
X345500Y219719D02*
X343750D01*
Y218406D02*
X345937D01*
X347250D02*
Y221031D01*
X348563D01*
X349000Y220813D01*
X349219Y220594D01*
X349437Y220156D01*
Y219281D01*
X349219Y218844D01*
X349000Y218625D01*
X348563Y218406D01*
X347250D01*
X354250Y221031D02*
Y218406D01*
X356437D01*
X357750D02*
Y221031D01*
X359937D01*
X359500Y219719D02*
X357750D01*
Y218406D02*
X359937D01*
X361250D02*
Y221031D01*
X362563D01*
X363000Y220813D01*
X363219Y220594D01*
X363437Y220156D01*
Y219281D01*
X363219Y218844D01*
X363000Y218625D01*
X362563Y218406D01*
X361250D01*
X342750Y20906D02*
Y23531D01*
X344281D01*
X344719Y23313D01*
X344937Y22875D01*
X344719Y22437D01*
X344281Y22219D01*
X342750D01*
X344281D02*
X344937Y20906D01*
X346250D02*
X348437Y23531D01*
X346250D02*
X348437Y20906D01*
X351500D02*
X349750D01*
X351281Y22437D01*
X351500Y22875D01*
X351281Y23313D01*
X350844Y23531D01*
X350187D01*
X349750Y23313D01*
X356750Y20906D02*
Y23531D01*
X358063D01*
X358500Y23313D01*
X358719Y23094D01*
X358937Y22656D01*
Y21781D01*
X358719Y21344D01*
X358500Y21125D01*
X358063Y20906D01*
X356750D01*
X360906D02*
X361781D01*
X361344D02*
Y23531D01*
X360906D02*
X361781D01*
X363750Y21563D02*
X363969Y21125D01*
X364406Y20906D01*
X365281D01*
X365719Y21125D01*
X365937Y21563D01*
X365719Y22000D01*
X365281Y22219D01*
X364406D01*
X363969Y22437D01*
X363750Y22875D01*
X363969Y23313D01*
X364406Y23531D01*
X365281D01*
X365719Y23313D01*
X365937Y22875D01*
X369437Y21344D02*
X369219Y21125D01*
X368781Y20906D01*
X368125D01*
X367687Y21125D01*
X367469Y21344D01*
X367250Y21781D01*
Y22656D01*
X367469Y23094D01*
X367687Y23313D01*
X368125Y23531D01*
X368781D01*
X369219Y23313D01*
X369437Y23094D01*
X370750Y21781D02*
Y22656D01*
X370969Y23094D01*
X371187Y23313D01*
X371625Y23531D01*
X372063D01*
X372500Y23313D01*
X372719Y23094D01*
X372937Y22656D01*
Y21781D01*
X372719Y21344D01*
X372500Y21125D01*
X372063Y20906D01*
X371625D01*
X371187Y21125D01*
X370969Y21344D01*
X370750Y21781D01*
X374250Y20906D02*
Y23531D01*
X376437Y20906D01*
Y23531D01*
X342750Y30906D02*
Y33531D01*
X344937Y30906D01*
Y33531D01*
X346250Y30906D02*
X347344Y33531D01*
X348437Y30906D01*
X346687Y32000D02*
X348000D01*
X342750Y40906D02*
Y43531D01*
X344937Y40906D01*
Y43531D01*
X346250Y40906D02*
X347344Y43531D01*
X348437Y40906D01*
X346687Y42000D02*
X348000D01*
X342750Y50906D02*
Y53531D01*
X344937Y50906D01*
Y53531D01*
X346250Y50906D02*
X347344Y53531D01*
X348437Y50906D01*
X346687Y52000D02*
X348000D01*
X342750Y60906D02*
Y63531D01*
X344281D01*
X344719Y63313D01*
X344937Y62875D01*
X344719Y62437D01*
X344281Y62219D01*
X342750D01*
X344281D02*
X344937Y60906D01*
X346250D02*
X348437Y63531D01*
X346250D02*
X348437Y60906D01*
X351500D02*
X349750D01*
X351281Y62437D01*
X351500Y62875D01*
X351281Y63313D01*
X350844Y63531D01*
X350187D01*
X349750Y63313D01*
X356750Y60906D02*
Y63531D01*
X358937D01*
X358500Y62219D02*
X356750D01*
X360250Y63531D02*
Y60906D01*
X362437D01*
X364844D02*
Y63531D01*
X363750D02*
X365937D01*
X372281Y62219D02*
X372719Y62000D01*
X372937Y61563D01*
X372719Y61125D01*
X372281Y60906D01*
X370750D01*
Y63531D01*
X372281D01*
X372719Y63313D01*
X372937Y62875D01*
X372719Y62437D01*
X372281Y62219D01*
X370750D01*
X375344Y60906D02*
Y62219D01*
X374250Y63531D01*
X375344Y62219D02*
X376437Y63531D01*
X377750Y60906D02*
Y63531D01*
X379281D01*
X379719Y63313D01*
X379937Y62875D01*
X379719Y62437D01*
X379281Y62219D01*
X377750D01*
X381250Y60906D02*
X382344Y63531D01*
X383437Y60906D01*
X381687Y62000D02*
X383000D01*
X384750Y61563D02*
X384969Y61125D01*
X385406Y60906D01*
X386281D01*
X386719Y61125D01*
X386937Y61563D01*
X386719Y62000D01*
X386281Y62219D01*
X385406D01*
X384969Y62437D01*
X384750Y62875D01*
X384969Y63313D01*
X385406Y63531D01*
X386281D01*
X386719Y63313D01*
X386937Y62875D01*
X342750Y70906D02*
Y73531D01*
X344937Y70906D01*
Y73531D01*
X346250Y70906D02*
X347344Y73531D01*
X348437Y70906D01*
X346687Y72000D02*
X348000D01*
X342750Y80906D02*
Y83531D01*
X344937Y80906D01*
Y83531D01*
X346250Y80906D02*
X347344Y83531D01*
X348437Y80906D01*
X346687Y82000D02*
X348000D01*
X342750Y90906D02*
Y93531D01*
X344281D01*
X344719Y93313D01*
X344937Y92875D01*
X344719Y92437D01*
X344281Y92219D01*
X342750D01*
X344281D02*
X344937Y90906D01*
X346250D02*
Y93531D01*
X348437D01*
X348000Y92219D02*
X346250D01*
Y90906D02*
X348437D01*
X349750D02*
Y93531D01*
X351063D01*
X351500Y93313D01*
X351719Y93094D01*
X351937Y92656D01*
Y91781D01*
X351719Y91344D01*
X351500Y91125D01*
X351063Y90906D01*
X349750D01*
X356750Y93531D02*
Y90906D01*
X358937D01*
X360250D02*
Y93531D01*
X362437D01*
X362000Y92219D02*
X360250D01*
Y90906D02*
X362437D01*
X363750D02*
Y93531D01*
X365063D01*
X365500Y93313D01*
X365719Y93094D01*
X365937Y92656D01*
Y91781D01*
X365719Y91344D01*
X365500Y91125D01*
X365063Y90906D01*
X363750D01*
X342750Y260906D02*
X343844Y263531D01*
X344937Y260906D01*
X343187Y262000D02*
X344500D01*
X346250Y260906D02*
Y263531D01*
X348437Y260906D01*
Y263531D01*
X350844Y260906D02*
Y263531D01*
X349750D02*
X351937D01*
X353687Y260906D02*
X354563D01*
X354125D02*
Y263531D01*
X353687Y263094D01*
X342750Y270906D02*
X343844Y273531D01*
X344937Y270906D01*
X343187Y272000D02*
X344500D01*
X346250Y270906D02*
Y273531D01*
X348437Y270906D01*
Y273531D01*
X350844Y270906D02*
Y273531D01*
X349750D02*
X351937D01*
X355000Y270906D02*
X353250D01*
X354781Y272437D01*
X355000Y272875D01*
X354781Y273313D01*
X354344Y273531D01*
X353687D01*
X353250Y273313D01*
X342750Y280906D02*
X343844Y283531D01*
X344937Y280906D01*
X343187Y282000D02*
X344500D01*
X346250Y280906D02*
Y283531D01*
X348437Y280906D01*
Y283531D01*
X350844Y280906D02*
Y283531D01*
X349750D02*
X351937D01*
X353469Y281125D02*
X353906Y280906D01*
X354344D01*
X354781Y281125D01*
X355000Y281563D01*
X354781Y282000D01*
X354344Y282219D01*
X353906D01*
X354344D02*
X354781Y282437D01*
X355000Y282875D01*
X354781Y283313D01*
X354344Y283531D01*
X353906D01*
X353469Y283313D01*
X343844Y290906D02*
Y293531D01*
X342750D02*
X344937D01*
X346250Y290906D02*
X348437Y293531D01*
X346250D02*
X348437Y290906D01*
X349750D02*
Y293531D01*
X351281D01*
X351719Y293313D01*
X351937Y292875D01*
X351719Y292437D01*
X351281Y292219D01*
X349750D01*
X351281D02*
X351937Y290906D01*
X353250D02*
X355437Y293531D01*
X353250D02*
X355437Y290906D01*
X356750D02*
X358937D01*
X360250D02*
Y293531D01*
X361781D01*
X362219Y293313D01*
X362437Y292875D01*
X362219Y292437D01*
X361781Y292219D01*
X360250D01*
X361781D02*
X362437Y290906D01*
X363750D02*
Y293531D01*
X365937D01*
X365500Y292219D02*
X363750D01*
Y290906D02*
X365937D01*
X367250Y293531D02*
Y290906D01*
X369437D01*
X370750D02*
X371844Y293531D01*
X372937Y290906D01*
X371187Y292000D02*
X372500D01*
X375344Y290906D02*
Y292219D01*
X374250Y293531D01*
X375344Y292219D02*
X376437Y293531D01*
X342750Y300906D02*
Y303531D01*
X344281D01*
X344719Y303313D01*
X344937Y302875D01*
X344719Y302437D01*
X344281Y302219D01*
X342750D01*
X344281D02*
X344937Y300906D01*
X346250D02*
Y303531D01*
X348437D01*
X348000Y302219D02*
X346250D01*
Y300906D02*
X348437D01*
X349750D02*
Y303531D01*
X351063D01*
X351500Y303313D01*
X351719Y303094D01*
X351937Y302656D01*
Y301781D01*
X351719Y301344D01*
X351500Y301125D01*
X351063Y300906D01*
X349750D01*
X356750Y303531D02*
Y300906D01*
X358937D01*
X360250D02*
Y303531D01*
X362437D01*
X362000Y302219D02*
X360250D01*
Y300906D02*
X362437D01*
X363750D02*
Y303531D01*
X365063D01*
X365500Y303313D01*
X365719Y303094D01*
X365937Y302656D01*
Y301781D01*
X365719Y301344D01*
X365500Y301125D01*
X365063Y300906D01*
X363750D01*
X342750Y311563D02*
X342969Y312000D01*
X343406Y312219D01*
X343844D01*
X344281Y312000D01*
X344500Y311563D01*
X344281Y311125D01*
X343844Y310906D01*
X343406D01*
X342969Y311125D01*
X342750Y311563D01*
Y312219D01*
X342969Y312875D01*
X343406Y313313D01*
X343844Y313531D01*
X346250Y310906D02*
Y313531D01*
X347344Y312219D01*
X348437Y313531D01*
Y310906D01*
X353250Y313531D02*
Y310906D01*
X355437D01*
X356750D02*
Y313531D01*
X358281D01*
X358719Y313313D01*
X358937Y312875D01*
X358719Y312437D01*
X358281Y312219D01*
X356750D01*
X360250Y310906D02*
Y313531D01*
X362437D01*
X362000Y312219D02*
X360250D01*
X343187Y320906D02*
X344063D01*
X343625D02*
Y323531D01*
X343187Y323094D01*
X348000Y320906D02*
X346250D01*
X347781Y322437D01*
X348000Y322875D01*
X347781Y323313D01*
X347344Y323531D01*
X346687D01*
X346250Y323313D01*
X349750Y321781D02*
X351500D01*
X353687Y320906D02*
X354563D01*
X354125D02*
Y323531D01*
X353687Y323094D01*
X356969Y321125D02*
X357406Y320906D01*
X357844D01*
X358281Y321125D01*
X358500Y321563D01*
Y322875D01*
X358281Y323313D01*
X357844Y323531D01*
X357406D01*
X356969Y323313D01*
X356750Y322875D01*
Y321563D01*
X356969Y321125D01*
X358281Y323313D01*
X360250Y320906D02*
Y323531D01*
X361344Y322219D01*
X362437Y323531D01*
Y320906D01*
X367250Y323531D02*
Y320906D01*
X369437D01*
X370750D02*
Y323531D01*
X372281D01*
X372719Y323313D01*
X372937Y322875D01*
X372719Y322437D01*
X372281Y322219D01*
X370750D01*
X374250Y320906D02*
Y323531D01*
X376437D01*
X376000Y322219D02*
X374250D01*
X343187Y330906D02*
X344063D01*
X343625D02*
Y333531D01*
X343187Y333094D01*
X346250Y331125D02*
X346687Y330906D01*
X347344D01*
X347781Y331125D01*
X348000Y331563D01*
Y331781D01*
X347781Y332219D01*
X347344Y332437D01*
X346250D01*
Y333531D01*
X348000D01*
X349750Y331781D02*
X351500D01*
X353687Y330906D02*
X354563D01*
X354125D02*
Y333531D01*
X353687Y333094D01*
X356750Y330906D02*
X358500Y333531D01*
X356750D01*
X360250Y330906D02*
Y333531D01*
X361344Y332219D01*
X362437Y333531D01*
Y330906D01*
X367250Y333531D02*
Y330906D01*
X369437D01*
X370750D02*
Y333531D01*
X372281D01*
X372719Y333313D01*
X372937Y332875D01*
X372719Y332437D01*
X372281Y332219D01*
X370750D01*
X374250Y330906D02*
Y333531D01*
X376437D01*
X376000Y332219D02*
X374250D01*
X345250Y228687D02*
Y232437D01*
X347437D01*
X348063Y232125D01*
X348375Y231500D01*
X348063Y230875D01*
X347437Y230563D01*
X345250D01*
X347437D02*
X348375Y228687D01*
X350250D02*
X353375Y232437D01*
X350250D02*
X353375Y228687D01*
X355875D02*
X357125D01*
X356500D02*
Y232437D01*
X355875Y231813D01*
X347750Y98687D02*
Y102437D01*
X349937D01*
X350563Y102125D01*
X350875Y101500D01*
X350563Y100875D01*
X349937Y100563D01*
X347750D01*
X349937D02*
X350875Y98687D01*
X352750D02*
X355875Y102437D01*
X352750D02*
X355875Y98687D01*
X360250D02*
X357750D01*
X359937Y100875D01*
X360250Y101500D01*
X359937Y102125D01*
X359313Y102437D01*
X358375D01*
X357750Y102125D01*
X349313Y346187D02*
Y349937D01*
X347750D02*
X350875D01*
X352750Y346187D02*
X355875Y349937D01*
X352750D02*
X355875Y346187D01*
D02*
D11*
X56392Y152789D02*
Y72711D01*
X24108D01*
Y152789D01*
X56392D01*
D02*
D12*
X16510Y16510D02*
Y53990D01*
X53990D01*
Y16510D01*
X16510D01*
X21470Y133537D02*
G75*
G02*
Y133931I0J197D01*
G01*
G75*
G03*
Y133537I0J-197D01*
G01*
Y133931D02*
G75*
G02*
Y133537I0J-197D01*
G01*
Y133931D02*
X57195Y25037D02*
G75*
G02*
X56872I-162J0D01*
G01*
X57195D02*
G75*
G02*
X56872I-162J0D01*
G01*
G75*
G02*
X57195I162J0D01*
G01*
X61510Y16510D02*
Y53990D01*
X98990D01*
Y16510D01*
X61510D01*
X102195Y25037D02*
G75*
G02*
X101872I-162J0D01*
G01*
X102195D02*
G75*
G02*
X101872I-162J0D01*
G01*
G75*
G02*
X102195I162J0D01*
G01*
D02*
D13*
X19313Y194625D02*
X19000Y194937D01*
X18687Y195563D01*
Y196500D01*
X19000Y197125D01*
X19313Y197437D01*
X19937Y197750D01*
X21187D01*
X21813Y197437D01*
X22125Y197125D01*
X22437Y196500D01*
Y195563D01*
X22125Y194937D01*
X21813Y194625D01*
X20563Y191813D02*
Y191187D01*
X20875Y190563D01*
X21500Y190250D01*
X22125Y190563D01*
X22437Y191187D01*
Y191813D01*
X22125Y192437D01*
X21500Y192750D01*
X20875Y192437D01*
X20563Y191813D01*
X20250Y192437D01*
X19625Y192750D01*
X19000Y192437D01*
X18687Y191813D01*
Y191187D01*
X19000Y190563D01*
X19625Y190250D01*
X20250Y190563D01*
X20563Y191187D01*
X22750Y182437D02*
X25250D01*
X24000Y181187D02*
Y183687D01*
X25250Y172750D02*
G75*
G02*
X35250Y182750I10000J0D01*
G01*
G75*
G02*
X45250Y172750I0J-10000D01*
G01*
G75*
G02*
X35250Y162750I-10000J0D01*
G01*
G75*
G02*
X25250Y172750I0J10000D01*
G01*
X33375Y156813D02*
X33063Y156500D01*
X32437Y156187D01*
X31500D01*
X30875Y156500D01*
X30563Y156813D01*
X30250Y157437D01*
Y158687D01*
X30563Y159313D01*
X30875Y159625D01*
X31500Y159937D01*
X32437D01*
X33063Y159625D01*
X33375Y159313D01*
X36813Y156187D02*
Y159937D01*
X35250Y157437D01*
X37750D01*
X33656Y36152D02*
Y39902D01*
X35843D01*
X36468Y39590D01*
X36781Y38965D01*
X36468Y38340D01*
X35843Y38027D01*
X33656D01*
X35843D02*
X36781Y36152D01*
X39281D02*
X40531D01*
X39906D02*
Y39902D01*
X39281Y39277D01*
X40395Y112750D02*
X40083Y112437D01*
X39770Y111813D01*
X40083Y111187D01*
X40395Y110875D01*
X43520D01*
Y110250D01*
Y110875D02*
Y112125D01*
X39770Y107125D02*
Y105875D01*
Y106500D02*
X43520D01*
X42895Y107125D01*
X43687Y196187D02*
X44937D01*
X44313D02*
Y199937D01*
X43687D02*
X44937D01*
X50875Y196813D02*
X50563Y196500D01*
X49937Y196187D01*
X49000D01*
X48375Y196500D01*
X48063Y196813D01*
X47750Y197437D01*
Y198687D01*
X48063Y199313D01*
X48375Y199625D01*
X49000Y199937D01*
X49937D01*
X50563Y199625D01*
X50875Y199313D01*
X55250Y196187D02*
X52750D01*
X54937Y198375D01*
X55250Y199000D01*
X54937Y199625D01*
X54313Y199937D01*
X53375D01*
X52750Y199625D01*
X43687Y281187D02*
X44937D01*
X44313D02*
Y284937D01*
X43687D02*
X44937D01*
X50875Y281813D02*
X50563Y281500D01*
X49937Y281187D01*
X49000D01*
X48375Y281500D01*
X48063Y281813D01*
X47750Y282437D01*
Y283687D01*
X48063Y284313D01*
X48375Y284625D01*
X49000Y284937D01*
X49937D01*
X50563Y284625D01*
X50875Y284313D01*
X52750Y281187D02*
X55250Y284937D01*
X52750D01*
X45250Y205250D02*
Y270250D01*
X47750D01*
X50250Y267750D01*
X52750Y270250D01*
X55250D01*
Y205250D01*
X45250D01*
Y290250D02*
Y355250D01*
X47750D01*
X50250Y352750D01*
X52750Y355250D01*
X55250D01*
Y290250D01*
X45250D01*
X46187Y55875D02*
X46500Y55563D01*
X46813Y54937D01*
Y54000D01*
X46500Y53375D01*
X46187Y53063D01*
X45563Y52750D01*
X44313D01*
X43687Y53063D01*
X43375Y53375D01*
X43063Y54000D01*
Y54937D01*
X43375Y55563D01*
X43687Y55875D01*
X46813Y58375D02*
Y59625D01*
Y59000D02*
X43063D01*
X43687Y58375D01*
X46813Y63375D02*
Y64625D01*
Y64000D02*
X43063D01*
X43687Y63375D01*
X61813Y127125D02*
X61500Y127437D01*
X61187Y128063D01*
Y129000D01*
X61500Y129625D01*
X61813Y129937D01*
X62437Y130250D01*
X63687D01*
X64313Y129937D01*
X64625Y129625D01*
X64937Y129000D01*
Y128063D01*
X64625Y127437D01*
X64313Y127125D01*
X61187Y124625D02*
Y123375D01*
Y124000D02*
X64937D01*
X64313Y124625D01*
X65250Y114937D02*
X67750D01*
X66500Y113687D02*
Y116187D01*
X67750Y105250D02*
G75*
G02*
X77750Y115250I10000J0D01*
G01*
G75*
G02*
X87750Y105250I0J-10000D01*
G01*
G75*
G02*
X77750Y95250I-10000J0D01*
G01*
G75*
G02*
X67750Y105250I0J10000D01*
G01*
X75875Y89313D02*
X75563Y89000D01*
X74937Y88687D01*
X74000D01*
X73375Y89000D01*
X73063Y89313D01*
X72750Y89937D01*
Y91187D01*
X73063Y91813D01*
X73375Y92125D01*
X74000Y92437D01*
X74937D01*
X75563Y92125D01*
X75875Y91813D01*
X80250Y88687D02*
X77750D01*
X79937Y90875D01*
X80250Y91500D01*
X79937Y92125D01*
X79313Y92437D01*
X78375D01*
X77750Y92125D01*
X78656Y36152D02*
Y39902D01*
X80843D01*
X81468Y39590D01*
X81781Y38965D01*
X81468Y38340D01*
X80843Y38027D01*
X78656D01*
X80843D02*
X81781Y36152D01*
X86156D02*
X83656D01*
X85843Y38340D01*
X86156Y38965D01*
X85843Y39590D01*
X85218Y39902D01*
X84281D01*
X83656Y39590D01*
X84625Y361187D02*
X84937Y361500D01*
X85563Y361813D01*
X86500D01*
X87125Y361500D01*
X87437Y361187D01*
X87750Y360563D01*
Y359313D01*
X87437Y358687D01*
X87125Y358375D01*
X86500Y358063D01*
X85563D01*
X84937Y358375D01*
X84625Y358687D01*
X81813Y361813D02*
X81187Y361500D01*
X80563Y360875D01*
X80250Y359937D01*
Y359000D01*
X80563Y358375D01*
X81187Y358063D01*
X81813D01*
X82437Y358375D01*
X82750Y359000D01*
X82437Y359625D01*
X81813Y359937D01*
X81187D01*
X80563Y359625D01*
X80250Y359000D01*
X94750Y68063D02*
Y70875D01*
X94437Y71500D01*
X93813Y71813D01*
X92563D01*
X91937Y71500D01*
X91625Y70875D01*
Y68063D01*
X89125Y71813D02*
X87875D01*
X88500D02*
Y68063D01*
X89125Y68687D01*
X94750Y68063D02*
Y70875D01*
X94437Y71500D01*
X93813Y71813D01*
X92563D01*
X91937Y71500D01*
X91625Y70875D01*
Y68063D01*
X89125Y71813D02*
X87875D01*
X88500D02*
Y68063D01*
X89125Y68687D01*
X91515Y227077D02*
X95265D01*
Y224889D01*
X94953Y224264D01*
X94328Y223952D01*
X93703Y224264D01*
X93390Y224889D01*
Y227077D01*
Y224889D02*
X91515Y223952D01*
Y222077D02*
X95265D01*
X91515Y218952D01*
X95265D01*
X91515Y215514D02*
X95265D01*
X92765Y217077D01*
Y214577D01*
X91187Y55875D02*
X91500Y55563D01*
X91813Y54937D01*
Y54000D01*
X91500Y53375D01*
X91187Y53063D01*
X90563Y52750D01*
X89313D01*
X88687Y53063D01*
X88375Y53375D01*
X88063Y54000D01*
Y54937D01*
X88375Y55563D01*
X88687Y55875D01*
X91813Y58375D02*
Y59625D01*
Y59000D02*
X88063D01*
X88687Y58375D01*
X91500Y63063D02*
X91813Y63687D01*
Y64313D01*
X91500Y64937D01*
X90875Y65250D01*
X89000D01*
X88375Y64937D01*
X88063Y64313D01*
Y63687D01*
X88375Y63063D01*
X89000Y62750D01*
X90875D01*
X91500Y63063D01*
X88375Y64937D01*
X136187Y21187D02*
X137437D01*
X136813D02*
Y24937D01*
X136187D02*
X137437D01*
X143375Y21813D02*
X143063Y21500D01*
X142437Y21187D01*
X141500D01*
X140875Y21500D01*
X140563Y21813D01*
X140250Y22437D01*
Y23687D01*
X140563Y24313D01*
X140875Y24625D01*
X141500Y24937D01*
X142437D01*
X143063Y24625D01*
X143375Y24313D01*
X145250Y21500D02*
X145875Y21187D01*
X146813D01*
X147437Y21500D01*
X147750Y22125D01*
Y22437D01*
X147437Y23063D01*
X146813Y23375D01*
X145250D01*
Y24937D01*
X147750D01*
X136187Y141187D02*
X137437D01*
X136813D02*
Y144937D01*
X136187D02*
X137437D01*
X143375Y141813D02*
X143063Y141500D01*
X142437Y141187D01*
X141500D01*
X140875Y141500D01*
X140563Y141813D01*
X140250Y142437D01*
Y143687D01*
X140563Y144313D01*
X140875Y144625D01*
X141500Y144937D01*
X142437D01*
X143063Y144625D01*
X143375Y144313D01*
X146187Y143063D02*
X146813D01*
X147437Y143375D01*
X147750Y144000D01*
X147437Y144625D01*
X146813Y144937D01*
X146187D01*
X145563Y144625D01*
X145250Y144000D01*
X145563Y143375D01*
X146187Y143063D01*
X145563Y142750D01*
X145250Y142125D01*
X145563Y141500D01*
X146187Y141187D01*
X146813D01*
X147437Y141500D01*
X147750Y142125D01*
X147437Y142750D01*
X146813Y143063D01*
X136187Y261187D02*
X137437D01*
X136813D02*
Y264937D01*
X136187D02*
X137437D01*
X143375Y261813D02*
X143063Y261500D01*
X142437Y261187D01*
X141500D01*
X140875Y261500D01*
X140563Y261813D01*
X140250Y262437D01*
Y263687D01*
X140563Y264313D01*
X140875Y264625D01*
X141500Y264937D01*
X142437D01*
X143063Y264625D01*
X143375Y264313D01*
X145875Y261187D02*
X147125D01*
X146500D02*
Y264937D01*
X145875Y264313D01*
X150563Y261500D02*
X151187Y261187D01*
X151813D01*
X152437Y261500D01*
X152750Y262125D01*
Y264000D01*
X152437Y264625D01*
X151813Y264937D01*
X151187D01*
X150563Y264625D01*
X150250Y264000D01*
Y262125D01*
X150563Y261500D01*
X152437Y264625D01*
X137750Y30250D02*
Y125250D01*
X140250D01*
X142750Y122750D01*
X145250Y125250D01*
X147750D01*
Y30250D01*
X137750D01*
Y150250D02*
Y245250D01*
X140250D01*
X142750Y242750D01*
X145250Y245250D01*
X147750D01*
Y150250D01*
X137750D01*
Y270250D02*
Y365250D01*
X140250D01*
X142750Y362750D01*
X145250Y365250D01*
X147750D01*
Y270250D01*
X137750D01*
X180250Y16313D02*
Y12563D01*
X178375D01*
X177750Y12875D01*
X177437Y13187D01*
X177125Y13813D01*
Y15063D01*
X177437Y15687D01*
X177750Y16000D01*
X178375Y16313D01*
X180250D01*
X172750D02*
X175250D01*
X173063Y14125D01*
X172750Y13500D01*
X173063Y12875D01*
X173687Y12563D01*
X174625D01*
X175250Y12875D01*
X180250Y26313D02*
Y22563D01*
X178375D01*
X177750Y22875D01*
X177437Y23187D01*
X177125Y23813D01*
Y25063D01*
X177437Y25687D01*
X177750Y26000D01*
X178375Y26313D01*
X180250D01*
X173687D02*
Y22563D01*
X175250Y25063D01*
X172750D01*
X180250Y36313D02*
Y32563D01*
X178375D01*
X177750Y32875D01*
X177437Y33187D01*
X177125Y33813D01*
Y35063D01*
X177437Y35687D01*
X177750Y36000D01*
X178375Y36313D01*
X180250D01*
X175250Y36000D02*
X174625Y36313D01*
X173687D01*
X173063Y36000D01*
X172750Y35375D01*
Y35063D01*
X173063Y34437D01*
X173687Y34125D01*
X175250D01*
Y32563D01*
X172750D01*
X180250Y46313D02*
Y42563D01*
X178375D01*
X177750Y42875D01*
X177437Y43187D01*
X177125Y43813D01*
Y45063D01*
X177437Y45687D01*
X177750Y46000D01*
X178375Y46313D01*
X180250D01*
X175250Y45375D02*
X174937Y44750D01*
X174313Y44437D01*
X173687D01*
X173063Y44750D01*
X172750Y45375D01*
X173063Y46000D01*
X173687Y46313D01*
X174313D01*
X174937Y46000D01*
X175250Y45375D01*
Y44437D01*
X174937Y43500D01*
X174313Y42875D01*
X173687Y42563D01*
X180250Y56313D02*
Y52563D01*
X178375D01*
X177750Y52875D01*
X177437Y53187D01*
X177125Y53813D01*
Y55063D01*
X177437Y55687D01*
X177750Y56000D01*
X178375Y56313D01*
X180250D01*
X175250D02*
X172750Y52563D01*
X175250D01*
X180250Y66313D02*
Y62563D01*
X178375D01*
X177750Y62875D01*
X177437Y63187D01*
X177125Y63813D01*
Y65063D01*
X177437Y65687D01*
X177750Y66000D01*
X178375Y66313D01*
X180250D01*
X174313Y64437D02*
X173687D01*
X173063Y64125D01*
X172750Y63500D01*
X173063Y62875D01*
X173687Y62563D01*
X174313D01*
X174937Y62875D01*
X175250Y63500D01*
X174937Y64125D01*
X174313Y64437D01*
X174937Y64750D01*
X175250Y65375D01*
X174937Y66000D01*
X174313Y66313D01*
X173687D01*
X173063Y66000D01*
X172750Y65375D01*
X173063Y64750D01*
X173687Y64437D01*
X180250Y76313D02*
Y72563D01*
X178375D01*
X177750Y72875D01*
X177437Y73187D01*
X177125Y73813D01*
Y75063D01*
X177437Y75687D01*
X177750Y76000D01*
X178375Y76313D01*
X180250D01*
X174313D02*
X173687Y76000D01*
X173063Y75375D01*
X172750Y74437D01*
Y73500D01*
X173063Y72875D01*
X173687Y72563D01*
X174313D01*
X174937Y72875D01*
X175250Y73500D01*
X174937Y74125D01*
X174313Y74437D01*
X173687D01*
X173063Y74125D01*
X172750Y73500D01*
X180250Y86313D02*
Y82563D01*
X178375D01*
X177750Y82875D01*
X177437Y83187D01*
X177125Y83813D01*
Y85063D01*
X177437Y85687D01*
X177750Y86000D01*
X178375Y86313D01*
X180250D01*
X174625D02*
X173375D01*
X174000D02*
Y82563D01*
X174625Y83187D01*
X169937Y86000D02*
X169313Y86313D01*
X168687D01*
X168063Y86000D01*
X167750Y85375D01*
Y83500D01*
X168063Y82875D01*
X168687Y82563D01*
X169313D01*
X169937Y82875D01*
X170250Y83500D01*
Y85375D01*
X169937Y86000D01*
X168063Y82875D01*
X180250Y136313D02*
Y132563D01*
X178375D01*
X177750Y132875D01*
X177437Y133187D01*
X177125Y133813D01*
Y135063D01*
X177437Y135687D01*
X177750Y136000D01*
X178375Y136313D01*
X180250D01*
X174625D02*
X173375D01*
X174000D02*
Y132563D01*
X174625Y133187D01*
X169313Y136313D02*
X168687Y136000D01*
X168063Y135375D01*
X167750Y134437D01*
Y133500D01*
X168063Y132875D01*
X168687Y132563D01*
X169313D01*
X169937Y132875D01*
X170250Y133500D01*
X169937Y134125D01*
X169313Y134437D01*
X168687D01*
X168063Y134125D01*
X167750Y133500D01*
X180250Y146313D02*
Y142563D01*
X178375D01*
X177750Y142875D01*
X177437Y143187D01*
X177125Y143813D01*
Y145063D01*
X177437Y145687D01*
X177750Y146000D01*
X178375Y146313D01*
X180250D01*
X172750D02*
X175250D01*
X173063Y144125D01*
X172750Y143500D01*
X173063Y142875D01*
X173687Y142563D01*
X174625D01*
X175250Y142875D01*
X169937Y146000D02*
X169313Y146313D01*
X168687D01*
X168063Y146000D01*
X167750Y145375D01*
Y143500D01*
X168063Y142875D01*
X168687Y142563D01*
X169313D01*
X169937Y142875D01*
X170250Y143500D01*
Y145375D01*
X169937Y146000D01*
X168063Y142875D01*
X180250Y156313D02*
Y152563D01*
X178375D01*
X177750Y152875D01*
X177437Y153187D01*
X177125Y153813D01*
Y155063D01*
X177437Y155687D01*
X177750Y156000D01*
X178375Y156313D01*
X180250D01*
X172750D02*
X175250D01*
X173063Y154125D01*
X172750Y153500D01*
X173063Y152875D01*
X173687Y152563D01*
X174625D01*
X175250Y152875D01*
X169625Y156313D02*
X168375D01*
X169000D02*
Y152563D01*
X169625Y153187D01*
X180250Y166313D02*
Y162563D01*
X178375D01*
X177750Y162875D01*
X177437Y163187D01*
X177125Y163813D01*
Y165063D01*
X177437Y165687D01*
X177750Y166000D01*
X178375Y166313D01*
X180250D01*
X172750D02*
X175250D01*
X173063Y164125D01*
X172750Y163500D01*
X173063Y162875D01*
X173687Y162563D01*
X174625D01*
X175250Y162875D01*
X167750Y166313D02*
X170250D01*
X168063Y164125D01*
X167750Y163500D01*
X168063Y162875D01*
X168687Y162563D01*
X169625D01*
X170250Y162875D01*
X180250Y176313D02*
Y172563D01*
X178375D01*
X177750Y172875D01*
X177437Y173187D01*
X177125Y173813D01*
Y175063D01*
X177437Y175687D01*
X177750Y176000D01*
X178375Y176313D01*
X180250D01*
X172750D02*
X175250D01*
X173063Y174125D01*
X172750Y173500D01*
X173063Y172875D01*
X173687Y172563D01*
X174625D01*
X175250Y172875D01*
X169937Y176000D02*
X169313Y176313D01*
X168687D01*
X168063Y176000D01*
X167750Y175375D01*
X168063Y174750D01*
X168687Y174437D01*
X169313D01*
X168687D02*
X168063Y174125D01*
X167750Y173500D01*
X168063Y172875D01*
X168687Y172563D01*
X169313D01*
X169937Y172875D01*
X180250Y186313D02*
Y182563D01*
X178375D01*
X177750Y182875D01*
X177437Y183187D01*
X177125Y183813D01*
Y185063D01*
X177437Y185687D01*
X177750Y186000D01*
X178375Y186313D01*
X180250D01*
X172750D02*
X175250D01*
X173063Y184125D01*
X172750Y183500D01*
X173063Y182875D01*
X173687Y182563D01*
X174625D01*
X175250Y182875D01*
X168687Y186313D02*
Y182563D01*
X170250Y185063D01*
X167750D01*
X180250Y196313D02*
Y192563D01*
X178375D01*
X177750Y192875D01*
X177437Y193187D01*
X177125Y193813D01*
Y195063D01*
X177437Y195687D01*
X177750Y196000D01*
X178375Y196313D01*
X180250D01*
X172750D02*
X175250D01*
X173063Y194125D01*
X172750Y193500D01*
X173063Y192875D01*
X173687Y192563D01*
X174625D01*
X175250Y192875D01*
X170250Y196000D02*
X169625Y196313D01*
X168687D01*
X168063Y196000D01*
X167750Y195375D01*
Y195063D01*
X168063Y194437D01*
X168687Y194125D01*
X170250D01*
Y192563D01*
X167750D01*
X180250Y206313D02*
Y202563D01*
X178375D01*
X177750Y202875D01*
X177437Y203187D01*
X177125Y203813D01*
Y205063D01*
X177437Y205687D01*
X177750Y206000D01*
X178375Y206313D01*
X180250D01*
X172750D02*
X175250D01*
X173063Y204125D01*
X172750Y203500D01*
X173063Y202875D01*
X173687Y202563D01*
X174625D01*
X175250Y202875D01*
X170250Y205375D02*
X169937Y204750D01*
X169313Y204437D01*
X168687D01*
X168063Y204750D01*
X167750Y205375D01*
X168063Y206000D01*
X168687Y206313D01*
X169313D01*
X169937Y206000D01*
X170250Y205375D01*
Y204437D01*
X169937Y203500D01*
X169313Y202875D01*
X168687Y202563D01*
X180250Y256313D02*
Y252563D01*
X178375D01*
X177750Y252875D01*
X177437Y253187D01*
X177125Y253813D01*
Y255063D01*
X177437Y255687D01*
X177750Y256000D01*
X178375Y256313D01*
X180250D01*
X174937Y256000D02*
X174313Y256313D01*
X173687D01*
X173063Y256000D01*
X172750Y255375D01*
X173063Y254750D01*
X173687Y254437D01*
X174313D01*
X173687D02*
X173063Y254125D01*
X172750Y253500D01*
X173063Y252875D01*
X173687Y252563D01*
X174313D01*
X174937Y252875D01*
X170250Y256000D02*
X169625Y256313D01*
X168687D01*
X168063Y256000D01*
X167750Y255375D01*
Y255063D01*
X168063Y254437D01*
X168687Y254125D01*
X170250D01*
Y252563D01*
X167750D01*
X180250Y266313D02*
Y262563D01*
X178375D01*
X177750Y262875D01*
X177437Y263187D01*
X177125Y263813D01*
Y265063D01*
X177437Y265687D01*
X177750Y266000D01*
X178375Y266313D01*
X180250D01*
X174937Y266000D02*
X174313Y266313D01*
X173687D01*
X173063Y266000D01*
X172750Y265375D01*
X173063Y264750D01*
X173687Y264437D01*
X174313D01*
X173687D02*
X173063Y264125D01*
X172750Y263500D01*
X173063Y262875D01*
X173687Y262563D01*
X174313D01*
X174937Y262875D01*
X170250Y265375D02*
X169937Y264750D01*
X169313Y264437D01*
X168687D01*
X168063Y264750D01*
X167750Y265375D01*
X168063Y266000D01*
X168687Y266313D01*
X169313D01*
X169937Y266000D01*
X170250Y265375D01*
Y264437D01*
X169937Y263500D01*
X169313Y262875D01*
X168687Y262563D01*
X180250Y276313D02*
Y272563D01*
X178375D01*
X177750Y272875D01*
X177437Y273187D01*
X177125Y273813D01*
Y275063D01*
X177437Y275687D01*
X177750Y276000D01*
X178375Y276313D01*
X180250D01*
X174937Y276000D02*
X174313Y276313D01*
X173687D01*
X173063Y276000D01*
X172750Y275375D01*
X173063Y274750D01*
X173687Y274437D01*
X174313D01*
X173687D02*
X173063Y274125D01*
X172750Y273500D01*
X173063Y272875D01*
X173687Y272563D01*
X174313D01*
X174937Y272875D01*
X170250Y276313D02*
X167750Y272563D01*
X170250D01*
X180250Y286313D02*
Y282563D01*
X178375D01*
X177750Y282875D01*
X177437Y283187D01*
X177125Y283813D01*
Y285063D01*
X177437Y285687D01*
X177750Y286000D01*
X178375Y286313D01*
X180250D01*
X174937Y286000D02*
X174313Y286313D01*
X173687D01*
X173063Y286000D01*
X172750Y285375D01*
X173063Y284750D01*
X173687Y284437D01*
X174313D01*
X173687D02*
X173063Y284125D01*
X172750Y283500D01*
X173063Y282875D01*
X173687Y282563D01*
X174313D01*
X174937Y282875D01*
X169313Y284437D02*
X168687D01*
X168063Y284125D01*
X167750Y283500D01*
X168063Y282875D01*
X168687Y282563D01*
X169313D01*
X169937Y282875D01*
X170250Y283500D01*
X169937Y284125D01*
X169313Y284437D01*
X169937Y284750D01*
X170250Y285375D01*
X169937Y286000D01*
X169313Y286313D01*
X168687D01*
X168063Y286000D01*
X167750Y285375D01*
X168063Y284750D01*
X168687Y284437D01*
X180250Y306313D02*
Y302563D01*
X178375D01*
X177750Y302875D01*
X177437Y303187D01*
X177125Y303813D01*
Y305063D01*
X177437Y305687D01*
X177750Y306000D01*
X178375Y306313D01*
X180250D01*
X173687D02*
Y302563D01*
X175250Y305063D01*
X172750D01*
X169937Y306000D02*
X169313Y306313D01*
X168687D01*
X168063Y306000D01*
X167750Y305375D01*
Y303500D01*
X168063Y302875D01*
X168687Y302563D01*
X169313D01*
X169937Y302875D01*
X170250Y303500D01*
Y305375D01*
X169937Y306000D01*
X168063Y302875D01*
X180250Y316313D02*
Y312563D01*
X178375D01*
X177750Y312875D01*
X177437Y313187D01*
X177125Y313813D01*
Y315063D01*
X177437Y315687D01*
X177750Y316000D01*
X178375Y316313D01*
X180250D01*
X173687D02*
Y312563D01*
X175250Y315063D01*
X172750D01*
X169625Y316313D02*
X168375D01*
X169000D02*
Y312563D01*
X169625Y313187D01*
X180250Y326313D02*
Y322563D01*
X178375D01*
X177750Y322875D01*
X177437Y323187D01*
X177125Y323813D01*
Y325063D01*
X177437Y325687D01*
X177750Y326000D01*
X178375Y326313D01*
X180250D01*
X173687D02*
Y322563D01*
X175250Y325063D01*
X172750D01*
X167750Y326313D02*
X170250D01*
X168063Y324125D01*
X167750Y323500D01*
X168063Y322875D01*
X168687Y322563D01*
X169625D01*
X170250Y322875D01*
X182750Y299313D02*
Y295563D01*
X180875D01*
X180250Y295875D01*
X179937Y296187D01*
X179625Y296813D01*
Y298063D01*
X179937Y298687D01*
X180250Y299000D01*
X180875Y299313D01*
X182750D01*
X177437Y299000D02*
X176813Y299313D01*
X176187D01*
X175563Y299000D01*
X175250Y298375D01*
X175563Y297750D01*
X176187Y297437D01*
X176813D01*
X176187D02*
X175563Y297125D01*
X175250Y296500D01*
X175563Y295875D01*
X176187Y295563D01*
X176813D01*
X177437Y295875D01*
X171813Y299313D02*
X171187Y299000D01*
X170563Y298375D01*
X170250Y297437D01*
Y296500D01*
X170563Y295875D01*
X171187Y295563D01*
X171813D01*
X172437Y295875D01*
X172750Y296500D01*
X172437Y297125D01*
X171813Y297437D01*
X171187D01*
X170563Y297125D01*
X170250Y296500D01*
X188985Y35923D02*
X185235D01*
Y38111D01*
X185547Y38736D01*
X186172Y39048D01*
X186797Y38736D01*
X187110Y38111D01*
Y35923D01*
Y38111D02*
X188985Y39048D01*
Y40923D02*
X185235D01*
X188985Y44048D01*
X185235D01*
X188985Y48423D02*
Y45923D01*
X186797Y48111D01*
X186172Y48423D01*
X185547Y48111D01*
X185235Y47486D01*
Y46548D01*
X185547Y45923D01*
X188985Y275923D02*
X185235D01*
Y278111D01*
X185547Y278736D01*
X186172Y279048D01*
X186797Y278736D01*
X187110Y278111D01*
Y275923D01*
Y278111D02*
X188985Y279048D01*
Y280923D02*
X185235D01*
X188985Y284048D01*
X185235D01*
X188985Y286548D02*
Y287798D01*
Y287173D02*
X185235D01*
X185860Y286548D01*
X188985Y293423D02*
Y290923D01*
X186797Y293111D01*
X186172Y293423D01*
X185547Y293111D01*
X185235Y292486D01*
Y291548D01*
X185547Y290923D01*
X191515Y79577D02*
X195265D01*
Y77389D01*
X194953Y76764D01*
X194328Y76452D01*
X193703Y76764D01*
X193390Y77389D01*
Y79577D01*
Y77389D02*
X191515Y76452D01*
Y74577D02*
X195265D01*
X191515Y71452D01*
X195265D01*
X191828Y69577D02*
X191515Y68952D01*
Y68014D01*
X191828Y67389D01*
X192453Y67077D01*
X192765D01*
X193390Y67389D01*
X193703Y68014D01*
Y69577D01*
X195265D01*
Y67077D01*
X191515Y199577D02*
X195265D01*
Y197389D01*
X194953Y196764D01*
X194328Y196452D01*
X193703Y196764D01*
X193390Y197389D01*
Y199577D01*
Y197389D02*
X191515Y196452D01*
Y194577D02*
X195265D01*
X191515Y191452D01*
X195265D01*
X191515Y188639D02*
X191828Y188014D01*
X192453Y187389D01*
X193390Y187077D01*
X194328D01*
X194953Y187389D01*
X195265Y188014D01*
Y188639D01*
X194953Y189264D01*
X194328Y189577D01*
X193703Y189264D01*
X193390Y188639D01*
Y188014D01*
X193703Y187389D01*
X194328Y187077D01*
X191187Y128375D02*
X191500Y128063D01*
X191813Y127437D01*
Y126500D01*
X191500Y125875D01*
X191187Y125563D01*
X190563Y125250D01*
X189313D01*
X188687Y125563D01*
X188375Y125875D01*
X188063Y126500D01*
Y127437D01*
X188375Y128063D01*
X188687Y128375D01*
X190875Y130250D02*
X190250Y130563D01*
X189937Y131187D01*
Y131813D01*
X190250Y132437D01*
X190875Y132750D01*
X191500Y132437D01*
X191813Y131813D01*
Y131187D01*
X191500Y130563D01*
X190875Y130250D01*
X189937D01*
X189000Y130563D01*
X188375Y131187D01*
X188063Y131813D01*
X191187Y218375D02*
X191500Y218063D01*
X191813Y217437D01*
Y216500D01*
X191500Y215875D01*
X191187Y215563D01*
X190563Y215250D01*
X189313D01*
X188687Y215563D01*
X188375Y215875D01*
X188063Y216500D01*
Y217437D01*
X188375Y218063D01*
X188687Y218375D01*
X191500Y220563D02*
X191813Y221187D01*
Y221813D01*
X191500Y222437D01*
X190875Y222750D01*
X190250Y222437D01*
X189937Y221813D01*
Y221187D01*
Y221813D02*
X189625Y222437D01*
X189000Y222750D01*
X188375Y222437D01*
X188063Y221813D01*
Y221187D01*
X188375Y220563D01*
X193687Y327750D02*
X197437D01*
Y325563D01*
X197125Y324937D01*
X196500Y324625D01*
X195875Y324937D01*
X195563Y325563D01*
Y327750D01*
Y325563D02*
X193687Y324625D01*
Y322750D02*
X197437D01*
X193687Y319625D01*
X197437D01*
X193687Y317125D02*
Y315875D01*
Y316500D02*
X197437D01*
X196813Y317125D01*
X194000Y312437D02*
X193687Y311813D01*
Y311187D01*
X194000Y310563D01*
X194625Y310250D01*
X195250Y310563D01*
X195563Y311187D01*
Y311813D01*
Y311187D02*
X195875Y310563D01*
X196500Y310250D01*
X197125Y310563D01*
X197437Y311187D01*
Y311813D01*
X197125Y312437D01*
X198687Y170250D02*
X202437D01*
Y168063D01*
X202125Y167437D01*
X201500Y167125D01*
X200875Y167437D01*
X200563Y168063D01*
Y170250D01*
Y168063D02*
X198687Y167125D01*
Y165250D02*
X202437D01*
X198687Y162125D01*
X202437D01*
X200563Y159313D02*
Y158687D01*
X200875Y158063D01*
X201500Y157750D01*
X202125Y158063D01*
X202437Y158687D01*
Y159313D01*
X202125Y159937D01*
X201500Y160250D01*
X200875Y159937D01*
X200563Y159313D01*
X200250Y159937D01*
X199625Y160250D01*
X199000Y159937D01*
X198687Y159313D01*
Y158687D01*
X199000Y158063D01*
X199625Y157750D01*
X200250Y158063D01*
X200563Y158687D01*
X266187Y21187D02*
X267437D01*
X266813D02*
Y24937D01*
X266187D02*
X267437D01*
X273375Y21813D02*
X273063Y21500D01*
X272437Y21187D01*
X271500D01*
X270875Y21500D01*
X270563Y21813D01*
X270250Y22437D01*
Y23687D01*
X270563Y24313D01*
X270875Y24625D01*
X271500Y24937D01*
X272437D01*
X273063Y24625D01*
X273375Y24313D01*
X275250Y22125D02*
X275563Y22750D01*
X276187Y23063D01*
X276813D01*
X277437Y22750D01*
X277750Y22125D01*
X277437Y21500D01*
X276813Y21187D01*
X276187D01*
X275563Y21500D01*
X275250Y22125D01*
Y23063D01*
X275563Y24000D01*
X276187Y24625D01*
X276813Y24937D01*
X266187Y146187D02*
X267437D01*
X266813D02*
Y149937D01*
X266187D02*
X267437D01*
X273375Y146813D02*
X273063Y146500D01*
X272437Y146187D01*
X271500D01*
X270875Y146500D01*
X270563Y146813D01*
X270250Y147437D01*
Y148687D01*
X270563Y149313D01*
X270875Y149625D01*
X271500Y149937D01*
X272437D01*
X273063Y149625D01*
X273375Y149313D01*
X276187Y146187D02*
X276813Y146500D01*
X277437Y147125D01*
X277750Y148063D01*
Y149000D01*
X277437Y149625D01*
X276813Y149937D01*
X276187D01*
X275563Y149625D01*
X275250Y149000D01*
X275563Y148375D01*
X276187Y148063D01*
X276813D01*
X277437Y148375D01*
X277750Y149000D01*
X266187Y261187D02*
X267437D01*
X266813D02*
Y264937D01*
X266187D02*
X267437D01*
X273375Y261813D02*
X273063Y261500D01*
X272437Y261187D01*
X271500D01*
X270875Y261500D01*
X270563Y261813D01*
X270250Y262437D01*
Y263687D01*
X270563Y264313D01*
X270875Y264625D01*
X271500Y264937D01*
X272437D01*
X273063Y264625D01*
X273375Y264313D01*
X275875Y261187D02*
X277125D01*
X276500D02*
Y264937D01*
X275875Y264313D01*
X280875Y261187D02*
X282125D01*
X281500D02*
Y264937D01*
X280875Y264313D01*
X267750Y30250D02*
Y125250D01*
X270250D01*
X272750Y122750D01*
X275250Y125250D01*
X277750D01*
Y30250D01*
X267750D01*
Y155250D02*
Y250250D01*
X270250D01*
X272750Y247750D01*
X275250Y250250D01*
X277750D01*
Y155250D01*
X267750D01*
Y270250D02*
Y365250D01*
X270250D01*
X272750Y362750D01*
X275250Y365250D01*
X277750D01*
Y270250D01*
X267750D01*
X312750Y16313D02*
Y12563D01*
X310875D01*
X310250Y12875D01*
X309937Y13187D01*
X309625Y13813D01*
Y15063D01*
X309937Y15687D01*
X310250Y16000D01*
X310875Y16313D01*
X312750D01*
X307125D02*
X305875D01*
X306500D02*
Y12563D01*
X307125Y13187D01*
X302125Y16313D02*
X300875D01*
X301500D02*
Y12563D01*
X302125Y13187D01*
X312750Y26313D02*
Y22563D01*
X310875D01*
X310250Y22875D01*
X309937Y23187D01*
X309625Y23813D01*
Y25063D01*
X309937Y25687D01*
X310250Y26000D01*
X310875Y26313D01*
X312750D01*
X307125D02*
X305875D01*
X306500D02*
Y22563D01*
X307125Y23187D01*
X300250Y26313D02*
X302750D01*
X300563Y24125D01*
X300250Y23500D01*
X300563Y22875D01*
X301187Y22563D01*
X302125D01*
X302750Y22875D01*
X312750Y36313D02*
Y32563D01*
X310875D01*
X310250Y32875D01*
X309937Y33187D01*
X309625Y33813D01*
Y35063D01*
X309937Y35687D01*
X310250Y36000D01*
X310875Y36313D01*
X312750D01*
X307125D02*
X305875D01*
X306500D02*
Y32563D01*
X307125Y33187D01*
X302437Y36000D02*
X301813Y36313D01*
X301187D01*
X300563Y36000D01*
X300250Y35375D01*
X300563Y34750D01*
X301187Y34437D01*
X301813D01*
X301187D02*
X300563Y34125D01*
X300250Y33500D01*
X300563Y32875D01*
X301187Y32563D01*
X301813D01*
X302437Y32875D01*
X312750Y46313D02*
Y42563D01*
X310875D01*
X310250Y42875D01*
X309937Y43187D01*
X309625Y43813D01*
Y45063D01*
X309937Y45687D01*
X310250Y46000D01*
X310875Y46313D01*
X312750D01*
X307125D02*
X305875D01*
X306500D02*
Y42563D01*
X307125Y43187D01*
X301187Y46313D02*
Y42563D01*
X302750Y45063D01*
X300250D01*
X312750Y56313D02*
Y52563D01*
X310875D01*
X310250Y52875D01*
X309937Y53187D01*
X309625Y53813D01*
Y55063D01*
X309937Y55687D01*
X310250Y56000D01*
X310875Y56313D01*
X312750D01*
X307125D02*
X305875D01*
X306500D02*
Y52563D01*
X307125Y53187D01*
X302750Y56000D02*
X302125Y56313D01*
X301187D01*
X300563Y56000D01*
X300250Y55375D01*
Y55063D01*
X300563Y54437D01*
X301187Y54125D01*
X302750D01*
Y52563D01*
X300250D01*
X312750Y76313D02*
Y72563D01*
X310875D01*
X310250Y72875D01*
X309937Y73187D01*
X309625Y73813D01*
Y75063D01*
X309937Y75687D01*
X310250Y76000D01*
X310875Y76313D01*
X312750D01*
X307125D02*
X305875D01*
X306500D02*
Y72563D01*
X307125Y73187D01*
X302750Y76313D02*
X300250Y72563D01*
X302750D01*
X312750Y141313D02*
Y137563D01*
X310875D01*
X310250Y137875D01*
X309937Y138187D01*
X309625Y138813D01*
Y140063D01*
X309937Y140687D01*
X310250Y141000D01*
X310875Y141313D01*
X312750D01*
X305250D02*
X307750D01*
X305563Y139125D01*
X305250Y138500D01*
X305563Y137875D01*
X306187Y137563D01*
X307125D01*
X307750Y137875D01*
X302750Y141313D02*
X300250Y137563D01*
X302750D01*
X312750Y151313D02*
Y147563D01*
X310875D01*
X310250Y147875D01*
X309937Y148187D01*
X309625Y148813D01*
Y150063D01*
X309937Y150687D01*
X310250Y151000D01*
X310875Y151313D01*
X312750D01*
X305250D02*
X307750D01*
X305563Y149125D01*
X305250Y148500D01*
X305563Y147875D01*
X306187Y147563D01*
X307125D01*
X307750Y147875D01*
X301813Y149437D02*
X301187D01*
X300563Y149125D01*
X300250Y148500D01*
X300563Y147875D01*
X301187Y147563D01*
X301813D01*
X302437Y147875D01*
X302750Y148500D01*
X302437Y149125D01*
X301813Y149437D01*
X302437Y149750D01*
X302750Y150375D01*
X302437Y151000D01*
X301813Y151313D01*
X301187D01*
X300563Y151000D01*
X300250Y150375D01*
X300563Y149750D01*
X301187Y149437D01*
X312750Y161313D02*
Y157563D01*
X310875D01*
X310250Y157875D01*
X309937Y158187D01*
X309625Y158813D01*
Y160063D01*
X309937Y160687D01*
X310250Y161000D01*
X310875Y161313D01*
X312750D01*
X305250D02*
X307750D01*
X305563Y159125D01*
X305250Y158500D01*
X305563Y157875D01*
X306187Y157563D01*
X307125D01*
X307750Y157875D01*
X301813Y161313D02*
X301187Y161000D01*
X300563Y160375D01*
X300250Y159437D01*
Y158500D01*
X300563Y157875D01*
X301187Y157563D01*
X301813D01*
X302437Y157875D01*
X302750Y158500D01*
X302437Y159125D01*
X301813Y159437D01*
X301187D01*
X300563Y159125D01*
X300250Y158500D01*
X312750Y171313D02*
Y167563D01*
X310875D01*
X310250Y167875D01*
X309937Y168187D01*
X309625Y168813D01*
Y170063D01*
X309937Y170687D01*
X310250Y171000D01*
X310875Y171313D01*
X312750D01*
X307437Y171000D02*
X306813Y171313D01*
X306187D01*
X305563Y171000D01*
X305250Y170375D01*
X305563Y169750D01*
X306187Y169437D01*
X306813D01*
X306187D02*
X305563Y169125D01*
X305250Y168500D01*
X305563Y167875D01*
X306187Y167563D01*
X306813D01*
X307437Y167875D01*
X302437Y171000D02*
X301813Y171313D01*
X301187D01*
X300563Y171000D01*
X300250Y170375D01*
Y168500D01*
X300563Y167875D01*
X301187Y167563D01*
X301813D01*
X302437Y167875D01*
X302750Y168500D01*
Y170375D01*
X302437Y171000D01*
X300563Y167875D01*
X312750Y181313D02*
Y177563D01*
X310875D01*
X310250Y177875D01*
X309937Y178187D01*
X309625Y178813D01*
Y180063D01*
X309937Y180687D01*
X310250Y181000D01*
X310875Y181313D01*
X312750D01*
X307437Y181000D02*
X306813Y181313D01*
X306187D01*
X305563Y181000D01*
X305250Y180375D01*
X305563Y179750D01*
X306187Y179437D01*
X306813D01*
X306187D02*
X305563Y179125D01*
X305250Y178500D01*
X305563Y177875D01*
X306187Y177563D01*
X306813D01*
X307437Y177875D01*
X302125Y181313D02*
X300875D01*
X301500D02*
Y177563D01*
X302125Y178187D01*
X312750Y191313D02*
Y187563D01*
X310875D01*
X310250Y187875D01*
X309937Y188187D01*
X309625Y188813D01*
Y190063D01*
X309937Y190687D01*
X310250Y191000D01*
X310875Y191313D01*
X312750D01*
X307437Y191000D02*
X306813Y191313D01*
X306187D01*
X305563Y191000D01*
X305250Y190375D01*
X305563Y189750D01*
X306187Y189437D01*
X306813D01*
X306187D02*
X305563Y189125D01*
X305250Y188500D01*
X305563Y187875D01*
X306187Y187563D01*
X306813D01*
X307437Y187875D01*
X300250Y191313D02*
X302750D01*
X300563Y189125D01*
X300250Y188500D01*
X300563Y187875D01*
X301187Y187563D01*
X302125D01*
X302750Y187875D01*
X312750Y201313D02*
Y197563D01*
X310875D01*
X310250Y197875D01*
X309937Y198187D01*
X309625Y198813D01*
Y200063D01*
X309937Y200687D01*
X310250Y201000D01*
X310875Y201313D01*
X312750D01*
X307437Y201000D02*
X306813Y201313D01*
X306187D01*
X305563Y201000D01*
X305250Y200375D01*
X305563Y199750D01*
X306187Y199437D01*
X306813D01*
X306187D02*
X305563Y199125D01*
X305250Y198500D01*
X305563Y197875D01*
X306187Y197563D01*
X306813D01*
X307437Y197875D01*
X302437Y201000D02*
X301813Y201313D01*
X301187D01*
X300563Y201000D01*
X300250Y200375D01*
X300563Y199750D01*
X301187Y199437D01*
X301813D01*
X301187D02*
X300563Y199125D01*
X300250Y198500D01*
X300563Y197875D01*
X301187Y197563D01*
X301813D01*
X302437Y197875D01*
X312750Y211313D02*
Y207563D01*
X310875D01*
X310250Y207875D01*
X309937Y208187D01*
X309625Y208813D01*
Y210063D01*
X309937Y210687D01*
X310250Y211000D01*
X310875Y211313D01*
X312750D01*
X307437Y211000D02*
X306813Y211313D01*
X306187D01*
X305563Y211000D01*
X305250Y210375D01*
X305563Y209750D01*
X306187Y209437D01*
X306813D01*
X306187D02*
X305563Y209125D01*
X305250Y208500D01*
X305563Y207875D01*
X306187Y207563D01*
X306813D01*
X307437Y207875D01*
X301187Y211313D02*
Y207563D01*
X302750Y210063D01*
X300250D01*
X312750Y256313D02*
Y252563D01*
X310875D01*
X310250Y252875D01*
X309937Y253187D01*
X309625Y253813D01*
Y255063D01*
X309937Y255687D01*
X310250Y256000D01*
X310875Y256313D01*
X312750D01*
X306187D02*
Y252563D01*
X307750Y255063D01*
X305250D01*
X302437Y256000D02*
X301813Y256313D01*
X301187D01*
X300563Y256000D01*
X300250Y255375D01*
X300563Y254750D01*
X301187Y254437D01*
X301813D01*
X301187D02*
X300563Y254125D01*
X300250Y253500D01*
X300563Y252875D01*
X301187Y252563D01*
X301813D01*
X302437Y252875D01*
X312750Y266313D02*
Y262563D01*
X310875D01*
X310250Y262875D01*
X309937Y263187D01*
X309625Y263813D01*
Y265063D01*
X309937Y265687D01*
X310250Y266000D01*
X310875Y266313D01*
X312750D01*
X306187D02*
Y262563D01*
X307750Y265063D01*
X305250D01*
X301187Y266313D02*
Y262563D01*
X302750Y265063D01*
X300250D01*
X312750Y276313D02*
Y272563D01*
X310875D01*
X310250Y272875D01*
X309937Y273187D01*
X309625Y273813D01*
Y275063D01*
X309937Y275687D01*
X310250Y276000D01*
X310875Y276313D01*
X312750D01*
X306187D02*
Y272563D01*
X307750Y275063D01*
X305250D01*
X302750Y276000D02*
X302125Y276313D01*
X301187D01*
X300563Y276000D01*
X300250Y275375D01*
Y275063D01*
X300563Y274437D01*
X301187Y274125D01*
X302750D01*
Y272563D01*
X300250D01*
X312750Y296313D02*
Y292563D01*
X310875D01*
X310250Y292875D01*
X309937Y293187D01*
X309625Y293813D01*
Y295063D01*
X309937Y295687D01*
X310250Y296000D01*
X310875Y296313D01*
X312750D01*
X306187D02*
Y292563D01*
X307750Y295063D01*
X305250D01*
X302750Y296313D02*
X300250Y292563D01*
X302750D01*
X312750Y306313D02*
Y302563D01*
X310875D01*
X310250Y302875D01*
X309937Y303187D01*
X309625Y303813D01*
Y305063D01*
X309937Y305687D01*
X310250Y306000D01*
X310875Y306313D01*
X312750D01*
X306187D02*
Y302563D01*
X307750Y305063D01*
X305250D01*
X301813Y304437D02*
X301187D01*
X300563Y304125D01*
X300250Y303500D01*
X300563Y302875D01*
X301187Y302563D01*
X301813D01*
X302437Y302875D01*
X302750Y303500D01*
X302437Y304125D01*
X301813Y304437D01*
X302437Y304750D01*
X302750Y305375D01*
X302437Y306000D01*
X301813Y306313D01*
X301187D01*
X300563Y306000D01*
X300250Y305375D01*
X300563Y304750D01*
X301187Y304437D01*
X312750Y316313D02*
Y312563D01*
X310875D01*
X310250Y312875D01*
X309937Y313187D01*
X309625Y313813D01*
Y315063D01*
X309937Y315687D01*
X310250Y316000D01*
X310875Y316313D01*
X312750D01*
X306187D02*
Y312563D01*
X307750Y315063D01*
X305250D01*
X301813Y316313D02*
X301187Y316000D01*
X300563Y315375D01*
X300250Y314437D01*
Y313500D01*
X300563Y312875D01*
X301187Y312563D01*
X301813D01*
X302437Y312875D01*
X302750Y313500D01*
X302437Y314125D01*
X301813Y314437D01*
X301187D01*
X300563Y314125D01*
X300250Y313500D01*
X312750Y326313D02*
Y322563D01*
X310875D01*
X310250Y322875D01*
X309937Y323187D01*
X309625Y323813D01*
Y325063D01*
X309937Y325687D01*
X310250Y326000D01*
X310875Y326313D01*
X312750D01*
X307750Y326000D02*
X307125Y326313D01*
X306187D01*
X305563Y326000D01*
X305250Y325375D01*
Y325063D01*
X305563Y324437D01*
X306187Y324125D01*
X307750D01*
Y322563D01*
X305250D01*
X302437Y326000D02*
X301813Y326313D01*
X301187D01*
X300563Y326000D01*
X300250Y325375D01*
Y323500D01*
X300563Y322875D01*
X301187Y322563D01*
X301813D01*
X302437Y322875D01*
X302750Y323500D01*
Y325375D01*
X302437Y326000D01*
X300563Y322875D01*
X315250Y66813D02*
Y63063D01*
X313375D01*
X312750Y63375D01*
X312437Y63687D01*
X312125Y64313D01*
Y65563D01*
X312437Y66187D01*
X312750Y66500D01*
X313375Y66813D01*
X315250D01*
X309625D02*
X308375D01*
X309000D02*
Y63063D01*
X309625Y63687D01*
X305250Y65875D02*
X304937Y65250D01*
X304313Y64937D01*
X303687D01*
X303063Y65250D01*
X302750Y65875D01*
X303063Y66500D01*
X303687Y66813D01*
X304313D01*
X304937Y66500D01*
X305250Y65875D01*
Y64937D01*
X304937Y64000D01*
X304313Y63375D01*
X303687Y63063D01*
X321485Y35923D02*
X317735D01*
Y38111D01*
X318047Y38736D01*
X318672Y39048D01*
X319297Y38736D01*
X319610Y38111D01*
Y35923D01*
Y38111D02*
X321485Y39048D01*
Y40923D02*
X317735D01*
X321485Y44048D01*
X317735D01*
X320547Y45923D02*
X319922Y46236D01*
X319610Y46861D01*
Y47486D01*
X319922Y48111D01*
X320547Y48423D01*
X321172Y48111D01*
X321485Y47486D01*
Y46861D01*
X321172Y46236D01*
X320547Y45923D01*
X319610D01*
X318672Y46236D01*
X318047Y46861D01*
X317735Y47486D01*
X321485Y160923D02*
X317735D01*
Y163111D01*
X318047Y163736D01*
X318672Y164048D01*
X319297Y163736D01*
X319610Y163111D01*
Y160923D01*
Y163111D02*
X321485Y164048D01*
Y165923D02*
X317735D01*
X321485Y169048D01*
X317735D01*
X321485Y171548D02*
Y172798D01*
Y172173D02*
X317735D01*
X318360Y171548D01*
X321172Y176236D02*
X321485Y176861D01*
Y177486D01*
X321172Y178111D01*
X320547Y178423D01*
X318672D01*
X318047Y178111D01*
X317735Y177486D01*
Y176861D01*
X318047Y176236D01*
X318672Y175923D01*
X320547D01*
X321172Y176236D01*
X318047Y178111D01*
X321485Y275923D02*
X317735D01*
Y278111D01*
X318047Y278736D01*
X318672Y279048D01*
X319297Y278736D01*
X319610Y278111D01*
Y275923D01*
Y278111D02*
X321485Y279048D01*
Y280923D02*
X317735D01*
X321485Y284048D01*
X317735D01*
X321485Y286548D02*
Y287798D01*
Y287173D02*
X317735D01*
X318360Y286548D01*
X321485Y292486D02*
X317735D01*
X320235Y290923D01*
Y293423D01*
X324015Y79577D02*
X327765D01*
Y77389D01*
X327453Y76764D01*
X326828Y76452D01*
X326203Y76764D01*
X325890Y77389D01*
Y79577D01*
Y77389D02*
X324015Y76452D01*
Y74577D02*
X327765D01*
X324015Y71452D01*
X327765D01*
X324015Y69577D02*
X327765Y67077D01*
Y69577D01*
X324015Y204577D02*
X327765D01*
Y202389D01*
X327453Y201764D01*
X326828Y201452D01*
X326203Y201764D01*
X325890Y202389D01*
Y204577D01*
Y202389D02*
X324015Y201452D01*
Y199577D02*
X327765D01*
X324015Y196452D01*
X327765D01*
X324015Y193952D02*
Y192702D01*
Y193327D02*
X327765D01*
X327140Y193952D01*
X324015Y188952D02*
Y187702D01*
Y188327D02*
X327765D01*
X327140Y188952D01*
X324015Y319577D02*
X327765D01*
Y317389D01*
X327453Y316764D01*
X326828Y316452D01*
X326203Y316764D01*
X325890Y317389D01*
Y319577D01*
Y317389D02*
X324015Y316452D01*
Y314577D02*
X327765D01*
X324015Y311452D01*
X327765D01*
X324015Y308952D02*
Y307702D01*
Y308327D02*
X327765D01*
X327140Y308952D01*
X324328Y304577D02*
X324015Y303952D01*
Y303014D01*
X324328Y302389D01*
X324953Y302077D01*
X325265D01*
X325890Y302389D01*
X326203Y303014D01*
Y304577D01*
X327765D01*
Y302077D01*
X323687Y133375D02*
X324000Y133063D01*
X324313Y132437D01*
Y131500D01*
X324000Y130875D01*
X323687Y130563D01*
X323063Y130250D01*
X321813D01*
X321187Y130563D01*
X320875Y130875D01*
X320563Y131500D01*
Y132437D01*
X320875Y133063D01*
X321187Y133375D01*
X324313Y135250D02*
X320563Y137750D01*
Y135250D01*
X323687Y223375D02*
X324000Y223063D01*
X324313Y222437D01*
Y221500D01*
X324000Y220875D01*
X323687Y220563D01*
X323063Y220250D01*
X321813D01*
X321187Y220563D01*
X320875Y220875D01*
X320563Y221500D01*
Y222437D01*
X320875Y223063D01*
X321187Y223375D01*
X324000Y225250D02*
X324313Y225875D01*
Y226813D01*
X324000Y227437D01*
X323375Y227750D01*
X323063D01*
X322437Y227437D01*
X322125Y226813D01*
Y225250D01*
X320563D01*
Y227750D01*
X612750Y705187D02*
Y708937D01*
X614625D01*
X615250Y708625D01*
X615563Y708313D01*
X615875Y707687D01*
Y706437D01*
X615563Y705813D01*
X615250Y705500D01*
X614625Y705187D01*
X612750D01*
X618375D02*
X619625D01*
X619000D02*
Y708937D01*
X618375Y708313D01*
X623687Y707063D02*
X624313D01*
X624937Y707375D01*
X625250Y708000D01*
X624937Y708625D01*
X624313Y708937D01*
X623687D01*
X623063Y708625D01*
X622750Y708000D01*
X623063Y707375D01*
X623687Y707063D01*
X623063Y706750D01*
X622750Y706125D01*
X623063Y705500D01*
X623687Y705187D01*
X624313D01*
X624937Y705500D01*
X625250Y706125D01*
X624937Y706750D01*
X624313Y707063D01*
D02*
D14*
X20250Y55250D02*
X40250D01*
Y65250D01*
X20250D01*
Y55250D01*
X45250Y195250D02*
X25250D01*
Y185250D01*
X45250D01*
Y195250D01*
X65250Y55250D02*
X85250D01*
Y65250D01*
X65250D01*
Y55250D01*
X72468Y79801D02*
G75*
G03*
X88032I7782J5449D01*
G01*
X83526Y250289D02*
G75*
G02*
Y250746I0J228D01*
G01*
Y250289D02*
G75*
G02*
Y250746I0J228D01*
G01*
G75*
G02*
Y250289I0J-228D01*
G01*
X85250Y335250D02*
Y355250D01*
X75250D01*
Y335250D01*
X85250D01*
X85348Y255250D02*
X95152D01*
Y205447D01*
X85348D01*
Y255250D01*
X87750Y127750D02*
X67750D01*
Y117750D01*
X87750D01*
Y127750D01*
X165250D02*
X185250D01*
Y137750D01*
X165250D01*
Y127750D01*
Y217750D02*
X185250D01*
Y227750D01*
X165250D01*
Y217750D01*
X166250Y19250D02*
Y26250D01*
X184250D01*
Y19250D01*
X166250D01*
Y29250D02*
Y36250D01*
X184250D01*
Y29250D01*
X166250D01*
Y39250D02*
Y46250D01*
X184250D01*
Y39250D01*
X166250D01*
Y49250D02*
Y56250D01*
X184250D01*
Y49250D01*
X166250D01*
Y59250D02*
Y66250D01*
X184250D01*
Y59250D01*
X166250D01*
Y69250D02*
Y76250D01*
X184250D01*
Y69250D01*
X166250D01*
Y79250D02*
Y86250D01*
X184250D01*
Y79250D01*
X166250D01*
Y89250D02*
Y96250D01*
X184250D01*
Y89250D01*
X166250D01*
Y139250D02*
Y146250D01*
X184250D01*
Y139250D01*
X166250D01*
Y149250D02*
Y156250D01*
X184250D01*
Y149250D01*
X166250D01*
Y159250D02*
Y166250D01*
X184250D01*
Y159250D01*
X166250D01*
Y169250D02*
Y176250D01*
X184250D01*
Y169250D01*
X166250D01*
Y179250D02*
Y186250D01*
X184250D01*
Y179250D01*
X166250D01*
Y189250D02*
Y196250D01*
X184250D01*
Y189250D01*
X166250D01*
Y199250D02*
Y206250D01*
X184250D01*
Y199250D01*
X166250D01*
Y209250D02*
Y216250D01*
X184250D01*
Y209250D01*
X166250D01*
Y259250D02*
Y266250D01*
X184250D01*
Y259250D01*
X166250D01*
Y269250D02*
Y276250D01*
X184250D01*
Y269250D01*
X166250D01*
Y279250D02*
Y286250D01*
X184250D01*
Y279250D01*
X166250D01*
Y289250D02*
Y296250D01*
X184250D01*
Y289250D01*
X166250D01*
Y299250D02*
Y306250D01*
X184250D01*
Y299250D01*
X166250D01*
Y309250D02*
Y316250D01*
X184250D01*
Y309250D01*
X166250D01*
Y319250D02*
Y326250D01*
X184250D01*
Y319250D01*
X166250D01*
Y329250D02*
Y336250D01*
X184250D01*
Y329250D01*
X166250D01*
X183526Y102789D02*
G75*
G02*
Y103246I0J228D01*
G01*
Y102789D02*
G75*
G02*
Y103246I0J228D01*
G01*
G75*
G02*
Y102789I0J-228D01*
G01*
Y222789D02*
G75*
G02*
Y223246I0J228D01*
G01*
Y222789D02*
G75*
G02*
Y223246I0J228D01*
G01*
G75*
G02*
Y222789I0J-228D01*
G01*
Y342789D02*
G75*
G02*
Y343246I0J228D01*
G01*
Y342789D02*
G75*
G02*
Y343246I0J228D01*
G01*
G75*
G02*
Y342789I0J-228D01*
G01*
X185348Y107750D02*
X195152D01*
Y57947D01*
X185348D01*
Y107750D01*
Y227750D02*
X195152D01*
Y177947D01*
X185348D01*
Y227750D01*
Y347750D02*
X195152D01*
Y297947D01*
X185348D01*
Y347750D01*
X195152Y7750D02*
X185348D01*
Y57553D01*
X195152D01*
Y7750D01*
Y127750D02*
X185348D01*
Y177553D01*
X195152D01*
Y127750D01*
Y247750D02*
X185348D01*
Y297553D01*
X195152D01*
Y247750D01*
X196974Y12711D02*
G75*
G02*
Y12254I0J-228D01*
G01*
Y12711D02*
G75*
G02*
Y12254I0J-228D01*
G01*
G75*
G02*
Y12711I0J228D01*
G01*
Y132711D02*
G75*
G02*
Y132254I0J-228D01*
G01*
Y132711D02*
G75*
G02*
Y132254I0J-228D01*
G01*
G75*
G02*
Y132711I0J228D01*
G01*
Y252711D02*
G75*
G02*
Y252254I0J-228D01*
G01*
Y252711D02*
G75*
G02*
Y252254I0J-228D01*
G01*
G75*
G02*
Y252711I0J228D01*
G01*
X297750Y132750D02*
X317750D01*
Y142750D01*
X297750D01*
Y132750D01*
Y222750D02*
X317750D01*
Y232750D01*
X297750D01*
Y222750D01*
X298750Y19250D02*
Y26250D01*
X316750D01*
Y19250D01*
X298750D01*
Y29250D02*
Y36250D01*
X316750D01*
Y29250D01*
X298750D01*
Y39250D02*
Y46250D01*
X316750D01*
Y39250D01*
X298750D01*
Y49250D02*
Y56250D01*
X316750D01*
Y49250D01*
X298750D01*
Y59250D02*
Y66250D01*
X316750D01*
Y59250D01*
X298750D01*
Y69250D02*
Y76250D01*
X316750D01*
Y69250D01*
X298750D01*
Y79250D02*
Y86250D01*
X316750D01*
Y79250D01*
X298750D01*
Y89250D02*
Y96250D01*
X316750D01*
Y89250D01*
X298750D01*
Y144250D02*
Y151250D01*
X316750D01*
Y144250D01*
X298750D01*
Y154250D02*
Y161250D01*
X316750D01*
Y154250D01*
X298750D01*
Y164250D02*
Y171250D01*
X316750D01*
Y164250D01*
X298750D01*
Y174250D02*
Y181250D01*
X316750D01*
Y174250D01*
X298750D01*
Y184250D02*
Y191250D01*
X316750D01*
Y184250D01*
X298750D01*
Y194250D02*
Y201250D01*
X316750D01*
Y194250D01*
X298750D01*
Y204250D02*
Y211250D01*
X316750D01*
Y204250D01*
X298750D01*
Y214250D02*
Y221250D01*
X316750D01*
Y214250D01*
X298750D01*
Y259250D02*
Y266250D01*
X316750D01*
Y259250D01*
X298750D01*
Y269250D02*
Y276250D01*
X316750D01*
Y269250D01*
X298750D01*
Y279250D02*
Y286250D01*
X316750D01*
Y279250D01*
X298750D01*
Y289250D02*
Y296250D01*
X316750D01*
Y289250D01*
X298750D01*
Y299250D02*
Y306250D01*
X316750D01*
Y299250D01*
X298750D01*
Y309250D02*
Y316250D01*
X316750D01*
Y309250D01*
X298750D01*
Y319250D02*
Y326250D01*
X316750D01*
Y319250D01*
X298750D01*
Y329250D02*
Y336250D01*
X316750D01*
Y329250D01*
X298750D01*
X316026Y102789D02*
G75*
G02*
Y103246I0J228D01*
G01*
Y102789D02*
G75*
G02*
Y103246I0J228D01*
G01*
G75*
G02*
Y102789I0J-228D01*
G01*
Y227789D02*
G75*
G02*
Y228246I0J228D01*
G01*
Y227789D02*
G75*
G02*
Y228246I0J228D01*
G01*
G75*
G02*
Y227789I0J-228D01*
G01*
Y342789D02*
G75*
G02*
Y343246I0J228D01*
G01*
Y342789D02*
G75*
G02*
Y343246I0J228D01*
G01*
G75*
G02*
Y342789I0J-228D01*
G01*
X317848Y107750D02*
X327652D01*
Y57947D01*
X317848D01*
Y107750D01*
Y232750D02*
X327652D01*
Y182947D01*
X317848D01*
Y232750D01*
Y347750D02*
X327652D01*
Y297947D01*
X317848D01*
Y347750D01*
X327652Y7750D02*
X317848D01*
Y57553D01*
X327652D01*
Y7750D01*
Y132750D02*
X317848D01*
Y182553D01*
X327652D01*
Y132750D01*
Y247750D02*
X317848D01*
Y297553D01*
X327652D01*
Y247750D01*
X329474Y12711D02*
G75*
G02*
Y12254I0J-228D01*
G01*
Y12711D02*
G75*
G02*
Y12254I0J-228D01*
G01*
G75*
G02*
Y12711I0J228D01*
G01*
Y137711D02*
G75*
G02*
Y137254I0J-228D01*
G01*
Y137711D02*
G75*
G02*
Y137254I0J-228D01*
G01*
G75*
G02*
Y137711I0J228D01*
G01*
Y252711D02*
G75*
G02*
Y252254I0J-228D01*
G01*
Y252711D02*
G75*
G02*
Y252254I0J-228D01*
G01*
G75*
G02*
Y252711I0J228D01*
G01*
D02*
D15*
X70850Y85850D02*
X71750Y90250D01*
X77750D01*
X89650Y85850D02*
X88750Y90250D01*
X82750D01*
X0Y0D02*
M02*
