G05
M48
;#@! TF.GenerationSoftware,DesignSpark,DesignSpark PCB,10.0.5344
;#@! TF.CreationDate,2022-12-26T12:54:53+00:00*
;#@! TF.FileFunction,Plated,1,2,PTH
;FILE_FORMAT=3:5
;TYPE=PLATED
INCH,TZ
FMAT,2
T1C000.02200
T2C000.02400
T3C000.03100
T4C000.03200
T5C000.03307
T6C000.03465
%
T001
X0.70250Y0.82750
X0.80250Y0.92750
X0.90250Y0.82750
T002
X0.20250Y1.12750
X0.22750Y2.87750
X0.40250Y0.70250
X0.65250Y1.57750
X0.75250Y1.67750
X0.77750Y2.47750
X0.85250Y3.62750
X0.90250Y1.12750
X0.95250Y1.27750
X1.00250Y1.17750
X1.00250Y2.30250
X1.00250Y2.40250
X1.02750Y0.22750
X1.02750Y0.92750
X1.05250Y2.10250
X1.05250Y2.72750
X1.10250Y3.27750
X1.10250Y3.42750
X1.12750Y0.27750
X1.12750Y0.82750
X1.12750Y1.40250
X1.17750Y2.62750
X1.17750Y3.32750
X1.37750Y0.42750
X1.37750Y1.45250
X1.37750Y1.62750
X1.37750Y2.67750
X1.45250Y0.52750
X1.45250Y1.72750
X1.47750Y2.50250
X1.65250Y2.07750
X2.00250Y0.47750
X2.00250Y0.67750
X2.00250Y2.87750
X2.00250Y3.07750
X2.05250Y1.07750
X2.05250Y1.37750
X2.05250Y1.67750
X2.05250Y1.87750
X2.37750Y1.47750
X2.37750Y2.17750
X2.40250Y0.22750
X2.40250Y0.92750
X2.45250Y1.62750
X2.45250Y2.07750
X2.45250Y2.62750
X2.45250Y3.32750
X2.65250Y1.72750
X2.67750Y0.27750
X2.67750Y0.42750
X2.70250Y1.67750
X2.75250Y0.52750
X2.75250Y1.77750
X2.80250Y0.37750
X2.80250Y0.87750
X2.95250Y1.37750
X2.95250Y3.27750
X3.35250Y2.87750
X3.35250Y3.07750
X3.37750Y0.47750
X3.37750Y0.77750
T003
X1.70250Y0.22750
X1.70250Y0.32750
X1.70250Y0.42750
X1.70250Y0.52750
X1.70250Y0.62750
X1.70250Y0.72750
X1.70250Y0.82750
X1.70250Y0.92750
X1.70250Y1.42750
X1.70250Y1.52750
X1.70250Y1.62750
X1.70250Y1.72750
X1.70250Y1.82750
X1.70250Y1.92750
X1.70250Y2.02750
X1.70250Y2.12750
X1.70250Y2.62750
X1.70250Y2.72750
X1.70250Y2.82750
X1.70250Y2.92750
X1.70250Y3.02750
X1.70250Y3.12750
X1.70250Y3.22750
X1.70250Y3.32750
X1.80250Y0.22750
X1.80250Y0.32750
X1.80250Y0.42750
X1.80250Y0.52750
X1.80250Y0.62750
X1.80250Y0.72750
X1.80250Y0.82750
X1.80250Y0.92750
X1.80250Y1.42750
X1.80250Y1.52750
X1.80250Y1.62750
X1.80250Y1.72750
X1.80250Y1.82750
X1.80250Y1.92750
X1.80250Y2.02750
X1.80250Y2.12750
X1.80250Y2.62750
X1.80250Y2.72750
X1.80250Y2.82750
X1.80250Y2.92750
X1.80250Y3.02750
X1.80250Y3.12750
X1.80250Y3.22750
X1.80250Y3.32750
X3.02750Y0.22750
X3.02750Y0.32750
X3.02750Y0.42750
X3.02750Y0.52750
X3.02750Y0.62750
X3.02750Y0.72750
X3.02750Y0.82750
X3.02750Y0.92750
X3.02750Y1.47750
X3.02750Y1.57750
X3.02750Y1.67750
X3.02750Y1.77750
X3.02750Y1.87750
X3.02750Y1.97750
X3.02750Y2.07750
X3.02750Y2.17750
X3.02750Y2.62750
X3.02750Y2.72750
X3.02750Y2.82750
X3.02750Y2.92750
X3.02750Y3.02750
X3.02750Y3.12750
X3.02750Y3.22750
X3.02750Y3.32750
X3.12750Y0.22750
X3.12750Y0.32750
X3.12750Y0.42750
X3.12750Y0.52750
X3.12750Y0.62750
X3.12750Y0.72750
X3.12750Y0.82750
X3.12750Y0.92750
X3.12750Y1.47750
X3.12750Y1.57750
X3.12750Y1.67750
X3.12750Y1.77750
X3.12750Y1.87750
X3.12750Y1.97750
X3.12750Y2.07750
X3.12750Y2.17750
X3.12750Y2.62750
X3.12750Y2.72750
X3.12750Y2.82750
X3.12750Y2.92750
X3.12750Y3.02750
X3.12750Y3.12750
X3.12750Y3.22750
X3.12750Y3.32750
T004
X0.25250Y0.60250
X0.30250Y1.72750
X0.30250Y1.90250
X0.35250Y0.60250
X0.35250Y2.07750
X0.35250Y2.17750
X0.35250Y2.27750
X0.35250Y2.37750
X0.35250Y2.47750
X0.35250Y2.57750
X0.35250Y2.67750
X0.35250Y2.92750
X0.35250Y3.02750
X0.35250Y3.12750
X0.35250Y3.22750
X0.35250Y3.32750
X0.35250Y3.42750
X0.35250Y3.52750
X0.40250Y1.72750
X0.40250Y1.90250
X0.65250Y2.07750
X0.65250Y2.17750
X0.65250Y2.27750
X0.65250Y2.37750
X0.65250Y2.47750
X0.65250Y2.57750
X0.65250Y2.67750
X0.65250Y2.92750
X0.65250Y3.02750
X0.65250Y3.12750
X0.65250Y3.22750
X0.65250Y3.32750
X0.65250Y3.42750
X0.65250Y3.52750
X0.70250Y0.60250
X0.72750Y1.05250
X0.72750Y1.22750
X0.72750Y1.37750
X0.80250Y0.60250
X0.80250Y3.40250
X0.80250Y3.50250
X0.82750Y1.05250
X0.82750Y1.22750
X1.27750Y0.32750
X1.27750Y0.42750
X1.27750Y0.52750
X1.27750Y0.62750
X1.27750Y0.72750
X1.27750Y0.82750
X1.27750Y0.92750
X1.27750Y1.02750
X1.27750Y1.12750
X1.27750Y1.22750
X1.27750Y1.52750
X1.27750Y1.62750
X1.27750Y1.72750
X1.27750Y1.82750
X1.27750Y1.92750
X1.27750Y2.02750
X1.27750Y2.12750
X1.27750Y2.22750
X1.27750Y2.32750
X1.27750Y2.42750
X1.27750Y2.72750
X1.27750Y2.82750
X1.27750Y2.92750
X1.27750Y3.02750
X1.27750Y3.12750
X1.27750Y3.22750
X1.27750Y3.32750
X1.27750Y3.42750
X1.27750Y3.52750
X1.27750Y3.62750
X1.57750Y0.32750
X1.57750Y0.42750
X1.57750Y0.52750
X1.57750Y0.62750
X1.57750Y0.72750
X1.57750Y0.82750
X1.57750Y0.92750
X1.57750Y1.02750
X1.57750Y1.12750
X1.57750Y1.22750
X1.57750Y1.52750
X1.57750Y1.62750
X1.57750Y1.72750
X1.57750Y1.82750
X1.57750Y1.92750
X1.57750Y2.02750
X1.57750Y2.12750
X1.57750Y2.22750
X1.57750Y2.32750
X1.57750Y2.42750
X1.57750Y2.72750
X1.57750Y2.82750
X1.57750Y2.92750
X1.57750Y3.02750
X1.57750Y3.12750
X1.57750Y3.22750
X1.57750Y3.32750
X1.57750Y3.42750
X1.57750Y3.52750
X1.57750Y3.62750
X1.70250Y1.32750
X1.70250Y2.22750
X1.80250Y1.32750
X1.80250Y2.22750
X2.57750Y0.32750
X2.57750Y0.42750
X2.57750Y0.52750
X2.57750Y0.62750
X2.57750Y0.72750
X2.57750Y0.82750
X2.57750Y0.92750
X2.57750Y1.02750
X2.57750Y1.12750
X2.57750Y1.22750
X2.57750Y1.57750
X2.57750Y1.67750
X2.57750Y1.77750
X2.57750Y1.87750
X2.57750Y1.97750
X2.57750Y2.07750
X2.57750Y2.17750
X2.57750Y2.27750
X2.57750Y2.37750
X2.57750Y2.47750
X2.57750Y2.72750
X2.57750Y2.82750
X2.57750Y2.92750
X2.57750Y3.02750
X2.57750Y3.12750
X2.57750Y3.22750
X2.57750Y3.32750
X2.57750Y3.42750
X2.57750Y3.52750
X2.57750Y3.62750
X2.87750Y0.32750
X2.87750Y0.42750
X2.87750Y0.52750
X2.87750Y0.62750
X2.87750Y0.72750
X2.87750Y0.82750
X2.87750Y0.92750
X2.87750Y1.02750
X2.87750Y1.12750
X2.87750Y1.22750
X2.87750Y1.57750
X2.87750Y1.67750
X2.87750Y1.77750
X2.87750Y1.87750
X2.87750Y1.97750
X2.87750Y2.07750
X2.87750Y2.17750
X2.87750Y2.27750
X2.87750Y2.37750
X2.87750Y2.47750
X2.87750Y2.72750
X2.87750Y2.82750
X2.87750Y2.92750
X2.87750Y3.02750
X2.87750Y3.12750
X2.87750Y3.22750
X2.87750Y3.32750
X2.87750Y3.42750
X2.87750Y3.52750
X2.87750Y3.62750
X3.02750Y1.37750
X3.02750Y2.27750
X3.12750Y1.37750
X3.12750Y2.27750
T005
X0.35250Y0.92750
X0.35250Y1.02750
X0.35250Y1.12750
X0.35250Y1.22750
X0.35250Y1.32750
X0.45250Y0.92750
X0.45250Y1.02750
X0.45250Y1.12750
X0.45250Y1.22750
X0.45250Y1.32750
X0.90250Y2.10368
X0.90250Y2.20368
X0.90250Y2.30368
X0.90250Y2.40368
X0.90250Y2.50368
X1.90250Y0.12632
X1.90250Y0.22632
X1.90250Y0.32632
X1.90250Y0.42632
X1.90250Y0.52632
X1.90250Y0.62868
X1.90250Y0.72868
X1.90250Y0.82868
X1.90250Y0.92868
X1.90250Y1.02868
X1.90250Y1.32632
X1.90250Y1.42632
X1.90250Y1.52632
X1.90250Y1.62632
X1.90250Y1.72632
X1.90250Y1.82868
X1.90250Y1.92868
X1.90250Y2.02868
X1.90250Y2.12868
X1.90250Y2.22868
X1.90250Y2.52632
X1.90250Y2.62632
X1.90250Y2.72632
X1.90250Y2.82632
X1.90250Y2.92632
X1.90250Y3.02868
X1.90250Y3.12868
X1.90250Y3.22868
X1.90250Y3.32868
X1.90250Y3.42868
X3.22750Y0.12632
X3.22750Y0.22632
X3.22750Y0.32632
X3.22750Y0.42632
X3.22750Y0.52632
X3.22750Y0.62868
X3.22750Y0.72868
X3.22750Y0.82868
X3.22750Y0.92868
X3.22750Y1.02868
X3.22750Y1.37632
X3.22750Y1.47632
X3.22750Y1.57632
X3.22750Y1.67632
X3.22750Y1.77632
X3.22750Y1.87868
X3.22750Y1.97868
X3.22750Y2.07868
X3.22750Y2.17868
X3.22750Y2.27868
X3.22750Y2.52632
X3.22750Y2.62632
X3.22750Y2.72632
X3.22750Y2.82632
X3.22750Y2.92632
X3.22750Y3.02868
X3.22750Y3.12868
X3.22750Y3.22868
X3.22750Y3.32868
X3.22750Y3.42868
T006
X0.25250Y0.25250
X0.35250Y0.45250
X0.45250Y0.25250
X0.70250Y0.25250
X0.80250Y0.45250
X0.90250Y0.25250
M30
