G04 DesignSpark PCB Gerber Version 10.0 Build 5299*
G04 #@! TF.Part,Single*
G04 #@! TF.FileFunction,Copper,L1,Top*
G04 #@! TF.FilePolarity,Positive*
%FSLAX35Y35*%
%MOIN*%
G04 #@! TA.AperFunction,ComponentPad*
%ADD20R,0.04000X0.04000*%
%ADD25R,0.05500X0.05500*%
%ADD70R,0.06000X0.06000*%
G04 #@! TD.AperFunction*
%ADD13C,0.00500*%
%ADD15C,0.00800*%
%ADD14C,0.01000*%
G04 #@! TA.AperFunction,ComponentPad*
%ADD21C,0.04000*%
G04 #@! TA.AperFunction,ViaPad*
%ADD16C,0.04800*%
G04 #@! TD.AperFunction*
%ADD17C,0.05000*%
G04 #@! TA.AperFunction,ComponentPad*
%ADD24C,0.05276*%
%ADD19C,0.05374*%
%ADD23C,0.05433*%
%ADD26C,0.05500*%
G04 #@! TA.AperFunction,ViaPad*
%ADD18C,0.05600*%
G04 #@! TA.AperFunction,ComponentPad*
%ADD71C,0.06000*%
%ADD22O,0.11000X0.06000*%
G04 #@! TD.AperFunction*
X0Y0D02*
D02*
D13*
X250Y250D02*
X390250D01*
Y390250D01*
X250D01*
Y250D01*
X5250Y385250D02*
Y5250D01*
X382750D01*
Y385250D01*
X5250D01*
X37750Y231600D02*
G75*
G02*
Y223900I0J-3850D01*
G01*
X32750D01*
G75*
G02*
X29108Y226500I0J3850D01*
G01*
X21500D01*
Y115750D01*
G75*
G02*
X23500Y112750I-1250J-3000D01*
G01*
G75*
G02*
X17000I-3250J0D01*
G01*
G75*
G02*
X19000Y115750I3250J0D01*
G01*
Y227750D01*
G75*
G02*
X20250Y229000I1250J0D01*
G01*
X29108D01*
G75*
G02*
X32750Y231600I3642J-1250D01*
G01*
X37750D01*
X26000Y172750D02*
G75*
G02*
X34500I4250J0D01*
G01*
G75*
G02*
X26000I-4250J0D01*
G01*
X36500Y63891D02*
G75*
G02*
Y56609I-1250J-3641D01*
G01*
Y48590D01*
G75*
G02*
X35250Y41683I-1250J-3340D01*
G01*
G75*
G02*
X34000Y48590I0J3567D01*
G01*
Y56609D01*
G75*
G02*
Y63891I1250J3641D01*
G01*
Y89441D01*
G75*
G02*
X31713Y92750I1250J3309D01*
G01*
G75*
G02*
X38787I3537J0D01*
G01*
G75*
G02*
X36500Y89441I-3537J0D01*
G01*
Y63891D01*
X41500Y73250D02*
G75*
G02*
X43500Y70250I-1250J-3000D01*
G01*
G75*
G02*
X37000I-3250J0D01*
G01*
G75*
G02*
X39000Y73250I3250J0D01*
G01*
Y101500D01*
X38559D01*
G75*
G02*
X31713Y102750I-3309J1250D01*
G01*
G75*
G02*
X38559Y104000I3537J0D01*
G01*
X40250D01*
G75*
G02*
X41500Y102750I0J-1250D01*
G01*
Y73250D01*
X41683Y25250D02*
G75*
G02*
X48817I3567J0D01*
G01*
G75*
G02*
X41683I-3567J0D01*
G01*
X31713Y112750D02*
G75*
G02*
X38787I3537J0D01*
G01*
G75*
G02*
X31713I-3537J0D01*
G01*
Y122750D02*
G75*
G02*
X38787I3537J0D01*
G01*
G75*
G02*
X31713I-3537J0D01*
G01*
Y132750D02*
G75*
G02*
X38787I3537J0D01*
G01*
G75*
G02*
X31713I-3537J0D01*
G01*
X26000Y190250D02*
G75*
G02*
X34500I4250J0D01*
G01*
G75*
G02*
X26000I-4250J0D01*
G01*
X37750Y211600D02*
G75*
G02*
Y203900I0J-3850D01*
G01*
X32750D01*
G75*
G02*
Y211600I0J3850D01*
G01*
X37750D01*
X36400Y194100D02*
X44100D01*
Y186400D01*
X36400D01*
Y194100D01*
X40250Y176600D02*
G75*
G02*
X44100Y172750I0J-3850D01*
G01*
G75*
G02*
X40250Y168900I-3850J0D01*
G01*
G75*
G02*
X36400Y172750I0J3850D01*
G01*
G75*
G02*
X40250Y176600I3850J0D01*
G01*
X41713Y92750D02*
G75*
G02*
X48787I3537J0D01*
G01*
G75*
G02*
X41713I-3537J0D01*
G01*
Y102750D02*
G75*
G02*
X48787I3537J0D01*
G01*
G75*
G02*
X41713I-3537J0D01*
G01*
Y112750D02*
G75*
G02*
X48787I3537J0D01*
G01*
G75*
G02*
X41713I-3537J0D01*
G01*
Y122750D02*
G75*
G02*
X48787I3537J0D01*
G01*
G75*
G02*
X41713I-3537J0D01*
G01*
Y132750D02*
G75*
G02*
X48787I3537J0D01*
G01*
G75*
G02*
X41713I-3537J0D01*
G01*
X37750Y221600D02*
G75*
G02*
Y213900I0J-3850D01*
G01*
X32750D01*
G75*
G02*
Y221600I0J3850D01*
G01*
X37750D01*
X21283Y25250D02*
G75*
G02*
X29217I3967J0D01*
G01*
G75*
G02*
X21283I-3967J0D01*
G01*
X21400Y64100D02*
X29100D01*
Y56400D01*
X21400D01*
Y64100D01*
X37750Y241600D02*
G75*
G02*
Y233900I0J-3850D01*
G01*
X32750D01*
G75*
G02*
X29108Y236500I0J3850D01*
G01*
X22750D01*
G75*
G02*
X21500Y237750I0J1250D01*
G01*
Y284750D01*
G75*
G02*
X19500Y287750I1250J3000D01*
G01*
G75*
G02*
X26000I3250J0D01*
G01*
G75*
G02*
X24000Y284750I-3250J0D01*
G01*
Y239000D01*
X29108D01*
G75*
G02*
X32750Y241600I3642J-1250D01*
G01*
X37750D01*
Y251600D02*
G75*
G02*
Y243900I0J-3850D01*
G01*
X32750D01*
G75*
G02*
Y251600I0J3850D01*
G01*
X37750D01*
Y261600D02*
G75*
G02*
Y253900I0J-3850D01*
G01*
X32750D01*
G75*
G02*
Y261600I0J3850D01*
G01*
X37750D01*
Y271600D02*
G75*
G02*
Y263900I0J-3850D01*
G01*
X32750D01*
G75*
G02*
Y271600I0J3850D01*
G01*
X37750D01*
Y296600D02*
G75*
G02*
Y288900I0J-3850D01*
G01*
X32750D01*
G75*
G02*
Y296600I0J3850D01*
G01*
X37750D01*
Y306600D02*
G75*
G02*
Y298900I0J-3850D01*
G01*
X32750D01*
G75*
G02*
Y306600I0J3850D01*
G01*
X37750D01*
Y316600D02*
G75*
G02*
Y308900I0J-3850D01*
G01*
X32750D01*
G75*
G02*
Y316600I0J3850D01*
G01*
X37750D01*
Y326600D02*
G75*
G02*
Y318900I0J-3850D01*
G01*
X32750D01*
G75*
G02*
Y326600I0J3850D01*
G01*
X37750D01*
Y336600D02*
G75*
G02*
Y328900I0J-3850D01*
G01*
X32750D01*
G75*
G02*
Y336600I0J3850D01*
G01*
X37750D01*
Y346600D02*
G75*
G02*
Y338900I0J-3850D01*
G01*
X32750D01*
G75*
G02*
Y346600I0J3850D01*
G01*
X37750D01*
Y356600D02*
G75*
G02*
Y348900I0J-3850D01*
G01*
X32750D01*
G75*
G02*
Y356600I0J3850D01*
G01*
X37750D01*
X67750Y261600D02*
G75*
G02*
Y253900I0J-3850D01*
G01*
X62750D01*
G75*
G02*
X59108Y256500I0J3850D01*
G01*
X54000D01*
Y229000D01*
X59108D01*
G75*
G02*
X62750Y231600I3642J-1250D01*
G01*
X67750D01*
G75*
G02*
Y223900I0J-3850D01*
G01*
X62750D01*
G75*
G02*
X59108Y226500I0J3850D01*
G01*
X52750D01*
G75*
G02*
X51500Y227750I0J1250D01*
G01*
Y257750D01*
G75*
G02*
X52750Y259000I1250J0D01*
G01*
X59108D01*
G75*
G02*
X62750Y261600I3642J-1250D01*
G01*
X67750D01*
Y241600D02*
G75*
G02*
Y233900I0J-3850D01*
G01*
X62750D01*
G75*
G02*
Y241600I0J3850D01*
G01*
X67750D01*
Y251600D02*
G75*
G02*
Y243900I0J-3850D01*
G01*
X62750D01*
G75*
G02*
Y251600I0J3850D01*
G01*
X67750D01*
Y211600D02*
G75*
G02*
Y203900I0J-3850D01*
G01*
X66500D01*
Y160750D01*
G75*
G02*
X68500Y157750I-1250J-3000D01*
G01*
G75*
G02*
X62000I-3250J0D01*
G01*
G75*
G02*
X64000Y160750I3250J0D01*
G01*
Y203900D01*
X62750D01*
G75*
G02*
Y211600I0J3850D01*
G01*
X67750D01*
X76100Y107147D02*
G75*
G02*
Y103353I-3350J-1897D01*
G01*
Y102750D01*
G75*
G02*
X75117Y100380I-3350J0D01*
G01*
X73600Y98862D01*
Y82823D01*
G75*
G02*
X73601Y82750I-3359J-73D01*
G01*
G75*
G02*
X66899I-3351J0D01*
G01*
G75*
G02*
X66900Y82823I3360J0D01*
G01*
Y100250D01*
G75*
G02*
X67883Y102620I3350J0D01*
G01*
X69149Y103887D01*
G75*
G02*
X69400Y107147I3600J1363D01*
G01*
Y120853D01*
G75*
G02*
Y124647I3350J1897D01*
G01*
Y136301D01*
G75*
G02*
X69100Y137750I3350J1449D01*
G01*
G75*
G02*
X76400I3650J0D01*
G01*
G75*
G02*
X76100Y136301I-3650J0D01*
G01*
Y124647D01*
G75*
G02*
Y120853I-3350J-1897D01*
G01*
Y107147D01*
X76400Y60250D02*
G75*
G02*
X84100I3850J0D01*
G01*
G75*
G02*
X81500Y56609I-3850J0D01*
G01*
Y48590D01*
G75*
G02*
X80250Y41683I-1250J-3340D01*
G01*
G75*
G02*
X79000Y48590I0J3567D01*
G01*
Y56609D01*
G75*
G02*
X76400Y60250I1250J3641D01*
G01*
X66283Y25250D02*
G75*
G02*
X74217I3967J0D01*
G01*
G75*
G02*
X66283I-3967J0D01*
G01*
X66400Y64100D02*
X74100D01*
Y56400D01*
X66400D01*
Y64100D01*
X67750Y221600D02*
G75*
G02*
Y213900I0J-3850D01*
G01*
X62750D01*
G75*
G02*
Y221600I0J3850D01*
G01*
X67750D01*
Y271600D02*
G75*
G02*
Y263900I0J-3850D01*
G01*
X62750D01*
G75*
G02*
Y271600I0J3850D01*
G01*
X67750D01*
Y296600D02*
G75*
G02*
Y288900I0J-3850D01*
G01*
X62750D01*
G75*
G02*
Y296600I0J3850D01*
G01*
X67750D01*
Y306600D02*
G75*
G02*
Y298900I0J-3850D01*
G01*
X62750D01*
G75*
G02*
Y306600I0J3850D01*
G01*
X67750D01*
Y316600D02*
G75*
G02*
Y308900I0J-3850D01*
G01*
X62750D01*
G75*
G02*
Y316600I0J3850D01*
G01*
X67750D01*
Y326600D02*
G75*
G02*
Y318900I0J-3850D01*
G01*
X62750D01*
G75*
G02*
Y326600I0J3850D01*
G01*
X67750D01*
Y336600D02*
G75*
G02*
Y328900I0J-3850D01*
G01*
X62750D01*
G75*
G02*
Y336600I0J3850D01*
G01*
X67750D01*
Y346600D02*
G75*
G02*
Y338900I0J-3850D01*
G01*
X62750D01*
G75*
G02*
Y346600I0J3850D01*
G01*
X67750D01*
Y356600D02*
G75*
G02*
Y348900I0J-3850D01*
G01*
X62750D01*
G75*
G02*
Y356600I0J3850D01*
G01*
X67750D01*
X74500Y247750D02*
G75*
G02*
X81000I3250J0D01*
G01*
G75*
G02*
X79000Y244750I-3250J0D01*
G01*
Y207750D01*
G75*
G02*
X77750Y206500I-1250J0D01*
G01*
X76500D01*
Y170750D01*
G75*
G02*
X78500Y167750I-1250J-3000D01*
G01*
G75*
G02*
X72000I-3250J0D01*
G01*
G75*
G02*
X74000Y170750I3250J0D01*
G01*
Y207750D01*
G75*
G02*
X75250Y209000I1250J0D01*
G01*
X76500D01*
Y244750D01*
G75*
G02*
X74500Y247750I1250J3000D01*
G01*
X78900Y126600D02*
X86600D01*
Y118900D01*
X78900D01*
Y126600D01*
X82750Y109100D02*
G75*
G02*
X86600Y105250I0J-3850D01*
G01*
G75*
G02*
X82750Y101400I-3850J0D01*
G01*
G75*
G02*
X78900Y105250I0J3850D01*
G01*
G75*
G02*
X82750Y109100I3850J0D01*
G01*
X77400Y92750D02*
G75*
G02*
X83100I2850J0D01*
G01*
G75*
G02*
X77400I-2850J0D01*
G01*
X86500Y251394D02*
G75*
G02*
X94138Y250368I3750J-1026D01*
G01*
G75*
G02*
X86500Y249342I-3888J0D01*
G01*
Y241618D01*
X86994D01*
G75*
G02*
X93738Y240368I3256J-1250D01*
G01*
G75*
G02*
X86994Y239118I-3488J0D01*
G01*
X85250D01*
G75*
G02*
X84000Y240368I0J1250D01*
G01*
Y336400D01*
X76400D01*
Y344100D01*
X84000D01*
Y348250D01*
G75*
G02*
X76000Y350250I-3750J2000D01*
G01*
G75*
G02*
X84000Y352250I4250J0D01*
G01*
Y359750D01*
G75*
G02*
X82000Y362750I1250J3000D01*
G01*
G75*
G02*
X88500I3250J0D01*
G01*
G75*
G02*
X86500Y359750I-3250J0D01*
G01*
Y251394D01*
X86683Y25250D02*
G75*
G02*
X93817I3567J0D01*
G01*
G75*
G02*
X86683I-3567J0D01*
G01*
X86762Y210368D02*
G75*
G02*
X93738I3488J0D01*
G01*
G75*
G02*
X91500Y207112I-3488J0D01*
G01*
Y115750D01*
G75*
G02*
X93500Y112750I-1250J-3000D01*
G01*
G75*
G02*
X87000I-3250J0D01*
G01*
G75*
G02*
X89000Y115750I3250J0D01*
G01*
Y207112D01*
G75*
G02*
X86762Y210368I1250J3256D01*
G01*
X97250Y241500D02*
G75*
G02*
X103500Y240250I3000J-1250D01*
G01*
G75*
G02*
X97250Y239000I-3250J0D01*
G01*
X96500D01*
Y130750D01*
G75*
G02*
X98500Y127750I-1250J-3000D01*
G01*
G75*
G02*
X92000I-3250J0D01*
G01*
G75*
G02*
X94000Y130750I3250J0D01*
G01*
Y240250D01*
G75*
G02*
X95250Y241500I1250J0D01*
G01*
X97250D01*
X97000Y230250D02*
G75*
G02*
X103500I3250J0D01*
G01*
G75*
G02*
X101500Y227250I-3250J0D01*
G01*
Y120750D01*
G75*
G02*
X103500Y117750I-1250J-3000D01*
G01*
G75*
G02*
X97000I-3250J0D01*
G01*
G75*
G02*
X99000Y120750I3250J0D01*
G01*
Y227250D01*
G75*
G02*
X97000Y230250I1250J3000D01*
G01*
X102000Y272750D02*
G75*
G02*
X108500I3250J0D01*
G01*
G75*
G02*
X106500Y269750I-3250J0D01*
G01*
Y213250D01*
G75*
G02*
X108500Y210250I-1250J-3000D01*
G01*
G75*
G02*
X102000I-3250J0D01*
G01*
G75*
G02*
X104000Y213250I3250J0D01*
G01*
Y269750D01*
G75*
G02*
X102000Y272750I1250J3000D01*
G01*
X99500Y92750D02*
G75*
G02*
X106000I3250J0D01*
G01*
G75*
G02*
X104000Y89750I-3250J0D01*
G01*
Y25750D01*
G75*
G02*
X106000Y22750I-1250J-3000D01*
G01*
G75*
G02*
X99500I-3250J0D01*
G01*
G75*
G02*
X101500Y25750I3250J0D01*
G01*
Y89750D01*
G75*
G02*
X99500Y92750I1250J3000D01*
G01*
X87000Y86000D02*
X93500D01*
Y79500D01*
X87000D01*
Y86000D01*
X86762Y220368D02*
G75*
G02*
X93738I3488J0D01*
G01*
G75*
G02*
X86762I-3488J0D01*
G01*
Y230368D02*
G75*
G02*
X93738I3488J0D01*
G01*
G75*
G02*
X86762I-3488J0D01*
G01*
X130250Y226600D02*
G75*
G02*
Y218900I0J-3850D01*
G01*
X125250D01*
G75*
G02*
X124376Y219000I0J3851D01*
G01*
X110250D01*
G75*
G02*
X109000Y220250I0J1250D01*
G01*
Y324750D01*
G75*
G02*
Y330750I1250J3000D01*
G01*
Y339750D01*
G75*
G02*
X107000Y342750I1250J3000D01*
G01*
G75*
G02*
X113500I3250J0D01*
G01*
G75*
G02*
X111500Y339750I-3250J0D01*
G01*
Y330750D01*
G75*
G02*
Y324750I-1250J-3000D01*
G01*
Y221500D01*
X121608D01*
G75*
G02*
X125250Y226600I3642J1250D01*
G01*
X130250D01*
Y216600D02*
G75*
G02*
Y208900I0J-3850D01*
G01*
X125250D01*
G75*
G02*
X124376Y209000I0J3851D01*
G01*
X114000D01*
Y143250D01*
G75*
G02*
X116000Y140250I-1250J-3000D01*
G01*
G75*
G02*
X109500I-3250J0D01*
G01*
G75*
G02*
X111500Y143250I3250J0D01*
G01*
Y210250D01*
G75*
G02*
X112750Y211500I1250J0D01*
G01*
X121608D01*
G75*
G02*
X125250Y216600I3642J1250D01*
G01*
X130250D01*
Y57000D02*
G75*
G02*
Y48500I0J-4250D01*
G01*
X125250D01*
G75*
G02*
Y57000I0J4250D01*
G01*
X130250D01*
X134500Y162750D02*
G75*
G02*
X141000I3250J0D01*
G01*
G75*
G02*
X139000Y159750I-3250J0D01*
G01*
Y148250D01*
G75*
G02*
Y142250I-1250J-3000D01*
G01*
Y45750D01*
G75*
G02*
X141000Y42750I-1250J-3000D01*
G01*
G75*
G02*
X134500I-3250J0D01*
G01*
G75*
G02*
X136500Y45750I3250J0D01*
G01*
Y142250D01*
G75*
G02*
Y148250I1250J3000D01*
G01*
Y159750D01*
G75*
G02*
X134500Y162750I1250J3000D01*
G01*
X130250Y36600D02*
G75*
G02*
Y28900I0J-3850D01*
G01*
X125250D01*
G75*
G02*
Y36600I0J3850D01*
G01*
X130250D01*
Y46600D02*
G75*
G02*
Y38900I0J-3850D01*
G01*
X125250D01*
G75*
G02*
Y46600I0J3850D01*
G01*
X130250D01*
Y117000D02*
G75*
G02*
Y108500I0J-4250D01*
G01*
X125250D01*
G75*
G02*
Y117000I0J4250D01*
G01*
X130250D01*
Y66600D02*
G75*
G02*
Y58900I0J-3850D01*
G01*
X125250D01*
G75*
G02*
Y66600I0J3850D01*
G01*
X130250D01*
Y76600D02*
G75*
G02*
Y68900I0J-3850D01*
G01*
X125250D01*
G75*
G02*
Y76600I0J3850D01*
G01*
X130250D01*
Y86600D02*
G75*
G02*
Y78900I0J-3850D01*
G01*
X125250D01*
G75*
G02*
Y86600I0J3850D01*
G01*
X130250D01*
Y96600D02*
G75*
G02*
Y88900I0J-3850D01*
G01*
X125250D01*
G75*
G02*
Y96600I0J3850D01*
G01*
X130250D01*
Y106600D02*
G75*
G02*
Y98900I0J-3850D01*
G01*
X125250D01*
G75*
G02*
Y106600I0J3850D01*
G01*
X130250D01*
Y177000D02*
G75*
G02*
Y168500I0J-4250D01*
G01*
X125250D01*
G75*
G02*
Y177000I0J4250D01*
G01*
X130250D01*
Y126600D02*
G75*
G02*
Y118900I0J-3850D01*
G01*
X125250D01*
G75*
G02*
Y126600I0J3850D01*
G01*
X130250D01*
Y156600D02*
G75*
G02*
Y148900I0J-3850D01*
G01*
X125250D01*
G75*
G02*
Y156600I0J3850D01*
G01*
X130250D01*
Y166600D02*
G75*
G02*
Y158900I0J-3850D01*
G01*
X125250D01*
G75*
G02*
Y166600I0J3850D01*
G01*
X130250D01*
Y186600D02*
G75*
G02*
Y178900I0J-3850D01*
G01*
X125250D01*
G75*
G02*
Y186600I0J3850D01*
G01*
X130250D01*
Y196600D02*
G75*
G02*
Y188900I0J-3850D01*
G01*
X125250D01*
G75*
G02*
Y196600I0J3850D01*
G01*
X130250D01*
Y206600D02*
G75*
G02*
Y198900I0J-3850D01*
G01*
X125250D01*
G75*
G02*
Y206600I0J3850D01*
G01*
X130250D01*
X109500Y82750D02*
G75*
G02*
X116000I3250J0D01*
G01*
G75*
G02*
X114000Y79750I-3250J0D01*
G01*
Y30750D01*
G75*
G02*
X116000Y27750I-1250J-3000D01*
G01*
G75*
G02*
X109500I-3250J0D01*
G01*
G75*
G02*
X111500Y30750I3250J0D01*
G01*
Y79750D01*
G75*
G02*
X109500Y82750I1250J3000D01*
G01*
X114500Y332750D02*
G75*
G02*
X121000I3250J0D01*
G01*
G75*
G02*
X119000Y329750I-3250J0D01*
G01*
Y265750D01*
G75*
G02*
X121000Y262750I-1250J-3000D01*
G01*
G75*
G02*
X114500I-3250J0D01*
G01*
G75*
G02*
X116500Y265750I3250J0D01*
G01*
Y329750D01*
G75*
G02*
X114500Y332750I1250J3000D01*
G01*
X130250Y297000D02*
G75*
G02*
Y288500I0J-4250D01*
G01*
X125250D01*
G75*
G02*
Y297000I0J4250D01*
G01*
X130250D01*
X139000Y270750D02*
G75*
G02*
X141000Y267750I-1250J-3000D01*
G01*
G75*
G02*
X134500I-3250J0D01*
G01*
G75*
G02*
X136500Y270750I3250J0D01*
G01*
Y321500D01*
X133892D01*
G75*
G02*
X130250Y318900I-3642J1250D01*
G01*
X125250D01*
G75*
G02*
Y326600I0J3850D01*
G01*
X130250D01*
G75*
G02*
X133892Y324000I0J-3850D01*
G01*
X137750D01*
G75*
G02*
X139000Y322750I0J-1250D01*
G01*
Y270750D01*
X130250Y246600D02*
G75*
G02*
Y238900I0J-3850D01*
G01*
X125250D01*
G75*
G02*
Y246600I0J3850D01*
G01*
X130250D01*
Y276600D02*
G75*
G02*
Y268900I0J-3850D01*
G01*
X125250D01*
G75*
G02*
Y276600I0J3850D01*
G01*
X130250D01*
Y286600D02*
G75*
G02*
Y278900I0J-3850D01*
G01*
X125250D01*
G75*
G02*
Y286600I0J3850D01*
G01*
X130250D01*
Y237000D02*
G75*
G02*
Y228500I0J-4250D01*
G01*
X125250D01*
G75*
G02*
Y237000I0J4250D01*
G01*
X130250D01*
Y357000D02*
G75*
G02*
Y348500I0J-4250D01*
G01*
X125250D01*
G75*
G02*
Y357000I0J4250D01*
G01*
X130250D01*
Y306600D02*
G75*
G02*
Y298900I0J-3850D01*
G01*
X125250D01*
G75*
G02*
Y306600I0J3850D01*
G01*
X130250D01*
Y316600D02*
G75*
G02*
Y308900I0J-3850D01*
G01*
X125250D01*
G75*
G02*
Y316600I0J3850D01*
G01*
X130250D01*
Y336600D02*
G75*
G02*
Y328900I0J-3850D01*
G01*
X125250D01*
G75*
G02*
Y336600I0J3850D01*
G01*
X130250D01*
Y346600D02*
G75*
G02*
Y338900I0J-3850D01*
G01*
X125250D01*
G75*
G02*
Y346600I0J3850D01*
G01*
X130250D01*
Y366600D02*
G75*
G02*
Y358900I0J-3850D01*
G01*
X125250D01*
G75*
G02*
Y366600I0J3850D01*
G01*
X130250D01*
X142000Y172750D02*
G75*
G02*
X148500I3250J0D01*
G01*
G75*
G02*
X146500Y169750I-3250J0D01*
G01*
Y55750D01*
G75*
G02*
X148500Y52750I-1250J-3000D01*
G01*
G75*
G02*
X142000I-3250J0D01*
G01*
G75*
G02*
X144000Y55750I3250J0D01*
G01*
Y169750D01*
G75*
G02*
X142000Y172750I1250J3000D01*
G01*
X160250Y296600D02*
G75*
G02*
Y288900I0J-3850D01*
G01*
X155667D01*
X149000Y282232D01*
Y253250D01*
G75*
G02*
X151000Y250250I-1250J-3000D01*
G01*
G75*
G02*
X144500I-3250J0D01*
G01*
G75*
G02*
X146500Y253250I3250J0D01*
G01*
Y282750D01*
G75*
G02*
X146868Y283635I1250J0D01*
G01*
X152918Y289686D01*
G75*
G02*
X155250Y296600I2332J3064D01*
G01*
X160250D01*
Y36600D02*
G75*
G02*
Y28900I0J-3850D01*
G01*
X155250D01*
G75*
G02*
Y36600I0J3850D01*
G01*
X160250D01*
Y46600D02*
G75*
G02*
Y38900I0J-3850D01*
G01*
X155250D01*
G75*
G02*
Y46600I0J3850D01*
G01*
X160250D01*
Y56600D02*
G75*
G02*
Y48900I0J-3850D01*
G01*
X155250D01*
G75*
G02*
Y56600I0J3850D01*
G01*
X160250D01*
Y66600D02*
G75*
G02*
Y58900I0J-3850D01*
G01*
X155250D01*
G75*
G02*
Y66600I0J3850D01*
G01*
X160250D01*
Y76600D02*
G75*
G02*
Y68900I0J-3850D01*
G01*
X155250D01*
G75*
G02*
Y76600I0J3850D01*
G01*
X160250D01*
Y86600D02*
G75*
G02*
Y78900I0J-3850D01*
G01*
X155250D01*
G75*
G02*
Y86600I0J3850D01*
G01*
X160250D01*
Y96600D02*
G75*
G02*
Y88900I0J-3850D01*
G01*
X155250D01*
G75*
G02*
Y96600I0J3850D01*
G01*
X160250D01*
Y106600D02*
G75*
G02*
Y98900I0J-3850D01*
G01*
X155250D01*
G75*
G02*
Y106600I0J3850D01*
G01*
X160250D01*
Y116600D02*
G75*
G02*
Y108900I0J-3850D01*
G01*
X155250D01*
G75*
G02*
Y116600I0J3850D01*
G01*
X160250D01*
Y126600D02*
G75*
G02*
Y118900I0J-3850D01*
G01*
X155250D01*
G75*
G02*
Y126600I0J3850D01*
G01*
X160250D01*
X166874Y154000D02*
G75*
G02*
X173850Y152750I3376J-1250D01*
G01*
G75*
G02*
X166874Y151500I-3600J0D01*
G01*
X165250D01*
G75*
G02*
X164076Y152320I0J1250D01*
G01*
G75*
G02*
X160250Y148900I-3826J430D01*
G01*
X155250D01*
G75*
G02*
Y156600I0J3850D01*
G01*
X160250D01*
G75*
G02*
X164000Y153624I0J-3850D01*
G01*
Y161876D01*
G75*
G02*
X160250Y158900I-3750J874D01*
G01*
X155250D01*
G75*
G02*
Y166600I0J3850D01*
G01*
X160250D01*
G75*
G02*
X164000Y163624I0J-3850D01*
G01*
Y171876D01*
G75*
G02*
X160250Y168900I-3750J874D01*
G01*
X155250D01*
G75*
G02*
Y176600I0J3850D01*
G01*
X160250D01*
G75*
G02*
X164000Y173624I0J-3850D01*
G01*
Y181876D01*
G75*
G02*
X160250Y178900I-3750J874D01*
G01*
X155250D01*
G75*
G02*
Y186600I0J3850D01*
G01*
X160250D01*
G75*
G02*
X164000Y183624I0J-3850D01*
G01*
Y191876D01*
G75*
G02*
X160250Y188900I-3750J874D01*
G01*
X155250D01*
G75*
G02*
Y196600I0J3850D01*
G01*
X160250D01*
G75*
G02*
X164000Y193624I0J-3850D01*
G01*
Y201876D01*
G75*
G02*
X160250Y198900I-3750J874D01*
G01*
X155250D01*
G75*
G02*
Y206600I0J3850D01*
G01*
X160250D01*
G75*
G02*
X162736Y205690I0J-3851D01*
G01*
G75*
G02*
Y209810I2514J2060D01*
G01*
G75*
G02*
X160250Y208900I-2486J2941D01*
G01*
X155250D01*
G75*
G02*
Y216600I0J3850D01*
G01*
X160250D01*
G75*
G02*
X163190Y210264I0J-3850D01*
G01*
G75*
G02*
X168500Y207750I2060J-2514D01*
G01*
G75*
G02*
X166500Y204750I-3250J0D01*
G01*
Y154000D01*
X166874D01*
X166650Y162750D02*
G75*
G02*
X173850I3600J0D01*
G01*
G75*
G02*
X166650I-3600J0D01*
G01*
Y172750D02*
G75*
G02*
X173850I3600J0D01*
G01*
G75*
G02*
X166650I-3600J0D01*
G01*
Y182750D02*
G75*
G02*
X173850I3600J0D01*
G01*
G75*
G02*
X166650I-3600J0D01*
G01*
Y192750D02*
G75*
G02*
X173850I3600J0D01*
G01*
G75*
G02*
X166650I-3600J0D01*
G01*
Y202750D02*
G75*
G02*
X173850I3600J0D01*
G01*
G75*
G02*
X166650I-3600J0D01*
G01*
X166400Y136600D02*
X174100D01*
Y128900D01*
X166400D01*
Y136600D01*
X166650Y22750D02*
G75*
G02*
X173850I3600J0D01*
G01*
G75*
G02*
X166650I-3600J0D01*
G01*
Y32750D02*
G75*
G02*
X173850I3600J0D01*
G01*
G75*
G02*
X166650I-3600J0D01*
G01*
Y42750D02*
G75*
G02*
X173850I3600J0D01*
G01*
G75*
G02*
X166650I-3600J0D01*
G01*
Y52750D02*
G75*
G02*
X173850I3600J0D01*
G01*
G75*
G02*
X166650I-3600J0D01*
G01*
Y62750D02*
G75*
G02*
X173850I3600J0D01*
G01*
G75*
G02*
X166650I-3600J0D01*
G01*
Y72750D02*
G75*
G02*
X173850I3600J0D01*
G01*
G75*
G02*
X166650I-3600J0D01*
G01*
Y82750D02*
G75*
G02*
X173850I3600J0D01*
G01*
G75*
G02*
X166650I-3600J0D01*
G01*
Y92750D02*
G75*
G02*
X173850I3600J0D01*
G01*
G75*
G02*
X166650I-3600J0D01*
G01*
Y142750D02*
G75*
G02*
X173850I3600J0D01*
G01*
G75*
G02*
X166650I-3600J0D01*
G01*
X160250Y226600D02*
G75*
G02*
Y218900I0J-3850D01*
G01*
X155250D01*
G75*
G02*
Y226600I0J3850D01*
G01*
X160250D01*
Y236600D02*
G75*
G02*
Y228900I0J-3850D01*
G01*
X155250D01*
G75*
G02*
Y236600I0J3850D01*
G01*
X160250D01*
Y246600D02*
G75*
G02*
Y238900I0J-3850D01*
G01*
X155250D01*
G75*
G02*
Y246600I0J3850D01*
G01*
X160250D01*
Y276600D02*
G75*
G02*
Y268900I0J-3850D01*
G01*
X155250D01*
G75*
G02*
Y276600I0J3850D01*
G01*
X160250D01*
Y286600D02*
G75*
G02*
Y278900I0J-3850D01*
G01*
X155250D01*
G75*
G02*
Y286600I0J3850D01*
G01*
X160250D01*
Y306600D02*
G75*
G02*
Y298900I0J-3850D01*
G01*
X155250D01*
G75*
G02*
Y306600I0J3850D01*
G01*
X160250D01*
Y316600D02*
G75*
G02*
Y308900I0J-3850D01*
G01*
X155250D01*
G75*
G02*
Y316600I0J3850D01*
G01*
X160250D01*
Y326600D02*
G75*
G02*
Y318900I0J-3850D01*
G01*
X155250D01*
G75*
G02*
Y326600I0J3850D01*
G01*
X160250D01*
Y336600D02*
G75*
G02*
Y328900I0J-3850D01*
G01*
X155250D01*
G75*
G02*
Y336600I0J3850D01*
G01*
X160250D01*
Y346600D02*
G75*
G02*
Y338900I0J-3850D01*
G01*
X155250D01*
G75*
G02*
Y346600I0J3850D01*
G01*
X160250D01*
Y356600D02*
G75*
G02*
Y348900I0J-3850D01*
G01*
X155250D01*
G75*
G02*
Y356600I0J3850D01*
G01*
X160250D01*
Y366600D02*
G75*
G02*
Y358900I0J-3850D01*
G01*
X155250D01*
G75*
G02*
Y366600I0J3850D01*
G01*
X160250D01*
X166400Y226600D02*
X174100D01*
Y218900D01*
X166400D01*
Y226600D01*
X166650Y212750D02*
G75*
G02*
X173850I3600J0D01*
G01*
G75*
G02*
X166650I-3600J0D01*
G01*
Y262750D02*
G75*
G02*
X173850I3600J0D01*
G01*
G75*
G02*
X166650I-3600J0D01*
G01*
Y272750D02*
G75*
G02*
X173850I3600J0D01*
G01*
G75*
G02*
X166650I-3600J0D01*
G01*
Y282750D02*
G75*
G02*
X173850I3600J0D01*
G01*
G75*
G02*
X166650I-3600J0D01*
G01*
Y292750D02*
G75*
G02*
X173850I3600J0D01*
G01*
G75*
G02*
X166650I-3600J0D01*
G01*
Y302750D02*
G75*
G02*
X173850I3600J0D01*
G01*
G75*
G02*
X166650I-3600J0D01*
G01*
Y312750D02*
G75*
G02*
X173850I3600J0D01*
G01*
G75*
G02*
X166650I-3600J0D01*
G01*
Y322750D02*
G75*
G02*
X173850I3600J0D01*
G01*
G75*
G02*
X166650I-3600J0D01*
G01*
Y332750D02*
G75*
G02*
X173850I3600J0D01*
G01*
G75*
G02*
X166650I-3600J0D01*
G01*
X176000Y132750D02*
G75*
G02*
X184500I4250J0D01*
G01*
G75*
G02*
X176000I-4250J0D01*
G01*
X176652Y26348D02*
X183848D01*
Y19152D01*
X176652D01*
Y26348D01*
Y36348D02*
X183848D01*
Y29152D01*
X176652D01*
Y36348D01*
Y46348D02*
X183848D01*
Y39152D01*
X176652D01*
Y46348D01*
Y56348D02*
X183848D01*
Y49152D01*
X176652D01*
Y56348D01*
Y66348D02*
X183848D01*
Y59152D01*
X176652D01*
Y66348D01*
Y76348D02*
X183848D01*
Y69152D01*
X176652D01*
Y76348D01*
Y86348D02*
X183848D01*
Y79152D01*
X176652D01*
Y86348D01*
Y96348D02*
X183848D01*
Y89152D01*
X176652D01*
Y96348D01*
X176000Y222750D02*
G75*
G02*
X184500I4250J0D01*
G01*
G75*
G02*
X176000I-4250J0D01*
G01*
X176652Y146348D02*
X183848D01*
Y139152D01*
X176652D01*
Y146348D01*
Y156348D02*
X183848D01*
Y149152D01*
X176652D01*
Y156348D01*
Y166348D02*
X183848D01*
Y159152D01*
X176652D01*
Y166348D01*
Y176348D02*
X183848D01*
Y169152D01*
X176652D01*
Y176348D01*
Y186348D02*
X183848D01*
Y179152D01*
X176652D01*
Y186348D01*
Y196348D02*
X183848D01*
Y189152D01*
X176652D01*
Y196348D01*
Y206348D02*
X183848D01*
Y199152D01*
X176652D01*
Y206348D01*
Y216348D02*
X183848D01*
Y209152D01*
X176652D01*
Y216348D01*
Y266348D02*
X183848D01*
Y259152D01*
X176652D01*
Y266348D01*
Y276348D02*
X183848D01*
Y269152D01*
X176652D01*
Y276348D01*
Y286348D02*
X183848D01*
Y279152D01*
X176652D01*
Y286348D01*
Y296348D02*
X183848D01*
Y289152D01*
X176652D01*
Y296348D01*
Y306348D02*
X183848D01*
Y299152D01*
X176652D01*
Y306348D01*
Y316348D02*
X183848D01*
Y309152D01*
X176652D01*
Y316348D01*
Y326348D02*
X183848D01*
Y319152D01*
X176652D01*
Y326348D01*
Y336348D02*
X183848D01*
Y329152D01*
X176652D01*
Y336348D01*
X186362Y12632D02*
G75*
G02*
X194138I3888J0D01*
G01*
G75*
G02*
X186362I-3888J0D01*
G01*
Y102868D02*
G75*
G02*
X194138I3888J0D01*
G01*
G75*
G02*
X186362I-3888J0D01*
G01*
X186762Y22632D02*
G75*
G02*
X193738I3488J0D01*
G01*
G75*
G02*
X186762I-3488J0D01*
G01*
Y32632D02*
G75*
G02*
X193738I3488J0D01*
G01*
G75*
G02*
X186762I-3488J0D01*
G01*
Y42632D02*
G75*
G02*
X193738I3488J0D01*
G01*
G75*
G02*
X186762I-3488J0D01*
G01*
Y52632D02*
G75*
G02*
X193738I3488J0D01*
G01*
G75*
G02*
X186762I-3488J0D01*
G01*
Y62868D02*
G75*
G02*
X193738I3488J0D01*
G01*
G75*
G02*
X186762I-3488J0D01*
G01*
Y72868D02*
G75*
G02*
X193738I3488J0D01*
G01*
G75*
G02*
X186762I-3488J0D01*
G01*
Y82868D02*
G75*
G02*
X193738I3488J0D01*
G01*
G75*
G02*
X186762I-3488J0D01*
G01*
Y92868D02*
G75*
G02*
X193738I3488J0D01*
G01*
G75*
G02*
X186762I-3488J0D01*
G01*
X186362Y132632D02*
G75*
G02*
X194138I3888J0D01*
G01*
G75*
G02*
X186362I-3888J0D01*
G01*
Y222868D02*
G75*
G02*
X194138I3888J0D01*
G01*
G75*
G02*
X186362I-3888J0D01*
G01*
X186762Y142632D02*
G75*
G02*
X193738I3488J0D01*
G01*
G75*
G02*
X186762I-3488J0D01*
G01*
Y152632D02*
G75*
G02*
X193738I3488J0D01*
G01*
G75*
G02*
X186762I-3488J0D01*
G01*
Y162632D02*
G75*
G02*
X193738I3488J0D01*
G01*
G75*
G02*
X186762I-3488J0D01*
G01*
Y172632D02*
G75*
G02*
X193738I3488J0D01*
G01*
G75*
G02*
X186762I-3488J0D01*
G01*
Y182868D02*
G75*
G02*
X193738I3488J0D01*
G01*
G75*
G02*
X186762I-3488J0D01*
G01*
Y192868D02*
G75*
G02*
X193738I3488J0D01*
G01*
G75*
G02*
X186762I-3488J0D01*
G01*
Y202868D02*
G75*
G02*
X193738I3488J0D01*
G01*
G75*
G02*
X186762I-3488J0D01*
G01*
Y212868D02*
G75*
G02*
X193738I3488J0D01*
G01*
G75*
G02*
X186762I-3488J0D01*
G01*
X186362Y252632D02*
G75*
G02*
X194138I3888J0D01*
G01*
G75*
G02*
X186362I-3888J0D01*
G01*
Y342868D02*
G75*
G02*
X194138I3888J0D01*
G01*
G75*
G02*
X186362I-3888J0D01*
G01*
X186762Y262632D02*
G75*
G02*
X193738I3488J0D01*
G01*
G75*
G02*
X186762I-3488J0D01*
G01*
Y272632D02*
G75*
G02*
X193738I3488J0D01*
G01*
G75*
G02*
X186762I-3488J0D01*
G01*
Y282632D02*
G75*
G02*
X193738I3488J0D01*
G01*
G75*
G02*
X186762I-3488J0D01*
G01*
Y292632D02*
G75*
G02*
X193738I3488J0D01*
G01*
G75*
G02*
X186762I-3488J0D01*
G01*
Y302868D02*
G75*
G02*
X193738I3488J0D01*
G01*
G75*
G02*
X186762I-3488J0D01*
G01*
Y312868D02*
G75*
G02*
X193738I3488J0D01*
G01*
G75*
G02*
X186762I-3488J0D01*
G01*
Y322868D02*
G75*
G02*
X193738I3488J0D01*
G01*
G75*
G02*
X186762I-3488J0D01*
G01*
Y332868D02*
G75*
G02*
X193738I3488J0D01*
G01*
G75*
G02*
X186762I-3488J0D01*
G01*
X197000Y67750D02*
G75*
G02*
X203500I3250J0D01*
G01*
G75*
G02*
X201500Y64750I-3250J0D01*
G01*
Y50750D01*
G75*
G02*
X203500Y47750I-1250J-3000D01*
G01*
G75*
G02*
X197000I-3250J0D01*
G01*
G75*
G02*
X199000Y50750I3250J0D01*
G01*
Y64750D01*
G75*
G02*
X197000Y67750I1250J3000D01*
G01*
Y307750D02*
G75*
G02*
X203500I3250J0D01*
G01*
G75*
G02*
X201500Y304750I-3250J0D01*
G01*
Y290750D01*
G75*
G02*
X203500Y287750I-1250J-3000D01*
G01*
G75*
G02*
X197000I-3250J0D01*
G01*
G75*
G02*
X199000Y290750I3250J0D01*
G01*
Y304750D01*
G75*
G02*
X197000Y307750I1250J3000D01*
G01*
X202000Y137750D02*
G75*
G02*
X208500I3250J0D01*
G01*
G75*
G02*
X206500Y134750I-3250J0D01*
G01*
Y110750D01*
G75*
G02*
X208500Y107750I-1250J-3000D01*
G01*
G75*
G02*
X202000I-3250J0D01*
G01*
G75*
G02*
X204000Y110750I3250J0D01*
G01*
Y134750D01*
G75*
G02*
X202000Y137750I1250J3000D01*
G01*
Y187750D02*
G75*
G02*
X208500I3250J0D01*
G01*
G75*
G02*
X206500Y184750I-3250J0D01*
G01*
Y170750D01*
G75*
G02*
X208500Y167750I-1250J-3000D01*
G01*
G75*
G02*
X202000I-3250J0D01*
G01*
G75*
G02*
X204000Y170750I3250J0D01*
G01*
Y184750D01*
G75*
G02*
X202000Y187750I1250J3000D01*
G01*
X234500Y217750D02*
G75*
G02*
X241000I3250J0D01*
G01*
G75*
G02*
X239000Y214750I-3250J0D01*
G01*
Y150750D01*
G75*
G02*
X241000Y147750I-1250J-3000D01*
G01*
G75*
G02*
X234500I-3250J0D01*
G01*
G75*
G02*
X236500Y150750I3250J0D01*
G01*
Y214750D01*
G75*
G02*
X234500Y217750I1250J3000D01*
G01*
X237000Y92750D02*
G75*
G02*
X243500I3250J0D01*
G01*
G75*
G02*
X241500Y89750I-3250J0D01*
G01*
Y25750D01*
G75*
G02*
X243500Y22750I-1250J-3000D01*
G01*
G75*
G02*
X237000I-3250J0D01*
G01*
G75*
G02*
X239000Y25750I3250J0D01*
G01*
Y89750D01*
G75*
G02*
X237000Y92750I1250J3000D01*
G01*
X242000Y207750D02*
G75*
G02*
X248500I3250J0D01*
G01*
G75*
G02*
X246500Y204750I-3250J0D01*
G01*
Y165750D01*
G75*
G02*
X248500Y162750I-1250J-3000D01*
G01*
G75*
G02*
X242000I-3250J0D01*
G01*
G75*
G02*
X244000Y165750I3250J0D01*
G01*
Y204750D01*
G75*
G02*
X242000Y207750I1250J3000D01*
G01*
Y332750D02*
G75*
G02*
X248500I3250J0D01*
G01*
G75*
G02*
X246500Y329750I-3250J0D01*
G01*
Y265750D01*
G75*
G02*
X248500Y262750I-1250J-3000D01*
G01*
G75*
G02*
X242000I-3250J0D01*
G01*
G75*
G02*
X244000Y265750I3250J0D01*
G01*
Y329750D01*
G75*
G02*
X242000Y332750I1250J3000D01*
G01*
X260250Y57000D02*
G75*
G02*
Y48500I0J-4250D01*
G01*
X255250D01*
G75*
G02*
Y57000I0J4250D01*
G01*
X260250D01*
X267000Y167750D02*
G75*
G02*
X273500I3250J0D01*
G01*
G75*
G02*
X271500Y164750I-3250J0D01*
G01*
Y102750D01*
G75*
G02*
X270250Y101500I-1250J0D01*
G01*
X269000D01*
Y45750D01*
G75*
G02*
Y39750I-1250J-3000D01*
G01*
Y30750D01*
G75*
G02*
X271000Y27750I-1250J-3000D01*
G01*
G75*
G02*
X264500I-3250J0D01*
G01*
G75*
G02*
X266500Y30750I3250J0D01*
G01*
Y39750D01*
G75*
G02*
Y45750I1250J3000D01*
G01*
Y102750D01*
G75*
G02*
X267750Y104000I1250J0D01*
G01*
X269000D01*
Y164750D01*
G75*
G02*
X267000Y167750I1250J3000D01*
G01*
X299374Y274000D02*
G75*
G02*
X306350Y272750I3376J-1250D01*
G01*
G75*
G02*
X299374Y271500I-3600J0D01*
G01*
X295250D01*
G75*
G02*
X294076Y272320I0J1250D01*
G01*
G75*
G02*
X290250Y268900I-3826J430D01*
G01*
X285250D01*
G75*
G02*
Y276600I0J3850D01*
G01*
X290250D01*
G75*
G02*
X294000Y273624I0J-3850D01*
G01*
Y281876D01*
G75*
G02*
X290250Y278900I-3750J874D01*
G01*
X285250D01*
G75*
G02*
Y286600I0J3850D01*
G01*
X290250D01*
G75*
G02*
X294000Y283624I0J-3850D01*
G01*
Y291876D01*
G75*
G02*
X290250Y288900I-3750J874D01*
G01*
X285250D01*
G75*
G02*
X281608Y291500I0J3850D01*
G01*
X276500D01*
Y180750D01*
G75*
G02*
X278250Y179000I-1250J-3000D01*
G01*
X281608D01*
G75*
G02*
X285250Y181600I3642J-1250D01*
G01*
X290250D01*
G75*
G02*
X294000Y178624I0J-3850D01*
G01*
Y186876D01*
G75*
G02*
X290250Y183900I-3750J874D01*
G01*
X285250D01*
G75*
G02*
Y191600I0J3850D01*
G01*
X290250D01*
G75*
G02*
X294000Y188624I0J-3850D01*
G01*
Y196876D01*
G75*
G02*
X290250Y193900I-3750J874D01*
G01*
X285250D01*
G75*
G02*
Y201600I0J3850D01*
G01*
X290250D01*
G75*
G02*
X294000Y198624I0J-3850D01*
G01*
Y206876D01*
G75*
G02*
X290250Y203900I-3750J874D01*
G01*
X285250D01*
G75*
G02*
Y211600I0J3850D01*
G01*
X290250D01*
G75*
G02*
X294000Y208624I0J-3850D01*
G01*
Y216876D01*
G75*
G02*
X290250Y213900I-3750J874D01*
G01*
X285250D01*
G75*
G02*
Y221600I0J3850D01*
G01*
X290250D01*
G75*
G02*
X294000Y218624I0J-3850D01*
G01*
Y226500D01*
X293892D01*
G75*
G02*
X290250Y223900I-3642J1250D01*
G01*
X285250D01*
G75*
G02*
Y231600I0J3850D01*
G01*
X290250D01*
G75*
G02*
X293892Y229000I0J-3850D01*
G01*
X295250D01*
G75*
G02*
X296500Y227750I0J-1250D01*
G01*
Y140750D01*
G75*
G02*
X298500Y137750I-1250J-3000D01*
G01*
G75*
G02*
X292000I-3250J0D01*
G01*
G75*
G02*
X294000Y140750I3250J0D01*
G01*
Y156876D01*
G75*
G02*
X290250Y153900I-3750J874D01*
G01*
X285250D01*
G75*
G02*
Y161600I0J3850D01*
G01*
X290250D01*
G75*
G02*
X294000Y158624I0J-3850D01*
G01*
Y166876D01*
G75*
G02*
X290250Y163900I-3750J874D01*
G01*
X285250D01*
G75*
G02*
Y171600I0J3850D01*
G01*
X290250D01*
G75*
G02*
X294000Y168624I0J-3850D01*
G01*
Y176876D01*
G75*
G02*
X290250Y173900I-3750J874D01*
G01*
X285250D01*
G75*
G02*
X281608Y176500I0J3850D01*
G01*
X278250D01*
G75*
G02*
X276500Y174750I-3000J1250D01*
G01*
Y55750D01*
G75*
G02*
X278500Y52750I-1250J-3000D01*
G01*
G75*
G02*
X272000I-3250J0D01*
G01*
G75*
G02*
X274000Y55750I3250J0D01*
G01*
Y174750D01*
G75*
G02*
Y180750I1250J3000D01*
G01*
Y292750D01*
G75*
G02*
X275250Y294000I1250J0D01*
G01*
X281608D01*
G75*
G02*
X285250Y296600I3642J-1250D01*
G01*
X290250D01*
G75*
G02*
X294000Y293624I0J-3850D01*
G01*
Y301876D01*
G75*
G02*
X290250Y298900I-3750J874D01*
G01*
X285250D01*
G75*
G02*
Y306600I0J3850D01*
G01*
X290250D01*
G75*
G02*
X294000Y303624I0J-3850D01*
G01*
Y311876D01*
G75*
G02*
X290250Y308900I-3750J874D01*
G01*
X285250D01*
G75*
G02*
Y316600I0J3850D01*
G01*
X290250D01*
G75*
G02*
X294000Y313624I0J-3850D01*
G01*
Y321876D01*
G75*
G02*
X290250Y318900I-3750J874D01*
G01*
X285250D01*
G75*
G02*
Y326600I0J3850D01*
G01*
X290250D01*
G75*
G02*
X292736Y325690I0J-3851D01*
G01*
G75*
G02*
Y329810I2514J2060D01*
G01*
G75*
G02*
X290250Y328900I-2486J2941D01*
G01*
X285250D01*
G75*
G02*
Y336600I0J3850D01*
G01*
X290250D01*
G75*
G02*
X293190Y330264I0J-3850D01*
G01*
G75*
G02*
X298500Y327750I2060J-2514D01*
G01*
G75*
G02*
X296500Y324750I-3250J0D01*
G01*
Y274000D01*
X299374D01*
X298900Y141600D02*
X306600D01*
Y133900D01*
X298900D01*
Y141600D01*
X299150Y22750D02*
G75*
G02*
X306350I3600J0D01*
G01*
G75*
G02*
X299150I-3600J0D01*
G01*
Y32750D02*
G75*
G02*
X306350I3600J0D01*
G01*
G75*
G02*
X299150I-3600J0D01*
G01*
Y42750D02*
G75*
G02*
X306350I3600J0D01*
G01*
G75*
G02*
X299150I-3600J0D01*
G01*
Y52750D02*
G75*
G02*
X306350I3600J0D01*
G01*
G75*
G02*
X299150I-3600J0D01*
G01*
Y62750D02*
G75*
G02*
X306350I3600J0D01*
G01*
G75*
G02*
X299150I-3600J0D01*
G01*
Y72750D02*
G75*
G02*
X306350I3600J0D01*
G01*
G75*
G02*
X299150I-3600J0D01*
G01*
Y82750D02*
G75*
G02*
X306350I3600J0D01*
G01*
G75*
G02*
X299150I-3600J0D01*
G01*
Y92750D02*
G75*
G02*
X306350I3600J0D01*
G01*
G75*
G02*
X299150I-3600J0D01*
G01*
X298900Y231600D02*
X306600D01*
Y223900D01*
X298900D01*
Y231600D01*
X299150Y147750D02*
G75*
G02*
X306350I3600J0D01*
G01*
G75*
G02*
X299150I-3600J0D01*
G01*
Y157750D02*
G75*
G02*
X306350I3600J0D01*
G01*
G75*
G02*
X299150I-3600J0D01*
G01*
Y167750D02*
G75*
G02*
X306350I3600J0D01*
G01*
G75*
G02*
X299150I-3600J0D01*
G01*
Y177750D02*
G75*
G02*
X306350I3600J0D01*
G01*
G75*
G02*
X299150I-3600J0D01*
G01*
Y187750D02*
G75*
G02*
X306350I3600J0D01*
G01*
G75*
G02*
X299150I-3600J0D01*
G01*
Y197750D02*
G75*
G02*
X306350I3600J0D01*
G01*
G75*
G02*
X299150I-3600J0D01*
G01*
Y207750D02*
G75*
G02*
X306350I3600J0D01*
G01*
G75*
G02*
X299150I-3600J0D01*
G01*
Y217750D02*
G75*
G02*
X306350I3600J0D01*
G01*
G75*
G02*
X299150I-3600J0D01*
G01*
Y262750D02*
G75*
G02*
X306350I3600J0D01*
G01*
G75*
G02*
X299150I-3600J0D01*
G01*
X290250Y241600D02*
G75*
G02*
Y233900I0J-3850D01*
G01*
X285250D01*
G75*
G02*
Y241600I0J3850D01*
G01*
X290250D01*
Y251600D02*
G75*
G02*
Y243900I0J-3850D01*
G01*
X285250D01*
G75*
G02*
Y251600I0J3850D01*
G01*
X290250D01*
Y96600D02*
G75*
G02*
Y88900I0J-3850D01*
G01*
X285250D01*
G75*
G02*
X282764Y89810I0J3851D01*
G01*
G75*
G02*
Y85690I-2514J-2060D01*
G01*
G75*
G02*
X285250Y86600I2486J-2941D01*
G01*
X290250D01*
G75*
G02*
Y78900I0J-3850D01*
G01*
X285250D01*
G75*
G02*
X281500Y81876I0J3850D01*
G01*
Y73624D01*
G75*
G02*
X285250Y76600I3750J-874D01*
G01*
X290250D01*
G75*
G02*
Y68900I0J-3850D01*
G01*
X285250D01*
G75*
G02*
X281500Y71876I0J3850D01*
G01*
Y63624D01*
G75*
G02*
X285250Y66600I3750J-874D01*
G01*
X290250D01*
G75*
G02*
Y58900I0J-3850D01*
G01*
X285250D01*
G75*
G02*
X281500Y61876I0J3850D01*
G01*
Y53624D01*
G75*
G02*
X285250Y56600I3750J-874D01*
G01*
X290250D01*
G75*
G02*
Y48900I0J-3850D01*
G01*
X285250D01*
G75*
G02*
X281500Y51876I0J3850D01*
G01*
Y43624D01*
G75*
G02*
X285250Y46600I3750J-874D01*
G01*
X290250D01*
G75*
G02*
Y38900I0J-3850D01*
G01*
X285250D01*
G75*
G02*
X282764Y39810I0J3851D01*
G01*
G75*
G02*
Y35690I-2514J-2060D01*
G01*
G75*
G02*
X285250Y36600I2486J-2941D01*
G01*
X290250D01*
G75*
G02*
Y28900I0J-3850D01*
G01*
X285250D01*
G75*
G02*
X282310Y35236I0J3850D01*
G01*
G75*
G02*
X277000Y37750I-2060J2514D01*
G01*
G75*
G02*
X279000Y40750I3250J0D01*
G01*
Y84750D01*
G75*
G02*
X277000Y87750I1250J3000D01*
G01*
G75*
G02*
X282310Y90264I3250J0D01*
G01*
G75*
G02*
X285250Y96600I2940J2486D01*
G01*
X290250D01*
Y106600D02*
G75*
G02*
Y98900I0J-3850D01*
G01*
X285250D01*
G75*
G02*
Y106600I0J3850D01*
G01*
X290250D01*
Y116600D02*
G75*
G02*
Y108900I0J-3850D01*
G01*
X285250D01*
G75*
G02*
Y116600I0J3850D01*
G01*
X290250D01*
Y126600D02*
G75*
G02*
Y118900I0J-3850D01*
G01*
X285250D01*
G75*
G02*
Y126600I0J3850D01*
G01*
X290250D01*
X260250Y36600D02*
G75*
G02*
Y28900I0J-3850D01*
G01*
X255250D01*
G75*
G02*
Y36600I0J3850D01*
G01*
X260250D01*
Y46600D02*
G75*
G02*
Y38900I0J-3850D01*
G01*
X255250D01*
G75*
G02*
Y46600I0J3850D01*
G01*
X260250D01*
Y117000D02*
G75*
G02*
Y108500I0J-4250D01*
G01*
X255250D01*
G75*
G02*
Y117000I0J4250D01*
G01*
X260250D01*
Y66600D02*
G75*
G02*
Y58900I0J-3850D01*
G01*
X255250D01*
G75*
G02*
Y66600I0J3850D01*
G01*
X260250D01*
Y76600D02*
G75*
G02*
Y68900I0J-3850D01*
G01*
X255250D01*
G75*
G02*
Y76600I0J3850D01*
G01*
X260250D01*
Y86600D02*
G75*
G02*
Y78900I0J-3850D01*
G01*
X255250D01*
G75*
G02*
Y86600I0J3850D01*
G01*
X260250D01*
Y96600D02*
G75*
G02*
Y88900I0J-3850D01*
G01*
X255250D01*
G75*
G02*
Y96600I0J3850D01*
G01*
X260250D01*
Y106600D02*
G75*
G02*
Y98900I0J-3850D01*
G01*
X255250D01*
G75*
G02*
Y106600I0J3850D01*
G01*
X260250D01*
X266500Y175750D02*
G75*
G02*
X268500Y172750I-1250J-3000D01*
G01*
G75*
G02*
X263190Y170236I-3250J0D01*
G01*
G75*
G02*
X260250Y163900I-2940J-2486D01*
G01*
X255250D01*
G75*
G02*
Y171600I0J3850D01*
G01*
X260250D01*
G75*
G02*
X262736Y170690I0J-3851D01*
G01*
G75*
G02*
X262250Y174000I2514J2060D01*
G01*
G75*
G02*
X260250Y173500I-2000J3750D01*
G01*
X255250D01*
G75*
G02*
Y182000I0J4250D01*
G01*
X260250D01*
G75*
G02*
X264000Y179750I0J-4250D01*
G01*
Y186876D01*
G75*
G02*
X260250Y183900I-3750J874D01*
G01*
X255250D01*
G75*
G02*
Y191600I0J3850D01*
G01*
X260250D01*
G75*
G02*
X264000Y188624I0J-3850D01*
G01*
Y196500D01*
X263892D01*
G75*
G02*
X260250Y193900I-3642J1250D01*
G01*
X255250D01*
G75*
G02*
Y201600I0J3850D01*
G01*
X260250D01*
G75*
G02*
X263892Y199000I0J-3850D01*
G01*
X265250D01*
G75*
G02*
X266500Y197750I0J-1250D01*
G01*
Y175750D01*
X260250Y126600D02*
G75*
G02*
Y118900I0J-3850D01*
G01*
X255250D01*
G75*
G02*
Y126600I0J3850D01*
G01*
X260250D01*
Y161600D02*
G75*
G02*
Y153900I0J-3850D01*
G01*
X255250D01*
G75*
G02*
Y161600I0J3850D01*
G01*
X260250D01*
Y242000D02*
G75*
G02*
Y233500I0J-4250D01*
G01*
X255250D01*
G75*
G02*
Y242000I0J4250D01*
G01*
X260250D01*
Y211600D02*
G75*
G02*
Y203900I0J-3850D01*
G01*
X255250D01*
G75*
G02*
Y211600I0J3850D01*
G01*
X260250D01*
Y221600D02*
G75*
G02*
Y213900I0J-3850D01*
G01*
X255250D01*
G75*
G02*
Y221600I0J3850D01*
G01*
X260250D01*
Y231600D02*
G75*
G02*
Y223900I0J-3850D01*
G01*
X255250D01*
G75*
G02*
Y231600I0J3850D01*
G01*
X260250D01*
Y297000D02*
G75*
G02*
Y288500I0J-4250D01*
G01*
X255250D01*
G75*
G02*
Y297000I0J4250D01*
G01*
X260250D01*
Y251600D02*
G75*
G02*
Y243900I0J-3850D01*
G01*
X255250D01*
G75*
G02*
Y251600I0J3850D01*
G01*
X260250D01*
Y276600D02*
G75*
G02*
Y268900I0J-3850D01*
G01*
X255250D01*
G75*
G02*
Y276600I0J3850D01*
G01*
X260250D01*
Y286600D02*
G75*
G02*
Y278900I0J-3850D01*
G01*
X255250D01*
G75*
G02*
Y286600I0J3850D01*
G01*
X260250D01*
Y357000D02*
G75*
G02*
Y348500I0J-4250D01*
G01*
X255250D01*
G75*
G02*
Y357000I0J4250D01*
G01*
X260250D01*
Y306600D02*
G75*
G02*
Y298900I0J-3850D01*
G01*
X255250D01*
G75*
G02*
Y306600I0J3850D01*
G01*
X260250D01*
Y316600D02*
G75*
G02*
Y308900I0J-3850D01*
G01*
X255250D01*
G75*
G02*
Y316600I0J3850D01*
G01*
X260250D01*
Y326600D02*
G75*
G02*
Y318900I0J-3850D01*
G01*
X255250D01*
G75*
G02*
Y326600I0J3850D01*
G01*
X260250D01*
Y336600D02*
G75*
G02*
Y328900I0J-3850D01*
G01*
X255250D01*
G75*
G02*
Y336600I0J3850D01*
G01*
X260250D01*
Y346600D02*
G75*
G02*
Y338900I0J-3850D01*
G01*
X255250D01*
G75*
G02*
Y346600I0J3850D01*
G01*
X260250D01*
Y366600D02*
G75*
G02*
Y358900I0J-3850D01*
G01*
X255250D01*
G75*
G02*
Y366600I0J3850D01*
G01*
X260250D01*
X290250Y346600D02*
G75*
G02*
Y338900I0J-3850D01*
G01*
X285250D01*
G75*
G02*
Y346600I0J3850D01*
G01*
X290250D01*
Y356600D02*
G75*
G02*
Y348900I0J-3850D01*
G01*
X285250D01*
G75*
G02*
Y356600I0J3850D01*
G01*
X290250D01*
Y366600D02*
G75*
G02*
Y358900I0J-3850D01*
G01*
X285250D01*
G75*
G02*
Y366600I0J3850D01*
G01*
X290250D01*
X299150Y282750D02*
G75*
G02*
X306350I3600J0D01*
G01*
G75*
G02*
X299150I-3600J0D01*
G01*
Y292750D02*
G75*
G02*
X306350I3600J0D01*
G01*
G75*
G02*
X299150I-3600J0D01*
G01*
Y302750D02*
G75*
G02*
X306350I3600J0D01*
G01*
G75*
G02*
X299150I-3600J0D01*
G01*
Y312750D02*
G75*
G02*
X306350I3600J0D01*
G01*
G75*
G02*
X299150I-3600J0D01*
G01*
Y322750D02*
G75*
G02*
X306350I3600J0D01*
G01*
G75*
G02*
X299150I-3600J0D01*
G01*
Y332750D02*
G75*
G02*
X306350I3600J0D01*
G01*
G75*
G02*
X299150I-3600J0D01*
G01*
X308500Y137750D02*
G75*
G02*
X317000I4250J0D01*
G01*
G75*
G02*
X308500I-4250J0D01*
G01*
X309152Y26348D02*
X316348D01*
Y19152D01*
X309152D01*
Y26348D01*
Y36348D02*
X316348D01*
Y29152D01*
X309152D01*
Y36348D01*
Y46348D02*
X316348D01*
Y39152D01*
X309152D01*
Y46348D01*
Y56348D02*
X316348D01*
Y49152D01*
X309152D01*
Y56348D01*
Y66348D02*
X316348D01*
Y59152D01*
X309152D01*
Y66348D01*
Y76348D02*
X316348D01*
Y69152D01*
X309152D01*
Y76348D01*
Y86348D02*
X316348D01*
Y79152D01*
X309152D01*
Y86348D01*
Y96348D02*
X316348D01*
Y89152D01*
X309152D01*
Y96348D01*
X308500Y227750D02*
G75*
G02*
X317000I4250J0D01*
G01*
G75*
G02*
X308500I-4250J0D01*
G01*
X309152Y151348D02*
X316348D01*
Y144152D01*
X309152D01*
Y151348D01*
Y161348D02*
X316348D01*
Y154152D01*
X309152D01*
Y161348D01*
Y171348D02*
X316348D01*
Y164152D01*
X309152D01*
Y171348D01*
Y181348D02*
X316348D01*
Y174152D01*
X309152D01*
Y181348D01*
Y191348D02*
X316348D01*
Y184152D01*
X309152D01*
Y191348D01*
Y201348D02*
X316348D01*
Y194152D01*
X309152D01*
Y201348D01*
Y211348D02*
X316348D01*
Y204152D01*
X309152D01*
Y211348D01*
Y221348D02*
X316348D01*
Y214152D01*
X309152D01*
Y221348D01*
Y266348D02*
X316348D01*
Y259152D01*
X309152D01*
Y266348D01*
Y276348D02*
X316348D01*
Y269152D01*
X309152D01*
Y276348D01*
Y286348D02*
X316348D01*
Y279152D01*
X309152D01*
Y286348D01*
Y296348D02*
X316348D01*
Y289152D01*
X309152D01*
Y296348D01*
Y306348D02*
X316348D01*
Y299152D01*
X309152D01*
Y306348D01*
Y316348D02*
X316348D01*
Y309152D01*
X309152D01*
Y316348D01*
Y326348D02*
X316348D01*
Y319152D01*
X309152D01*
Y326348D01*
Y336348D02*
X316348D01*
Y329152D01*
X309152D01*
Y336348D01*
X318862Y12632D02*
G75*
G02*
X326638I3888J0D01*
G01*
G75*
G02*
X318862I-3888J0D01*
G01*
Y102868D02*
G75*
G02*
X326638I3888J0D01*
G01*
G75*
G02*
X318862I-3888J0D01*
G01*
X319262Y22632D02*
G75*
G02*
X326238I3488J0D01*
G01*
G75*
G02*
X319262I-3488J0D01*
G01*
Y32632D02*
G75*
G02*
X326238I3488J0D01*
G01*
G75*
G02*
X319262I-3488J0D01*
G01*
Y42632D02*
G75*
G02*
X326238I3488J0D01*
G01*
G75*
G02*
X319262I-3488J0D01*
G01*
Y52632D02*
G75*
G02*
X326238I3488J0D01*
G01*
G75*
G02*
X319262I-3488J0D01*
G01*
Y62868D02*
G75*
G02*
X326238I3488J0D01*
G01*
G75*
G02*
X319262I-3488J0D01*
G01*
Y72868D02*
G75*
G02*
X326238I3488J0D01*
G01*
G75*
G02*
X319262I-3488J0D01*
G01*
Y82868D02*
G75*
G02*
X326238I3488J0D01*
G01*
G75*
G02*
X319262I-3488J0D01*
G01*
Y92868D02*
G75*
G02*
X326238I3488J0D01*
G01*
G75*
G02*
X319262I-3488J0D01*
G01*
X318862Y137632D02*
G75*
G02*
X326638I3888J0D01*
G01*
G75*
G02*
X318862I-3888J0D01*
G01*
Y227868D02*
G75*
G02*
X326638I3888J0D01*
G01*
G75*
G02*
X318862I-3888J0D01*
G01*
X319262Y147632D02*
G75*
G02*
X326238I3488J0D01*
G01*
G75*
G02*
X319262I-3488J0D01*
G01*
Y157632D02*
G75*
G02*
X326238I3488J0D01*
G01*
G75*
G02*
X319262I-3488J0D01*
G01*
Y167632D02*
G75*
G02*
X326238I3488J0D01*
G01*
G75*
G02*
X319262I-3488J0D01*
G01*
Y177632D02*
G75*
G02*
X326238I3488J0D01*
G01*
G75*
G02*
X319262I-3488J0D01*
G01*
Y187868D02*
G75*
G02*
X326238I3488J0D01*
G01*
G75*
G02*
X319262I-3488J0D01*
G01*
Y197868D02*
G75*
G02*
X326238I3488J0D01*
G01*
G75*
G02*
X319262I-3488J0D01*
G01*
Y207868D02*
G75*
G02*
X326238I3488J0D01*
G01*
G75*
G02*
X319262I-3488J0D01*
G01*
Y217868D02*
G75*
G02*
X326238I3488J0D01*
G01*
G75*
G02*
X319262I-3488J0D01*
G01*
X318862Y252632D02*
G75*
G02*
X326638I3888J0D01*
G01*
G75*
G02*
X318862I-3888J0D01*
G01*
Y342868D02*
G75*
G02*
X326638I3888J0D01*
G01*
G75*
G02*
X318862I-3888J0D01*
G01*
X319262Y262632D02*
G75*
G02*
X326238I3488J0D01*
G01*
G75*
G02*
X319262I-3488J0D01*
G01*
Y272632D02*
G75*
G02*
X326238I3488J0D01*
G01*
G75*
G02*
X319262I-3488J0D01*
G01*
Y282632D02*
G75*
G02*
X326238I3488J0D01*
G01*
G75*
G02*
X319262I-3488J0D01*
G01*
Y292632D02*
G75*
G02*
X326238I3488J0D01*
G01*
G75*
G02*
X319262I-3488J0D01*
G01*
Y302868D02*
G75*
G02*
X326238I3488J0D01*
G01*
G75*
G02*
X319262I-3488J0D01*
G01*
Y312868D02*
G75*
G02*
X326238I3488J0D01*
G01*
G75*
G02*
X319262I-3488J0D01*
G01*
Y322868D02*
G75*
G02*
X326238I3488J0D01*
G01*
G75*
G02*
X319262I-3488J0D01*
G01*
Y332868D02*
G75*
G02*
X326238I3488J0D01*
G01*
G75*
G02*
X319262I-3488J0D01*
G01*
X332000Y307750D02*
G75*
G02*
X338500I3250J0D01*
G01*
G75*
G02*
X336500Y304750I-3250J0D01*
G01*
Y290750D01*
G75*
G02*
X338500Y287750I-1250J-3000D01*
G01*
G75*
G02*
X332000I-3250J0D01*
G01*
G75*
G02*
X334000Y290750I3250J0D01*
G01*
Y304750D01*
G75*
G02*
X332000Y307750I1250J3000D01*
G01*
X334500Y77750D02*
G75*
G02*
X341000I3250J0D01*
G01*
G75*
G02*
X339000Y74750I-3250J0D01*
G01*
Y50750D01*
G75*
G02*
X341000Y47750I-1250J-3000D01*
G01*
G75*
G02*
X334500I-3250J0D01*
G01*
G75*
G02*
X336500Y50750I3250J0D01*
G01*
Y74750D01*
G75*
G02*
X334500Y77750I1250J3000D01*
G01*
X5500Y12632D02*
G36*
X5500Y12632D02*
Y5500D01*
X382500D01*
Y12632D01*
X326638D01*
G75*
G02*
X318862I-3888J0D01*
G01*
X194138D01*
G75*
G02*
X186362I-3888J0D01*
G01*
X5500D01*
G37*
Y25250D02*
G36*
X5500Y25250D02*
Y12632D01*
X186362D01*
G75*
G02*
X194138I3888J0D01*
G01*
X318862D01*
G75*
G02*
X326638I3888J0D01*
G01*
X382500D01*
Y25250D01*
X325054D01*
G75*
G02*
X326238Y22632I-2304J-2618D01*
G01*
G75*
G02*
X319262I-3488J0D01*
G01*
G75*
G02*
X320446Y25250I3488J0D01*
G01*
X316348D01*
Y19152D01*
X309152D01*
Y25250D01*
X305341D01*
G75*
G02*
X306350Y22750I-2591J-2500D01*
G01*
G75*
G02*
X299150I-3600J0D01*
G01*
G75*
G02*
X300159Y25250I3600J0D01*
G01*
X269827D01*
G75*
G02*
X265673I-2077J2500D01*
G01*
X242327D01*
G75*
G02*
X243500Y22750I-2076J-2500D01*
G01*
Y22750D01*
G75*
G02*
X237000I-3250J0D01*
G01*
Y22750D01*
G75*
G02*
X238173Y25250I3250J0D01*
G01*
X192554D01*
G75*
G02*
X193738Y22632I-2304J-2618D01*
G01*
G75*
G02*
X186762I-3488J0D01*
G01*
G75*
G02*
X187946Y25250I3488J0D01*
G01*
X183848D01*
Y19152D01*
X176652D01*
Y25250D01*
X172841D01*
G75*
G02*
X173850Y22750I-2591J-2500D01*
G01*
G75*
G02*
X166650I-3600J0D01*
G01*
G75*
G02*
X167659Y25250I3600J0D01*
G01*
X114827D01*
G75*
G02*
X110673I-2077J2500D01*
G01*
X104827D01*
G75*
G02*
X106000Y22750I-2076J-2500D01*
G01*
Y22750D01*
G75*
G02*
X99500I-3250J0D01*
G01*
Y22750D01*
G75*
G02*
X100673Y25250I3250J0D01*
G01*
X93817D01*
G75*
G02*
X86683I-3567J0D01*
G01*
X74217D01*
G75*
G02*
X66283I-3967J0D01*
G01*
X48817D01*
G75*
G02*
X41683I-3567J0D01*
G01*
X29217D01*
G75*
G02*
X21283I-3967J0D01*
G01*
X5500D01*
G37*
Y32750D02*
G36*
X5500Y32750D02*
Y25250D01*
X21283D01*
G75*
G02*
X29217I3967J0D01*
G01*
X41683D01*
G75*
G02*
X48817I3567J0D01*
G01*
X66283D01*
G75*
G02*
X74217I3967J0D01*
G01*
X86683D01*
G75*
G02*
X93817I3567J0D01*
G01*
X100673D01*
G75*
G02*
X101500Y25750I2076J-2500D01*
G01*
Y32750D01*
X5500D01*
G37*
X104000D02*
G36*
X104000Y32750D02*
Y25750D01*
G75*
G02*
X104827Y25250I-1250J-3000D01*
G01*
X110673D01*
G75*
G02*
X109500Y27750I2077J2500D01*
G01*
Y27750D01*
G75*
G02*
X111500Y30750I3250J0D01*
G01*
Y32750D01*
X104000D01*
G37*
X114000D02*
G36*
X114000Y32750D02*
Y30750D01*
G75*
G02*
X116000Y27750I-1250J-3000D01*
G01*
Y27750D01*
G75*
G02*
X114827Y25250I-3250J0D01*
G01*
X167659D01*
G75*
G02*
X172841I2591J-2500D01*
G01*
X176652D01*
Y26348D01*
X183848D01*
Y25250D01*
X187946D01*
G75*
G02*
X192554I2304J-2618D01*
G01*
X238173D01*
G75*
G02*
X239000Y25750I2076J-2500D01*
G01*
Y32750D01*
X193736D01*
G75*
G02*
X193738Y32632I-3487J-117D01*
G01*
G75*
G02*
X186762I-3488J0D01*
G01*
G75*
G02*
X186764Y32750I3489J1D01*
G01*
X183848D01*
Y29152D01*
X176652D01*
Y32750D01*
X173850D01*
G75*
G02*
X166650I-3600J0D01*
G01*
X164100D01*
G75*
G02*
X160250Y28900I-3850J0D01*
G01*
X155250D01*
G75*
G02*
X151400Y32750I0J3850D01*
G01*
X134100D01*
G75*
G02*
X130250Y28900I-3850J0D01*
G01*
X125250D01*
G75*
G02*
X121400Y32750I0J3850D01*
G01*
X114000D01*
G37*
X241500D02*
G36*
X241500Y32750D02*
Y25750D01*
G75*
G02*
X242327Y25250I-1250J-3000D01*
G01*
X265673D01*
G75*
G02*
X264500Y27750I2077J2500D01*
G01*
Y27750D01*
G75*
G02*
X266500Y30750I3250J0D01*
G01*
Y32750D01*
X264100D01*
G75*
G02*
X260250Y28900I-3850J0D01*
G01*
X255250D01*
G75*
G02*
X251400Y32750I0J3850D01*
G01*
X241500D01*
G37*
X269000D02*
G36*
X269000Y32750D02*
Y30750D01*
G75*
G02*
X271000Y27750I-1250J-3000D01*
G01*
Y27750D01*
G75*
G02*
X269827Y25250I-3250J0D01*
G01*
X300159D01*
G75*
G02*
X305341I2591J-2500D01*
G01*
X309152D01*
Y26348D01*
X316348D01*
Y25250D01*
X320446D01*
G75*
G02*
X325054I2304J-2618D01*
G01*
X382500D01*
Y32750D01*
X326236D01*
G75*
G02*
X326238Y32632I-3487J-117D01*
G01*
G75*
G02*
X319262I-3488J0D01*
G01*
G75*
G02*
X319264Y32750I3489J1D01*
G01*
X316348D01*
Y29152D01*
X309152D01*
Y32750D01*
X306350D01*
G75*
G02*
X299150I-3600J0D01*
G01*
X294100D01*
G75*
G02*
X290250Y28900I-3850J0D01*
G01*
X285250D01*
G75*
G02*
X281400Y32750I0J3850D01*
G01*
X269000D01*
G37*
X5500Y42750D02*
G36*
X5500Y42750D02*
Y32750D01*
X101500D01*
Y42750D01*
X82794D01*
G75*
G02*
X80250Y41683I-2544J2500D01*
G01*
G75*
G02*
X77706Y42750I0J3567D01*
G01*
X37794D01*
G75*
G02*
X35250Y41683I-2544J2500D01*
G01*
G75*
G02*
X32706Y42750I0J3567D01*
G01*
X5500D01*
G37*
X104000D02*
G36*
X104000Y42750D02*
Y32750D01*
X111500D01*
Y42750D01*
X104000D01*
G37*
X114000D02*
G36*
X114000Y42750D02*
Y32750D01*
X121400D01*
G75*
G02*
X125250Y36600I3850J0D01*
G01*
X130250D01*
G75*
G02*
X134100Y32750I0J-3850D01*
G01*
X151400D01*
G75*
G02*
X155250Y36600I3850J0D01*
G01*
X160250D01*
G75*
G02*
X164100Y32750I0J-3850D01*
G01*
X166650D01*
G75*
G02*
X173850I3600J0D01*
G01*
X176652D01*
Y36348D01*
X183848D01*
Y32750D01*
X186764D01*
G75*
G02*
X193736I3486J-118D01*
G01*
X239000D01*
Y42750D01*
X193736D01*
G75*
G02*
X193738Y42632I-3487J-117D01*
G01*
G75*
G02*
X186762I-3488J0D01*
G01*
G75*
G02*
X186764Y42750I3489J1D01*
G01*
X183848D01*
Y39152D01*
X176652D01*
Y42750D01*
X173850D01*
G75*
G02*
X166650I-3600J0D01*
G01*
X164100D01*
G75*
G02*
X160250Y38900I-3850J0D01*
G01*
X155250D01*
G75*
G02*
X151400Y42750I0J3850D01*
G01*
X141000D01*
G75*
G02*
X134500I-3250J0D01*
G01*
X134100D01*
G75*
G02*
X130250Y38900I-3850J0D01*
G01*
X125250D01*
G75*
G02*
X121400Y42750I0J3850D01*
G01*
X114000D01*
G37*
X241500D02*
G36*
X241500Y42750D02*
Y32750D01*
X251400D01*
G75*
G02*
X255250Y36600I3850J0D01*
G01*
X260250D01*
G75*
G02*
X264100Y32750I0J-3850D01*
G01*
X266500D01*
Y39750D01*
G75*
G02*
X264500Y42750I1250J3000D01*
G01*
X264100D01*
G75*
G02*
X260250Y38900I-3850J0D01*
G01*
X255250D01*
G75*
G02*
X251400Y42750I0J3850D01*
G01*
X241500D01*
G37*
X269000Y39750D02*
G36*
X269000Y39750D02*
Y32750D01*
X281400D01*
Y32750D01*
G75*
G02*
X282310Y35236I3850J0D01*
G01*
G75*
G02*
X277000Y37750I-2060J2514D01*
G01*
Y37750D01*
G75*
G02*
X279000Y40750I3250J0D01*
G01*
Y42750D01*
X271000D01*
G75*
G02*
X269000Y39750I-3250J0D01*
G01*
G37*
X283500Y37750D02*
G36*
X283500Y37750D02*
G75*
G02*
X282764Y35690I-3250J0D01*
G01*
G75*
G02*
X285250Y36600I2485J-2938D01*
G01*
X290250D01*
G75*
G02*
X294100Y32750I0J-3850D01*
G01*
X299150D01*
G75*
G02*
X306350I3600J0D01*
G01*
X309152D01*
Y36348D01*
X316348D01*
Y32750D01*
X319264D01*
G75*
G02*
X326236I3486J-118D01*
G01*
X382500D01*
Y42750D01*
X326236D01*
G75*
G02*
X326238Y42632I-3487J-117D01*
G01*
G75*
G02*
X319262I-3488J0D01*
G01*
G75*
G02*
X319264Y42750I3489J1D01*
G01*
X316348D01*
Y39152D01*
X309152D01*
Y42750D01*
X306350D01*
G75*
G02*
X299150I-3600J0D01*
G01*
X294100D01*
G75*
G02*
X290250Y38900I-3850J0D01*
G01*
X285250D01*
G75*
G02*
X282764Y39810I0J3851D01*
G01*
G75*
G02*
X283500Y37750I-2513J-2060D01*
G01*
G37*
X5500Y52750D02*
G36*
X5500Y52750D02*
Y42750D01*
X32706D01*
G75*
G02*
X31683Y45250I2544J2500D01*
G01*
G75*
G02*
X34000Y48590I3567J0D01*
G01*
Y52750D01*
X5500D01*
G37*
X36500D02*
G36*
X36500Y52750D02*
Y48590D01*
G75*
G02*
X38817Y45250I-1250J-3340D01*
G01*
G75*
G02*
X37794Y42750I-3567J0D01*
G01*
X77706D01*
G75*
G02*
X76683Y45250I2544J2500D01*
G01*
G75*
G02*
X79000Y48590I3567J0D01*
G01*
Y52750D01*
X36500D01*
G37*
X81500D02*
G36*
X81500Y52750D02*
Y48590D01*
G75*
G02*
X83817Y45250I-1250J-3340D01*
G01*
G75*
G02*
X82794Y42750I-3567J0D01*
G01*
X101500D01*
Y52750D01*
X81500D01*
G37*
X104000D02*
G36*
X104000Y52750D02*
Y42750D01*
X111500D01*
Y52750D01*
X104000D01*
G37*
X114000D02*
G36*
X114000Y52750D02*
Y42750D01*
X121400D01*
G75*
G02*
X125250Y46600I3850J0D01*
G01*
X130250D01*
G75*
G02*
X134100Y42750I0J-3850D01*
G01*
X134500D01*
Y42750D01*
G75*
G02*
X136500Y45750I3250J0D01*
G01*
Y52750D01*
X134500D01*
G75*
G02*
X130250Y48500I-4250J0D01*
G01*
X125250D01*
G75*
G02*
X121000Y52750I0J4250D01*
G01*
X114000D01*
G37*
X139000D02*
G36*
X139000Y52750D02*
Y45750D01*
G75*
G02*
X141000Y42750I-1250J-3000D01*
G01*
Y42750D01*
X151400D01*
G75*
G02*
X155250Y46600I3850J0D01*
G01*
X160250D01*
G75*
G02*
X164100Y42750I0J-3850D01*
G01*
X166650D01*
G75*
G02*
X173850I3600J0D01*
G01*
X176652D01*
Y46348D01*
X183848D01*
Y42750D01*
X186764D01*
G75*
G02*
X193736I3486J-118D01*
G01*
X239000D01*
Y52750D01*
X201500D01*
Y50750D01*
G75*
G02*
X203500Y47750I-1250J-3000D01*
G01*
Y47750D01*
G75*
G02*
X197000I-3250J0D01*
G01*
Y47750D01*
G75*
G02*
X199000Y50750I3250J0D01*
G01*
Y52750D01*
X193736D01*
G75*
G02*
X193738Y52632I-3487J-117D01*
G01*
G75*
G02*
X186762I-3488J0D01*
G01*
G75*
G02*
X186764Y52750I3489J1D01*
G01*
X183848D01*
Y49152D01*
X176652D01*
Y52750D01*
X173850D01*
G75*
G02*
X166650I-3600J0D01*
G01*
X164100D01*
G75*
G02*
X160250Y48900I-3850J0D01*
G01*
X155250D01*
G75*
G02*
X151400Y52750I0J3850D01*
G01*
X148500D01*
G75*
G02*
X142000I-3250J0D01*
G01*
X139000D01*
G37*
X241500D02*
G36*
X241500Y52750D02*
Y42750D01*
X251400D01*
G75*
G02*
X255250Y46600I3850J0D01*
G01*
X260250D01*
G75*
G02*
X264100Y42750I0J-3850D01*
G01*
X264500D01*
G75*
G02*
X266500Y45750I3250J0D01*
G01*
Y52750D01*
X264500D01*
G75*
G02*
X260250Y48500I-4250J0D01*
G01*
X255250D01*
G75*
G02*
X251000Y52750I0J4250D01*
G01*
X241500D01*
G37*
X269000D02*
G36*
X269000Y52750D02*
Y45750D01*
G75*
G02*
X271000Y42750I-1250J-3000D01*
G01*
X279000D01*
Y52750D01*
X278500D01*
G75*
G02*
X272000I-3250J0D01*
G01*
X269000D01*
G37*
X281500Y51876D02*
G36*
X281500Y51876D02*
Y43624D01*
G75*
G02*
X285250Y46600I3750J-873D01*
G01*
X290250D01*
G75*
G02*
X294100Y42750I0J-3850D01*
G01*
X299150D01*
G75*
G02*
X306350I3600J0D01*
G01*
X309152D01*
Y46348D01*
X316348D01*
Y42750D01*
X319264D01*
G75*
G02*
X326236I3486J-118D01*
G01*
X382500D01*
Y52750D01*
X339000D01*
Y50750D01*
G75*
G02*
X341000Y47750I-1250J-3000D01*
G01*
Y47750D01*
G75*
G02*
X334500I-3250J0D01*
G01*
Y47750D01*
G75*
G02*
X336500Y50750I3250J0D01*
G01*
Y52750D01*
X326236D01*
G75*
G02*
X326238Y52632I-3487J-117D01*
G01*
G75*
G02*
X319262I-3488J0D01*
G01*
G75*
G02*
X319264Y52750I3489J1D01*
G01*
X316348D01*
Y49152D01*
X309152D01*
Y52750D01*
X306350D01*
G75*
G02*
X299150I-3600J0D01*
G01*
X294100D01*
G75*
G02*
X290250Y48900I-3850J0D01*
G01*
X285250D01*
G75*
G02*
X281500Y51876I0J3850D01*
G01*
G37*
X5500Y60250D02*
G36*
X5500Y60250D02*
Y52750D01*
X34000D01*
Y56609D01*
G75*
G02*
X31400Y60250I1250J3641D01*
G01*
X29100D01*
Y56400D01*
X21400D01*
Y60250D01*
X5500D01*
G37*
X36500Y56609D02*
G36*
X36500Y56609D02*
Y52750D01*
X79000D01*
Y56609D01*
G75*
G02*
X76400Y60250I1250J3641D01*
G01*
X74100D01*
Y56400D01*
X66400D01*
Y60250D01*
X39100D01*
G75*
G02*
X36500Y56609I-3850J0D01*
G01*
G37*
X81500D02*
G36*
X81500Y56609D02*
Y52750D01*
X101500D01*
Y60250D01*
X84100D01*
G75*
G02*
X81500Y56609I-3850J0D01*
G01*
G37*
X104000Y60250D02*
G36*
X104000Y60250D02*
Y52750D01*
X111500D01*
Y60250D01*
X104000D01*
G37*
X114000D02*
G36*
X114000Y60250D02*
Y52750D01*
X121000D01*
G75*
G02*
X125250Y57000I4250J0D01*
G01*
X130250D01*
G75*
G02*
X134500Y52750I0J-4250D01*
G01*
X136500D01*
Y60250D01*
X133178D01*
G75*
G02*
X130250Y58900I-2928J2500D01*
G01*
X125250D01*
G75*
G02*
X122322Y60250I0J3850D01*
G01*
X114000D01*
G37*
X139000D02*
G36*
X139000Y60250D02*
Y52750D01*
X142000D01*
Y52750D01*
G75*
G02*
X144000Y55750I3250J0D01*
G01*
Y60250D01*
X139000D01*
G37*
X146500D02*
G36*
X146500Y60250D02*
Y55750D01*
G75*
G02*
X148500Y52750I-1250J-3000D01*
G01*
Y52750D01*
X151400D01*
G75*
G02*
X155250Y56600I3850J0D01*
G01*
X160250D01*
G75*
G02*
X164100Y52750I0J-3850D01*
G01*
X166650D01*
G75*
G02*
X173850I3600J0D01*
G01*
X176652D01*
Y56348D01*
X183848D01*
Y52750D01*
X186764D01*
G75*
G02*
X193736I3486J-118D01*
G01*
X199000D01*
Y60250D01*
X192554D01*
G75*
G02*
X187946I-2304J2618D01*
G01*
X183848D01*
Y59152D01*
X176652D01*
Y60250D01*
X172841D01*
G75*
G02*
X167659I-2591J2500D01*
G01*
X163178D01*
G75*
G02*
X160250Y58900I-2928J2500D01*
G01*
X155250D01*
G75*
G02*
X152322Y60250I0J3850D01*
G01*
X146500D01*
G37*
X201500D02*
G36*
X201500Y60250D02*
Y52750D01*
X239000D01*
Y60250D01*
X201500D01*
G37*
X241500D02*
G36*
X241500Y60250D02*
Y52750D01*
X251000D01*
G75*
G02*
X255250Y57000I4250J0D01*
G01*
X260250D01*
G75*
G02*
X264500Y52750I0J-4250D01*
G01*
X266500D01*
Y60250D01*
X263178D01*
G75*
G02*
X260250Y58900I-2928J2500D01*
G01*
X255250D01*
G75*
G02*
X252322Y60250I0J3850D01*
G01*
X241500D01*
G37*
X269000D02*
G36*
X269000Y60250D02*
Y52750D01*
X272000D01*
Y52750D01*
G75*
G02*
X274000Y55750I3250J0D01*
G01*
Y60250D01*
X269000D01*
G37*
X276500D02*
G36*
X276500Y60250D02*
Y55750D01*
G75*
G02*
X278500Y52750I-1250J-3000D01*
G01*
Y52750D01*
X279000D01*
Y60250D01*
X276500D01*
G37*
X281500D02*
G36*
X281500Y60250D02*
Y53624D01*
G75*
G02*
X285250Y56600I3750J-873D01*
G01*
X290250D01*
G75*
G02*
X294100Y52750I0J-3850D01*
G01*
X299150D01*
G75*
G02*
X306350I3600J0D01*
G01*
X309152D01*
Y56348D01*
X316348D01*
Y52750D01*
X319264D01*
G75*
G02*
X326236I3486J-118D01*
G01*
X336500D01*
Y60250D01*
X325054D01*
G75*
G02*
X320446I-2304J2618D01*
G01*
X316348D01*
Y59152D01*
X309152D01*
Y60250D01*
X305341D01*
G75*
G02*
X300159I-2591J2500D01*
G01*
X293178D01*
G75*
G02*
X290250Y58900I-2928J2500D01*
G01*
X285250D01*
G75*
G02*
X282321Y60250I0J3850D01*
G01*
X281500D01*
G37*
X339000D02*
G36*
X339000Y60250D02*
Y52750D01*
X382500D01*
Y60250D01*
X339000D01*
G37*
X5500Y68985D02*
G36*
X5500Y68985D02*
Y60250D01*
X21400D01*
Y64100D01*
X29100D01*
Y60250D01*
X31400D01*
G75*
G02*
X34000Y63891I3850J0D01*
G01*
Y68985D01*
X5500D01*
G37*
X36500D02*
G36*
X36500Y68985D02*
Y63891D01*
G75*
G02*
X39100Y60250I-1250J-3641D01*
G01*
X66400D01*
Y64100D01*
X74100D01*
Y60250D01*
X76400D01*
G75*
G02*
X84100I3850J0D01*
G01*
X101500D01*
Y68985D01*
X43244D01*
G75*
G02*
X37256I-2994J1265D01*
G01*
X36500D01*
G37*
X104000D02*
G36*
X104000Y68985D02*
Y60250D01*
X111500D01*
Y68985D01*
X104000D01*
G37*
X114000D02*
G36*
X114000Y68985D02*
Y60250D01*
X122322D01*
G75*
G02*
X121400Y62750I2928J2500D01*
G01*
G75*
G02*
X125250Y66600I3850J0D01*
G01*
X130250D01*
G75*
G02*
X134100Y62750I0J-3850D01*
G01*
G75*
G02*
X133178Y60250I-3850J0D01*
G01*
X136500D01*
Y68985D01*
X131057D01*
G75*
G02*
X130250Y68900I-807J3765D01*
G01*
X125250D01*
G75*
G02*
X124443Y68985I0J3851D01*
G01*
X114000D01*
G37*
X139000D02*
G36*
X139000Y68985D02*
Y60250D01*
X144000D01*
Y68985D01*
X139000D01*
G37*
X146500D02*
G36*
X146500Y68985D02*
Y60250D01*
X152322D01*
G75*
G02*
X151400Y62750I2928J2500D01*
G01*
G75*
G02*
X155250Y66600I3850J0D01*
G01*
X160250D01*
G75*
G02*
X164100Y62750I0J-3850D01*
G01*
G75*
G02*
X163178Y60250I-3850J0D01*
G01*
X167659D01*
G75*
G02*
X166650Y62750I2591J2500D01*
G01*
G75*
G02*
X173850I3600J0D01*
G01*
G75*
G02*
X172841Y60250I-3600J0D01*
G01*
X176652D01*
Y66348D01*
X183848D01*
Y60250D01*
X187946D01*
G75*
G02*
X186762Y62868I2304J2618D01*
G01*
G75*
G02*
X193738I3488J0D01*
G01*
G75*
G02*
X192554Y60250I-3488J0D01*
G01*
X199000D01*
Y64750D01*
G75*
G02*
X197000Y67750I1250J3000D01*
G01*
Y67750D01*
G75*
G02*
X197244Y68985I3250J0D01*
G01*
X161057D01*
G75*
G02*
X160250Y68900I-807J3765D01*
G01*
X155250D01*
G75*
G02*
X154443Y68985I0J3851D01*
G01*
X146500D01*
G37*
X201500Y64750D02*
G36*
X201500Y64750D02*
Y60250D01*
X239000D01*
Y68985D01*
X203256D01*
G75*
G02*
X203500Y67750I-3006J-1235D01*
G01*
Y67750D01*
G75*
G02*
X201500Y64750I-3250J0D01*
G01*
G37*
X241500Y68985D02*
G36*
X241500Y68985D02*
Y60250D01*
X252322D01*
G75*
G02*
X251400Y62750I2928J2500D01*
G01*
G75*
G02*
X255250Y66600I3850J0D01*
G01*
X260250D01*
G75*
G02*
X264100Y62750I0J-3850D01*
G01*
G75*
G02*
X263178Y60250I-3850J0D01*
G01*
X266500D01*
Y68985D01*
X261057D01*
G75*
G02*
X260250Y68900I-807J3765D01*
G01*
X255250D01*
G75*
G02*
X254443Y68985I0J3851D01*
G01*
X241500D01*
G37*
X269000D02*
G36*
X269000Y68985D02*
Y60250D01*
X274000D01*
Y68985D01*
X269000D01*
G37*
X276500D02*
G36*
X276500Y68985D02*
Y60250D01*
X279000D01*
Y68985D01*
X276500D01*
G37*
X281500Y61876D02*
G36*
X281500Y61876D02*
Y60250D01*
X282321D01*
G75*
G02*
X281500Y61876I2928J2499D01*
G01*
G37*
Y68985D02*
G36*
X281500Y68985D02*
Y63624D01*
G75*
G02*
X285250Y66600I3750J-873D01*
G01*
X290250D01*
G75*
G02*
X294100Y62750I0J-3850D01*
G01*
G75*
G02*
X293178Y60250I-3850J0D01*
G01*
X300159D01*
G75*
G02*
X299150Y62750I2591J2500D01*
G01*
G75*
G02*
X306350I3600J0D01*
G01*
G75*
G02*
X305341Y60250I-3600J0D01*
G01*
X309152D01*
Y66348D01*
X316348D01*
Y60250D01*
X320446D01*
G75*
G02*
X319262Y62868I2304J2618D01*
G01*
G75*
G02*
X326238I3488J0D01*
G01*
G75*
G02*
X325054Y60250I-3488J0D01*
G01*
X336500D01*
Y68985D01*
X291057D01*
G75*
G02*
X290250Y68900I-807J3765D01*
G01*
X285250D01*
G75*
G02*
X284443Y68985I0J3849D01*
G01*
X281500D01*
G37*
X339000D02*
G36*
X339000Y68985D02*
Y60250D01*
X382500D01*
Y68985D01*
X339000D01*
G37*
X5500Y72750D02*
G36*
X5500Y72750D02*
Y68985D01*
X34000D01*
Y72750D01*
X5500D01*
G37*
X36500D02*
G36*
X36500Y72750D02*
Y68985D01*
X37256D01*
G75*
G02*
X37000Y70250I2994J1265D01*
G01*
Y70250D01*
G75*
G02*
X38173Y72750I3250J0D01*
G01*
X36500D01*
G37*
X43500Y70250D02*
G36*
X43500Y70250D02*
G75*
G02*
X43244Y68985I-3250J0D01*
G01*
X101500D01*
Y72750D01*
X42327D01*
G75*
G02*
X43500Y70250I-2076J-2500D01*
G01*
Y70250D01*
G37*
X104000Y72750D02*
G36*
X104000Y72750D02*
Y68985D01*
X111500D01*
Y72750D01*
X104000D01*
G37*
X114000D02*
G36*
X114000Y72750D02*
Y68985D01*
X124443D01*
G75*
G02*
X121400Y72750I807J3765D01*
G01*
X114000D01*
G37*
X134100D02*
G36*
X134100Y72750D02*
G75*
G02*
X131057Y68985I-3850J0D01*
G01*
X136500D01*
Y72750D01*
X134100D01*
G37*
X139000D02*
G36*
X139000Y72750D02*
Y68985D01*
X144000D01*
Y72750D01*
X139000D01*
G37*
X146500D02*
G36*
X146500Y72750D02*
Y68985D01*
X154443D01*
G75*
G02*
X151400Y72750I807J3765D01*
G01*
X146500D01*
G37*
X164100D02*
G36*
X164100Y72750D02*
G75*
G02*
X161057Y68985I-3850J0D01*
G01*
X197244D01*
G75*
G02*
X203256I3006J-1235D01*
G01*
X239000D01*
Y72750D01*
X193736D01*
G75*
G02*
X186764I-3486J118D01*
G01*
X183848D01*
Y69152D01*
X176652D01*
Y72750D01*
X173850D01*
G75*
G02*
X166650I-3600J0D01*
G01*
X164100D01*
G37*
X241500D02*
G36*
X241500Y72750D02*
Y68985D01*
X254443D01*
G75*
G02*
X251400Y72750I807J3765D01*
G01*
X241500D01*
G37*
X264100D02*
G36*
X264100Y72750D02*
G75*
G02*
X261057Y68985I-3850J0D01*
G01*
X266500D01*
Y72750D01*
X264100D01*
G37*
X269000D02*
G36*
X269000Y72750D02*
Y68985D01*
X274000D01*
Y72750D01*
X269000D01*
G37*
X276500D02*
G36*
X276500Y72750D02*
Y68985D01*
X279000D01*
Y72750D01*
X276500D01*
G37*
X281500Y71876D02*
G36*
X281500Y71876D02*
Y68985D01*
X284443D01*
G75*
G02*
X281500Y71876I806J3765D01*
G01*
G37*
X294100Y72750D02*
G36*
X294100Y72750D02*
G75*
G02*
X291057Y68985I-3850J0D01*
G01*
X336500D01*
Y72750D01*
X326236D01*
G75*
G02*
X319264I-3486J118D01*
G01*
X316348D01*
Y69152D01*
X309152D01*
Y72750D01*
X306350D01*
G75*
G02*
X299150I-3600J0D01*
G01*
X294100D01*
G37*
X339000D02*
G36*
X339000Y72750D02*
Y68985D01*
X382500D01*
Y72750D01*
X339000D01*
G37*
X5500Y82750D02*
G36*
X5500Y82750D02*
Y72750D01*
X34000D01*
Y82750D01*
X5500D01*
G37*
X36500D02*
G36*
X36500Y82750D02*
Y72750D01*
X38173D01*
G75*
G02*
X39000Y73250I2076J-2500D01*
G01*
Y82750D01*
X36500D01*
G37*
X41500D02*
G36*
X41500Y82750D02*
Y73250D01*
G75*
G02*
X42327Y72750I-1250J-3000D01*
G01*
X101500D01*
Y82750D01*
X93500D01*
Y79500D01*
X87000D01*
Y82750D01*
X73601D01*
G75*
G02*
X66899I-3351J0D01*
G01*
X41500D01*
G37*
X104000D02*
G36*
X104000Y82750D02*
Y72750D01*
X111500D01*
Y79750D01*
G75*
G02*
X109500Y82750I1250J3000D01*
G01*
Y82750D01*
X104000D01*
G37*
X114000Y79750D02*
G36*
X114000Y79750D02*
Y72750D01*
X121400D01*
G75*
G02*
X125250Y76600I3850J0D01*
G01*
X130250D01*
G75*
G02*
X134100Y72750I0J-3850D01*
G01*
X136500D01*
Y82750D01*
X134100D01*
G75*
G02*
X130250Y78900I-3850J0D01*
G01*
X125250D01*
G75*
G02*
X121400Y82750I0J3850D01*
G01*
X116000D01*
Y82750D01*
G75*
G02*
X114000Y79750I-3250J0D01*
G01*
G37*
X139000Y82750D02*
G36*
X139000Y82750D02*
Y72750D01*
X144000D01*
Y82750D01*
X139000D01*
G37*
X146500D02*
G36*
X146500Y82750D02*
Y72750D01*
X151400D01*
G75*
G02*
X155250Y76600I3850J0D01*
G01*
X160250D01*
G75*
G02*
X164100Y72750I0J-3850D01*
G01*
X166650D01*
G75*
G02*
X173850I3600J0D01*
G01*
X176652D01*
Y76348D01*
X183848D01*
Y72750D01*
X186764D01*
G75*
G02*
X186762Y72868I3487J117D01*
G01*
G75*
G02*
X193738I3488J0D01*
G01*
G75*
G02*
X193736Y72750I-3489J-1D01*
G01*
X239000D01*
Y82750D01*
X193736D01*
G75*
G02*
X186764I-3486J118D01*
G01*
X183848D01*
Y79152D01*
X176652D01*
Y82750D01*
X173850D01*
G75*
G02*
X166650I-3600J0D01*
G01*
X164100D01*
G75*
G02*
X160250Y78900I-3850J0D01*
G01*
X155250D01*
G75*
G02*
X151400Y82750I0J3850D01*
G01*
X146500D01*
G37*
X241500D02*
G36*
X241500Y82750D02*
Y72750D01*
X251400D01*
G75*
G02*
X255250Y76600I3850J0D01*
G01*
X260250D01*
G75*
G02*
X264100Y72750I0J-3850D01*
G01*
X266500D01*
Y82750D01*
X264100D01*
G75*
G02*
X260250Y78900I-3850J0D01*
G01*
X255250D01*
G75*
G02*
X251400Y82750I0J3850D01*
G01*
X241500D01*
G37*
X269000D02*
G36*
X269000Y82750D02*
Y72750D01*
X274000D01*
Y82750D01*
X269000D01*
G37*
X276500D02*
G36*
X276500Y82750D02*
Y72750D01*
X279000D01*
Y82750D01*
X276500D01*
G37*
X281500Y81876D02*
G36*
X281500Y81876D02*
Y73624D01*
G75*
G02*
X285250Y76600I3750J-873D01*
G01*
X290250D01*
G75*
G02*
X294100Y72750I0J-3850D01*
G01*
X299150D01*
G75*
G02*
X306350I3600J0D01*
G01*
X309152D01*
Y76348D01*
X316348D01*
Y72750D01*
X319264D01*
G75*
G02*
X319262Y72868I3487J117D01*
G01*
G75*
G02*
X326238I3488J0D01*
G01*
G75*
G02*
X326236Y72750I-3489J-1D01*
G01*
X336500D01*
Y74750D01*
G75*
G02*
X334500Y77750I1250J3000D01*
G01*
Y77750D01*
G75*
G02*
X341000I3250J0D01*
G01*
Y77750D01*
G75*
G02*
X339000Y74750I-3250J0D01*
G01*
Y72750D01*
X382500D01*
Y82750D01*
X326236D01*
G75*
G02*
X319264I-3486J118D01*
G01*
X316348D01*
Y79152D01*
X309152D01*
Y82750D01*
X306350D01*
G75*
G02*
X299150I-3600J0D01*
G01*
X294100D01*
G75*
G02*
X290250Y78900I-3850J0D01*
G01*
X285250D01*
G75*
G02*
X281500Y81876I0J3850D01*
G01*
G37*
X5500Y92750D02*
G36*
X5500Y92750D02*
Y82750D01*
X34000D01*
Y89441D01*
G75*
G02*
X31713Y92750I1251J3309D01*
G01*
X5500D01*
G37*
X36500Y89441D02*
G36*
X36500Y89441D02*
Y82750D01*
X39000D01*
Y92750D01*
X38787D01*
G75*
G02*
X36500Y89441I-3538J0D01*
G01*
G37*
X41500Y92750D02*
G36*
X41500Y92750D02*
Y82750D01*
X66899D01*
G75*
G02*
Y82769I1696J9D01*
G01*
G75*
G02*
X66900Y82823I1670J3D01*
G01*
Y92750D01*
X48787D01*
G75*
G02*
X41713I-3537J0D01*
G01*
X41500D01*
G37*
X73600D02*
G36*
X73600Y92750D02*
Y82823D01*
G75*
G02*
X73601Y82769I-1669J-51D01*
G01*
G75*
G02*
Y82750I-1696J-9D01*
G01*
X87000D01*
Y86000D01*
X93500D01*
Y82750D01*
X101500D01*
Y89750D01*
G75*
G02*
X99500Y92750I1250J3000D01*
G01*
Y92750D01*
X83100D01*
G75*
G02*
X77400I-2850J0D01*
G01*
X73600D01*
G37*
X104000Y89750D02*
G36*
X104000Y89750D02*
Y82750D01*
X109500D01*
G75*
G02*
X116000I3250J0D01*
G01*
X121400D01*
G75*
G02*
X125250Y86600I3850J0D01*
G01*
X130250D01*
G75*
G02*
X134100Y82750I0J-3850D01*
G01*
X136500D01*
Y92750D01*
X134100D01*
G75*
G02*
X130250Y88900I-3850J0D01*
G01*
X125250D01*
G75*
G02*
X121400Y92750I0J3850D01*
G01*
X106000D01*
Y92750D01*
G75*
G02*
X104000Y89750I-3250J0D01*
G01*
G37*
X139000Y92750D02*
G36*
X139000Y92750D02*
Y82750D01*
X144000D01*
Y92750D01*
X139000D01*
G37*
X146500D02*
G36*
X146500Y92750D02*
Y82750D01*
X151400D01*
G75*
G02*
X155250Y86600I3850J0D01*
G01*
X160250D01*
G75*
G02*
X164100Y82750I0J-3850D01*
G01*
X166650D01*
G75*
G02*
X173850I3600J0D01*
G01*
X176652D01*
Y86348D01*
X183848D01*
Y82750D01*
X186764D01*
G75*
G02*
X186762Y82868I3487J117D01*
G01*
G75*
G02*
X193738I3488J0D01*
G01*
G75*
G02*
X193736Y82750I-3489J-1D01*
G01*
X239000D01*
Y89750D01*
G75*
G02*
X237000Y92750I1250J3000D01*
G01*
Y92750D01*
X193736D01*
G75*
G02*
X186764I-3486J118D01*
G01*
X183848D01*
Y89152D01*
X176652D01*
Y92750D01*
X173850D01*
G75*
G02*
X166650I-3600J0D01*
G01*
X164100D01*
G75*
G02*
X160250Y88900I-3850J0D01*
G01*
X155250D01*
G75*
G02*
X151400Y92750I0J3850D01*
G01*
X146500D01*
G37*
X241500Y89750D02*
G36*
X241500Y89750D02*
Y82750D01*
X251400D01*
G75*
G02*
X255250Y86600I3850J0D01*
G01*
X260250D01*
G75*
G02*
X264100Y82750I0J-3850D01*
G01*
X266500D01*
Y92750D01*
X264100D01*
G75*
G02*
X260250Y88900I-3850J0D01*
G01*
X255250D01*
G75*
G02*
X251400Y92750I0J3850D01*
G01*
X243500D01*
Y92750D01*
G75*
G02*
X241500Y89750I-3250J0D01*
G01*
G37*
X269000Y92750D02*
G36*
X269000Y92750D02*
Y82750D01*
X274000D01*
Y92750D01*
X269000D01*
G37*
X276500D02*
G36*
X276500Y92750D02*
Y82750D01*
X279000D01*
Y84750D01*
G75*
G02*
X277000Y87750I1250J3000D01*
G01*
Y87750D01*
G75*
G02*
X282310Y90264I3250J0D01*
G01*
G75*
G02*
X281400Y92750I2940J2486D01*
G01*
X276500D01*
G37*
X283500Y87750D02*
G36*
X283500Y87750D02*
G75*
G02*
X282764Y85690I-3250J0D01*
G01*
G75*
G02*
X285250Y86600I2485J-2938D01*
G01*
X290250D01*
G75*
G02*
X294100Y82750I0J-3850D01*
G01*
X299150D01*
G75*
G02*
X306350I3600J0D01*
G01*
X309152D01*
Y86348D01*
X316348D01*
Y82750D01*
X319264D01*
G75*
G02*
X319262Y82868I3487J117D01*
G01*
G75*
G02*
X326238I3488J0D01*
G01*
G75*
G02*
X326236Y82750I-3489J-1D01*
G01*
X382500D01*
Y92750D01*
X326236D01*
G75*
G02*
X319264I-3486J118D01*
G01*
X316348D01*
Y89152D01*
X309152D01*
Y92750D01*
X306350D01*
G75*
G02*
X299150I-3600J0D01*
G01*
X294100D01*
G75*
G02*
X290250Y88900I-3850J0D01*
G01*
X285250D01*
G75*
G02*
X282764Y89810I0J3851D01*
G01*
G75*
G02*
X283500Y87750I-2513J-2060D01*
G01*
G37*
X5500Y102750D02*
G36*
X5500Y102750D02*
Y92750D01*
X31713D01*
G75*
G02*
X38787I3537J0D01*
G01*
X39000D01*
Y101500D01*
X38559D01*
G75*
G02*
X31713Y102750I-3309J1250D01*
G01*
X5500D01*
G37*
X41500D02*
G36*
X41500Y102750D02*
Y92750D01*
X41713D01*
G75*
G02*
X48787I3537J0D01*
G01*
X66900D01*
Y100250D01*
G75*
G02*
X67883Y102620I3350J0D01*
G01*
X68013Y102750D01*
X48787D01*
G75*
G02*
X41713I-3537J0D01*
G01*
X41500D01*
G37*
X73600Y98862D02*
G36*
X73600Y98862D02*
Y92750D01*
X77400D01*
G75*
G02*
X83100I2850J0D01*
G01*
X99500D01*
G75*
G02*
X106000I3250J0D01*
G01*
X121400D01*
G75*
G02*
X125250Y96600I3850J0D01*
G01*
X130250D01*
G75*
G02*
X134100Y92750I0J-3850D01*
G01*
X136500D01*
Y102750D01*
X134100D01*
G75*
G02*
X130250Y98900I-3850J0D01*
G01*
X125250D01*
G75*
G02*
X121400Y102750I0J3850D01*
G01*
X85678D01*
G75*
G02*
X82750Y101400I-2928J2500D01*
G01*
G75*
G02*
X79822Y102750I0J3850D01*
G01*
X76100D01*
G75*
G02*
X75117Y100380I-3350J0D01*
G01*
X73600Y98862D01*
G37*
X139000Y102750D02*
G36*
X139000Y102750D02*
Y92750D01*
X144000D01*
Y102750D01*
X139000D01*
G37*
X146500D02*
G36*
X146500Y102750D02*
Y92750D01*
X151400D01*
G75*
G02*
X155250Y96600I3850J0D01*
G01*
X160250D01*
G75*
G02*
X164100Y92750I0J-3850D01*
G01*
X166650D01*
G75*
G02*
X173850I3600J0D01*
G01*
X176652D01*
Y96348D01*
X183848D01*
Y92750D01*
X186764D01*
G75*
G02*
X186762Y92868I3487J117D01*
G01*
G75*
G02*
X193738I3488J0D01*
G01*
G75*
G02*
X193736Y92750I-3489J-1D01*
G01*
X237000D01*
G75*
G02*
X243500I3250J0D01*
G01*
X251400D01*
G75*
G02*
X255250Y96600I3850J0D01*
G01*
X260250D01*
G75*
G02*
X264100Y92750I0J-3850D01*
G01*
X266500D01*
Y102750D01*
X264100D01*
G75*
G02*
X260250Y98900I-3850J0D01*
G01*
X255250D01*
G75*
G02*
X251400Y102750I0J3850D01*
G01*
X194136D01*
G75*
G02*
X186364I-3886J118D01*
G01*
X164100D01*
G75*
G02*
X160250Y98900I-3850J0D01*
G01*
X155250D01*
G75*
G02*
X151400Y102750I0J3850D01*
G01*
X146500D01*
G37*
X269000Y101500D02*
G36*
X269000Y101500D02*
Y92750D01*
X274000D01*
Y102750D01*
X271500D01*
G75*
G02*
X270250Y101500I-1250J0D01*
G01*
X269000D01*
G37*
X276500Y102750D02*
G36*
X276500Y102750D02*
Y92750D01*
X281400D01*
G75*
G02*
X285250Y96600I3850J0D01*
G01*
X290250D01*
G75*
G02*
X294100Y92750I0J-3850D01*
G01*
X299150D01*
G75*
G02*
X306350I3600J0D01*
G01*
X309152D01*
Y96348D01*
X316348D01*
Y92750D01*
X319264D01*
G75*
G02*
X319262Y92868I3487J117D01*
G01*
G75*
G02*
X326238I3488J0D01*
G01*
G75*
G02*
X326236Y92750I-3489J-1D01*
G01*
X382500D01*
Y102750D01*
X326636D01*
G75*
G02*
X318864I-3886J118D01*
G01*
X294100D01*
G75*
G02*
X290250Y98900I-3850J0D01*
G01*
X285250D01*
G75*
G02*
X281400Y102750I0J3850D01*
G01*
X276500D01*
G37*
X5500Y112750D02*
G36*
X5500Y112750D02*
Y102750D01*
X31713D01*
G75*
G02*
X38559Y104000I3537J0D01*
G01*
X40250D01*
G75*
G02*
X41500Y102750I0J-1250D01*
G01*
X41713D01*
G75*
G02*
X48787I3537J0D01*
G01*
X68013D01*
X69149Y103887D01*
G75*
G02*
X68900Y105250I3602J1363D01*
G01*
G75*
G02*
X69400Y107147I3852J0D01*
G01*
Y112750D01*
X48787D01*
G75*
G02*
X41713I-3537J0D01*
G01*
X38787D01*
G75*
G02*
X31713I-3537J0D01*
G01*
X23500D01*
G75*
G02*
X17000I-3250J0D01*
G01*
X5500D01*
G37*
X76100Y103353D02*
G36*
X76100Y103353D02*
Y102750D01*
X79822D01*
G75*
G02*
X78900Y105250I2928J2500D01*
G01*
Y105250D01*
Y105250D01*
G75*
G02*
X82750Y109100I3850J0D01*
G01*
G75*
G02*
X86600Y105250I0J-3850D01*
G01*
Y105250D01*
Y105250D01*
G75*
G02*
X85678Y102750I-3850J0D01*
G01*
X121400D01*
G75*
G02*
X125250Y106600I3850J0D01*
G01*
X130250D01*
G75*
G02*
X134100Y102750I0J-3850D01*
G01*
X136500D01*
Y112750D01*
X134500D01*
G75*
G02*
X130250Y108500I-4250J0D01*
G01*
X125250D01*
G75*
G02*
X121000Y112750I0J4250D01*
G01*
X93500D01*
G75*
G02*
X87000I-3250J0D01*
G01*
X76100D01*
Y107147D01*
G75*
G02*
X76600Y105250I-3350J-1897D01*
G01*
G75*
G02*
X76100Y103353I-3850J0D01*
G01*
G37*
X139000Y112750D02*
G36*
X139000Y112750D02*
Y102750D01*
X144000D01*
Y112750D01*
X139000D01*
G37*
X146500D02*
G36*
X146500Y112750D02*
Y102750D01*
X151400D01*
G75*
G02*
X155250Y106600I3850J0D01*
G01*
X160250D01*
G75*
G02*
X164100Y102750I0J-3850D01*
G01*
X186364D01*
G75*
G02*
X186362Y102868I3888J124D01*
G01*
G75*
G02*
X194138I3888J0D01*
G01*
G75*
G02*
X194136Y102750I-3890J6D01*
G01*
X251400D01*
G75*
G02*
X255250Y106600I3850J0D01*
G01*
X260250D01*
G75*
G02*
X264100Y102750I0J-3850D01*
G01*
X266500D01*
G75*
G02*
X267750Y104000I1250J0D01*
G01*
X269000D01*
Y112750D01*
X264500D01*
G75*
G02*
X260250Y108500I-4250J0D01*
G01*
X255250D01*
G75*
G02*
X251000Y112750I0J4250D01*
G01*
X206500D01*
Y110750D01*
G75*
G02*
X208500Y107750I-1250J-3000D01*
G01*
Y107750D01*
G75*
G02*
X202000I-3250J0D01*
G01*
Y107750D01*
G75*
G02*
X204000Y110750I3250J0D01*
G01*
Y112750D01*
X164100D01*
G75*
G02*
X160250Y108900I-3850J0D01*
G01*
X155250D01*
G75*
G02*
X151400Y112750I0J3850D01*
G01*
X146500D01*
G37*
X271500D02*
G36*
X271500Y112750D02*
Y102750D01*
X274000D01*
Y112750D01*
X271500D01*
G37*
X276500D02*
G36*
X276500Y112750D02*
Y102750D01*
X281400D01*
G75*
G02*
X285250Y106600I3850J0D01*
G01*
X290250D01*
G75*
G02*
X294100Y102750I0J-3850D01*
G01*
X318864D01*
G75*
G02*
X318862Y102868I3888J124D01*
G01*
G75*
G02*
X326638I3888J0D01*
G01*
G75*
G02*
X326636Y102750I-3890J6D01*
G01*
X382500D01*
Y112750D01*
X294100D01*
G75*
G02*
X290250Y108900I-3850J0D01*
G01*
X285250D01*
G75*
G02*
X281400Y112750I0J3850D01*
G01*
X276500D01*
G37*
X5500Y122750D02*
G36*
X5500Y122750D02*
Y112750D01*
X17000D01*
Y112750D01*
G75*
G02*
X19000Y115750I3250J0D01*
G01*
Y122750D01*
X5500D01*
G37*
X21500D02*
G36*
X21500Y122750D02*
Y115750D01*
G75*
G02*
X23500Y112750I-1250J-3000D01*
G01*
Y112750D01*
X31713D01*
G75*
G02*
X38787I3537J0D01*
G01*
X41713D01*
G75*
G02*
X48787I3537J0D01*
G01*
X69400D01*
Y120853D01*
G75*
G02*
X68900Y122750I3350J1897D01*
G01*
X48787D01*
G75*
G02*
X41713I-3537J0D01*
G01*
X38787D01*
G75*
G02*
X31713I-3537J0D01*
G01*
X21500D01*
G37*
X76100Y120853D02*
G36*
X76100Y120853D02*
Y112750D01*
X87000D01*
Y112750D01*
G75*
G02*
X89000Y115750I3250J0D01*
G01*
Y122750D01*
X86600D01*
Y118900D01*
X78900D01*
Y122750D01*
X76600D01*
G75*
G02*
X76100Y120853I-3850J0D01*
G01*
G37*
X91500Y122750D02*
G36*
X91500Y122750D02*
Y115750D01*
G75*
G02*
X93500Y112750I-1250J-3000D01*
G01*
Y112750D01*
X121000D01*
G75*
G02*
X125250Y117000I4250J0D01*
G01*
X130250D01*
G75*
G02*
X134500Y112750I0J-4250D01*
G01*
X136500D01*
Y122750D01*
X134100D01*
G75*
G02*
X130250Y118900I-3850J0D01*
G01*
X125250D01*
G75*
G02*
X121400Y122750I0J3850D01*
G01*
X101500D01*
Y120750D01*
G75*
G02*
X103500Y117750I-1250J-3000D01*
G01*
Y117750D01*
G75*
G02*
X97000I-3250J0D01*
G01*
Y117750D01*
G75*
G02*
X99000Y120750I3250J0D01*
G01*
Y122750D01*
X91500D01*
G37*
X139000D02*
G36*
X139000Y122750D02*
Y112750D01*
X144000D01*
Y122750D01*
X139000D01*
G37*
X146500D02*
G36*
X146500Y122750D02*
Y112750D01*
X151400D01*
G75*
G02*
X155250Y116600I3850J0D01*
G01*
X160250D01*
G75*
G02*
X164100Y112750I0J-3850D01*
G01*
X204000D01*
Y122750D01*
X164100D01*
G75*
G02*
X160250Y118900I-3850J0D01*
G01*
X155250D01*
G75*
G02*
X151400Y122750I0J3850D01*
G01*
X146500D01*
G37*
X206500D02*
G36*
X206500Y122750D02*
Y112750D01*
X251000D01*
G75*
G02*
X255250Y117000I4250J0D01*
G01*
X260250D01*
G75*
G02*
X264500Y112750I0J-4250D01*
G01*
X269000D01*
Y122750D01*
X264100D01*
G75*
G02*
X260250Y118900I-3850J0D01*
G01*
X255250D01*
G75*
G02*
X251400Y122750I0J3850D01*
G01*
X206500D01*
G37*
X271500D02*
G36*
X271500Y122750D02*
Y112750D01*
X274000D01*
Y122750D01*
X271500D01*
G37*
X276500D02*
G36*
X276500Y122750D02*
Y112750D01*
X281400D01*
G75*
G02*
X285250Y116600I3850J0D01*
G01*
X290250D01*
G75*
G02*
X294100Y112750I0J-3850D01*
G01*
X382500D01*
Y122750D01*
X294100D01*
G75*
G02*
X290250Y118900I-3850J0D01*
G01*
X285250D01*
G75*
G02*
X281400Y122750I0J3850D01*
G01*
X276500D01*
G37*
X5500Y132750D02*
G36*
X5500Y132750D02*
Y122750D01*
X19000D01*
Y132750D01*
X5500D01*
G37*
X21500D02*
G36*
X21500Y132750D02*
Y122750D01*
X31713D01*
G75*
G02*
X38787I3537J0D01*
G01*
X41713D01*
G75*
G02*
X48787I3537J0D01*
G01*
X68900D01*
G75*
G02*
X69400Y124647I3850J0D01*
G01*
Y132750D01*
X48787D01*
G75*
G02*
X41713I-3537J0D01*
G01*
X38787D01*
G75*
G02*
X31713I-3537J0D01*
G01*
X21500D01*
G37*
X76100D02*
G36*
X76100Y132750D02*
Y124647D01*
G75*
G02*
X76600Y122750I-3350J-1897D01*
G01*
X78900D01*
Y126600D01*
X86600D01*
Y122750D01*
X89000D01*
Y132750D01*
X76100D01*
G37*
X91500D02*
G36*
X91500Y132750D02*
Y122750D01*
X99000D01*
Y132750D01*
X96500D01*
Y130750D01*
G75*
G02*
X98500Y127750I-1250J-3000D01*
G01*
Y127750D01*
G75*
G02*
X92000I-3250J0D01*
G01*
Y127750D01*
G75*
G02*
X94000Y130750I3250J0D01*
G01*
Y132750D01*
X91500D01*
G37*
X101500D02*
G36*
X101500Y132750D02*
Y122750D01*
X121400D01*
G75*
G02*
X125250Y126600I3850J0D01*
G01*
X130250D01*
G75*
G02*
X134100Y122750I0J-3850D01*
G01*
X136500D01*
Y132750D01*
X101500D01*
G37*
X139000D02*
G36*
X139000Y132750D02*
Y122750D01*
X144000D01*
Y132750D01*
X139000D01*
G37*
X146500D02*
G36*
X146500Y132750D02*
Y122750D01*
X151400D01*
G75*
G02*
X155250Y126600I3850J0D01*
G01*
X160250D01*
G75*
G02*
X164100Y122750I0J-3850D01*
G01*
X204000D01*
Y132750D01*
X194136D01*
G75*
G02*
X194138Y132632I-3888J-124D01*
G01*
G75*
G02*
X186362I-3888J0D01*
G01*
G75*
G02*
X186364Y132750I3890J-6D01*
G01*
X184500D01*
G75*
G02*
X176000I-4250J0D01*
G01*
X174100D01*
Y128900D01*
X166400D01*
Y132750D01*
X146500D01*
G37*
X206500D02*
G36*
X206500Y132750D02*
Y122750D01*
X251400D01*
G75*
G02*
X255250Y126600I3850J0D01*
G01*
X260250D01*
G75*
G02*
X264100Y122750I0J-3850D01*
G01*
X269000D01*
Y132750D01*
X206500D01*
G37*
X271500D02*
G36*
X271500Y132750D02*
Y122750D01*
X274000D01*
Y132750D01*
X271500D01*
G37*
X276500D02*
G36*
X276500Y132750D02*
Y122750D01*
X281400D01*
G75*
G02*
X285250Y126600I3850J0D01*
G01*
X290250D01*
G75*
G02*
X294100Y122750I0J-3850D01*
G01*
X382500D01*
Y132750D01*
X276500D01*
G37*
X5500Y137750D02*
G36*
X5500Y137750D02*
Y132750D01*
X19000D01*
Y137750D01*
X5500D01*
G37*
X21500D02*
G36*
X21500Y137750D02*
Y132750D01*
X31713D01*
G75*
G02*
X38787I3537J0D01*
G01*
X41713D01*
G75*
G02*
X48787I3537J0D01*
G01*
X69400D01*
Y136301D01*
G75*
G02*
X69100Y137748I3339J1447D01*
G01*
G75*
G02*
Y137750I3867J1D01*
G01*
X21500D01*
G37*
X76100Y136301D02*
G36*
X76100Y136301D02*
Y132750D01*
X89000D01*
Y137750D01*
X76400D01*
G75*
G02*
Y137748I-3867J-1D01*
G01*
G75*
G02*
X76100Y136301I-3639J0D01*
G01*
G37*
X91500Y137750D02*
G36*
X91500Y137750D02*
Y132750D01*
X94000D01*
Y137750D01*
X91500D01*
G37*
X96500D02*
G36*
X96500Y137750D02*
Y132750D01*
X99000D01*
Y137750D01*
X96500D01*
G37*
X101500D02*
G36*
X101500Y137750D02*
Y132750D01*
X136500D01*
Y137750D01*
X114827D01*
G75*
G02*
X110673I-2077J2500D01*
G01*
X101500D01*
G37*
X139000D02*
G36*
X139000Y137750D02*
Y132750D01*
X144000D01*
Y137750D01*
X139000D01*
G37*
X146500D02*
G36*
X146500Y137750D02*
Y132750D01*
X166400D01*
Y136600D01*
X174100D01*
Y132750D01*
X176000D01*
G75*
G02*
X184500I4250J0D01*
G01*
X186364D01*
G75*
G02*
X194136I3886J-118D01*
G01*
X204000D01*
Y134750D01*
G75*
G02*
X202000Y137750I1250J3000D01*
G01*
Y137750D01*
X146500D01*
G37*
X206500Y134750D02*
G36*
X206500Y134750D02*
Y132750D01*
X269000D01*
Y137750D01*
X208500D01*
Y137750D01*
G75*
G02*
X206500Y134750I-3250J0D01*
G01*
G37*
X271500Y137750D02*
G36*
X271500Y137750D02*
Y132750D01*
X274000D01*
Y137750D01*
X271500D01*
G37*
X276500D02*
G36*
X276500Y137750D02*
Y132750D01*
X382500D01*
Y137750D01*
X326636D01*
G75*
G02*
X326638Y137632I-3888J-124D01*
G01*
G75*
G02*
X318862I-3888J0D01*
G01*
G75*
G02*
X318864Y137750I3890J-6D01*
G01*
X317000D01*
G75*
G02*
X308500I-4250J0D01*
G01*
X306600D01*
Y133900D01*
X298900D01*
Y137750D01*
X298500D01*
G75*
G02*
X292000I-3250J0D01*
G01*
X276500D01*
G37*
X5500Y142750D02*
G36*
X5500Y142750D02*
Y137750D01*
X19000D01*
Y142750D01*
X5500D01*
G37*
X21500D02*
G36*
X21500Y142750D02*
Y137750D01*
X69100D01*
G75*
G02*
X76400I3650J0D01*
G01*
X89000D01*
Y142750D01*
X21500D01*
G37*
X91500D02*
G36*
X91500Y142750D02*
Y137750D01*
X94000D01*
Y142750D01*
X91500D01*
G37*
X96500D02*
G36*
X96500Y142750D02*
Y137750D01*
X99000D01*
Y142750D01*
X96500D01*
G37*
X101500D02*
G36*
X101500Y142750D02*
Y137750D01*
X110673D01*
G75*
G02*
X109500Y140250I2077J2500D01*
G01*
Y140250D01*
G75*
G02*
X110673Y142750I3250J0D01*
G01*
X101500D01*
G37*
X116000Y140250D02*
G36*
X116000Y140250D02*
G75*
G02*
X114827Y137750I-3250J0D01*
G01*
X136500D01*
Y142250D01*
G75*
G02*
X135673Y142750I1250J3000D01*
G01*
X114827D01*
G75*
G02*
X116000Y140250I-2076J-2500D01*
G01*
Y140250D01*
G37*
X139000Y142250D02*
G36*
X139000Y142250D02*
Y137750D01*
X144000D01*
Y142750D01*
X139827D01*
G75*
G02*
X139000Y142250I-2077J2500D01*
G01*
G37*
X146500Y142750D02*
G36*
X146500Y142750D02*
Y137750D01*
X202000D01*
G75*
G02*
X208500I3250J0D01*
G01*
X269000D01*
Y142750D01*
X193736D01*
G75*
G02*
X193738Y142632I-3487J-117D01*
G01*
G75*
G02*
X186762I-3488J0D01*
G01*
G75*
G02*
X186764Y142750I3489J1D01*
G01*
X183848D01*
Y139152D01*
X176652D01*
Y142750D01*
X173850D01*
G75*
G02*
X166650I-3600J0D01*
G01*
X146500D01*
G37*
X271500D02*
G36*
X271500Y142750D02*
Y137750D01*
X274000D01*
Y142750D01*
X271500D01*
G37*
X276500D02*
G36*
X276500Y142750D02*
Y137750D01*
X292000D01*
Y137750D01*
G75*
G02*
X294000Y140750I3250J0D01*
G01*
Y142750D01*
X276500D01*
G37*
X296500D02*
G36*
X296500Y142750D02*
Y140750D01*
G75*
G02*
X298500Y137750I-1250J-3000D01*
G01*
Y137750D01*
X298900D01*
Y141600D01*
X306600D01*
Y137750D01*
X308500D01*
G75*
G02*
X317000I4250J0D01*
G01*
X318864D01*
G75*
G02*
X326636I3886J-118D01*
G01*
X382500D01*
Y142750D01*
X296500D01*
G37*
X5500Y147750D02*
G36*
X5500Y147750D02*
Y142750D01*
X19000D01*
Y147750D01*
X5500D01*
G37*
X21500D02*
G36*
X21500Y147750D02*
Y142750D01*
X89000D01*
Y147750D01*
X21500D01*
G37*
X91500D02*
G36*
X91500Y147750D02*
Y142750D01*
X94000D01*
Y147750D01*
X91500D01*
G37*
X96500D02*
G36*
X96500Y147750D02*
Y142750D01*
X99000D01*
Y147750D01*
X96500D01*
G37*
X101500D02*
G36*
X101500Y147750D02*
Y142750D01*
X110673D01*
G75*
G02*
X111500Y143250I2076J-2500D01*
G01*
Y147750D01*
X101500D01*
G37*
X114000D02*
G36*
X114000Y147750D02*
Y143250D01*
G75*
G02*
X114827Y142750I-1250J-3000D01*
G01*
X135673D01*
G75*
G02*
X134500Y145250I2077J2500D01*
G01*
G75*
G02*
X135673Y147750I3250J0D01*
G01*
X114000D01*
G37*
X141000Y145250D02*
G36*
X141000Y145250D02*
G75*
G02*
X139827Y142750I-3250J0D01*
G01*
X144000D01*
Y147750D01*
X139827D01*
G75*
G02*
X141000Y145250I-2077J-2500D01*
G01*
G37*
X146500Y147750D02*
G36*
X146500Y147750D02*
Y142750D01*
X166650D01*
G75*
G02*
X173850I3600J0D01*
G01*
X176652D01*
Y146348D01*
X183848D01*
Y142750D01*
X186764D01*
G75*
G02*
X193736I3486J-118D01*
G01*
X269000D01*
Y147750D01*
X241000D01*
G75*
G02*
X234500I-3250J0D01*
G01*
X146500D01*
G37*
X271500D02*
G36*
X271500Y147750D02*
Y142750D01*
X274000D01*
Y147750D01*
X271500D01*
G37*
X276500D02*
G36*
X276500Y147750D02*
Y142750D01*
X294000D01*
Y147750D01*
X276500D01*
G37*
X296500D02*
G36*
X296500Y147750D02*
Y142750D01*
X382500D01*
Y147750D01*
X326236D01*
G75*
G02*
X326238Y147632I-3487J-117D01*
G01*
G75*
G02*
X319262I-3488J0D01*
G01*
G75*
G02*
X319264Y147750I3489J1D01*
G01*
X316348D01*
Y144152D01*
X309152D01*
Y147750D01*
X306350D01*
G75*
G02*
X299150I-3600J0D01*
G01*
X296500D01*
G37*
X5500Y152750D02*
G36*
X5500Y152750D02*
Y147750D01*
X19000D01*
Y152750D01*
X5500D01*
G37*
X21500D02*
G36*
X21500Y152750D02*
Y147750D01*
X89000D01*
Y152750D01*
X21500D01*
G37*
X91500D02*
G36*
X91500Y152750D02*
Y147750D01*
X94000D01*
Y152750D01*
X91500D01*
G37*
X96500D02*
G36*
X96500Y152750D02*
Y147750D01*
X99000D01*
Y152750D01*
X96500D01*
G37*
X101500D02*
G36*
X101500Y152750D02*
Y147750D01*
X111500D01*
Y152750D01*
X101500D01*
G37*
X114000D02*
G36*
X114000Y152750D02*
Y147750D01*
X135673D01*
G75*
G02*
X136500Y148250I2077J-2500D01*
G01*
Y152750D01*
X134100D01*
G75*
G02*
X130250Y148900I-3850J0D01*
G01*
X125250D01*
G75*
G02*
X121400Y152750I0J3850D01*
G01*
X114000D01*
G37*
X139000D02*
G36*
X139000Y152750D02*
Y148250D01*
G75*
G02*
X139827Y147750I-1250J-3000D01*
G01*
X144000D01*
Y152750D01*
X139000D01*
G37*
X146500D02*
G36*
X146500Y152750D02*
Y147750D01*
X234500D01*
Y147750D01*
G75*
G02*
X236500Y150750I3250J0D01*
G01*
Y152750D01*
X193736D01*
G75*
G02*
X193738Y152632I-3487J-117D01*
G01*
G75*
G02*
X186762I-3488J0D01*
G01*
G75*
G02*
X186764Y152750I3489J1D01*
G01*
X183848D01*
Y149152D01*
X176652D01*
Y152750D01*
X173850D01*
Y152750D01*
G75*
G02*
X166874Y151500I-3600J0D01*
G01*
X165250D01*
G75*
G02*
X164076Y152320I0J1250D01*
G01*
G75*
G02*
X160250Y148900I-3827J430D01*
G01*
X155250D01*
G75*
G02*
X151400Y152750I0J3850D01*
G01*
X146500D01*
G37*
X239000D02*
G36*
X239000Y152750D02*
Y150750D01*
G75*
G02*
X241000Y147750I-1250J-3000D01*
G01*
Y147750D01*
X269000D01*
Y152750D01*
X239000D01*
G37*
X271500D02*
G36*
X271500Y152750D02*
Y147750D01*
X274000D01*
Y152750D01*
X271500D01*
G37*
X276500D02*
G36*
X276500Y152750D02*
Y147750D01*
X294000D01*
Y152750D01*
X276500D01*
G37*
X296500D02*
G36*
X296500Y152750D02*
Y147750D01*
X299150D01*
G75*
G02*
X306350I3600J0D01*
G01*
X309152D01*
Y151348D01*
X316348D01*
Y147750D01*
X319264D01*
G75*
G02*
X326236I3486J-118D01*
G01*
X382500D01*
Y152750D01*
X296500D01*
G37*
X5500Y157750D02*
G36*
X5500Y157750D02*
Y152750D01*
X19000D01*
Y157750D01*
X5500D01*
G37*
X21500D02*
G36*
X21500Y157750D02*
Y152750D01*
X89000D01*
Y157750D01*
X68500D01*
G75*
G02*
X62000I-3250J0D01*
G01*
X21500D01*
G37*
X91500D02*
G36*
X91500Y157750D02*
Y152750D01*
X94000D01*
Y157750D01*
X91500D01*
G37*
X96500D02*
G36*
X96500Y157750D02*
Y152750D01*
X99000D01*
Y157750D01*
X96500D01*
G37*
X101500D02*
G36*
X101500Y157750D02*
Y152750D01*
X111500D01*
Y157750D01*
X101500D01*
G37*
X114000D02*
G36*
X114000Y157750D02*
Y152750D01*
X121400D01*
G75*
G02*
X125250Y156600I3850J0D01*
G01*
X130250D01*
G75*
G02*
X134100Y152750I0J-3850D01*
G01*
X136500D01*
Y157750D01*
X114000D01*
G37*
X139000D02*
G36*
X139000Y157750D02*
Y152750D01*
X144000D01*
Y157750D01*
X139000D01*
G37*
X146500D02*
G36*
X146500Y157750D02*
Y152750D01*
X151400D01*
G75*
G02*
X155250Y156600I3850J0D01*
G01*
X160250D01*
G75*
G02*
X164000Y153624I0J-3850D01*
G01*
Y157750D01*
X146500D01*
G37*
X166500D02*
G36*
X166500Y157750D02*
Y154000D01*
X166874D01*
G75*
G02*
X173850Y152750I3376J-1250D01*
G01*
Y152750D01*
X176652D01*
Y156348D01*
X183848D01*
Y152750D01*
X186764D01*
G75*
G02*
X193736I3486J-118D01*
G01*
X236500D01*
Y157750D01*
X166500D01*
G37*
X239000D02*
G36*
X239000Y157750D02*
Y152750D01*
X269000D01*
Y157750D01*
X264100D01*
G75*
G02*
X260250Y153900I-3850J0D01*
G01*
X255250D01*
G75*
G02*
X251400Y157750I0J3850D01*
G01*
X239000D01*
G37*
X271500D02*
G36*
X271500Y157750D02*
Y152750D01*
X274000D01*
Y157750D01*
X271500D01*
G37*
X276500D02*
G36*
X276500Y157750D02*
Y152750D01*
X294000D01*
Y156876D01*
G75*
G02*
X290250Y153900I-3750J873D01*
G01*
X285250D01*
G75*
G02*
X281400Y157750I0J3850D01*
G01*
X276500D01*
G37*
X296500D02*
G36*
X296500Y157750D02*
Y152750D01*
X382500D01*
Y157750D01*
X326236D01*
G75*
G02*
X326238Y157632I-3487J-117D01*
G01*
G75*
G02*
X319262I-3488J0D01*
G01*
G75*
G02*
X319264Y157750I3489J1D01*
G01*
X316348D01*
Y154152D01*
X309152D01*
Y157750D01*
X306350D01*
G75*
G02*
X299150I-3600J0D01*
G01*
X296500D01*
G37*
X5500Y162750D02*
G36*
X5500Y162750D02*
Y157750D01*
X19000D01*
Y162750D01*
X5500D01*
G37*
X21500D02*
G36*
X21500Y162750D02*
Y157750D01*
X62000D01*
Y157750D01*
G75*
G02*
X64000Y160750I3250J0D01*
G01*
Y162750D01*
X21500D01*
G37*
X66500D02*
G36*
X66500Y162750D02*
Y160750D01*
G75*
G02*
X68500Y157750I-1250J-3000D01*
G01*
Y157750D01*
X89000D01*
Y162750D01*
X66500D01*
G37*
X91500D02*
G36*
X91500Y162750D02*
Y157750D01*
X94000D01*
Y162750D01*
X91500D01*
G37*
X96500D02*
G36*
X96500Y162750D02*
Y157750D01*
X99000D01*
Y162750D01*
X96500D01*
G37*
X101500D02*
G36*
X101500Y162750D02*
Y157750D01*
X111500D01*
Y162750D01*
X101500D01*
G37*
X114000D02*
G36*
X114000Y162750D02*
Y157750D01*
X136500D01*
Y159750D01*
G75*
G02*
X134500Y162750I1250J3000D01*
G01*
Y162750D01*
X134100D01*
G75*
G02*
X130250Y158900I-3850J0D01*
G01*
X125250D01*
G75*
G02*
X121400Y162750I0J3850D01*
G01*
X114000D01*
G37*
X139000Y159750D02*
G36*
X139000Y159750D02*
Y157750D01*
X144000D01*
Y162750D01*
X141000D01*
Y162750D01*
G75*
G02*
X139000Y159750I-3250J0D01*
G01*
G37*
X146500Y162750D02*
G36*
X146500Y162750D02*
Y157750D01*
X164000D01*
Y161876D01*
G75*
G02*
X160250Y158900I-3750J873D01*
G01*
X155250D01*
G75*
G02*
X151400Y162750I0J3850D01*
G01*
X146500D01*
G37*
X166500D02*
G36*
X166500Y162750D02*
Y157750D01*
X236500D01*
Y162750D01*
X193736D01*
G75*
G02*
X193738Y162632I-3487J-117D01*
G01*
G75*
G02*
X186762I-3488J0D01*
G01*
G75*
G02*
X186764Y162750I3489J1D01*
G01*
X183848D01*
Y159152D01*
X176652D01*
Y162750D01*
X173850D01*
G75*
G02*
X166650I-3600J0D01*
G01*
X166500D01*
G37*
X239000D02*
G36*
X239000Y162750D02*
Y157750D01*
X251400D01*
G75*
G02*
X255250Y161600I3850J0D01*
G01*
X260250D01*
G75*
G02*
X264100Y157750I0J-3850D01*
G01*
X269000D01*
Y162750D01*
X248500D01*
G75*
G02*
X242000I-3250J0D01*
G01*
X239000D01*
G37*
X271500D02*
G36*
X271500Y162750D02*
Y157750D01*
X274000D01*
Y162750D01*
X271500D01*
G37*
X276500D02*
G36*
X276500Y162750D02*
Y157750D01*
X281400D01*
G75*
G02*
X285250Y161600I3850J0D01*
G01*
X290250D01*
G75*
G02*
X294000Y158624I0J-3850D01*
G01*
Y162750D01*
X276500D01*
G37*
X296500D02*
G36*
X296500Y162750D02*
Y157750D01*
X299150D01*
G75*
G02*
X306350I3600J0D01*
G01*
X309152D01*
Y161348D01*
X316348D01*
Y157750D01*
X319264D01*
G75*
G02*
X326236I3486J-118D01*
G01*
X382500D01*
Y162750D01*
X296500D01*
G37*
X5500Y170550D02*
G36*
X5500Y170550D02*
Y162750D01*
X19000D01*
Y170550D01*
X5500D01*
G37*
X21500D02*
G36*
X21500Y170550D02*
Y162750D01*
X64000D01*
Y170550D01*
X43409D01*
G75*
G02*
X40250Y168900I-3159J2200D01*
G01*
G75*
G02*
X37091Y170550I0J3850D01*
G01*
X33886D01*
G75*
G02*
X26614I-3636J2200D01*
G01*
X21500D01*
G37*
X66500D02*
G36*
X66500Y170550D02*
Y162750D01*
X89000D01*
Y170550D01*
X76900D01*
G75*
G02*
X78500Y167750I-1650J-2800D01*
G01*
Y167750D01*
G75*
G02*
X72000I-3250J0D01*
G01*
Y167750D01*
G75*
G02*
X73600Y170550I3250J0D01*
G01*
X66500D01*
G37*
X91500D02*
G36*
X91500Y170550D02*
Y162750D01*
X94000D01*
Y170550D01*
X91500D01*
G37*
X96500D02*
G36*
X96500Y170550D02*
Y162750D01*
X99000D01*
Y170550D01*
X96500D01*
G37*
X101500D02*
G36*
X101500Y170550D02*
Y162750D01*
X111500D01*
Y170550D01*
X101500D01*
G37*
X114000D02*
G36*
X114000Y170550D02*
Y162750D01*
X121400D01*
G75*
G02*
X125250Y166600I3850J0D01*
G01*
X130250D01*
G75*
G02*
X134100Y162750I0J-3850D01*
G01*
X134500D01*
G75*
G02*
X141000I3250J0D01*
G01*
X144000D01*
Y169750D01*
G75*
G02*
X142857Y170550I1249J3000D01*
G01*
X133886D01*
G75*
G02*
X130250Y168500I-3636J2200D01*
G01*
X125250D01*
G75*
G02*
X121614Y170550I0J4250D01*
G01*
X114000D01*
G37*
X146500Y169750D02*
G36*
X146500Y169750D02*
Y162750D01*
X151400D01*
G75*
G02*
X155250Y166600I3850J0D01*
G01*
X160250D01*
G75*
G02*
X164000Y163624I0J-3850D01*
G01*
Y170550D01*
X163410D01*
G75*
G02*
X160250Y168900I-3160J2200D01*
G01*
X155250D01*
G75*
G02*
X152090Y170550I0J3850D01*
G01*
X147643D01*
G75*
G02*
X146500Y169750I-2392J2200D01*
G01*
G37*
X166500Y170550D02*
G36*
X166500Y170550D02*
Y162750D01*
X166650D01*
G75*
G02*
X173850I3600J0D01*
G01*
X176652D01*
Y166348D01*
X183848D01*
Y162750D01*
X186764D01*
G75*
G02*
X193736I3486J-118D01*
G01*
X236500D01*
Y170550D01*
X206900D01*
G75*
G02*
X208500Y167750I-1650J-2800D01*
G01*
Y167750D01*
G75*
G02*
X202000I-3250J0D01*
G01*
Y167750D01*
G75*
G02*
X203600Y170550I3250J0D01*
G01*
X193048D01*
G75*
G02*
X187452I-2798J2082D01*
G01*
X183848D01*
Y169152D01*
X176652D01*
Y170550D01*
X173100D01*
G75*
G02*
X167400I-2850J2200D01*
G01*
X166500D01*
G37*
X239000D02*
G36*
X239000Y170550D02*
Y162750D01*
X242000D01*
Y162750D01*
G75*
G02*
X244000Y165750I3250J0D01*
G01*
Y170550D01*
X239000D01*
G37*
X246500D02*
G36*
X246500Y170550D02*
Y165750D01*
G75*
G02*
X248500Y162750I-1250J-3000D01*
G01*
Y162750D01*
X269000D01*
Y164750D01*
G75*
G02*
X267000Y167750I1250J3000D01*
G01*
Y167750D01*
G75*
G02*
X268600Y170550I3250J0D01*
G01*
X267642D01*
G75*
G02*
X263190Y170236I-2392J2200D01*
G01*
G75*
G02*
X264100Y167750I-2940J-2486D01*
G01*
G75*
G02*
X260250Y163900I-3850J0D01*
G01*
X255250D01*
G75*
G02*
X251400Y167750I0J3850D01*
G01*
G75*
G02*
X252607Y170550I3850J0D01*
G01*
X246500D01*
G37*
X271500Y164750D02*
G36*
X271500Y164750D02*
Y162750D01*
X274000D01*
Y170550D01*
X271900D01*
G75*
G02*
X273500Y167750I-1650J-2800D01*
G01*
Y167750D01*
G75*
G02*
X271500Y164750I-3250J0D01*
G01*
G37*
X276500Y170550D02*
G36*
X276500Y170550D02*
Y162750D01*
X294000D01*
Y166876D01*
G75*
G02*
X290250Y163900I-3750J873D01*
G01*
X285250D01*
G75*
G02*
X281400Y167750I0J3850D01*
G01*
G75*
G02*
X282607Y170550I3850J0D01*
G01*
X276500D01*
G37*
X292893D02*
G36*
X292893Y170550D02*
G75*
G02*
X294000Y168624I-2643J-2800D01*
G01*
Y170550D01*
X292893D01*
G37*
X296500D02*
G36*
X296500Y170550D02*
Y162750D01*
X382500D01*
Y170550D01*
X324660D01*
G75*
G02*
X326238Y167632I-1910J-2918D01*
G01*
G75*
G02*
X319262I-3488J0D01*
G01*
G75*
G02*
X320840Y170550I3488J0D01*
G01*
X316348D01*
Y164152D01*
X309152D01*
Y170550D01*
X305013D01*
G75*
G02*
X306350Y167750I-2263J-2800D01*
G01*
G75*
G02*
X299150I-3600J0D01*
G01*
G75*
G02*
X300487Y170550I3600J0D01*
G01*
X296500D01*
G37*
X5500Y177750D02*
G36*
X5500Y177750D02*
Y170550D01*
X19000D01*
Y177750D01*
X5500D01*
G37*
X21500D02*
G36*
X21500Y177750D02*
Y170550D01*
X26614D01*
G75*
G02*
X26000Y172750I3636J2200D01*
G01*
G75*
G02*
X34500I4250J0D01*
G01*
G75*
G02*
X33886Y170550I-4250J0D01*
G01*
X37091D01*
G75*
G02*
X36400Y172750I3159J2200D01*
G01*
Y172750D01*
Y172750D01*
G75*
G02*
X40250Y176600I3850J0D01*
G01*
G75*
G02*
X44100Y172750I0J-3850D01*
G01*
Y172750D01*
Y172750D01*
G75*
G02*
X43409Y170550I-3850J0D01*
G01*
X64000D01*
Y177750D01*
X21500D01*
G37*
X66500D02*
G36*
X66500Y177750D02*
Y170550D01*
X73600D01*
G75*
G02*
X74000Y170750I1650J-2799D01*
G01*
Y177750D01*
X66500D01*
G37*
X76500D02*
G36*
X76500Y177750D02*
Y170750D01*
G75*
G02*
X76900Y170550I-1250J-2999D01*
G01*
X89000D01*
Y177750D01*
X76500D01*
G37*
X91500D02*
G36*
X91500Y177750D02*
Y170550D01*
X94000D01*
Y177750D01*
X91500D01*
G37*
X96500D02*
G36*
X96500Y177750D02*
Y170550D01*
X99000D01*
Y177750D01*
X96500D01*
G37*
X101500D02*
G36*
X101500Y177750D02*
Y170550D01*
X111500D01*
Y177750D01*
X101500D01*
G37*
X114000D02*
G36*
X114000Y177750D02*
Y170550D01*
X121614D01*
G75*
G02*
X121000Y172750I3636J2200D01*
G01*
G75*
G02*
X125250Y177000I4250J0D01*
G01*
X130250D01*
G75*
G02*
X134500Y172750I0J-4250D01*
G01*
G75*
G02*
X133886Y170550I-4250J0D01*
G01*
X142857D01*
G75*
G02*
X142000Y172750I2392J2199D01*
G01*
Y172750D01*
G75*
G02*
X148500I3250J0D01*
G01*
Y172750D01*
G75*
G02*
X147643Y170550I-3249J0D01*
G01*
X152090D01*
G75*
G02*
X151400Y172750I3160J2200D01*
G01*
G75*
G02*
X155250Y176600I3850J0D01*
G01*
X160250D01*
G75*
G02*
X164000Y173624I0J-3850D01*
G01*
Y177750D01*
X114000D01*
G37*
X163410Y170550D02*
G36*
X163410Y170550D02*
X164000D01*
Y171876D01*
G75*
G02*
X163410Y170550I-3750J873D01*
G01*
G37*
X166500Y177750D02*
G36*
X166500Y177750D02*
Y170550D01*
X167400D01*
G75*
G02*
X166650Y172750I2850J2200D01*
G01*
G75*
G02*
X173850I3600J0D01*
G01*
G75*
G02*
X173100Y170550I-3600J0D01*
G01*
X176652D01*
Y176348D01*
X183848D01*
Y170550D01*
X187452D01*
G75*
G02*
X186762Y172632I2798J2082D01*
G01*
G75*
G02*
X193738I3488J0D01*
G01*
G75*
G02*
X193048Y170550I-3488J0D01*
G01*
X203600D01*
G75*
G02*
X204000Y170750I1650J-2799D01*
G01*
Y177750D01*
X166500D01*
G37*
X206500D02*
G36*
X206500Y177750D02*
Y170750D01*
G75*
G02*
X206900Y170550I-1250J-2999D01*
G01*
X236500D01*
Y177750D01*
X206500D01*
G37*
X239000D02*
G36*
X239000Y177750D02*
Y170550D01*
X244000D01*
Y177750D01*
X239000D01*
G37*
X246500D02*
G36*
X246500Y177750D02*
Y170550D01*
X252607D01*
G75*
G02*
X255250Y171600I2643J-2800D01*
G01*
X260250D01*
G75*
G02*
X262736Y170690I0J-3851D01*
G01*
G75*
G02*
X262000Y172750I2514J2060D01*
G01*
G75*
G02*
X262250Y174000I3251J0D01*
G01*
G75*
G02*
X260250Y173500I-1999J3747D01*
G01*
X255250D01*
G75*
G02*
X251000Y177750I0J4250D01*
G01*
X246500D01*
G37*
X266500D02*
G36*
X266500Y177750D02*
Y175750D01*
G75*
G02*
X268500Y172750I-1250J-3000D01*
G01*
Y172750D01*
G75*
G02*
X267642Y170550I-3250J0D01*
G01*
X268600D01*
G75*
G02*
X271900I1650J-2800D01*
G01*
X274000D01*
Y174750D01*
G75*
G02*
X272000Y177750I1250J3000D01*
G01*
X266500D01*
G37*
X276500Y174750D02*
G36*
X276500Y174750D02*
Y170550D01*
X282607D01*
G75*
G02*
X285250Y171600I2643J-2800D01*
G01*
X290250D01*
G75*
G02*
X292893Y170550I0J-3850D01*
G01*
X294000D01*
Y176876D01*
G75*
G02*
X290250Y173900I-3750J873D01*
G01*
X285250D01*
G75*
G02*
X281608Y176500I0J3851D01*
G01*
X278250D01*
G75*
G02*
X276500Y174750I-3001J1251D01*
G01*
G37*
X296500Y177750D02*
G36*
X296500Y177750D02*
Y170550D01*
X300487D01*
G75*
G02*
X305013I2263J-2800D01*
G01*
X309152D01*
Y171348D01*
X316348D01*
Y170550D01*
X320840D01*
G75*
G02*
X324660I1910J-2918D01*
G01*
X382500D01*
Y177750D01*
X326236D01*
G75*
G02*
X326238Y177632I-3487J-117D01*
G01*
G75*
G02*
X319262I-3488J0D01*
G01*
G75*
G02*
X319264Y177750I3489J1D01*
G01*
X316348D01*
Y174152D01*
X309152D01*
Y177750D01*
X306350D01*
G75*
G02*
X299150I-3600J0D01*
G01*
X296500D01*
G37*
X5500Y182750D02*
G36*
X5500Y182750D02*
Y177750D01*
X19000D01*
Y182750D01*
X5500D01*
G37*
X21500D02*
G36*
X21500Y182750D02*
Y177750D01*
X64000D01*
Y182750D01*
X21500D01*
G37*
X66500D02*
G36*
X66500Y182750D02*
Y177750D01*
X74000D01*
Y182750D01*
X66500D01*
G37*
X76500D02*
G36*
X76500Y182750D02*
Y177750D01*
X89000D01*
Y182750D01*
X76500D01*
G37*
X91500D02*
G36*
X91500Y182750D02*
Y177750D01*
X94000D01*
Y182750D01*
X91500D01*
G37*
X96500D02*
G36*
X96500Y182750D02*
Y177750D01*
X99000D01*
Y182750D01*
X96500D01*
G37*
X101500D02*
G36*
X101500Y182750D02*
Y177750D01*
X111500D01*
Y182750D01*
X101500D01*
G37*
X114000D02*
G36*
X114000Y182750D02*
Y177750D01*
X164000D01*
Y181876D01*
G75*
G02*
X160250Y178900I-3750J873D01*
G01*
X155250D01*
G75*
G02*
X151400Y182750I0J3850D01*
G01*
X134100D01*
G75*
G02*
X130250Y178900I-3850J0D01*
G01*
X125250D01*
G75*
G02*
X121400Y182750I0J3850D01*
G01*
X114000D01*
G37*
X166500D02*
G36*
X166500Y182750D02*
Y177750D01*
X204000D01*
Y182750D01*
X193736D01*
G75*
G02*
X186764I-3486J118D01*
G01*
X183848D01*
Y179152D01*
X176652D01*
Y182750D01*
X173850D01*
G75*
G02*
X166650I-3600J0D01*
G01*
X166500D01*
G37*
X206500D02*
G36*
X206500Y182750D02*
Y177750D01*
X236500D01*
Y182750D01*
X206500D01*
G37*
X239000D02*
G36*
X239000Y182750D02*
Y177750D01*
X244000D01*
Y182750D01*
X239000D01*
G37*
X246500D02*
G36*
X246500Y182750D02*
Y177750D01*
X251000D01*
G75*
G02*
X255250Y182000I4250J0D01*
G01*
X260250D01*
G75*
G02*
X264000Y179750I0J-4249D01*
G01*
Y182750D01*
X246500D01*
G37*
X266500D02*
G36*
X266500Y182750D02*
Y177750D01*
X272000D01*
G75*
G02*
X274000Y180750I3250J0D01*
G01*
Y182750D01*
X266500D01*
G37*
X276500D02*
G36*
X276500Y182750D02*
Y180750D01*
G75*
G02*
X278250Y179000I-1251J-3001D01*
G01*
X281608D01*
G75*
G02*
X285250Y181600I3642J-1250D01*
G01*
X290250D01*
G75*
G02*
X294000Y178624I0J-3850D01*
G01*
Y182750D01*
X276500D01*
G37*
X296500D02*
G36*
X296500Y182750D02*
Y177750D01*
X299150D01*
G75*
G02*
X306350I3600J0D01*
G01*
X309152D01*
Y181348D01*
X316348D01*
Y177750D01*
X319264D01*
G75*
G02*
X326236I3486J-118D01*
G01*
X382500D01*
Y182750D01*
X296500D01*
G37*
X5500Y190250D02*
G36*
X5500Y190250D02*
Y182750D01*
X19000D01*
Y190250D01*
X5500D01*
G37*
X21500D02*
G36*
X21500Y190250D02*
Y182750D01*
X64000D01*
Y190250D01*
X44100D01*
Y186400D01*
X36400D01*
Y190250D01*
X34500D01*
G75*
G02*
X26000I-4250J0D01*
G01*
X21500D01*
G37*
X66500D02*
G36*
X66500Y190250D02*
Y182750D01*
X74000D01*
Y190250D01*
X66500D01*
G37*
X76500D02*
G36*
X76500Y190250D02*
Y182750D01*
X89000D01*
Y190250D01*
X76500D01*
G37*
X91500D02*
G36*
X91500Y190250D02*
Y182750D01*
X94000D01*
Y190250D01*
X91500D01*
G37*
X96500D02*
G36*
X96500Y190250D02*
Y182750D01*
X99000D01*
Y190250D01*
X96500D01*
G37*
X101500D02*
G36*
X101500Y190250D02*
Y182750D01*
X111500D01*
Y190250D01*
X101500D01*
G37*
X114000D02*
G36*
X114000Y190250D02*
Y182750D01*
X121400D01*
G75*
G02*
X125250Y186600I3850J0D01*
G01*
X130250D01*
G75*
G02*
X134100Y182750I0J-3850D01*
G01*
X151400D01*
G75*
G02*
X155250Y186600I3850J0D01*
G01*
X160250D01*
G75*
G02*
X164000Y183624I0J-3850D01*
G01*
Y190250D01*
X163179D01*
G75*
G02*
X160250Y188900I-2928J2500D01*
G01*
X155250D01*
G75*
G02*
X152322Y190250I0J3850D01*
G01*
X133178D01*
G75*
G02*
X130250Y188900I-2928J2500D01*
G01*
X125250D01*
G75*
G02*
X122322Y190250I0J3850D01*
G01*
X114000D01*
G37*
X166500D02*
G36*
X166500Y190250D02*
Y182750D01*
X166650D01*
G75*
G02*
X173850I3600J0D01*
G01*
X176652D01*
Y186348D01*
X183848D01*
Y182750D01*
X186764D01*
G75*
G02*
X186762Y182868I3487J117D01*
G01*
G75*
G02*
X193738I3488J0D01*
G01*
G75*
G02*
X193736Y182750I-3489J-1D01*
G01*
X204000D01*
Y184750D01*
G75*
G02*
X202000Y187750I1250J3000D01*
G01*
Y187750D01*
G75*
G02*
X203173Y190250I3250J0D01*
G01*
X192554D01*
G75*
G02*
X187946I-2304J2618D01*
G01*
X183848D01*
Y189152D01*
X176652D01*
Y190250D01*
X172841D01*
G75*
G02*
X167659I-2591J2500D01*
G01*
X166500D01*
G37*
X206500Y184750D02*
G36*
X206500Y184750D02*
Y182750D01*
X236500D01*
Y190250D01*
X207327D01*
G75*
G02*
X208500Y187750I-2077J-2500D01*
G01*
Y187750D01*
G75*
G02*
X206500Y184750I-3250J0D01*
G01*
G37*
X239000Y190250D02*
G36*
X239000Y190250D02*
Y182750D01*
X244000D01*
Y190250D01*
X239000D01*
G37*
X246500D02*
G36*
X246500Y190250D02*
Y182750D01*
X264000D01*
Y186876D01*
G75*
G02*
X260250Y183900I-3750J873D01*
G01*
X255250D01*
G75*
G02*
X251400Y187750I0J3850D01*
G01*
G75*
G02*
X252322Y190250I3850J0D01*
G01*
X246500D01*
G37*
X263179D02*
G36*
X263179Y190250D02*
G75*
G02*
X264000Y188624I-2928J-2499D01*
G01*
Y190250D01*
X263179D01*
G37*
X266500D02*
G36*
X266500Y190250D02*
Y182750D01*
X274000D01*
Y190250D01*
X266500D01*
G37*
X276500D02*
G36*
X276500Y190250D02*
Y182750D01*
X294000D01*
Y186876D01*
G75*
G02*
X290250Y183900I-3750J873D01*
G01*
X285250D01*
G75*
G02*
X281400Y187750I0J3850D01*
G01*
G75*
G02*
X282322Y190250I3850J0D01*
G01*
X276500D01*
G37*
X293179D02*
G36*
X293179Y190250D02*
G75*
G02*
X294000Y188624I-2928J-2499D01*
G01*
Y190250D01*
X293179D01*
G37*
X296500D02*
G36*
X296500Y190250D02*
Y182750D01*
X382500D01*
Y190250D01*
X325298D01*
G75*
G02*
X326238Y187868I-2548J-2382D01*
G01*
G75*
G02*
X319262I-3488J0D01*
G01*
G75*
G02*
X320202Y190250I3488J0D01*
G01*
X316348D01*
Y184152D01*
X309152D01*
Y190250D01*
X305341D01*
G75*
G02*
X306350Y187750I-2591J-2500D01*
G01*
G75*
G02*
X299150I-3600J0D01*
G01*
G75*
G02*
X300159Y190250I3600J0D01*
G01*
X296500D01*
G37*
X5500Y197750D02*
G36*
X5500Y197750D02*
Y190250D01*
X19000D01*
Y197750D01*
X5500D01*
G37*
X21500D02*
G36*
X21500Y197750D02*
Y190250D01*
X26000D01*
G75*
G02*
X34500I4250J0D01*
G01*
X36400D01*
Y194100D01*
X44100D01*
Y190250D01*
X64000D01*
Y197750D01*
X21500D01*
G37*
X66500D02*
G36*
X66500Y197750D02*
Y190250D01*
X74000D01*
Y197750D01*
X66500D01*
G37*
X76500D02*
G36*
X76500Y197750D02*
Y190250D01*
X89000D01*
Y197750D01*
X76500D01*
G37*
X91500D02*
G36*
X91500Y197750D02*
Y190250D01*
X94000D01*
Y197750D01*
X91500D01*
G37*
X96500D02*
G36*
X96500Y197750D02*
Y190250D01*
X99000D01*
Y197750D01*
X96500D01*
G37*
X101500D02*
G36*
X101500Y197750D02*
Y190250D01*
X111500D01*
Y197750D01*
X101500D01*
G37*
X114000D02*
G36*
X114000Y197750D02*
Y190250D01*
X122322D01*
G75*
G02*
X121400Y192750I2928J2500D01*
G01*
G75*
G02*
X125250Y196600I3850J0D01*
G01*
X130250D01*
G75*
G02*
X134100Y192750I0J-3850D01*
G01*
G75*
G02*
X133178Y190250I-3850J0D01*
G01*
X152322D01*
G75*
G02*
X151400Y192750I2928J2500D01*
G01*
G75*
G02*
X155250Y196600I3850J0D01*
G01*
X160250D01*
G75*
G02*
X164000Y193624I0J-3850D01*
G01*
Y197750D01*
X114000D01*
G37*
X163179Y190250D02*
G36*
X163179Y190250D02*
X164000D01*
Y191876D01*
G75*
G02*
X163179Y190250I-3750J873D01*
G01*
G37*
X166500Y197750D02*
G36*
X166500Y197750D02*
Y190250D01*
X167659D01*
G75*
G02*
X166650Y192750I2591J2500D01*
G01*
G75*
G02*
X173850I3600J0D01*
G01*
G75*
G02*
X172841Y190250I-3600J0D01*
G01*
X176652D01*
Y196348D01*
X183848D01*
Y190250D01*
X187946D01*
G75*
G02*
X186762Y192868I2304J2618D01*
G01*
G75*
G02*
X193738I3488J0D01*
G01*
G75*
G02*
X192554Y190250I-3488J0D01*
G01*
X203173D01*
G75*
G02*
X207327I2077J-2500D01*
G01*
X236500D01*
Y197750D01*
X166500D01*
G37*
X239000D02*
G36*
X239000Y197750D02*
Y190250D01*
X244000D01*
Y197750D01*
X239000D01*
G37*
X246500D02*
G36*
X246500Y197750D02*
Y190250D01*
X252322D01*
G75*
G02*
X255250Y191600I2928J-2500D01*
G01*
X260250D01*
G75*
G02*
X263179Y190250I0J-3850D01*
G01*
X264000D01*
Y196500D01*
X263892D01*
G75*
G02*
X260250Y193900I-3642J1250D01*
G01*
X255250D01*
G75*
G02*
X251400Y197750I0J3850D01*
G01*
X246500D01*
G37*
X266500D02*
G36*
X266500Y197750D02*
Y190250D01*
X274000D01*
Y197750D01*
X266500D01*
G37*
X276500D02*
G36*
X276500Y197750D02*
Y190250D01*
X282322D01*
G75*
G02*
X285250Y191600I2928J-2500D01*
G01*
X290250D01*
G75*
G02*
X293179Y190250I0J-3850D01*
G01*
X294000D01*
Y196876D01*
G75*
G02*
X290250Y193900I-3750J873D01*
G01*
X285250D01*
G75*
G02*
X281400Y197750I0J3850D01*
G01*
X276500D01*
G37*
X296500D02*
G36*
X296500Y197750D02*
Y190250D01*
X300159D01*
G75*
G02*
X305341I2591J-2500D01*
G01*
X309152D01*
Y191348D01*
X316348D01*
Y190250D01*
X320202D01*
G75*
G02*
X325298I2548J-2382D01*
G01*
X382500D01*
Y197750D01*
X326236D01*
G75*
G02*
X319264I-3486J118D01*
G01*
X316348D01*
Y194152D01*
X309152D01*
Y197750D01*
X306350D01*
G75*
G02*
X299150I-3600J0D01*
G01*
X296500D01*
G37*
X5500Y202750D02*
G36*
X5500Y202750D02*
Y197750D01*
X19000D01*
Y202750D01*
X5500D01*
G37*
X21500D02*
G36*
X21500Y202750D02*
Y197750D01*
X64000D01*
Y202750D01*
X21500D01*
G37*
X66500D02*
G36*
X66500Y202750D02*
Y197750D01*
X74000D01*
Y202750D01*
X66500D01*
G37*
X76500D02*
G36*
X76500Y202750D02*
Y197750D01*
X89000D01*
Y202750D01*
X76500D01*
G37*
X91500D02*
G36*
X91500Y202750D02*
Y197750D01*
X94000D01*
Y202750D01*
X91500D01*
G37*
X96500D02*
G36*
X96500Y202750D02*
Y197750D01*
X99000D01*
Y202750D01*
X96500D01*
G37*
X101500D02*
G36*
X101500Y202750D02*
Y197750D01*
X111500D01*
Y202750D01*
X101500D01*
G37*
X114000D02*
G36*
X114000Y202750D02*
Y197750D01*
X164000D01*
Y201876D01*
G75*
G02*
X160250Y198900I-3750J873D01*
G01*
X155250D01*
G75*
G02*
X151400Y202750I0J3850D01*
G01*
X134100D01*
G75*
G02*
X130250Y198900I-3850J0D01*
G01*
X125250D01*
G75*
G02*
X121400Y202750I0J3850D01*
G01*
X114000D01*
G37*
X166500D02*
G36*
X166500Y202750D02*
Y197750D01*
X236500D01*
Y202750D01*
X193736D01*
G75*
G02*
X186764I-3486J118D01*
G01*
X183848D01*
Y199152D01*
X176652D01*
Y202750D01*
X173850D01*
G75*
G02*
X166650I-3600J0D01*
G01*
X166500D01*
G37*
X239000D02*
G36*
X239000Y202750D02*
Y197750D01*
X244000D01*
Y202750D01*
X239000D01*
G37*
X246500D02*
G36*
X246500Y202750D02*
Y197750D01*
X251400D01*
G75*
G02*
X255250Y201600I3850J0D01*
G01*
X260250D01*
G75*
G02*
X263892Y199000I0J-3851D01*
G01*
X265250D01*
G75*
G02*
X266500Y197750I0J-1250D01*
G01*
X274000D01*
Y202750D01*
X246500D01*
G37*
X276500D02*
G36*
X276500Y202750D02*
Y197750D01*
X281400D01*
G75*
G02*
X285250Y201600I3850J0D01*
G01*
X290250D01*
G75*
G02*
X294000Y198624I0J-3850D01*
G01*
Y202750D01*
X276500D01*
G37*
X296500D02*
G36*
X296500Y202750D02*
Y197750D01*
X299150D01*
G75*
G02*
X306350I3600J0D01*
G01*
X309152D01*
Y201348D01*
X316348D01*
Y197750D01*
X319264D01*
G75*
G02*
X319262Y197868I3487J117D01*
G01*
G75*
G02*
X326238I3488J0D01*
G01*
G75*
G02*
X326236Y197750I-3489J-1D01*
G01*
X382500D01*
Y202750D01*
X296500D01*
G37*
X5500Y207750D02*
G36*
X5500Y207750D02*
Y202750D01*
X19000D01*
Y207750D01*
X5500D01*
G37*
X21500D02*
G36*
X21500Y207750D02*
Y202750D01*
X64000D01*
Y203900D01*
X62750D01*
G75*
G02*
X58900Y207750I0J3850D01*
G01*
X41600D01*
G75*
G02*
X37750Y203900I-3850J0D01*
G01*
X32750D01*
G75*
G02*
X28900Y207750I0J3850D01*
G01*
X21500D01*
G37*
X66500Y203900D02*
G36*
X66500Y203900D02*
Y202750D01*
X74000D01*
Y207750D01*
X71600D01*
G75*
G02*
X67750Y203900I-3850J0D01*
G01*
X66500D01*
G37*
X76500Y206500D02*
G36*
X76500Y206500D02*
Y202750D01*
X89000D01*
Y207112D01*
G75*
G02*
X87945Y207750I1250J3257D01*
G01*
X79000D01*
G75*
G02*
X77750Y206500I-1250J0D01*
G01*
X76500D01*
G37*
X91500Y207112D02*
G36*
X91500Y207112D02*
Y202750D01*
X94000D01*
Y207750D01*
X92555D01*
G75*
G02*
X91500Y207112I-2305J2619D01*
G01*
G37*
X96500Y207750D02*
G36*
X96500Y207750D02*
Y202750D01*
X99000D01*
Y207750D01*
X96500D01*
G37*
X101500D02*
G36*
X101500Y207750D02*
Y202750D01*
X111500D01*
Y207750D01*
X107327D01*
G75*
G02*
X103173I-2077J2500D01*
G01*
X101500D01*
G37*
X114000D02*
G36*
X114000Y207750D02*
Y202750D01*
X121400D01*
G75*
G02*
X125250Y206600I3850J0D01*
G01*
X130250D01*
G75*
G02*
X134100Y202750I0J-3850D01*
G01*
X151400D01*
G75*
G02*
X155250Y206600I3850J0D01*
G01*
X160250D01*
G75*
G02*
X162736Y205690I0J-3851D01*
G01*
G75*
G02*
X162000Y207750I2513J2060D01*
G01*
X114000D01*
G37*
X166500Y204750D02*
G36*
X166500Y204750D02*
Y202750D01*
X166650D01*
G75*
G02*
X173850I3600J0D01*
G01*
X176652D01*
Y206348D01*
X183848D01*
Y202750D01*
X186764D01*
G75*
G02*
X186762Y202868I3487J117D01*
G01*
G75*
G02*
X193738I3488J0D01*
G01*
G75*
G02*
X193736Y202750I-3489J-1D01*
G01*
X236500D01*
Y207750D01*
X168500D01*
Y207750D01*
G75*
G02*
X166500Y204750I-3250J0D01*
G01*
G37*
X239000Y207750D02*
G36*
X239000Y207750D02*
Y202750D01*
X244000D01*
Y204750D01*
G75*
G02*
X242000Y207750I1250J3000D01*
G01*
Y207750D01*
X239000D01*
G37*
X246500Y204750D02*
G36*
X246500Y204750D02*
Y202750D01*
X274000D01*
Y207750D01*
X264100D01*
G75*
G02*
X260250Y203900I-3850J0D01*
G01*
X255250D01*
G75*
G02*
X251400Y207750I0J3850D01*
G01*
X248500D01*
Y207750D01*
G75*
G02*
X246500Y204750I-3250J0D01*
G01*
G37*
X276500Y207750D02*
G36*
X276500Y207750D02*
Y202750D01*
X294000D01*
Y206876D01*
G75*
G02*
X290250Y203900I-3750J873D01*
G01*
X285250D01*
G75*
G02*
X281400Y207750I0J3850D01*
G01*
X276500D01*
G37*
X296500D02*
G36*
X296500Y207750D02*
Y202750D01*
X382500D01*
Y207750D01*
X326236D01*
G75*
G02*
X319264I-3486J118D01*
G01*
X316348D01*
Y204152D01*
X309152D01*
Y207750D01*
X306350D01*
G75*
G02*
X299150I-3600J0D01*
G01*
X296500D01*
G37*
X5500Y212750D02*
G36*
X5500Y212750D02*
Y207750D01*
X19000D01*
Y212750D01*
X5500D01*
G37*
X21500D02*
G36*
X21500Y212750D02*
Y207750D01*
X28900D01*
G75*
G02*
X32750Y211600I3850J0D01*
G01*
X37750D01*
G75*
G02*
X41600Y207750I0J-3850D01*
G01*
X58900D01*
G75*
G02*
X62750Y211600I3850J0D01*
G01*
X67750D01*
G75*
G02*
X71600Y207750I0J-3850D01*
G01*
X74000D01*
G75*
G02*
X75250Y209000I1250J0D01*
G01*
X76500D01*
Y212750D01*
X21500D01*
G37*
X79000D02*
G36*
X79000Y212750D02*
Y207750D01*
X87945D01*
G75*
G02*
X86762Y210368I2305J2618D01*
G01*
G75*
G02*
X87702Y212750I3488J0D01*
G01*
X79000D01*
G37*
X92798D02*
G36*
X92798Y212750D02*
G75*
G02*
X93738Y210368I-2548J-2382D01*
G01*
G75*
G02*
X92555Y207750I-3488J0D01*
G01*
X94000D01*
Y212750D01*
X92798D01*
G37*
X96500D02*
G36*
X96500Y212750D02*
Y207750D01*
X99000D01*
Y212750D01*
X96500D01*
G37*
X101500D02*
G36*
X101500Y212750D02*
Y207750D01*
X103173D01*
G75*
G02*
X102000Y210250I2077J2500D01*
G01*
Y210250D01*
G75*
G02*
X103173Y212750I3250J0D01*
G01*
X101500D01*
G37*
X108500Y210250D02*
G36*
X108500Y210250D02*
G75*
G02*
X107327Y207750I-3250J0D01*
G01*
X111500D01*
Y210250D01*
G75*
G02*
X112750Y211500I1250J0D01*
G01*
X121608D01*
G75*
G02*
X121400Y212750I3642J1250D01*
G01*
X107327D01*
G75*
G02*
X108500Y210250I-2076J-2500D01*
G01*
Y210250D01*
G37*
X114000Y209000D02*
G36*
X114000Y209000D02*
Y207750D01*
X162000D01*
G75*
G02*
X162736Y209810I3250J0D01*
G01*
G75*
G02*
X160250Y208900I-2485J2938D01*
G01*
X155250D01*
G75*
G02*
X151400Y212750I0J3850D01*
G01*
X134100D01*
G75*
G02*
X130250Y208900I-3850J0D01*
G01*
X125250D01*
G75*
G02*
X124376Y209000I0J3852D01*
G01*
X114000D01*
G37*
X164100Y212750D02*
G36*
X164100Y212750D02*
G75*
G02*
X163190Y210264I-3850J0D01*
G01*
G75*
G02*
X168500Y207750I2060J-2514D01*
G01*
X236500D01*
Y212750D01*
X193736D01*
G75*
G02*
X186764I-3486J118D01*
G01*
X183848D01*
Y209152D01*
X176652D01*
Y212750D01*
X173850D01*
G75*
G02*
X166650I-3600J0D01*
G01*
X164100D01*
Y212750D01*
G37*
X239000Y212750D02*
G36*
X239000Y212750D02*
Y207750D01*
X242000D01*
G75*
G02*
X248500I3250J0D01*
G01*
X251400D01*
G75*
G02*
X255250Y211600I3850J0D01*
G01*
X260250D01*
G75*
G02*
X264100Y207750I0J-3850D01*
G01*
X274000D01*
Y212750D01*
X239000D01*
G37*
X276500D02*
G36*
X276500Y212750D02*
Y207750D01*
X281400D01*
G75*
G02*
X285250Y211600I3850J0D01*
G01*
X290250D01*
G75*
G02*
X294000Y208624I0J-3850D01*
G01*
Y212750D01*
X276500D01*
G37*
X296500D02*
G36*
X296500Y212750D02*
Y207750D01*
X299150D01*
G75*
G02*
X306350I3600J0D01*
G01*
X309152D01*
Y211348D01*
X316348D01*
Y207750D01*
X319264D01*
G75*
G02*
X319262Y207868I3487J117D01*
G01*
G75*
G02*
X326238I3488J0D01*
G01*
G75*
G02*
X326236Y207750I-3489J-1D01*
G01*
X382500D01*
Y212750D01*
X296500D01*
G37*
X5500Y217750D02*
G36*
X5500Y217750D02*
Y212750D01*
X19000D01*
Y217750D01*
X5500D01*
G37*
X21500D02*
G36*
X21500Y217750D02*
Y212750D01*
X76500D01*
Y217750D01*
X71600D01*
G75*
G02*
X67750Y213900I-3850J0D01*
G01*
X62750D01*
G75*
G02*
X58900Y217750I0J3850D01*
G01*
X41600D01*
G75*
G02*
X37750Y213900I-3850J0D01*
G01*
X32750D01*
G75*
G02*
X28900Y217750I0J3850D01*
G01*
X21500D01*
G37*
X79000D02*
G36*
X79000Y217750D02*
Y212750D01*
X87702D01*
G75*
G02*
X92798I2548J-2382D01*
G01*
X94000D01*
Y217750D01*
X92554D01*
G75*
G02*
X87946I-2304J2618D01*
G01*
X79000D01*
G37*
X96500D02*
G36*
X96500Y217750D02*
Y212750D01*
X99000D01*
Y217750D01*
X96500D01*
G37*
X101500D02*
G36*
X101500Y217750D02*
Y212750D01*
X103173D01*
G75*
G02*
X104000Y213250I2076J-2500D01*
G01*
Y217750D01*
X101500D01*
G37*
X106500D02*
G36*
X106500Y217750D02*
Y213250D01*
G75*
G02*
X107327Y212750I-1250J-3000D01*
G01*
X121400D01*
G75*
G02*
X125250Y216600I3850J0D01*
G01*
X130250D01*
G75*
G02*
X134100Y212750I0J-3850D01*
G01*
X151400D01*
G75*
G02*
X155250Y216600I3850J0D01*
G01*
X160250D01*
G75*
G02*
X164100Y212750I0J-3850D01*
G01*
X166650D01*
G75*
G02*
X173850I3600J0D01*
G01*
X176652D01*
Y216348D01*
X183848D01*
Y212750D01*
X186764D01*
G75*
G02*
X186762Y212868I3487J117D01*
G01*
G75*
G02*
X193738I3488J0D01*
G01*
G75*
G02*
X193736Y212750I-3489J-1D01*
G01*
X236500D01*
Y214750D01*
G75*
G02*
X234500Y217750I1250J3000D01*
G01*
Y217750D01*
X106500D01*
G37*
X239000Y214750D02*
G36*
X239000Y214750D02*
Y212750D01*
X274000D01*
Y217750D01*
X264100D01*
G75*
G02*
X260250Y213900I-3850J0D01*
G01*
X255250D01*
G75*
G02*
X251400Y217750I0J3850D01*
G01*
X241000D01*
Y217750D01*
G75*
G02*
X239000Y214750I-3250J0D01*
G01*
G37*
X276500Y217750D02*
G36*
X276500Y217750D02*
Y212750D01*
X294000D01*
Y216876D01*
G75*
G02*
X290250Y213900I-3750J873D01*
G01*
X285250D01*
G75*
G02*
X281400Y217750I0J3850D01*
G01*
X276500D01*
G37*
X296500D02*
G36*
X296500Y217750D02*
Y212750D01*
X382500D01*
Y217750D01*
X326236D01*
G75*
G02*
X319264I-3486J118D01*
G01*
X316348D01*
Y214152D01*
X309152D01*
Y217750D01*
X306350D01*
G75*
G02*
X299150I-3600J0D01*
G01*
X296500D01*
G37*
X5500Y222750D02*
G36*
X5500Y222750D02*
Y217750D01*
X19000D01*
Y222750D01*
X5500D01*
G37*
X21500D02*
G36*
X21500Y222750D02*
Y217750D01*
X28900D01*
G75*
G02*
X32750Y221600I3850J0D01*
G01*
X37750D01*
G75*
G02*
X41600Y217750I0J-3850D01*
G01*
X58900D01*
G75*
G02*
X62750Y221600I3850J0D01*
G01*
X67750D01*
G75*
G02*
X71600Y217750I0J-3850D01*
G01*
X76500D01*
Y222750D01*
X21500D01*
G37*
X79000D02*
G36*
X79000Y222750D02*
Y217750D01*
X87946D01*
G75*
G02*
X86762Y220368I2304J2618D01*
G01*
G75*
G02*
X87702Y222750I3488J0D01*
G01*
X79000D01*
G37*
X93738Y220368D02*
G36*
X93738Y220368D02*
G75*
G02*
X92554Y217750I-3488J0D01*
G01*
X94000D01*
Y222750D01*
X92798D01*
G75*
G02*
X93738Y220368I-2548J-2382D01*
G01*
G37*
X96500Y222750D02*
G36*
X96500Y222750D02*
Y217750D01*
X99000D01*
Y222750D01*
X96500D01*
G37*
X101500D02*
G36*
X101500Y222750D02*
Y217750D01*
X104000D01*
Y222750D01*
X101500D01*
G37*
X106500D02*
G36*
X106500Y222750D02*
Y217750D01*
X234500D01*
G75*
G02*
X241000I3250J0D01*
G01*
X251400D01*
G75*
G02*
X255250Y221600I3850J0D01*
G01*
X260250D01*
G75*
G02*
X264100Y217750I0J-3850D01*
G01*
X274000D01*
Y222750D01*
X194136D01*
G75*
G02*
X186364I-3886J118D01*
G01*
X184500D01*
G75*
G02*
X176000I-4250J0D01*
G01*
X174100D01*
Y218900D01*
X166400D01*
Y222750D01*
X164100D01*
G75*
G02*
X160250Y218900I-3850J0D01*
G01*
X155250D01*
G75*
G02*
X151400Y222750I0J3850D01*
G01*
X134100D01*
G75*
G02*
X130250Y218900I-3850J0D01*
G01*
X125250D01*
G75*
G02*
X124376Y219000I0J3852D01*
G01*
X110250D01*
G75*
G02*
X109000Y220250I0J1250D01*
G01*
Y222750D01*
X106500D01*
G37*
X111500D02*
G36*
X111500Y222750D02*
Y221500D01*
X121608D01*
G75*
G02*
X121400Y222750I3642J1250D01*
G01*
X111500D01*
G37*
X276500D02*
G36*
X276500Y222750D02*
Y217750D01*
X281400D01*
G75*
G02*
X285250Y221600I3850J0D01*
G01*
X290250D01*
G75*
G02*
X294000Y218624I0J-3850D01*
G01*
Y222750D01*
X276500D01*
G37*
X296500D02*
G36*
X296500Y222750D02*
Y217750D01*
X299150D01*
G75*
G02*
X306350I3600J0D01*
G01*
X309152D01*
Y221348D01*
X316348D01*
Y217750D01*
X319264D01*
G75*
G02*
X319262Y217868I3487J117D01*
G01*
G75*
G02*
X326238I3488J0D01*
G01*
G75*
G02*
X326236Y217750I-3489J-1D01*
G01*
X382500D01*
Y222750D01*
X296500D01*
G37*
X5500Y230368D02*
G36*
X5500Y230368D02*
Y222750D01*
X19000D01*
Y227750D01*
G75*
G02*
X20250Y229000I1250J0D01*
G01*
X29108D01*
G75*
G02*
X29927Y230368I3642J-1250D01*
G01*
X5500D01*
G37*
X21500Y226500D02*
G36*
X21500Y226500D02*
Y222750D01*
X76500D01*
Y230368D01*
X70573D01*
G75*
G02*
X71600Y227750I-2823J-2618D01*
G01*
G75*
G02*
X67750Y223900I-3850J0D01*
G01*
X62750D01*
G75*
G02*
X59108Y226500I0J3851D01*
G01*
X52750D01*
G75*
G02*
X51500Y227750I0J1250D01*
G01*
Y230368D01*
X40573D01*
G75*
G02*
X41600Y227750I-2823J-2618D01*
G01*
G75*
G02*
X37750Y223900I-3850J0D01*
G01*
X32750D01*
G75*
G02*
X29108Y226500I0J3851D01*
G01*
X21500D01*
G37*
X54000Y230368D02*
G36*
X54000Y230368D02*
Y229000D01*
X59108D01*
G75*
G02*
X59927Y230368I3642J-1250D01*
G01*
X54000D01*
G37*
X79000D02*
G36*
X79000Y230368D02*
Y222750D01*
X87702D01*
G75*
G02*
X92798I2548J-2382D01*
G01*
X94000D01*
Y230368D01*
X93738D01*
G75*
G02*
X86762I-3488J0D01*
G01*
X79000D01*
G37*
X96500D02*
G36*
X96500Y230368D02*
Y222750D01*
X99000D01*
Y227250D01*
G75*
G02*
X97000Y230250I1250J3000D01*
G01*
Y230250D01*
G75*
G02*
X97002Y230368I3251J5D01*
G01*
X96500D01*
G37*
X101500Y227250D02*
G36*
X101500Y227250D02*
Y222750D01*
X104000D01*
Y230368D01*
X103498D01*
G75*
G02*
X103500Y230250I-3249J-113D01*
G01*
Y230250D01*
G75*
G02*
X101500Y227250I-3250J0D01*
G01*
G37*
X106500Y230368D02*
G36*
X106500Y230368D02*
Y222750D01*
X109000D01*
Y230368D01*
X106500D01*
G37*
X111500D02*
G36*
X111500Y230368D02*
Y222750D01*
X121400D01*
G75*
G02*
X125250Y226600I3850J0D01*
G01*
X130250D01*
G75*
G02*
X134100Y222750I0J-3850D01*
G01*
X151400D01*
G75*
G02*
X155250Y226600I3850J0D01*
G01*
X160250D01*
G75*
G02*
X164100Y222750I0J-3850D01*
G01*
X166400D01*
Y226600D01*
X174100D01*
Y222750D01*
X176000D01*
G75*
G02*
X184500I4250J0D01*
G01*
X186364D01*
G75*
G02*
X186362Y222868I3888J124D01*
G01*
G75*
G02*
X194138I3888J0D01*
G01*
G75*
G02*
X194136Y222750I-3890J6D01*
G01*
X274000D01*
Y230368D01*
X263073D01*
G75*
G02*
X264100Y227750I-2823J-2618D01*
G01*
G75*
G02*
X260250Y223900I-3850J0D01*
G01*
X255250D01*
G75*
G02*
X251400Y227750I0J3850D01*
G01*
G75*
G02*
X252427Y230368I3850J0D01*
G01*
X163275D01*
G75*
G02*
X160250Y228900I-3025J2382D01*
G01*
X155250D01*
G75*
G02*
X152225Y230368I0J3850D01*
G01*
X133770D01*
G75*
G02*
X130250Y228500I-3520J2382D01*
G01*
X125250D01*
G75*
G02*
X121730Y230368I0J4250D01*
G01*
X111500D01*
G37*
X276500D02*
G36*
X276500Y230368D02*
Y222750D01*
X294000D01*
Y226500D01*
X293892D01*
G75*
G02*
X290250Y223900I-3642J1250D01*
G01*
X285250D01*
G75*
G02*
X281400Y227750I0J3850D01*
G01*
G75*
G02*
X282427Y230368I3850J0D01*
G01*
X276500D01*
G37*
X293073D02*
G36*
X293073Y230368D02*
G75*
G02*
X293892Y229000I-2824J-2618D01*
G01*
X295250D01*
G75*
G02*
X296500Y227750I0J-1250D01*
G01*
Y222750D01*
X382500D01*
Y230368D01*
X325728D01*
G75*
G02*
X326638Y227868I-2978J-2500D01*
G01*
G75*
G02*
X318862I-3888J0D01*
G01*
G75*
G02*
X319772Y230368I3888J0D01*
G01*
X316098D01*
G75*
G02*
X317000Y227750I-3348J-2618D01*
G01*
G75*
G02*
X308500I-4250J0D01*
G01*
G75*
G02*
X309402Y230368I4250J0D01*
G01*
X306600D01*
Y223900D01*
X298900D01*
Y230368D01*
X293073D01*
G37*
X5500Y237750D02*
G36*
X5500Y237750D02*
Y230368D01*
X29927D01*
G75*
G02*
X32750Y231600I2824J-2619D01*
G01*
X37750D01*
G75*
G02*
X40573Y230368I0J-3850D01*
G01*
X51500D01*
Y237750D01*
X41600D01*
G75*
G02*
X37750Y233900I-3850J0D01*
G01*
X32750D01*
G75*
G02*
X29108Y236500I0J3851D01*
G01*
X22750D01*
G75*
G02*
X21500Y237750I0J1250D01*
G01*
X5500D01*
G37*
X54000D02*
G36*
X54000Y237750D02*
Y230368D01*
X59927D01*
G75*
G02*
X62750Y231600I2824J-2619D01*
G01*
X67750D01*
G75*
G02*
X70573Y230368I0J-3850D01*
G01*
X76500D01*
Y237750D01*
X71600D01*
G75*
G02*
X67750Y233900I-3850J0D01*
G01*
X62750D01*
G75*
G02*
X58900Y237750I0J3850D01*
G01*
X54000D01*
G37*
X79000D02*
G36*
X79000Y237750D02*
Y230368D01*
X86762D01*
G75*
G02*
X93738I3488J0D01*
G01*
X94000D01*
Y237750D01*
X92554D01*
G75*
G02*
X87945I-2304J2618D01*
G01*
X79000D01*
G37*
X96500D02*
G36*
X96500Y237750D02*
Y230368D01*
X97002D01*
G75*
G02*
X103498I3248J-118D01*
G01*
X104000D01*
Y237750D01*
X102327D01*
G75*
G02*
X98173I-2077J2500D01*
G01*
X96500D01*
G37*
X106500D02*
G36*
X106500Y237750D02*
Y230368D01*
X109000D01*
Y237750D01*
X106500D01*
G37*
X111500D02*
G36*
X111500Y237750D02*
Y230368D01*
X121730D01*
G75*
G02*
X121000Y232750I3520J2382D01*
G01*
G75*
G02*
X125250Y237000I4250J0D01*
G01*
X130250D01*
G75*
G02*
X134500Y232750I0J-4250D01*
G01*
G75*
G02*
X133770Y230368I-4250J0D01*
G01*
X152225D01*
G75*
G02*
X151400Y232750I3025J2382D01*
G01*
G75*
G02*
X155250Y236600I3850J0D01*
G01*
X160250D01*
G75*
G02*
X164100Y232750I0J-3850D01*
G01*
G75*
G02*
X163275Y230368I-3850J0D01*
G01*
X252427D01*
G75*
G02*
X255250Y231600I2823J-2618D01*
G01*
X260250D01*
G75*
G02*
X263073Y230368I0J-3850D01*
G01*
X274000D01*
Y237750D01*
X264500D01*
G75*
G02*
X260250Y233500I-4250J0D01*
G01*
X255250D01*
G75*
G02*
X251000Y237750I0J4250D01*
G01*
X111500D01*
G37*
X276500D02*
G36*
X276500Y237750D02*
Y230368D01*
X282427D01*
G75*
G02*
X285250Y231600I2823J-2618D01*
G01*
X290250D01*
G75*
G02*
X293073Y230368I0J-3851D01*
G01*
X298900D01*
Y231600D01*
X306600D01*
Y230368D01*
X309402D01*
G75*
G02*
X316098I3348J-2619D01*
G01*
X319772D01*
G75*
G02*
X325728I2978J-2500D01*
G01*
X382500D01*
Y237750D01*
X294100D01*
G75*
G02*
X290250Y233900I-3850J0D01*
G01*
X285250D01*
G75*
G02*
X281400Y237750I0J3850D01*
G01*
X276500D01*
G37*
X5500Y242750D02*
G36*
X5500Y242750D02*
Y237750D01*
X21500D01*
Y242750D01*
X5500D01*
G37*
X24000D02*
G36*
X24000Y242750D02*
Y239000D01*
X29108D01*
G75*
G02*
X32750Y241600I3642J-1250D01*
G01*
X37750D01*
G75*
G02*
X41600Y237750I0J-3850D01*
G01*
X51500D01*
Y242750D01*
X24000D01*
G37*
X54000D02*
G36*
X54000Y242750D02*
Y237750D01*
X58900D01*
G75*
G02*
X62750Y241600I3850J0D01*
G01*
X67750D01*
G75*
G02*
X71600Y237750I0J-3850D01*
G01*
X76500D01*
Y242750D01*
X54000D01*
G37*
X79000D02*
G36*
X79000Y242750D02*
Y237750D01*
X87945D01*
G75*
G02*
X86994Y239118I2305J2618D01*
G01*
X85250D01*
G75*
G02*
X84000Y240368I0J1250D01*
G01*
Y242750D01*
X79000D01*
G37*
X86500D02*
G36*
X86500Y242750D02*
Y241618D01*
X86994D01*
G75*
G02*
X87702Y242750I3256J-1250D01*
G01*
X86500D01*
G37*
X93738Y240368D02*
G36*
X93738Y240368D02*
G75*
G02*
X92554Y237750I-3488J0D01*
G01*
X94000D01*
Y240250D01*
G75*
G02*
X95250Y241500I1250J0D01*
G01*
X97250D01*
G75*
G02*
X98173Y242750I3000J-1250D01*
G01*
X92798D01*
G75*
G02*
X93738Y240368I-2548J-2381D01*
G01*
G37*
X96500Y239000D02*
G36*
X96500Y239000D02*
Y237750D01*
X98173D01*
G75*
G02*
X97250Y239000I2077J2500D01*
G01*
X96500D01*
G37*
X103500Y240250D02*
G36*
X103500Y240250D02*
G75*
G02*
X102327Y237750I-3250J0D01*
G01*
X104000D01*
Y242750D01*
X102327D01*
G75*
G02*
X103500Y240250I-2077J-2500D01*
G01*
G37*
X106500Y242750D02*
G36*
X106500Y242750D02*
Y237750D01*
X109000D01*
Y242750D01*
X106500D01*
G37*
X111500D02*
G36*
X111500Y242750D02*
Y237750D01*
X251000D01*
G75*
G02*
X255250Y242000I4250J0D01*
G01*
X260250D01*
G75*
G02*
X264500Y237750I0J-4250D01*
G01*
X274000D01*
Y242750D01*
X164100D01*
G75*
G02*
X160250Y238900I-3850J0D01*
G01*
X155250D01*
G75*
G02*
X151400Y242750I0J3850D01*
G01*
X134100D01*
G75*
G02*
X130250Y238900I-3850J0D01*
G01*
X125250D01*
G75*
G02*
X121400Y242750I0J3850D01*
G01*
X111500D01*
G37*
X276500D02*
G36*
X276500Y242750D02*
Y237750D01*
X281400D01*
G75*
G02*
X285250Y241600I3850J0D01*
G01*
X290250D01*
G75*
G02*
X294100Y237750I0J-3850D01*
G01*
X382500D01*
Y242750D01*
X276500D01*
G37*
X5500Y247750D02*
G36*
X5500Y247750D02*
Y242750D01*
X21500D01*
Y247750D01*
X5500D01*
G37*
X24000D02*
G36*
X24000Y247750D02*
Y242750D01*
X51500D01*
Y247750D01*
X41600D01*
G75*
G02*
X37750Y243900I-3850J0D01*
G01*
X32750D01*
G75*
G02*
X28900Y247750I0J3850D01*
G01*
X24000D01*
G37*
X54000D02*
G36*
X54000Y247750D02*
Y242750D01*
X76500D01*
Y244750D01*
G75*
G02*
X74500Y247750I1250J3000D01*
G01*
Y247750D01*
X71600D01*
G75*
G02*
X67750Y243900I-3850J0D01*
G01*
X62750D01*
G75*
G02*
X58900Y247750I0J3850D01*
G01*
X54000D01*
G37*
X79000Y244750D02*
G36*
X79000Y244750D02*
Y242750D01*
X84000D01*
Y247750D01*
X81000D01*
Y247750D01*
G75*
G02*
X79000Y244750I-3250J0D01*
G01*
G37*
X86500Y247750D02*
G36*
X86500Y247750D02*
Y242750D01*
X87702D01*
G75*
G02*
X92798I2548J-2382D01*
G01*
X98173D01*
G75*
G02*
X102327I2077J-2500D01*
G01*
X104000D01*
Y247750D01*
X93124D01*
G75*
G02*
X87376I-2874J2618D01*
G01*
X86500D01*
G37*
X106500D02*
G36*
X106500Y247750D02*
Y242750D01*
X109000D01*
Y247750D01*
X106500D01*
G37*
X111500D02*
G36*
X111500Y247750D02*
Y242750D01*
X121400D01*
G75*
G02*
X125250Y246600I3850J0D01*
G01*
X130250D01*
G75*
G02*
X134100Y242750I0J-3850D01*
G01*
X151400D01*
G75*
G02*
X155250Y246600I3850J0D01*
G01*
X160250D01*
G75*
G02*
X164100Y242750I0J-3850D01*
G01*
X274000D01*
Y247750D01*
X264100D01*
G75*
G02*
X260250Y243900I-3850J0D01*
G01*
X255250D01*
G75*
G02*
X251400Y247750I0J3850D01*
G01*
X149827D01*
G75*
G02*
X145673I-2077J2500D01*
G01*
X111500D01*
G37*
X276500D02*
G36*
X276500Y247750D02*
Y242750D01*
X382500D01*
Y247750D01*
X294100D01*
G75*
G02*
X290250Y243900I-3850J0D01*
G01*
X285250D01*
G75*
G02*
X281400Y247750I0J3850D01*
G01*
X276500D01*
G37*
X5500Y252632D02*
G36*
X5500Y252632D02*
Y247750D01*
X21500D01*
Y252632D01*
X5500D01*
G37*
X24000D02*
G36*
X24000Y252632D02*
Y247750D01*
X28900D01*
G75*
G02*
X32750Y251600I3850J0D01*
G01*
X37750D01*
G75*
G02*
X41600Y247750I0J-3850D01*
G01*
X51500D01*
Y252632D01*
X24000D01*
G37*
X54000D02*
G36*
X54000Y252632D02*
Y247750D01*
X58900D01*
G75*
G02*
X62750Y251600I3850J0D01*
G01*
X67750D01*
G75*
G02*
X71600Y247750I0J-3850D01*
G01*
X74500D01*
G75*
G02*
X81000I3250J0D01*
G01*
X84000D01*
Y252632D01*
X54000D01*
G37*
X86500Y249342D02*
G36*
X86500Y249342D02*
Y247750D01*
X87376D01*
G75*
G02*
X86500Y249342I2874J2619D01*
G01*
G37*
Y252632D02*
G36*
X86500Y252632D02*
Y251394D01*
G75*
G02*
X87089Y252632I3750J-1026D01*
G01*
X86500D01*
G37*
X94138Y250368D02*
G36*
X94138Y250368D02*
G75*
G02*
X93124Y247750I-3888J0D01*
G01*
X104000D01*
Y252632D01*
X93411D01*
G75*
G02*
X94138Y250368I-3161J-2264D01*
G01*
G37*
X106500Y252632D02*
G36*
X106500Y252632D02*
Y247750D01*
X109000D01*
Y252632D01*
X106500D01*
G37*
X111500D02*
G36*
X111500Y252632D02*
Y247750D01*
X145673D01*
G75*
G02*
X144500Y250250I2077J2500D01*
G01*
Y250250D01*
G75*
G02*
X145539Y252632I3249J0D01*
G01*
X111500D01*
G37*
X151000Y250250D02*
G36*
X151000Y250250D02*
G75*
G02*
X149827Y247750I-3250J0D01*
G01*
X251400D01*
G75*
G02*
X255250Y251600I3850J0D01*
G01*
X260250D01*
G75*
G02*
X264100Y247750I0J-3850D01*
G01*
X274000D01*
Y252632D01*
X194138D01*
G75*
G02*
X186362I-3888J0D01*
G01*
X149961D01*
G75*
G02*
X151000Y250250I-2211J-2381D01*
G01*
Y250250D01*
G37*
X276500Y252632D02*
G36*
X276500Y252632D02*
Y247750D01*
X281400D01*
G75*
G02*
X285250Y251600I3850J0D01*
G01*
X290250D01*
G75*
G02*
X294100Y247750I0J-3850D01*
G01*
X382500D01*
Y252632D01*
X326638D01*
G75*
G02*
X318862I-3888J0D01*
G01*
X276500D01*
G37*
X5500Y257750D02*
G36*
X5500Y257750D02*
Y252632D01*
X21500D01*
Y257750D01*
X5500D01*
G37*
X24000D02*
G36*
X24000Y257750D02*
Y252632D01*
X51500D01*
Y257750D01*
X41600D01*
G75*
G02*
X37750Y253900I-3850J0D01*
G01*
X32750D01*
G75*
G02*
X28900Y257750I0J3850D01*
G01*
X24000D01*
G37*
X54000Y256500D02*
G36*
X54000Y256500D02*
Y252632D01*
X84000D01*
Y257750D01*
X71600D01*
G75*
G02*
X67750Y253900I-3850J0D01*
G01*
X62750D01*
G75*
G02*
X59108Y256500I0J3851D01*
G01*
X54000D01*
G37*
X86500Y257750D02*
G36*
X86500Y257750D02*
Y252632D01*
X87089D01*
G75*
G02*
X93411I3161J-2264D01*
G01*
X104000D01*
Y257750D01*
X86500D01*
G37*
X106500D02*
G36*
X106500Y257750D02*
Y252632D01*
X109000D01*
Y257750D01*
X106500D01*
G37*
X111500D02*
G36*
X111500Y257750D02*
Y252632D01*
X145539D01*
G75*
G02*
X146500Y253250I2211J-2382D01*
G01*
Y257750D01*
X111500D01*
G37*
X149000D02*
G36*
X149000Y257750D02*
Y253250D01*
G75*
G02*
X149961Y252632I-1249J-3000D01*
G01*
X186362D01*
G75*
G02*
X194138I3888J0D01*
G01*
X274000D01*
Y257750D01*
X149000D01*
G37*
X276500D02*
G36*
X276500Y257750D02*
Y252632D01*
X318862D01*
G75*
G02*
X326638I3888J0D01*
G01*
X382500D01*
Y257750D01*
X276500D01*
G37*
X5500Y262450D02*
G36*
X5500Y262450D02*
Y257750D01*
X21500D01*
Y262450D01*
X5500D01*
G37*
X24000D02*
G36*
X24000Y262450D02*
Y257750D01*
X28900D01*
G75*
G02*
X32750Y261600I3850J0D01*
G01*
X37750D01*
G75*
G02*
X41600Y257750I0J-3850D01*
G01*
X51500D01*
G75*
G02*
X52750Y259000I1250J0D01*
G01*
X59108D01*
G75*
G02*
X62750Y261600I3642J-1250D01*
G01*
X67750D01*
G75*
G02*
X71600Y257750I0J-3850D01*
G01*
X84000D01*
Y262450D01*
X24000D01*
G37*
X86500D02*
G36*
X86500Y262450D02*
Y257750D01*
X104000D01*
Y262450D01*
X86500D01*
G37*
X106500D02*
G36*
X106500Y262450D02*
Y257750D01*
X109000D01*
Y262450D01*
X106500D01*
G37*
X111500D02*
G36*
X111500Y262450D02*
Y257750D01*
X146500D01*
Y262450D01*
X120986D01*
G75*
G02*
X114514I-3236J300D01*
G01*
X111500D01*
G37*
X149000D02*
G36*
X149000Y262450D02*
Y257750D01*
X274000D01*
Y262450D01*
X248486D01*
G75*
G02*
X242014I-3236J300D01*
G01*
X193733D01*
G75*
G02*
X186767I-3483J182D01*
G01*
X183848D01*
Y259152D01*
X176652D01*
Y262450D01*
X173837D01*
G75*
G02*
X166663I-3587J300D01*
G01*
X149000D01*
G37*
X276500D02*
G36*
X276500Y262450D02*
Y257750D01*
X382500D01*
Y262450D01*
X326233D01*
G75*
G02*
X319267I-3483J182D01*
G01*
X316348D01*
Y259152D01*
X309152D01*
Y262450D01*
X306337D01*
G75*
G02*
X299163I-3587J300D01*
G01*
X276500D01*
G37*
X5500Y267750D02*
G36*
X5500Y267750D02*
Y262450D01*
X21500D01*
Y267750D01*
X5500D01*
G37*
X24000D02*
G36*
X24000Y267750D02*
Y262450D01*
X84000D01*
Y267750D01*
X71600D01*
G75*
G02*
X67750Y263900I-3850J0D01*
G01*
X62750D01*
G75*
G02*
X58900Y267750I0J3850D01*
G01*
X41600D01*
G75*
G02*
X37750Y263900I-3850J0D01*
G01*
X32750D01*
G75*
G02*
X28900Y267750I0J3850D01*
G01*
X24000D01*
G37*
X86500D02*
G36*
X86500Y267750D02*
Y262450D01*
X104000D01*
Y267750D01*
X86500D01*
G37*
X106500D02*
G36*
X106500Y267750D02*
Y262450D01*
X109000D01*
Y267750D01*
X106500D01*
G37*
X111500D02*
G36*
X111500Y267750D02*
Y262450D01*
X114514D01*
G75*
G02*
X114500Y262750I3236J299D01*
G01*
Y262750D01*
G75*
G02*
X116500Y265750I3250J0D01*
G01*
Y267750D01*
X111500D01*
G37*
X119000D02*
G36*
X119000Y267750D02*
Y265750D01*
G75*
G02*
X121000Y262750I-1250J-3000D01*
G01*
Y262750D01*
G75*
G02*
X120986Y262450I-3250J-2D01*
G01*
X146500D01*
Y267750D01*
X141000D01*
G75*
G02*
X134500I-3250J0D01*
G01*
X119000D01*
G37*
X149000D02*
G36*
X149000Y267750D02*
Y262450D01*
X166663D01*
G75*
G02*
X166650Y262750I3588J301D01*
G01*
G75*
G02*
X173850I3600J0D01*
G01*
G75*
G02*
X173837Y262450I-3600J0D01*
G01*
X176652D01*
Y266348D01*
X183848D01*
Y262450D01*
X186767D01*
G75*
G02*
X186762Y262632I3484J181D01*
G01*
G75*
G02*
X193738I3488J0D01*
G01*
G75*
G02*
X193733Y262450I-3489J-1D01*
G01*
X242014D01*
G75*
G02*
X242000Y262750I3236J299D01*
G01*
Y262750D01*
G75*
G02*
X244000Y265750I3250J0D01*
G01*
Y267750D01*
X149000D01*
G37*
X246500D02*
G36*
X246500Y267750D02*
Y265750D01*
G75*
G02*
X248500Y262750I-1250J-3000D01*
G01*
Y262750D01*
G75*
G02*
X248486Y262450I-3250J-2D01*
G01*
X274000D01*
Y267750D01*
X246500D01*
G37*
X276500D02*
G36*
X276500Y267750D02*
Y262450D01*
X299163D01*
G75*
G02*
X299150Y262750I3588J301D01*
G01*
G75*
G02*
X306350I3600J0D01*
G01*
G75*
G02*
X306337Y262450I-3600J0D01*
G01*
X309152D01*
Y266348D01*
X316348D01*
Y262450D01*
X319267D01*
G75*
G02*
X319262Y262632I3484J181D01*
G01*
G75*
G02*
X326238I3488J0D01*
G01*
G75*
G02*
X326233Y262450I-3489J-1D01*
G01*
X382500D01*
Y267750D01*
X276500D01*
G37*
X5500Y272750D02*
G36*
X5500Y272750D02*
Y267750D01*
X21500D01*
Y272750D01*
X5500D01*
G37*
X24000D02*
G36*
X24000Y272750D02*
Y267750D01*
X28900D01*
G75*
G02*
X32750Y271600I3850J0D01*
G01*
X37750D01*
G75*
G02*
X41600Y267750I0J-3850D01*
G01*
X58900D01*
G75*
G02*
X62750Y271600I3850J0D01*
G01*
X67750D01*
G75*
G02*
X71600Y267750I0J-3850D01*
G01*
X84000D01*
Y272750D01*
X24000D01*
G37*
X86500D02*
G36*
X86500Y272750D02*
Y267750D01*
X104000D01*
Y269750D01*
G75*
G02*
X102000Y272750I1250J3000D01*
G01*
Y272750D01*
X86500D01*
G37*
X106500Y269750D02*
G36*
X106500Y269750D02*
Y267750D01*
X109000D01*
Y272750D01*
X108500D01*
Y272750D01*
G75*
G02*
X106500Y269750I-3250J0D01*
G01*
G37*
X111500Y272750D02*
G36*
X111500Y272750D02*
Y267750D01*
X116500D01*
Y272750D01*
X111500D01*
G37*
X119000D02*
G36*
X119000Y272750D02*
Y267750D01*
X134500D01*
Y267750D01*
G75*
G02*
X136500Y270750I3250J0D01*
G01*
Y272750D01*
X134100D01*
G75*
G02*
X130250Y268900I-3850J0D01*
G01*
X125250D01*
G75*
G02*
X121400Y272750I0J3850D01*
G01*
X119000D01*
G37*
X139000D02*
G36*
X139000Y272750D02*
Y270750D01*
G75*
G02*
X141000Y267750I-1250J-3000D01*
G01*
Y267750D01*
X146500D01*
Y272750D01*
X139000D01*
G37*
X149000D02*
G36*
X149000Y272750D02*
Y267750D01*
X244000D01*
Y272750D01*
X193736D01*
G75*
G02*
X193738Y272632I-3487J-117D01*
G01*
G75*
G02*
X186762I-3488J0D01*
G01*
G75*
G02*
X186764Y272750I3489J1D01*
G01*
X183848D01*
Y269152D01*
X176652D01*
Y272750D01*
X173850D01*
G75*
G02*
X166650I-3600J0D01*
G01*
X164100D01*
G75*
G02*
X160250Y268900I-3850J0D01*
G01*
X155250D01*
G75*
G02*
X151400Y272750I0J3850D01*
G01*
X149000D01*
G37*
X246500D02*
G36*
X246500Y272750D02*
Y267750D01*
X274000D01*
Y272750D01*
X264100D01*
G75*
G02*
X260250Y268900I-3850J0D01*
G01*
X255250D01*
G75*
G02*
X251400Y272750I0J3850D01*
G01*
X246500D01*
G37*
X276500D02*
G36*
X276500Y272750D02*
Y267750D01*
X382500D01*
Y272750D01*
X326236D01*
G75*
G02*
X326238Y272632I-3487J-117D01*
G01*
G75*
G02*
X319262I-3488J0D01*
G01*
G75*
G02*
X319264Y272750I3489J1D01*
G01*
X316348D01*
Y269152D01*
X309152D01*
Y272750D01*
X306350D01*
Y272750D01*
G75*
G02*
X299374Y271500I-3600J0D01*
G01*
X295250D01*
G75*
G02*
X294076Y272320I0J1250D01*
G01*
G75*
G02*
X290250Y268900I-3827J430D01*
G01*
X285250D01*
G75*
G02*
X281400Y272750I0J3850D01*
G01*
X276500D01*
G37*
X5500Y282750D02*
G36*
X5500Y282750D02*
Y272750D01*
X21500D01*
Y282750D01*
X5500D01*
G37*
X24000D02*
G36*
X24000Y282750D02*
Y272750D01*
X84000D01*
Y282750D01*
X24000D01*
G37*
X86500D02*
G36*
X86500Y282750D02*
Y272750D01*
X102000D01*
G75*
G02*
X108500I3250J0D01*
G01*
X109000D01*
Y282750D01*
X86500D01*
G37*
X111500D02*
G36*
X111500Y282750D02*
Y272750D01*
X116500D01*
Y282750D01*
X111500D01*
G37*
X119000D02*
G36*
X119000Y282750D02*
Y272750D01*
X121400D01*
G75*
G02*
X125250Y276600I3850J0D01*
G01*
X130250D01*
G75*
G02*
X134100Y272750I0J-3850D01*
G01*
X136500D01*
Y282750D01*
X134100D01*
G75*
G02*
X130250Y278900I-3850J0D01*
G01*
X125250D01*
G75*
G02*
X121400Y282750I0J3850D01*
G01*
X119000D01*
G37*
X139000D02*
G36*
X139000Y282750D02*
Y272750D01*
X146500D01*
Y282750D01*
X139000D01*
G37*
X149000Y282232D02*
G36*
X149000Y282232D02*
Y272750D01*
X151400D01*
G75*
G02*
X155250Y276600I3850J0D01*
G01*
X160250D01*
G75*
G02*
X164100Y272750I0J-3850D01*
G01*
X166650D01*
G75*
G02*
X173850I3600J0D01*
G01*
X176652D01*
Y276348D01*
X183848D01*
Y272750D01*
X186764D01*
G75*
G02*
X193736I3486J-118D01*
G01*
X244000D01*
Y282750D01*
X193736D01*
G75*
G02*
X193738Y282632I-3487J-117D01*
G01*
G75*
G02*
X186762I-3488J0D01*
G01*
G75*
G02*
X186764Y282750I3489J1D01*
G01*
X183848D01*
Y279152D01*
X176652D01*
Y282750D01*
X173850D01*
G75*
G02*
X166650I-3600J0D01*
G01*
X164100D01*
G75*
G02*
X160250Y278900I-3850J0D01*
G01*
X155250D01*
G75*
G02*
X151400Y282750I0J3850D01*
G01*
X149518D01*
X149000Y282232D01*
G37*
X246500Y282750D02*
G36*
X246500Y282750D02*
Y272750D01*
X251400D01*
G75*
G02*
X255250Y276600I3850J0D01*
G01*
X260250D01*
G75*
G02*
X264100Y272750I0J-3850D01*
G01*
X274000D01*
Y282750D01*
X264100D01*
G75*
G02*
X260250Y278900I-3850J0D01*
G01*
X255250D01*
G75*
G02*
X251400Y282750I0J3850D01*
G01*
X246500D01*
G37*
X276500D02*
G36*
X276500Y282750D02*
Y272750D01*
X281400D01*
G75*
G02*
X285250Y276600I3850J0D01*
G01*
X290250D01*
G75*
G02*
X294000Y273624I0J-3850D01*
G01*
Y281876D01*
G75*
G02*
X290250Y278900I-3750J873D01*
G01*
X285250D01*
G75*
G02*
X281400Y282750I0J3850D01*
G01*
X276500D01*
G37*
X296500D02*
G36*
X296500Y282750D02*
Y274000D01*
X299374D01*
G75*
G02*
X306350Y272750I3376J-1250D01*
G01*
Y272750D01*
X309152D01*
Y276348D01*
X316348D01*
Y272750D01*
X319264D01*
G75*
G02*
X326236I3486J-118D01*
G01*
X382500D01*
Y282750D01*
X326236D01*
G75*
G02*
X326238Y282632I-3487J-117D01*
G01*
G75*
G02*
X319262I-3488J0D01*
G01*
G75*
G02*
X319264Y282750I3489J1D01*
G01*
X316348D01*
Y279152D01*
X309152D01*
Y282750D01*
X306350D01*
G75*
G02*
X299150I-3600J0D01*
G01*
X296500D01*
G37*
X5500Y292750D02*
G36*
X5500Y292750D02*
Y282750D01*
X21500D01*
Y284750D01*
G75*
G02*
X19500Y287750I1250J3000D01*
G01*
Y287750D01*
G75*
G02*
X26000I3250J0D01*
G01*
Y287750D01*
G75*
G02*
X24000Y284750I-3250J0D01*
G01*
Y282750D01*
X84000D01*
Y292750D01*
X71600D01*
G75*
G02*
X67750Y288900I-3850J0D01*
G01*
X62750D01*
G75*
G02*
X58900Y292750I0J3850D01*
G01*
X41600D01*
G75*
G02*
X37750Y288900I-3850J0D01*
G01*
X32750D01*
G75*
G02*
X28900Y292750I0J3850D01*
G01*
X5500D01*
G37*
X86500D02*
G36*
X86500Y292750D02*
Y282750D01*
X109000D01*
Y292750D01*
X86500D01*
G37*
X111500D02*
G36*
X111500Y292750D02*
Y282750D01*
X116500D01*
Y292750D01*
X111500D01*
G37*
X119000D02*
G36*
X119000Y292750D02*
Y282750D01*
X121400D01*
G75*
G02*
X125250Y286600I3850J0D01*
G01*
X130250D01*
G75*
G02*
X134100Y282750I0J-3850D01*
G01*
X136500D01*
Y292750D01*
X134500D01*
G75*
G02*
X130250Y288500I-4250J0D01*
G01*
X125250D01*
G75*
G02*
X121000Y292750I0J4250D01*
G01*
X119000D01*
G37*
X139000D02*
G36*
X139000Y292750D02*
Y282750D01*
X146500D01*
G75*
G02*
X146868Y283635I1250J0D01*
G01*
X152918Y289686D01*
G75*
G02*
X151399Y292750I2331J3064D01*
G01*
X139000D01*
G37*
X149518Y282750D02*
G36*
X149518Y282750D02*
X151400D01*
G75*
G02*
X155250Y286600I3850J0D01*
G01*
X160250D01*
G75*
G02*
X164100Y282750I0J-3850D01*
G01*
X166650D01*
G75*
G02*
X173850I3600J0D01*
G01*
X176652D01*
Y286348D01*
X183848D01*
Y282750D01*
X186764D01*
G75*
G02*
X193736I3486J-118D01*
G01*
X244000D01*
Y292750D01*
X201500D01*
Y290750D01*
G75*
G02*
X203500Y287750I-1250J-3000D01*
G01*
Y287750D01*
G75*
G02*
X197000I-3250J0D01*
G01*
Y287750D01*
G75*
G02*
X199000Y290750I3250J0D01*
G01*
Y292750D01*
X193736D01*
G75*
G02*
X193738Y292632I-3487J-117D01*
G01*
G75*
G02*
X186762I-3488J0D01*
G01*
G75*
G02*
X186764Y292750I3489J1D01*
G01*
X183848D01*
Y289152D01*
X176652D01*
Y292750D01*
X173850D01*
G75*
G02*
X166650I-3600J0D01*
G01*
X164100D01*
G75*
G02*
X160250Y288900I-3850J0D01*
G01*
X155667D01*
X149518Y282750D01*
G37*
X246500Y292750D02*
G36*
X246500Y292750D02*
Y282750D01*
X251400D01*
G75*
G02*
X255250Y286600I3850J0D01*
G01*
X260250D01*
G75*
G02*
X264100Y282750I0J-3850D01*
G01*
X274000D01*
Y292750D01*
X264500D01*
G75*
G02*
X260250Y288500I-4250J0D01*
G01*
X255250D01*
G75*
G02*
X251000Y292750I0J4250D01*
G01*
X246500D01*
G37*
X276500Y291500D02*
G36*
X276500Y291500D02*
Y282750D01*
X281400D01*
G75*
G02*
X285250Y286600I3850J0D01*
G01*
X290250D01*
G75*
G02*
X294000Y283624I0J-3850D01*
G01*
Y291876D01*
G75*
G02*
X290250Y288900I-3750J873D01*
G01*
X285250D01*
G75*
G02*
X281608Y291500I0J3851D01*
G01*
X276500D01*
G37*
X296500Y292750D02*
G36*
X296500Y292750D02*
Y282750D01*
X299150D01*
G75*
G02*
X306350I3600J0D01*
G01*
X309152D01*
Y286348D01*
X316348D01*
Y282750D01*
X319264D01*
G75*
G02*
X326236I3486J-118D01*
G01*
X382500D01*
Y292750D01*
X336500D01*
Y290750D01*
G75*
G02*
X338500Y287750I-1250J-3000D01*
G01*
Y287750D01*
G75*
G02*
X332000I-3250J0D01*
G01*
Y287750D01*
G75*
G02*
X334000Y290750I3250J0D01*
G01*
Y292750D01*
X326236D01*
G75*
G02*
X326238Y292632I-3487J-117D01*
G01*
G75*
G02*
X319262I-3488J0D01*
G01*
G75*
G02*
X319264Y292750I3489J1D01*
G01*
X316348D01*
Y289152D01*
X309152D01*
Y292750D01*
X306350D01*
G75*
G02*
X299150I-3600J0D01*
G01*
X296500D01*
G37*
X5500Y302750D02*
G36*
X5500Y302750D02*
Y292750D01*
X28900D01*
G75*
G02*
X32750Y296600I3850J0D01*
G01*
X37750D01*
G75*
G02*
X41600Y292750I0J-3850D01*
G01*
X58900D01*
G75*
G02*
X62750Y296600I3850J0D01*
G01*
X67750D01*
G75*
G02*
X71600Y292750I0J-3850D01*
G01*
X84000D01*
Y302750D01*
X71600D01*
G75*
G02*
X67750Y298900I-3850J0D01*
G01*
X62750D01*
G75*
G02*
X58900Y302750I0J3850D01*
G01*
X41600D01*
G75*
G02*
X37750Y298900I-3850J0D01*
G01*
X32750D01*
G75*
G02*
X28900Y302750I0J3850D01*
G01*
X5500D01*
G37*
X86500D02*
G36*
X86500Y302750D02*
Y292750D01*
X109000D01*
Y302750D01*
X86500D01*
G37*
X111500D02*
G36*
X111500Y302750D02*
Y292750D01*
X116500D01*
Y302750D01*
X111500D01*
G37*
X119000D02*
G36*
X119000Y302750D02*
Y292750D01*
X121000D01*
G75*
G02*
X125250Y297000I4250J0D01*
G01*
X130250D01*
G75*
G02*
X134500Y292750I0J-4250D01*
G01*
X136500D01*
Y302750D01*
X134100D01*
G75*
G02*
X130250Y298900I-3850J0D01*
G01*
X125250D01*
G75*
G02*
X121400Y302750I0J3850D01*
G01*
X119000D01*
G37*
X139000D02*
G36*
X139000Y302750D02*
Y292750D01*
X151399D01*
G75*
G02*
X155250Y296600I3851J0D01*
G01*
X160250D01*
G75*
G02*
X164100Y292750I0J-3850D01*
G01*
X166650D01*
G75*
G02*
X173850I3600J0D01*
G01*
X176652D01*
Y296348D01*
X183848D01*
Y292750D01*
X186764D01*
G75*
G02*
X193736I3486J-118D01*
G01*
X199000D01*
Y302750D01*
X193736D01*
G75*
G02*
X186764I-3486J118D01*
G01*
X183848D01*
Y299152D01*
X176652D01*
Y302750D01*
X173850D01*
G75*
G02*
X166650I-3600J0D01*
G01*
X164100D01*
G75*
G02*
X160250Y298900I-3850J0D01*
G01*
X155250D01*
G75*
G02*
X151400Y302750I0J3850D01*
G01*
X139000D01*
G37*
X201500D02*
G36*
X201500Y302750D02*
Y292750D01*
X244000D01*
Y302750D01*
X201500D01*
G37*
X246500D02*
G36*
X246500Y302750D02*
Y292750D01*
X251000D01*
G75*
G02*
X255250Y297000I4250J0D01*
G01*
X260250D01*
G75*
G02*
X264500Y292750I0J-4250D01*
G01*
X274000D01*
G75*
G02*
X275250Y294000I1250J0D01*
G01*
X281608D01*
G75*
G02*
X285250Y296600I3642J-1250D01*
G01*
X290250D01*
G75*
G02*
X294000Y293624I0J-3850D01*
G01*
Y301876D01*
G75*
G02*
X290250Y298900I-3750J873D01*
G01*
X285250D01*
G75*
G02*
X281400Y302750I0J3850D01*
G01*
X264100D01*
G75*
G02*
X260250Y298900I-3850J0D01*
G01*
X255250D01*
G75*
G02*
X251400Y302750I0J3850D01*
G01*
X246500D01*
G37*
X296500D02*
G36*
X296500Y302750D02*
Y292750D01*
X299150D01*
G75*
G02*
X306350I3600J0D01*
G01*
X309152D01*
Y296348D01*
X316348D01*
Y292750D01*
X319264D01*
G75*
G02*
X326236I3486J-118D01*
G01*
X334000D01*
Y302750D01*
X326236D01*
G75*
G02*
X319264I-3486J118D01*
G01*
X316348D01*
Y299152D01*
X309152D01*
Y302750D01*
X306350D01*
G75*
G02*
X299150I-3600J0D01*
G01*
X296500D01*
G37*
X336500D02*
G36*
X336500Y302750D02*
Y292750D01*
X382500D01*
Y302750D01*
X336500D01*
G37*
X5500Y312750D02*
G36*
X5500Y312750D02*
Y302750D01*
X28900D01*
G75*
G02*
X32750Y306600I3850J0D01*
G01*
X37750D01*
G75*
G02*
X41600Y302750I0J-3850D01*
G01*
X58900D01*
G75*
G02*
X62750Y306600I3850J0D01*
G01*
X67750D01*
G75*
G02*
X71600Y302750I0J-3850D01*
G01*
X84000D01*
Y312750D01*
X71600D01*
G75*
G02*
X67750Y308900I-3850J0D01*
G01*
X62750D01*
G75*
G02*
X58900Y312750I0J3850D01*
G01*
X41600D01*
G75*
G02*
X37750Y308900I-3850J0D01*
G01*
X32750D01*
G75*
G02*
X28900Y312750I0J3850D01*
G01*
X5500D01*
G37*
X86500D02*
G36*
X86500Y312750D02*
Y302750D01*
X109000D01*
Y312750D01*
X86500D01*
G37*
X111500D02*
G36*
X111500Y312750D02*
Y302750D01*
X116500D01*
Y312750D01*
X111500D01*
G37*
X119000D02*
G36*
X119000Y312750D02*
Y302750D01*
X121400D01*
G75*
G02*
X125250Y306600I3850J0D01*
G01*
X130250D01*
G75*
G02*
X134100Y302750I0J-3850D01*
G01*
X136500D01*
Y312750D01*
X134100D01*
G75*
G02*
X130250Y308900I-3850J0D01*
G01*
X125250D01*
G75*
G02*
X121400Y312750I0J3850D01*
G01*
X119000D01*
G37*
X139000D02*
G36*
X139000Y312750D02*
Y302750D01*
X151400D01*
G75*
G02*
X155250Y306600I3850J0D01*
G01*
X160250D01*
G75*
G02*
X164100Y302750I0J-3850D01*
G01*
X166650D01*
G75*
G02*
X173850I3600J0D01*
G01*
X176652D01*
Y306348D01*
X183848D01*
Y302750D01*
X186764D01*
G75*
G02*
X186762Y302868I3487J117D01*
G01*
G75*
G02*
X193738I3488J0D01*
G01*
G75*
G02*
X193736Y302750I-3489J-1D01*
G01*
X199000D01*
Y304750D01*
G75*
G02*
X197000Y307750I1250J3000D01*
G01*
Y307750D01*
G75*
G02*
X203500I3250J0D01*
G01*
Y307750D01*
G75*
G02*
X201500Y304750I-3250J0D01*
G01*
Y302750D01*
X244000D01*
Y312750D01*
X193736D01*
G75*
G02*
X186764I-3486J118D01*
G01*
X183848D01*
Y309152D01*
X176652D01*
Y312750D01*
X173850D01*
G75*
G02*
X166650I-3600J0D01*
G01*
X164100D01*
G75*
G02*
X160250Y308900I-3850J0D01*
G01*
X155250D01*
G75*
G02*
X151400Y312750I0J3850D01*
G01*
X139000D01*
G37*
X246500D02*
G36*
X246500Y312750D02*
Y302750D01*
X251400D01*
G75*
G02*
X255250Y306600I3850J0D01*
G01*
X260250D01*
G75*
G02*
X264100Y302750I0J-3850D01*
G01*
X281400D01*
G75*
G02*
X285250Y306600I3850J0D01*
G01*
X290250D01*
G75*
G02*
X294000Y303624I0J-3850D01*
G01*
Y311876D01*
G75*
G02*
X290250Y308900I-3750J873D01*
G01*
X285250D01*
G75*
G02*
X281400Y312750I0J3850D01*
G01*
X264100D01*
G75*
G02*
X260250Y308900I-3850J0D01*
G01*
X255250D01*
G75*
G02*
X251400Y312750I0J3850D01*
G01*
X246500D01*
G37*
X296500D02*
G36*
X296500Y312750D02*
Y302750D01*
X299150D01*
G75*
G02*
X306350I3600J0D01*
G01*
X309152D01*
Y306348D01*
X316348D01*
Y302750D01*
X319264D01*
G75*
G02*
X319262Y302868I3487J117D01*
G01*
G75*
G02*
X326238I3488J0D01*
G01*
G75*
G02*
X326236Y302750I-3489J-1D01*
G01*
X334000D01*
Y304750D01*
G75*
G02*
X332000Y307750I1250J3000D01*
G01*
Y307750D01*
G75*
G02*
X338500I3250J0D01*
G01*
Y307750D01*
G75*
G02*
X336500Y304750I-3250J0D01*
G01*
Y302750D01*
X382500D01*
Y312750D01*
X326236D01*
G75*
G02*
X319264I-3486J118D01*
G01*
X316348D01*
Y309152D01*
X309152D01*
Y312750D01*
X306350D01*
G75*
G02*
X299150I-3600J0D01*
G01*
X296500D01*
G37*
X5500Y322750D02*
G36*
X5500Y322750D02*
Y312750D01*
X28900D01*
G75*
G02*
X32750Y316600I3850J0D01*
G01*
X37750D01*
G75*
G02*
X41600Y312750I0J-3850D01*
G01*
X58900D01*
G75*
G02*
X62750Y316600I3850J0D01*
G01*
X67750D01*
G75*
G02*
X71600Y312750I0J-3850D01*
G01*
X84000D01*
Y322750D01*
X71600D01*
G75*
G02*
X67750Y318900I-3850J0D01*
G01*
X62750D01*
G75*
G02*
X58900Y322750I0J3850D01*
G01*
X41600D01*
G75*
G02*
X37750Y318900I-3850J0D01*
G01*
X32750D01*
G75*
G02*
X28900Y322750I0J3850D01*
G01*
X5500D01*
G37*
X86500D02*
G36*
X86500Y322750D02*
Y312750D01*
X109000D01*
Y322750D01*
X86500D01*
G37*
X111500D02*
G36*
X111500Y322750D02*
Y312750D01*
X116500D01*
Y322750D01*
X111500D01*
G37*
X119000D02*
G36*
X119000Y322750D02*
Y312750D01*
X121400D01*
G75*
G02*
X125250Y316600I3850J0D01*
G01*
X130250D01*
G75*
G02*
X134100Y312750I0J-3850D01*
G01*
X136500D01*
Y321500D01*
X133892D01*
G75*
G02*
X130250Y318900I-3642J1250D01*
G01*
X125250D01*
G75*
G02*
X121400Y322750I0J3850D01*
G01*
X119000D01*
G37*
X139000D02*
G36*
X139000Y322750D02*
Y312750D01*
X151400D01*
G75*
G02*
X155250Y316600I3850J0D01*
G01*
X160250D01*
G75*
G02*
X164100Y312750I0J-3850D01*
G01*
X166650D01*
G75*
G02*
X173850I3600J0D01*
G01*
X176652D01*
Y316348D01*
X183848D01*
Y312750D01*
X186764D01*
G75*
G02*
X186762Y312868I3487J117D01*
G01*
G75*
G02*
X193738I3488J0D01*
G01*
G75*
G02*
X193736Y312750I-3489J-1D01*
G01*
X244000D01*
Y322750D01*
X193736D01*
G75*
G02*
X186764I-3486J118D01*
G01*
X183848D01*
Y319152D01*
X176652D01*
Y322750D01*
X173850D01*
G75*
G02*
X166650I-3600J0D01*
G01*
X164100D01*
G75*
G02*
X160250Y318900I-3850J0D01*
G01*
X155250D01*
G75*
G02*
X151400Y322750I0J3850D01*
G01*
X139000D01*
G37*
X246500D02*
G36*
X246500Y322750D02*
Y312750D01*
X251400D01*
G75*
G02*
X255250Y316600I3850J0D01*
G01*
X260250D01*
G75*
G02*
X264100Y312750I0J-3850D01*
G01*
X281400D01*
G75*
G02*
X285250Y316600I3850J0D01*
G01*
X290250D01*
G75*
G02*
X294000Y313624I0J-3850D01*
G01*
Y321876D01*
G75*
G02*
X290250Y318900I-3750J873D01*
G01*
X285250D01*
G75*
G02*
X281400Y322750I0J3850D01*
G01*
X264100D01*
G75*
G02*
X260250Y318900I-3850J0D01*
G01*
X255250D01*
G75*
G02*
X251400Y322750I0J3850D01*
G01*
X246500D01*
G37*
X296500D02*
G36*
X296500Y322750D02*
Y312750D01*
X299150D01*
G75*
G02*
X306350I3600J0D01*
G01*
X309152D01*
Y316348D01*
X316348D01*
Y312750D01*
X319264D01*
G75*
G02*
X319262Y312868I3487J117D01*
G01*
G75*
G02*
X326238I3488J0D01*
G01*
G75*
G02*
X326236Y312750I-3489J-1D01*
G01*
X382500D01*
Y322750D01*
X326236D01*
G75*
G02*
X319264I-3486J118D01*
G01*
X316348D01*
Y319152D01*
X309152D01*
Y322750D01*
X306350D01*
G75*
G02*
X299150I-3600J0D01*
G01*
X296500D01*
G37*
X5500Y332750D02*
G36*
X5500Y332750D02*
Y322750D01*
X28900D01*
G75*
G02*
X32750Y326600I3850J0D01*
G01*
X37750D01*
G75*
G02*
X41600Y322750I0J-3850D01*
G01*
X58900D01*
G75*
G02*
X62750Y326600I3850J0D01*
G01*
X67750D01*
G75*
G02*
X71600Y322750I0J-3850D01*
G01*
X84000D01*
Y332750D01*
X71600D01*
G75*
G02*
X67750Y328900I-3850J0D01*
G01*
X62750D01*
G75*
G02*
X58900Y332750I0J3850D01*
G01*
X41600D01*
G75*
G02*
X37750Y328900I-3850J0D01*
G01*
X32750D01*
G75*
G02*
X28900Y332750I0J3850D01*
G01*
X5500D01*
G37*
X86500D02*
G36*
X86500Y332750D02*
Y322750D01*
X109000D01*
Y324750D01*
G75*
G02*
X107000Y327750I1250J3000D01*
G01*
G75*
G02*
X109000Y330750I3250J0D01*
G01*
Y332750D01*
X86500D01*
G37*
X111500Y324750D02*
G36*
X111500Y324750D02*
Y322750D01*
X116500D01*
Y329750D01*
G75*
G02*
X114500Y332750I1250J3000D01*
G01*
Y332750D01*
X111500D01*
Y330750D01*
G75*
G02*
X113500Y327750I-1250J-3000D01*
G01*
G75*
G02*
X111500Y324750I-3250J0D01*
G01*
G37*
X119000Y329750D02*
G36*
X119000Y329750D02*
Y322750D01*
X121400D01*
G75*
G02*
X125250Y326600I3850J0D01*
G01*
X130250D01*
G75*
G02*
X133892Y324000I0J-3851D01*
G01*
X137750D01*
G75*
G02*
X139000Y322750I0J-1250D01*
G01*
X151400D01*
G75*
G02*
X155250Y326600I3850J0D01*
G01*
X160250D01*
G75*
G02*
X164100Y322750I0J-3850D01*
G01*
X166650D01*
G75*
G02*
X173850I3600J0D01*
G01*
X176652D01*
Y326348D01*
X183848D01*
Y322750D01*
X186764D01*
G75*
G02*
X186762Y322868I3487J117D01*
G01*
G75*
G02*
X193738I3488J0D01*
G01*
G75*
G02*
X193736Y322750I-3489J-1D01*
G01*
X244000D01*
Y329750D01*
G75*
G02*
X242000Y332750I1250J3000D01*
G01*
Y332750D01*
X193736D01*
G75*
G02*
X186764I-3486J118D01*
G01*
X183848D01*
Y329152D01*
X176652D01*
Y332750D01*
X173850D01*
G75*
G02*
X166650I-3600J0D01*
G01*
X164100D01*
G75*
G02*
X160250Y328900I-3850J0D01*
G01*
X155250D01*
G75*
G02*
X151400Y332750I0J3850D01*
G01*
X134100D01*
G75*
G02*
X130250Y328900I-3850J0D01*
G01*
X125250D01*
G75*
G02*
X121400Y332750I0J3850D01*
G01*
X121000D01*
Y332750D01*
G75*
G02*
X119000Y329750I-3250J0D01*
G01*
G37*
X246500D02*
G36*
X246500Y329750D02*
Y322750D01*
X251400D01*
G75*
G02*
X255250Y326600I3850J0D01*
G01*
X260250D01*
G75*
G02*
X264100Y322750I0J-3850D01*
G01*
X281400D01*
G75*
G02*
X285250Y326600I3850J0D01*
G01*
X290250D01*
G75*
G02*
X292736Y325690I0J-3851D01*
G01*
G75*
G02*
X292000Y327750I2513J2060D01*
G01*
G75*
G02*
X292736Y329810I3250J0D01*
G01*
G75*
G02*
X290250Y328900I-2485J2938D01*
G01*
X285250D01*
G75*
G02*
X281400Y332750I0J3850D01*
G01*
X264100D01*
G75*
G02*
X260250Y328900I-3850J0D01*
G01*
X255250D01*
G75*
G02*
X251400Y332750I0J3850D01*
G01*
X248500D01*
Y332750D01*
G75*
G02*
X246500Y329750I-3250J0D01*
G01*
G37*
X294100Y332750D02*
G36*
X294100Y332750D02*
G75*
G02*
X293190Y330264I-3850J0D01*
G01*
G75*
G02*
X298500Y327750I2060J-2514D01*
G01*
Y327750D01*
G75*
G02*
X296500Y324750I-3250J0D01*
G01*
Y322750D01*
X299150D01*
G75*
G02*
X306350I3600J0D01*
G01*
X309152D01*
Y326348D01*
X316348D01*
Y322750D01*
X319264D01*
G75*
G02*
X319262Y322868I3487J117D01*
G01*
G75*
G02*
X326238I3488J0D01*
G01*
G75*
G02*
X326236Y322750I-3489J-1D01*
G01*
X382500D01*
Y332750D01*
X326236D01*
G75*
G02*
X319264I-3486J118D01*
G01*
X316348D01*
Y329152D01*
X309152D01*
Y332750D01*
X306350D01*
G75*
G02*
X299150I-3600J0D01*
G01*
X294100D01*
Y332750D01*
G37*
X5500Y342750D02*
G36*
X5500Y342750D02*
Y332750D01*
X28900D01*
G75*
G02*
X32750Y336600I3850J0D01*
G01*
X37750D01*
G75*
G02*
X41600Y332750I0J-3850D01*
G01*
X58900D01*
G75*
G02*
X62750Y336600I3850J0D01*
G01*
X67750D01*
G75*
G02*
X71600Y332750I0J-3850D01*
G01*
X84000D01*
Y336400D01*
X76400D01*
Y342750D01*
X71600D01*
G75*
G02*
X67750Y338900I-3850J0D01*
G01*
X62750D01*
G75*
G02*
X58900Y342750I0J3850D01*
G01*
X41600D01*
G75*
G02*
X37750Y338900I-3850J0D01*
G01*
X32750D01*
G75*
G02*
X28900Y342750I0J3850D01*
G01*
X5500D01*
G37*
X86500D02*
G36*
X86500Y342750D02*
Y332750D01*
X109000D01*
Y339750D01*
G75*
G02*
X107000Y342750I1250J3000D01*
G01*
Y342750D01*
X86500D01*
G37*
X111500Y339750D02*
G36*
X111500Y339750D02*
Y332750D01*
X114500D01*
G75*
G02*
X121000I3250J0D01*
G01*
X121400D01*
G75*
G02*
X125250Y336600I3850J0D01*
G01*
X130250D01*
G75*
G02*
X134100Y332750I0J-3850D01*
G01*
X151400D01*
G75*
G02*
X155250Y336600I3850J0D01*
G01*
X160250D01*
G75*
G02*
X164100Y332750I0J-3850D01*
G01*
X166650D01*
G75*
G02*
X173850I3600J0D01*
G01*
X176652D01*
Y336348D01*
X183848D01*
Y332750D01*
X186764D01*
G75*
G02*
X186762Y332868I3487J117D01*
G01*
G75*
G02*
X193738I3488J0D01*
G01*
G75*
G02*
X193736Y332750I-3489J-1D01*
G01*
X242000D01*
G75*
G02*
X248500I3250J0D01*
G01*
X251400D01*
G75*
G02*
X255250Y336600I3850J0D01*
G01*
X260250D01*
G75*
G02*
X264100Y332750I0J-3850D01*
G01*
X281400D01*
G75*
G02*
X285250Y336600I3850J0D01*
G01*
X290250D01*
G75*
G02*
X294100Y332750I0J-3850D01*
G01*
X299150D01*
G75*
G02*
X306350I3600J0D01*
G01*
X309152D01*
Y336348D01*
X316348D01*
Y332750D01*
X319264D01*
G75*
G02*
X319262Y332868I3487J117D01*
G01*
G75*
G02*
X326238I3488J0D01*
G01*
G75*
G02*
X326236Y332750I-3489J-1D01*
G01*
X382500D01*
Y342750D01*
X326636D01*
G75*
G02*
X318864I-3886J118D01*
G01*
X294100D01*
G75*
G02*
X290250Y338900I-3850J0D01*
G01*
X285250D01*
G75*
G02*
X281400Y342750I0J3850D01*
G01*
X264100D01*
G75*
G02*
X260250Y338900I-3850J0D01*
G01*
X255250D01*
G75*
G02*
X251400Y342750I0J3850D01*
G01*
X194136D01*
G75*
G02*
X186364I-3886J118D01*
G01*
X164100D01*
G75*
G02*
X160250Y338900I-3850J0D01*
G01*
X155250D01*
G75*
G02*
X151400Y342750I0J3850D01*
G01*
X134100D01*
G75*
G02*
X130250Y338900I-3850J0D01*
G01*
X125250D01*
G75*
G02*
X121400Y342750I0J3850D01*
G01*
X113500D01*
Y342750D01*
G75*
G02*
X111500Y339750I-3250J0D01*
G01*
G37*
X5500Y352750D02*
G36*
X5500Y352750D02*
Y342750D01*
X28900D01*
G75*
G02*
X32750Y346600I3850J0D01*
G01*
X37750D01*
G75*
G02*
X41600Y342750I0J-3850D01*
G01*
X58900D01*
G75*
G02*
X62750Y346600I3850J0D01*
G01*
X67750D01*
G75*
G02*
X71600Y342750I0J-3850D01*
G01*
X76400D01*
Y344100D01*
X84000D01*
Y348250D01*
G75*
G02*
X76000Y350250I-3750J2000D01*
G01*
G75*
G02*
X76813Y352750I4250J0D01*
G01*
X71600D01*
G75*
G02*
X67750Y348900I-3850J0D01*
G01*
X62750D01*
G75*
G02*
X58900Y352750I0J3850D01*
G01*
X41600D01*
G75*
G02*
X37750Y348900I-3850J0D01*
G01*
X32750D01*
G75*
G02*
X28900Y352750I0J3850D01*
G01*
X5500D01*
G37*
X83687D02*
G36*
X83687Y352750D02*
G75*
G02*
X84000Y352250I-3437J-2500D01*
G01*
Y352750D01*
X83687D01*
G37*
X86500D02*
G36*
X86500Y352750D02*
Y342750D01*
X107000D01*
G75*
G02*
X113500I3250J0D01*
G01*
X121400D01*
G75*
G02*
X125250Y346600I3850J0D01*
G01*
X130250D01*
G75*
G02*
X134100Y342750I0J-3850D01*
G01*
X151400D01*
G75*
G02*
X155250Y346600I3850J0D01*
G01*
X160250D01*
G75*
G02*
X164100Y342750I0J-3850D01*
G01*
X186364D01*
G75*
G02*
X186362Y342868I3888J124D01*
G01*
G75*
G02*
X194138I3888J0D01*
G01*
G75*
G02*
X194136Y342750I-3890J6D01*
G01*
X251400D01*
G75*
G02*
X255250Y346600I3850J0D01*
G01*
X260250D01*
G75*
G02*
X264100Y342750I0J-3850D01*
G01*
X281400D01*
G75*
G02*
X285250Y346600I3850J0D01*
G01*
X290250D01*
G75*
G02*
X294100Y342750I0J-3850D01*
G01*
X318864D01*
G75*
G02*
X318862Y342868I3888J124D01*
G01*
G75*
G02*
X326638I3888J0D01*
G01*
G75*
G02*
X326636Y342750I-3890J6D01*
G01*
X382500D01*
Y352750D01*
X294100D01*
G75*
G02*
X290250Y348900I-3850J0D01*
G01*
X285250D01*
G75*
G02*
X281400Y352750I0J3850D01*
G01*
X264500D01*
G75*
G02*
X260250Y348500I-4250J0D01*
G01*
X255250D01*
G75*
G02*
X251000Y352750I0J4250D01*
G01*
X164100D01*
G75*
G02*
X160250Y348900I-3850J0D01*
G01*
X155250D01*
G75*
G02*
X151400Y352750I0J3850D01*
G01*
X134500D01*
G75*
G02*
X130250Y348500I-4250J0D01*
G01*
X125250D01*
G75*
G02*
X121000Y352750I0J4250D01*
G01*
X86500D01*
G37*
X5500Y362750D02*
G36*
X5500Y362750D02*
Y352750D01*
X28900D01*
G75*
G02*
X32750Y356600I3850J0D01*
G01*
X37750D01*
G75*
G02*
X41600Y352750I0J-3850D01*
G01*
X58900D01*
G75*
G02*
X62750Y356600I3850J0D01*
G01*
X67750D01*
G75*
G02*
X71600Y352750I0J-3850D01*
G01*
X76813D01*
G75*
G02*
X83687I3437J-2500D01*
G01*
X84000D01*
Y359750D01*
G75*
G02*
X82000Y362750I1250J3000D01*
G01*
Y362750D01*
X5500D01*
G37*
X86500Y359750D02*
G36*
X86500Y359750D02*
Y352750D01*
X121000D01*
G75*
G02*
X125250Y357000I4250J0D01*
G01*
X130250D01*
G75*
G02*
X134500Y352750I0J-4250D01*
G01*
X151400D01*
G75*
G02*
X155250Y356600I3850J0D01*
G01*
X160250D01*
G75*
G02*
X164100Y352750I0J-3850D01*
G01*
X251000D01*
G75*
G02*
X255250Y357000I4250J0D01*
G01*
X260250D01*
G75*
G02*
X264500Y352750I0J-4250D01*
G01*
X281400D01*
G75*
G02*
X285250Y356600I3850J0D01*
G01*
X290250D01*
G75*
G02*
X294100Y352750I0J-3850D01*
G01*
X382500D01*
Y362750D01*
X294100D01*
G75*
G02*
X290250Y358900I-3850J0D01*
G01*
X285250D01*
G75*
G02*
X281400Y362750I0J3850D01*
G01*
X264100D01*
G75*
G02*
X260250Y358900I-3850J0D01*
G01*
X255250D01*
G75*
G02*
X251400Y362750I0J3850D01*
G01*
X164100D01*
G75*
G02*
X160250Y358900I-3850J0D01*
G01*
X155250D01*
G75*
G02*
X151400Y362750I0J3850D01*
G01*
X134100D01*
G75*
G02*
X130250Y358900I-3850J0D01*
G01*
X125250D01*
G75*
G02*
X121400Y362750I0J3850D01*
G01*
X88500D01*
Y362750D01*
G75*
G02*
X86500Y359750I-3250J0D01*
G01*
G37*
X5500Y385000D02*
G36*
X5500Y385000D02*
Y362750D01*
X82000D01*
G75*
G02*
X88500I3250J0D01*
G01*
X121400D01*
G75*
G02*
X125250Y366600I3850J0D01*
G01*
X130250D01*
G75*
G02*
X134100Y362750I0J-3850D01*
G01*
X151400D01*
G75*
G02*
X155250Y366600I3850J0D01*
G01*
X160250D01*
G75*
G02*
X164100Y362750I0J-3850D01*
G01*
X251400D01*
G75*
G02*
X255250Y366600I3850J0D01*
G01*
X260250D01*
G75*
G02*
X264100Y362750I0J-3850D01*
G01*
X281400D01*
G75*
G02*
X285250Y366600I3850J0D01*
G01*
X290250D01*
G75*
G02*
X294100Y362750I0J-3850D01*
G01*
X382500D01*
Y385000D01*
X5500D01*
G37*
D02*
D14*
X23033Y25250D02*
X21033D01*
X25250Y23033D02*
Y21033D01*
Y27467D02*
Y29467D01*
X27467Y25250D02*
X29467D01*
X27750Y172750D02*
X25750D01*
X27750Y190250D02*
X25750D01*
X30250Y170250D02*
Y168250D01*
Y175250D02*
Y177250D01*
Y187750D02*
Y185750D01*
Y192750D02*
Y194750D01*
X32750Y172750D02*
X34750D01*
X32750Y190250D02*
X34750D01*
X68033Y25250D02*
X66033D01*
X70250Y23033D02*
Y21033D01*
Y27467D02*
Y29467D01*
X72467Y25250D02*
X74467D01*
X78482Y348482D02*
X77068Y347068D01*
X78482Y352018D02*
X77068Y353432D01*
X82018Y348482D02*
X83432Y347068D01*
X82018Y352018D02*
X83432Y353432D01*
X88738Y248856D02*
X87324Y247442D01*
X88738Y251880D02*
X87324Y253294D01*
X88750Y82750D02*
X86750D01*
X90250Y81250D02*
Y79250D01*
Y84250D02*
Y86250D01*
X91750Y82750D02*
X93750D01*
X91762Y248856D02*
X93176Y247442D01*
X91762Y251880D02*
X93176Y253294D01*
X122750Y52750D02*
X120750D01*
X122750Y112750D02*
X120750D01*
X122750Y172750D02*
X120750D01*
X122750Y232750D02*
X120750D01*
X122750Y292750D02*
X120750D01*
X122750Y352750D02*
X120750D01*
X127750Y50250D02*
Y48250D01*
Y55250D02*
Y57250D01*
Y110250D02*
Y108250D01*
Y115250D02*
Y117250D01*
Y170250D02*
Y168250D01*
Y175250D02*
Y177250D01*
Y230250D02*
Y228250D01*
Y235250D02*
Y237250D01*
Y290250D02*
Y288250D01*
Y295250D02*
Y297250D01*
Y350250D02*
Y348250D01*
Y355250D02*
Y357250D01*
X132750Y52750D02*
X134750D01*
X132750Y112750D02*
X134750D01*
X132750Y172750D02*
X134750D01*
X132750Y232750D02*
X134750D01*
X132750Y292750D02*
X134750D01*
X132750Y352750D02*
X134750D01*
X177750Y132750D02*
X175750D01*
X177750Y222750D02*
X175750D01*
X180250Y130250D02*
Y128250D01*
Y135250D02*
Y137250D01*
Y220250D02*
Y218250D01*
Y225250D02*
Y227250D01*
X182750Y132750D02*
X184750D01*
X182750Y222750D02*
X184750D01*
X188112Y12632D02*
X186112D01*
X188112Y102868D02*
X186112D01*
X188112Y132632D02*
X186112D01*
X188112Y222868D02*
X186112D01*
X188112Y252632D02*
X186112D01*
X188112Y342868D02*
X186112D01*
X190250Y10494D02*
Y8494D01*
Y14770D02*
Y16770D01*
Y100730D02*
Y98730D01*
Y105006D02*
Y107006D01*
Y130494D02*
Y128494D01*
Y134770D02*
Y136770D01*
Y220730D02*
Y218730D01*
Y225006D02*
Y227006D01*
Y250494D02*
Y248494D01*
Y254770D02*
Y256770D01*
Y340730D02*
Y338730D01*
Y345006D02*
Y347006D01*
X192388Y12632D02*
X194388D01*
X192388Y102868D02*
X194388D01*
X192388Y132632D02*
X194388D01*
X192388Y222868D02*
X194388D01*
X192388Y252632D02*
X194388D01*
X192388Y342868D02*
X194388D01*
X252750Y52750D02*
X250750D01*
X252750Y112750D02*
X250750D01*
X252750Y177750D02*
X250750D01*
X252750Y237750D02*
X250750D01*
X252750Y292750D02*
X250750D01*
X252750Y352750D02*
X250750D01*
X257750Y50250D02*
Y48250D01*
Y55250D02*
Y57250D01*
Y110250D02*
Y108250D01*
Y115250D02*
Y117250D01*
Y175250D02*
Y173250D01*
Y180250D02*
Y182250D01*
Y235250D02*
Y233250D01*
Y240250D02*
Y242250D01*
Y290250D02*
Y288250D01*
Y295250D02*
Y297250D01*
Y350250D02*
Y348250D01*
Y355250D02*
Y357250D01*
X262750Y52750D02*
X264750D01*
X262750Y112750D02*
X264750D01*
X262750Y237750D02*
X264750D01*
X262750Y292750D02*
X264750D01*
X262750Y352750D02*
X264750D01*
X310250Y137750D02*
X308250D01*
X310250Y227750D02*
X308250D01*
X312750Y135250D02*
Y133250D01*
Y140250D02*
Y142250D01*
Y225250D02*
Y223250D01*
Y230250D02*
Y232250D01*
X315250Y137750D02*
X317250D01*
X315250Y227750D02*
X317250D01*
X320612Y12632D02*
X318612D01*
X320612Y102868D02*
X318612D01*
X320612Y137632D02*
X318612D01*
X320612Y227868D02*
X318612D01*
X320612Y252632D02*
X318612D01*
X320612Y342868D02*
X318612D01*
X322750Y10494D02*
Y8494D01*
Y14770D02*
Y16770D01*
Y100730D02*
Y98730D01*
Y105006D02*
Y107006D01*
Y135494D02*
Y133494D01*
Y139770D02*
Y141770D01*
Y225730D02*
Y223730D01*
Y230006D02*
Y232006D01*
Y250494D02*
Y248494D01*
Y254770D02*
Y256770D01*
Y340730D02*
Y338730D01*
Y345006D02*
Y347006D01*
X324888Y12632D02*
X326888D01*
X324888Y102868D02*
X326888D01*
X324888Y137632D02*
X326888D01*
X324888Y227868D02*
X326888D01*
X324888Y252632D02*
X326888D01*
X324888Y342868D02*
X326888D01*
D02*
D15*
X20250Y112750D02*
Y227750D01*
X35250D01*
X22750Y287750D02*
Y237750D01*
X35250D01*
Y60250D02*
Y92750D01*
Y60250D02*
Y45250D01*
X40250Y70250D02*
Y102750D01*
X35250D01*
X65250Y157750D02*
Y207750D01*
Y227750D02*
X52750D01*
Y257750D01*
X65250D01*
X75250Y167750D02*
Y207750D01*
X77750D01*
Y247750D01*
X80250Y45250D02*
Y60250D01*
X85250Y362750D02*
Y240368D01*
X90250D01*
Y112750D02*
Y210368D01*
X100250Y230250D02*
Y117750D01*
Y240250D02*
X95250D01*
Y127750D01*
X102750Y22750D02*
Y92750D01*
X105250Y272750D02*
Y210250D01*
X110250Y327750D02*
Y220250D01*
X127750D01*
Y222750D01*
X110250Y342750D02*
Y327750D01*
X112750Y27750D02*
Y82750D01*
Y140250D02*
Y210250D01*
X127750D01*
Y212750D01*
X117750Y332750D02*
Y262750D01*
X137750Y145250D02*
Y42750D01*
Y162750D02*
Y145250D01*
Y267750D02*
Y322750D01*
X127750D01*
X145250Y172750D02*
Y52750D01*
X147750Y250250D02*
Y282750D01*
X157750Y292750D01*
X165250Y207750D02*
Y152750D01*
X170250D01*
X200250Y47750D02*
Y67750D01*
Y287750D02*
Y307750D01*
X205250Y107750D02*
Y137750D01*
Y187750D02*
Y167750D01*
X237750Y217750D02*
Y147750D01*
X240250Y92750D02*
Y22750D01*
X245250Y162750D02*
Y207750D01*
Y332750D02*
Y262750D01*
X265250Y172750D02*
Y197750D01*
X257750D01*
X267750Y42750D02*
Y27750D01*
X270250Y167750D02*
Y102750D01*
X267750D01*
Y42750D01*
X275250Y52750D02*
Y177750D01*
X287750D01*
X275250D02*
Y292750D01*
X287750D01*
X280250Y87750D02*
Y37750D01*
X295250Y137750D02*
Y227750D01*
X287750D01*
X295250Y327750D02*
Y272750D01*
X302750D01*
X335250Y307750D02*
Y287750D01*
X337750Y47750D02*
Y77750D01*
D02*
D16*
X20250Y112750D03*
X22750Y287750D03*
X40250Y70250D03*
X65250Y157750D03*
X75250Y167750D03*
X77750Y247750D03*
X85250Y362750D03*
X90250Y112750D03*
X95250Y127750D03*
X100250Y117750D03*
Y230250D03*
Y240250D03*
X102750Y22750D03*
Y92750D03*
X105250Y210250D03*
Y272750D03*
X110250Y327750D03*
Y342750D03*
X112750Y27750D03*
Y82750D03*
Y140250D03*
X117750Y262750D03*
Y332750D03*
X137750Y42750D03*
Y145250D03*
Y162750D03*
Y267750D03*
X145250Y52750D03*
Y172750D03*
X147750Y250250D03*
X165250Y207750D03*
X200250Y47750D03*
Y67750D03*
Y287750D03*
Y307750D03*
X205250Y107750D03*
Y137750D03*
Y167750D03*
Y187750D03*
X237750Y147750D03*
Y217750D03*
X240250Y22750D03*
Y92750D03*
X245250Y162750D03*
Y207750D03*
Y262750D03*
Y332750D03*
X265250Y172750D03*
X267750Y27750D03*
Y42750D03*
X270250Y167750D03*
X275250Y52750D03*
Y177750D03*
X280250Y37750D03*
Y87750D03*
X295250Y137750D03*
Y327750D03*
X335250Y287750D03*
Y307750D03*
X337750Y47750D03*
Y77750D03*
D02*
D17*
X72750Y105250D02*
Y102750D01*
X70250Y100250D01*
Y82750D01*
X72750Y122750D02*
Y105250D01*
Y137750D02*
Y122750D01*
D02*
D18*
Y137750D03*
D02*
D19*
X35250Y92750D03*
Y102750D03*
Y112750D03*
Y122750D03*
Y132750D03*
X45250Y92750D03*
Y102750D03*
Y112750D03*
Y122750D03*
Y132750D03*
D02*
D70*
X25250Y60250D03*
X40250Y190250D03*
X70250Y60250D03*
X80250Y340250D03*
X82750Y122750D03*
X170250Y132750D03*
Y222750D03*
X302750Y137750D03*
Y227750D03*
D02*
D71*
X30250Y172750D03*
Y190250D03*
X35250Y60250D03*
X40250Y172750D03*
X72750Y105250D03*
Y122750D03*
X80250Y60250D03*
Y350250D03*
X82750Y105250D03*
X180250Y132750D03*
Y222750D03*
X312750Y137750D03*
Y227750D03*
D02*
D20*
X90250Y82750D03*
D02*
D21*
X70250D03*
X80250Y92750D03*
D02*
D22*
X35250Y207750D03*
Y217750D03*
Y227750D03*
Y237750D03*
Y247750D03*
Y257750D03*
Y267750D03*
Y292750D03*
Y302750D03*
Y312750D03*
Y322750D03*
Y332750D03*
Y342750D03*
Y352750D03*
X65250Y207750D03*
Y217750D03*
Y227750D03*
Y237750D03*
Y247750D03*
Y257750D03*
Y267750D03*
Y292750D03*
Y302750D03*
Y312750D03*
Y322750D03*
Y332750D03*
Y342750D03*
Y352750D03*
X127750Y32750D03*
Y42750D03*
Y52750D03*
Y62750D03*
Y72750D03*
Y82750D03*
Y92750D03*
Y102750D03*
Y112750D03*
Y122750D03*
Y152750D03*
Y162750D03*
Y172750D03*
Y182750D03*
Y192750D03*
Y202750D03*
Y212750D03*
Y222750D03*
Y232750D03*
Y242750D03*
Y272750D03*
Y282750D03*
Y292750D03*
Y302750D03*
Y312750D03*
Y322750D03*
Y332750D03*
Y342750D03*
Y352750D03*
Y362750D03*
X157750Y32750D03*
Y42750D03*
Y52750D03*
Y62750D03*
Y72750D03*
Y82750D03*
Y92750D03*
Y102750D03*
Y112750D03*
Y122750D03*
Y152750D03*
Y162750D03*
Y172750D03*
Y182750D03*
Y192750D03*
Y202750D03*
Y212750D03*
Y222750D03*
Y232750D03*
Y242750D03*
Y272750D03*
Y282750D03*
Y292750D03*
Y302750D03*
Y312750D03*
Y322750D03*
Y332750D03*
Y342750D03*
Y352750D03*
Y362750D03*
X257750Y32750D03*
Y42750D03*
Y52750D03*
Y62750D03*
Y72750D03*
Y82750D03*
Y92750D03*
Y102750D03*
Y112750D03*
Y122750D03*
Y157750D03*
Y167750D03*
Y177750D03*
Y187750D03*
Y197750D03*
Y207750D03*
Y217750D03*
Y227750D03*
Y237750D03*
Y247750D03*
Y272750D03*
Y282750D03*
Y292750D03*
Y302750D03*
Y312750D03*
Y322750D03*
Y332750D03*
Y342750D03*
Y352750D03*
Y362750D03*
X287750Y32750D03*
Y42750D03*
Y52750D03*
Y62750D03*
Y72750D03*
Y82750D03*
Y92750D03*
Y102750D03*
Y112750D03*
Y122750D03*
Y157750D03*
Y167750D03*
Y177750D03*
Y187750D03*
Y197750D03*
Y207750D03*
Y217750D03*
Y227750D03*
Y237750D03*
Y247750D03*
Y272750D03*
Y282750D03*
Y292750D03*
Y302750D03*
Y312750D03*
Y322750D03*
Y332750D03*
Y342750D03*
Y352750D03*
Y362750D03*
D02*
D23*
X25250Y25250D03*
X35250Y45250D03*
X45250Y25250D03*
X70250D03*
X80250Y45250D03*
X90250Y25250D03*
D02*
D24*
Y210368D03*
Y220368D03*
Y230368D03*
Y240368D03*
Y250368D03*
X190250Y12632D03*
Y22632D03*
Y32632D03*
Y42632D03*
Y52632D03*
Y62868D03*
Y72868D03*
Y82868D03*
Y92868D03*
Y102868D03*
Y132632D03*
Y142632D03*
Y152632D03*
Y162632D03*
Y172632D03*
Y182868D03*
Y192868D03*
Y202868D03*
Y212868D03*
Y222868D03*
Y252632D03*
Y262632D03*
Y272632D03*
Y282632D03*
Y292632D03*
Y302868D03*
Y312868D03*
Y322868D03*
Y332868D03*
Y342868D03*
X322750Y12632D03*
Y22632D03*
Y32632D03*
Y42632D03*
Y52632D03*
Y62868D03*
Y72868D03*
Y82868D03*
Y92868D03*
Y102868D03*
Y137632D03*
Y147632D03*
Y157632D03*
Y167632D03*
Y177632D03*
Y187868D03*
Y197868D03*
Y207868D03*
Y217868D03*
Y227868D03*
Y252632D03*
Y262632D03*
Y272632D03*
Y282632D03*
Y292632D03*
Y302868D03*
Y312868D03*
Y322868D03*
Y332868D03*
Y342868D03*
D02*
D25*
X180250Y22750D03*
Y32750D03*
Y42750D03*
Y52750D03*
Y62750D03*
Y72750D03*
Y82750D03*
Y92750D03*
Y142750D03*
Y152750D03*
Y162750D03*
Y172750D03*
Y182750D03*
Y192750D03*
Y202750D03*
Y212750D03*
Y262750D03*
Y272750D03*
Y282750D03*
Y292750D03*
Y302750D03*
Y312750D03*
Y322750D03*
Y332750D03*
X312750Y22750D03*
Y32750D03*
Y42750D03*
Y52750D03*
Y62750D03*
Y72750D03*
Y82750D03*
Y92750D03*
Y147750D03*
Y157750D03*
Y167750D03*
Y177750D03*
Y187750D03*
Y197750D03*
Y207750D03*
Y217750D03*
Y262750D03*
Y272750D03*
Y282750D03*
Y292750D03*
Y302750D03*
Y312750D03*
Y322750D03*
Y332750D03*
D02*
D26*
X170250Y22750D03*
Y32750D03*
Y42750D03*
Y52750D03*
Y62750D03*
Y72750D03*
Y82750D03*
Y92750D03*
Y142750D03*
Y152750D03*
Y162750D03*
Y172750D03*
Y182750D03*
Y192750D03*
Y202750D03*
Y212750D03*
Y262750D03*
Y272750D03*
Y282750D03*
Y292750D03*
Y302750D03*
Y312750D03*
Y322750D03*
Y332750D03*
X302750Y22750D03*
Y32750D03*
Y42750D03*
Y52750D03*
Y62750D03*
Y72750D03*
Y82750D03*
Y92750D03*
Y147750D03*
Y157750D03*
Y167750D03*
Y177750D03*
Y187750D03*
Y197750D03*
Y207750D03*
Y217750D03*
Y262750D03*
Y272750D03*
Y282750D03*
Y292750D03*
Y302750D03*
Y312750D03*
Y322750D03*
Y332750D03*
X0Y0D02*
M02*
