G04 DesignSpark PCB Gerber Version 10.0 Build 5299*
G04 #@! TF.Part,Single*
G04 #@! TF.FileFunction,Copper,L2,Bot*
G04 #@! TF.FilePolarity,Positive*
%FSLAX35Y35*%
%MOIN*%
G04 #@! TA.AperFunction,ComponentPad*
%ADD20R,0.04000X0.04000*%
%ADD25R,0.05500X0.05500*%
%ADD70R,0.06000X0.06000*%
G04 #@! TD.AperFunction*
%ADD13C,0.00500*%
%ADD15C,0.00800*%
%ADD14C,0.01000*%
G04 #@! TA.AperFunction,ComponentPad*
%ADD21C,0.04000*%
G04 #@! TA.AperFunction,ViaPad*
%ADD16C,0.04800*%
G04 #@! TD.AperFunction*
%ADD17C,0.05000*%
G04 #@! TA.AperFunction,ComponentPad*
%ADD24C,0.05276*%
%ADD19C,0.05374*%
%ADD23C,0.05433*%
%ADD26C,0.05500*%
G04 #@! TA.AperFunction,ViaPad*
%ADD18C,0.05600*%
G04 #@! TA.AperFunction,ComponentPad*
%ADD71C,0.06000*%
%ADD22O,0.11000X0.06000*%
G04 #@! TD.AperFunction*
X0Y0D02*
D02*
D13*
X250Y250D02*
X390250D01*
Y390250D01*
X250D01*
Y250D01*
X10250Y380250D02*
Y7750D01*
X380250D01*
Y380250D01*
X10250D01*
X31941Y114000D02*
G75*
G02*
X38787Y112750I3309J-1250D01*
G01*
G75*
G02*
X31941Y111500I-3537J0D01*
G01*
X23250D01*
G75*
G02*
X17000Y112750I-3000J1250D01*
G01*
G75*
G02*
X23250Y114000I3250J0D01*
G01*
X31941D01*
X31400Y60250D02*
G75*
G02*
X39100I3850J0D01*
G01*
G75*
G02*
X31400I-3850J0D01*
G01*
X31683Y45250D02*
G75*
G02*
X38817I3567J0D01*
G01*
G75*
G02*
X31683I-3567J0D01*
G01*
X31713Y92750D02*
G75*
G02*
X38787I3537J0D01*
G01*
G75*
G02*
X31713I-3537J0D01*
G01*
X78559Y63709D02*
G75*
G02*
X84100Y60250I1691J-3459D01*
G01*
G75*
G02*
X76400I-3850J0D01*
G01*
G75*
G02*
X76791Y61941I3850J0D01*
G01*
X74500Y64232D01*
Y56000D01*
X66000D01*
Y64500D01*
X74232D01*
X69732Y69000D01*
X43250D01*
G75*
G02*
X37000Y70250I-3000J1250D01*
G01*
G75*
G02*
X43250Y71500I3250J0D01*
G01*
X70250D01*
G75*
G02*
X71135Y71132I0J-1250D01*
G01*
X78559Y63709D01*
X76683Y45250D02*
G75*
G02*
X83817I3567J0D01*
G01*
G75*
G02*
X76683I-3567J0D01*
G01*
X66683Y25250D02*
G75*
G02*
X73817I3567J0D01*
G01*
G75*
G02*
X66683I-3567J0D01*
G01*
X41283D02*
G75*
G02*
X49217I3967J0D01*
G01*
G75*
G02*
X41283I-3967J0D01*
G01*
X31713Y102750D02*
G75*
G02*
X38787I3537J0D01*
G01*
G75*
G02*
X31713I-3537J0D01*
G01*
X21000Y64500D02*
X29500D01*
Y56000D01*
X21000D01*
Y64500D01*
X21683Y25250D02*
G75*
G02*
X28817I3567J0D01*
G01*
G75*
G02*
X21683I-3567J0D01*
G01*
X290250Y286600D02*
G75*
G02*
Y278900I0J-3850D01*
G01*
X285250D01*
G75*
G02*
X281608Y281500I0J3850D01*
G01*
X270768D01*
X266135Y276868D01*
G75*
G02*
X265250Y276500I-885J882D01*
G01*
X262250D01*
G75*
G02*
X260250Y268500I-2000J-3750D01*
G01*
X255250D01*
G75*
G02*
X253250Y276500I0J4250D01*
G01*
X165250D01*
G75*
G02*
X164365Y276868I0J1250D01*
G01*
X161941Y279291D01*
G75*
G02*
X160250Y278900I-1691J3459D01*
G01*
X155250D01*
G75*
G02*
X151608Y281500I0J3850D01*
G01*
X142750D01*
G75*
G02*
X141865Y281868I0J1250D01*
G01*
X137232Y286500D01*
X132250D01*
G75*
G02*
X130250Y278500I-2000J-3750D01*
G01*
X125250D01*
G75*
G02*
X123250Y286500I0J4250D01*
G01*
X25750D01*
G75*
G02*
X19500Y287750I-3000J1250D01*
G01*
G75*
G02*
X25750Y289000I3250J0D01*
G01*
X31876D01*
G75*
G02*
X32750Y296600I874J3750D01*
G01*
X37750D01*
G75*
G02*
X38624Y289000I0J-3850D01*
G01*
X61876D01*
G75*
G02*
X62750Y296600I874J3750D01*
G01*
X67750D01*
G75*
G02*
X68624Y289000I0J-3850D01*
G01*
X124376D01*
G75*
G02*
X125250Y296600I874J3750D01*
G01*
X130250D01*
G75*
G02*
X131124Y289000I0J-3850D01*
G01*
X137750D01*
G75*
G02*
X138635Y288632I0J-1250D01*
G01*
X143268Y284000D01*
X151608D01*
G75*
G02*
X155250Y286600I3642J-1250D01*
G01*
X160250D01*
G75*
G02*
X163709Y281059I0J-3850D01*
G01*
X165768Y279000D01*
X253250D01*
G75*
G02*
X255250Y287000I2000J3750D01*
G01*
X260250D01*
G75*
G02*
X262250Y279000I0J-4250D01*
G01*
X264732D01*
X269365Y283632D01*
G75*
G02*
X270250Y284000I885J-882D01*
G01*
X281608D01*
G75*
G02*
X285250Y286600I3642J-1250D01*
G01*
X290250D01*
Y277000D02*
G75*
G02*
Y268500I0J-4250D01*
G01*
X285250D01*
G75*
G02*
Y277000I0J4250D01*
G01*
X290250D01*
X166650Y272750D02*
G75*
G02*
X173850I3600J0D01*
G01*
G75*
G02*
X168747Y269479I-3600J0D01*
G01*
X166135Y266868D01*
G75*
G02*
X165250Y266500I-885J882D01*
G01*
X140750D01*
G75*
G02*
X134500Y267750I-3000J1250D01*
G01*
G75*
G02*
X140750Y269000I3250J0D01*
G01*
X153250D01*
G75*
G02*
X155250Y277000I2000J3750D01*
G01*
X160250D01*
G75*
G02*
X162250Y269000I0J-4250D01*
G01*
X164732D01*
X166979Y271247D01*
G75*
G02*
X166650Y272750I3271J1503D01*
G01*
X187042Y264000D02*
G75*
G02*
X193738Y262632I3208J-1368D01*
G01*
G75*
G02*
X186951Y261500I-3488J0D01*
G01*
X183848D01*
Y259152D01*
X176652D01*
Y266348D01*
X183848D01*
Y264000D01*
X187042D01*
X186762Y252632D02*
G75*
G02*
X193738I3488J0D01*
G01*
G75*
G02*
X186762I-3488J0D01*
G01*
X187042Y274000D02*
G75*
G02*
X193738Y272632I3208J-1368D01*
G01*
G75*
G02*
X186951Y271500I-3488J0D01*
G01*
X183848D01*
Y269152D01*
X176652D01*
Y276348D01*
X183848D01*
Y274000D01*
X187042D01*
X299374Y264000D02*
G75*
G02*
X306350Y262750I3376J-1250D01*
G01*
G75*
G02*
X299374Y261500I-3600J0D01*
G01*
X248250D01*
G75*
G02*
X242000Y262750I-3000J1250D01*
G01*
G75*
G02*
X248250Y264000I3250J0D01*
G01*
X299374D01*
X260250Y241600D02*
G75*
G02*
Y233900I0J-3850D01*
G01*
X255250D01*
G75*
G02*
Y241600I0J3850D01*
G01*
X260250D01*
Y251600D02*
G75*
G02*
Y243900I0J-3850D01*
G01*
X255250D01*
G75*
G02*
Y251600I0J3850D01*
G01*
X260250D01*
X290250Y242000D02*
G75*
G02*
Y233500I0J-4250D01*
G01*
X285250D01*
G75*
G02*
Y242000I0J4250D01*
G01*
X290250D01*
X299374Y189000D02*
G75*
G02*
X306350Y187750I3376J-1250D01*
G01*
G75*
G02*
X299374Y186500I-3600J0D01*
G01*
X293892D01*
G75*
G02*
X291124Y184000I-3642J1250D01*
G01*
X297750D01*
G75*
G02*
X298635Y183632I0J-1250D01*
G01*
X301247Y181021D01*
G75*
G02*
X306350Y177750I1503J-3271D01*
G01*
G75*
G02*
X299150I-3600J0D01*
G01*
G75*
G02*
X299479Y179253I3600J0D01*
G01*
X297232Y181500D01*
X291124D01*
G75*
G02*
Y174000I-874J-3750D01*
G01*
X297750D01*
G75*
G02*
X298635Y173632I0J-1250D01*
G01*
X301247Y171021D01*
G75*
G02*
X306350Y167750I1503J-3271D01*
G01*
G75*
G02*
X299150I-3600J0D01*
G01*
G75*
G02*
X299479Y169253I3600J0D01*
G01*
X297232Y171500D01*
X291124D01*
G75*
G02*
Y164000I-874J-3750D01*
G01*
X297750D01*
G75*
G02*
X298635Y163632I0J-1250D01*
G01*
X301247Y161021D01*
G75*
G02*
X306350Y157750I1503J-3271D01*
G01*
G75*
G02*
X299150I-3600J0D01*
G01*
G75*
G02*
X299479Y159253I3600J0D01*
G01*
X297232Y161500D01*
X292250D01*
G75*
G02*
X290250Y153500I-2000J-3750D01*
G01*
X285250D01*
G75*
G02*
X283250Y161500I0J4250D01*
G01*
X262250D01*
G75*
G02*
X260250Y153500I-2000J-3750D01*
G01*
X255250D01*
G75*
G02*
X253250Y161500I0J4250D01*
G01*
X248250D01*
G75*
G02*
X242000Y162750I-3000J1250D01*
G01*
G75*
G02*
X248250Y164000I3250J0D01*
G01*
X253250D01*
G75*
G02*
X255250Y172000I2000J3750D01*
G01*
X260250D01*
G75*
G02*
X262250Y171500I0J-4250D01*
G01*
G75*
G02*
X262736Y174810I3000J1250D01*
G01*
G75*
G02*
X260250Y173900I-2486J2941D01*
G01*
X255250D01*
G75*
G02*
Y181600I0J3850D01*
G01*
X260250D01*
G75*
G02*
X263190Y175264I0J-3850D01*
G01*
G75*
G02*
X268250Y174000I2060J-2514D01*
G01*
X284376D01*
G75*
G02*
X281608Y176500I874J3750D01*
G01*
X278250D01*
G75*
G02*
X272000Y177750I-3000J1250D01*
G01*
G75*
G02*
X278250Y179000I3250J0D01*
G01*
X281608D01*
G75*
G02*
X284376Y181500I3642J-1250D01*
G01*
X275250D01*
G75*
G02*
X274365Y181868I0J1250D01*
G01*
X269732Y186500D01*
X263892D01*
G75*
G02*
X260250Y183900I-3642J1250D01*
G01*
X255250D01*
G75*
G02*
Y191600I0J3850D01*
G01*
X260250D01*
G75*
G02*
X263892Y189000I0J-3850D01*
G01*
X270250D01*
G75*
G02*
X271135Y188632I0J-1250D01*
G01*
X275768Y184000D01*
X284376D01*
G75*
G02*
X285250Y191600I874J3750D01*
G01*
X290250D01*
G75*
G02*
X293892Y189000I0J-3850D01*
G01*
X299374D01*
Y199000D02*
G75*
G02*
X306350Y197750I3376J-1250D01*
G01*
G75*
G02*
X299374Y196500I-3600J0D01*
G01*
X293892D01*
G75*
G02*
X290250Y193900I-3642J1250D01*
G01*
X285250D01*
G75*
G02*
Y201600I0J3850D01*
G01*
X290250D01*
G75*
G02*
X293892Y199000I0J-3850D01*
G01*
X299374D01*
Y209000D02*
G75*
G02*
X306350Y207750I3376J-1250D01*
G01*
G75*
G02*
X299374Y206500I-3600J0D01*
G01*
X293892D01*
G75*
G02*
X290250Y203900I-3642J1250D01*
G01*
X285250D01*
G75*
G02*
Y211600I0J3850D01*
G01*
X290250D01*
G75*
G02*
X293892Y209000I0J-3850D01*
G01*
X299374D01*
Y219000D02*
G75*
G02*
X306350Y217750I3376J-1250D01*
G01*
G75*
G02*
X299374Y216500I-3600J0D01*
G01*
X293892D01*
G75*
G02*
X290250Y213900I-3642J1250D01*
G01*
X285250D01*
G75*
G02*
Y221600I0J3850D01*
G01*
X290250D01*
G75*
G02*
X293892Y219000I0J-3850D01*
G01*
X299374D01*
X290250Y231600D02*
G75*
G02*
Y223900I0J-3850D01*
G01*
X285250D01*
G75*
G02*
Y231600I0J3850D01*
G01*
X290250D01*
Y251600D02*
G75*
G02*
Y243900I0J-3850D01*
G01*
X285250D01*
G75*
G02*
Y251600I0J3850D01*
G01*
X290250D01*
X298500Y232000D02*
X307000D01*
Y223500D01*
X298500D01*
Y232000D01*
X30250Y176600D02*
G75*
G02*
X34100Y172750I0J-3850D01*
G01*
G75*
G02*
X30250Y168900I-3850J0D01*
G01*
G75*
G02*
X26400Y172750I0J3850D01*
G01*
G75*
G02*
X30250Y176600I3850J0D01*
G01*
X97250Y119000D02*
G75*
G02*
X103500Y117750I3000J-1250D01*
G01*
G75*
G02*
X97250Y116500I-3250J0D01*
G01*
X45250D01*
G75*
G02*
X44000Y117750I0J1250D01*
G01*
Y119441D01*
G75*
G02*
X41713Y122750I1250J3309D01*
G01*
G75*
G02*
X48787I3537J0D01*
G01*
G75*
G02*
X46500Y119441I-3537J0D01*
G01*
Y119000D01*
X71878D01*
G75*
G02*
Y126500I872J3750D01*
G01*
X36500D01*
Y126059D01*
G75*
G02*
X38787Y122750I-1250J-3309D01*
G01*
G75*
G02*
X31713I-3537J0D01*
G01*
G75*
G02*
X34000Y126059I3537J0D01*
G01*
Y127750D01*
G75*
G02*
X34668Y128856I1250J0D01*
G01*
G75*
G02*
X31313Y132750I582J3894D01*
G01*
G75*
G02*
X39187I3937J0D01*
G01*
G75*
G02*
X36449Y129000I-3937J0D01*
G01*
X92250D01*
G75*
G02*
X98500Y127750I3000J-1250D01*
G01*
G75*
G02*
X92250Y126500I-3250J0D01*
G01*
X87000D01*
Y119000D01*
X97250D01*
X166874Y24000D02*
G75*
G02*
X173850Y22750I3376J-1250D01*
G01*
G75*
G02*
X166874Y21500I-3600J0D01*
G01*
X105750D01*
G75*
G02*
X99500Y22750I-3000J1250D01*
G01*
G75*
G02*
X105750Y24000I3250J0D01*
G01*
X166874D01*
X130250Y96600D02*
G75*
G02*
Y88900I0J-3850D01*
G01*
X125250D01*
G75*
G02*
X121608Y91500I0J3850D01*
G01*
X105750D01*
G75*
G02*
X99500Y92750I-3000J1250D01*
G01*
G75*
G02*
X105750Y94000I3250J0D01*
G01*
X121608D01*
G75*
G02*
X125250Y96600I3642J-1250D01*
G01*
X130250D01*
X166650Y32750D02*
G75*
G02*
X173850I3600J0D01*
G01*
G75*
G02*
X168747Y29479I-3600J0D01*
G01*
X166135Y26868D01*
G75*
G02*
X165250Y26500I-885J882D01*
G01*
X115750D01*
G75*
G02*
X109500Y27750I-3000J1250D01*
G01*
G75*
G02*
X115750Y29000I3250J0D01*
G01*
X123250D01*
G75*
G02*
X125250Y37000I2000J3750D01*
G01*
X130250D01*
G75*
G02*
X132250Y29000I0J-4250D01*
G01*
X153250D01*
G75*
G02*
X155250Y37000I2000J3750D01*
G01*
X160250D01*
G75*
G02*
X162250Y29000I0J-4250D01*
G01*
X164732D01*
X166979Y31247D01*
G75*
G02*
X166650Y32750I3271J1503D01*
G01*
X130250Y86600D02*
G75*
G02*
Y78900I0J-3850D01*
G01*
X125250D01*
G75*
G02*
X121608Y81500I0J3850D01*
G01*
X115750D01*
G75*
G02*
X109500Y82750I-3000J1250D01*
G01*
G75*
G02*
X115750Y84000I3250J0D01*
G01*
X121608D01*
G75*
G02*
X125250Y86600I3642J-1250D01*
G01*
X130250D01*
Y47000D02*
G75*
G02*
Y38500I0J-4250D01*
G01*
X125250D01*
G75*
G02*
Y47000I0J4250D01*
G01*
X130250D01*
X299374Y64000D02*
G75*
G02*
X306350Y62750I3376J-1250D01*
G01*
G75*
G02*
X299374Y61500I-3600J0D01*
G01*
X293892D01*
G75*
G02*
X291124Y59000I-3642J1250D01*
G01*
X297750D01*
G75*
G02*
X298635Y58632I0J-1250D01*
G01*
X301247Y56021D01*
G75*
G02*
X306350Y52750I1503J-3271D01*
G01*
G75*
G02*
X299150I-3600J0D01*
G01*
G75*
G02*
X299479Y54253I3600J0D01*
G01*
X297232Y56500D01*
X291124D01*
G75*
G02*
X290250Y48900I-874J-3750D01*
G01*
X285250D01*
G75*
G02*
X281608Y51500I0J3850D01*
G01*
X278250D01*
G75*
G02*
X272245Y53987I-3000J1250D01*
G01*
X269732Y56500D01*
X261124D01*
G75*
G02*
X260250Y48900I-874J-3750D01*
G01*
X255250D01*
G75*
G02*
X254376Y56500I0J3850D01*
G01*
X163268D01*
X162582Y55814D01*
G75*
G02*
X161124Y49000I-2332J-3064D01*
G01*
X164732D01*
X166979Y51247D01*
G75*
G02*
X170250Y56350I3271J1503D01*
G01*
G75*
G02*
Y49150I0J-3600D01*
G01*
G75*
G02*
X168747Y49479I0J3600D01*
G01*
X166135Y46868D01*
G75*
G02*
X165250Y46500I-885J882D01*
G01*
X161124D01*
G75*
G02*
X162582Y39686I-874J-3750D01*
G01*
X163268Y39000D01*
X230250D01*
G75*
G02*
X231135Y38632I0J-1250D01*
G01*
X240768Y29000D01*
X253250D01*
G75*
G02*
X255250Y37000I2000J3750D01*
G01*
X260250D01*
G75*
G02*
X262250Y29000I0J-4250D01*
G01*
X264750D01*
G75*
G02*
X271000Y27750I3000J-1250D01*
G01*
G75*
G02*
X264750Y26500I-3250J0D01*
G01*
X240250D01*
G75*
G02*
X239365Y26868I0J1250D01*
G01*
X229732Y36500D01*
X162750D01*
G75*
G02*
X161865Y36868I0J1250D01*
G01*
X159833Y38900D01*
X155250D01*
G75*
G02*
X151608Y41500I0J3850D01*
G01*
X140750D01*
G75*
G02*
X134500Y42750I-3000J1250D01*
G01*
G75*
G02*
X140750Y44000I3250J0D01*
G01*
X151608D01*
G75*
G02*
X154376Y46500I3642J-1250D01*
G01*
X140250D01*
G75*
G02*
X139000Y47750I0J1250D01*
G01*
Y57232D01*
X134732Y61500D01*
X133892D01*
G75*
G02*
X130250Y58900I-3642J1250D01*
G01*
X125250D01*
G75*
G02*
Y66600I0J3850D01*
G01*
X130250D01*
G75*
G02*
X133892Y64000I0J-3850D01*
G01*
X135250D01*
G75*
G02*
X136135Y63632I0J-1250D01*
G01*
X141132Y58635D01*
G75*
G02*
X141500Y57750I-882J-885D01*
G01*
Y49000D01*
X154376D01*
G75*
G02*
X151608Y51500I874J3750D01*
G01*
X148250D01*
G75*
G02*
X142000Y52750I-3000J1250D01*
G01*
G75*
G02*
X148250Y54000I3250J0D01*
G01*
X151608D01*
G75*
G02*
X155250Y56600I3642J-1250D01*
G01*
X159833D01*
X161865Y58632D01*
G75*
G02*
X162750Y59000I885J-882D01*
G01*
X254376D01*
G75*
G02*
X255250Y66600I874J3750D01*
G01*
X260250D01*
G75*
G02*
X263892Y64000I0J-3850D01*
G01*
X275250D01*
G75*
G02*
X276135Y63632I0J-1250D01*
G01*
X280768Y59000D01*
X284376D01*
G75*
G02*
X285250Y66600I874J3750D01*
G01*
X290250D01*
G75*
G02*
X293892Y64000I0J-3850D01*
G01*
X299374D01*
X334750Y49000D02*
G75*
G02*
X341000Y47750I3000J-1250D01*
G01*
G75*
G02*
X334750Y46500I-3250J0D01*
G01*
X308268D01*
X306021Y44253D01*
G75*
G02*
X302750Y39150I-3271J-1503D01*
G01*
G75*
G02*
Y46350I0J3600D01*
G01*
G75*
G02*
X304253Y46021I0J-3600D01*
G01*
X306865Y48632D01*
G75*
G02*
X307750Y49000I885J-882D01*
G01*
X334750D01*
X319542Y24000D02*
G75*
G02*
X326238Y22632I3208J-1368D01*
G01*
G75*
G02*
X319451Y21500I-3488J0D01*
G01*
X316348D01*
Y19152D01*
X309152D01*
Y26348D01*
X316348D01*
Y24000D01*
X319542D01*
X319262Y12632D02*
G75*
G02*
X326238I3488J0D01*
G01*
G75*
G02*
X319262I-3488J0D01*
G01*
X319542Y34000D02*
G75*
G02*
X326238Y32632I3208J-1368D01*
G01*
G75*
G02*
X319451Y31500I-3488J0D01*
G01*
X316348D01*
Y29152D01*
X309152D01*
Y36348D01*
X316348D01*
Y34000D01*
X319542D01*
Y44000D02*
G75*
G02*
X326238Y42632I3208J-1368D01*
G01*
G75*
G02*
X319451Y41500I-3488J0D01*
G01*
X316348D01*
Y39152D01*
X309152D01*
Y46348D01*
X316348D01*
Y44000D01*
X319542D01*
X187042Y54000D02*
G75*
G02*
X193738Y52632I3208J-1368D01*
G01*
G75*
G02*
X186951Y51500I-3488J0D01*
G01*
X183848D01*
Y49152D01*
X176652D01*
Y56348D01*
X183848D01*
Y54000D01*
X187042D01*
X260250Y47000D02*
G75*
G02*
Y38500I0J-4250D01*
G01*
X255250D01*
G75*
G02*
Y47000I0J4250D01*
G01*
X260250D01*
X301247Y36021D02*
G75*
G02*
X306350Y32750I1503J-3271D01*
G01*
G75*
G02*
X299150I-3600J0D01*
G01*
G75*
G02*
X299479Y34253I3600J0D01*
G01*
X297232Y36500D01*
X292250D01*
G75*
G02*
X290250Y28500I-2000J-3750D01*
G01*
X285250D01*
G75*
G02*
X281500Y34750I0J4250D01*
G01*
G75*
G02*
X277000Y37750I-1250J3000D01*
G01*
G75*
G02*
X282310Y40264I3250J0D01*
G01*
G75*
G02*
X281608Y41500I2941J2486D01*
G01*
X270750D01*
G75*
G02*
X264500Y42750I-3000J1250D01*
G01*
G75*
G02*
X270750Y44000I3250J0D01*
G01*
X281608D01*
G75*
G02*
X285250Y46600I3642J-1250D01*
G01*
X290250D01*
G75*
G02*
X291124Y39000I0J-3850D01*
G01*
X297750D01*
G75*
G02*
X298635Y38632I0J-1250D01*
G01*
X301247Y36021D01*
X197250Y49000D02*
G75*
G02*
X203500Y47750I3000J-1250D01*
G01*
G75*
G02*
X197250Y46500I-3250J0D01*
G01*
X175768D01*
X173521Y44253D01*
G75*
G02*
X170250Y39150I-3271J-1503D01*
G01*
G75*
G02*
Y46350I0J3600D01*
G01*
G75*
G02*
X171753Y46021I0J-3600D01*
G01*
X174365Y48632D01*
G75*
G02*
X175250Y49000I885J-882D01*
G01*
X197250D01*
X187042Y44000D02*
G75*
G02*
X193738Y42632I3208J-1368D01*
G01*
G75*
G02*
X186951Y41500I-3488J0D01*
G01*
X183848D01*
Y39152D01*
X176652D01*
Y46348D01*
X183848D01*
Y44000D01*
X187042D01*
X299374Y24000D02*
G75*
G02*
X306350Y22750I3376J-1250D01*
G01*
G75*
G02*
X299374Y21500I-3600J0D01*
G01*
X243250D01*
G75*
G02*
X237000Y22750I-3000J1250D01*
G01*
G75*
G02*
X243250Y24000I3250J0D01*
G01*
X299374D01*
X187042D02*
G75*
G02*
X193738Y22632I3208J-1368D01*
G01*
G75*
G02*
X186951Y21500I-3488J0D01*
G01*
X183848D01*
Y19152D01*
X176652D01*
Y26348D01*
X183848D01*
Y24000D01*
X187042D01*
X186762Y12632D02*
G75*
G02*
X193738I3488J0D01*
G01*
G75*
G02*
X186762I-3488J0D01*
G01*
X187042Y34000D02*
G75*
G02*
X193738Y32632I3208J-1368D01*
G01*
G75*
G02*
X186951Y31500I-3488J0D01*
G01*
X183848D01*
Y29152D01*
X176652D01*
Y36348D01*
X183848D01*
Y34000D01*
X187042D01*
X130250Y56600D02*
G75*
G02*
Y48900I0J-3850D01*
G01*
X125250D01*
G75*
G02*
Y56600I0J3850D01*
G01*
X130250D01*
X197250Y69000D02*
G75*
G02*
X203500Y67750I3000J-1250D01*
G01*
G75*
G02*
X197250Y66500I-3250J0D01*
G01*
X161124D01*
G75*
G02*
X163892Y64000I-874J-3750D01*
G01*
X166874D01*
G75*
G02*
X173850Y62750I3376J-1250D01*
G01*
G75*
G02*
X166874Y61500I-3600J0D01*
G01*
X163892D01*
G75*
G02*
X160250Y58900I-3642J1250D01*
G01*
X155250D01*
G75*
G02*
X154376Y66500I0J3850D01*
G01*
X135250D01*
G75*
G02*
X134365Y66868I0J1250D01*
G01*
X131941Y69291D01*
G75*
G02*
X130250Y68900I-1691J3459D01*
G01*
X125250D01*
G75*
G02*
Y76600I0J3850D01*
G01*
X130250D01*
G75*
G02*
X133709Y71059I0J-3850D01*
G01*
X135768Y69000D01*
X154376D01*
G75*
G02*
X155250Y76600I874J3750D01*
G01*
X160250D01*
G75*
G02*
X163892Y74000I0J-3850D01*
G01*
X166874D01*
G75*
G02*
X173850Y72750I3376J-1250D01*
G01*
G75*
G02*
X166874Y71500I-3600J0D01*
G01*
X163892D01*
G75*
G02*
X161124Y69000I-3642J1250D01*
G01*
X197250D01*
X186951Y64000D02*
G75*
G02*
X193738Y62868I3299J-1132D01*
G01*
G75*
G02*
X187042Y61500I-3488J0D01*
G01*
X183848D01*
Y59152D01*
X176652D01*
Y66348D01*
X183848D01*
Y64000D01*
X186951D01*
X41313Y92750D02*
G75*
G02*
X49187I3937J0D01*
G01*
G75*
G02*
X41313I-3937J0D01*
G01*
X41713Y102750D02*
G75*
G02*
X48787I3537J0D01*
G01*
G75*
G02*
X41713I-3537J0D01*
G01*
X87250Y114000D02*
G75*
G02*
X93500Y112750I3000J-1250D01*
G01*
G75*
G02*
X87250Y111500I-3250J0D01*
G01*
X48559D01*
G75*
G02*
X41713Y112750I-3309J1250D01*
G01*
G75*
G02*
X48559Y114000I3537J0D01*
G01*
X87250D01*
X87400Y85600D02*
X93100D01*
Y79900D01*
X87400D01*
Y85600D01*
X67400Y82750D02*
G75*
G02*
X73100I2850J0D01*
G01*
G75*
G02*
X67400I-2850J0D01*
G01*
X72750Y109100D02*
G75*
G02*
X76600Y105250I0J-3850D01*
G01*
G75*
G02*
X72750Y101400I-3850J0D01*
G01*
G75*
G02*
X68900Y105250I0J3850D01*
G01*
G75*
G02*
X72750Y109100I3850J0D01*
G01*
X77000Y92750D02*
G75*
G02*
X83500I3250J0D01*
G01*
G75*
G02*
X77000I-3250J0D01*
G01*
X78500Y105250D02*
G75*
G02*
X87000I4250J0D01*
G01*
G75*
G02*
X78500I-4250J0D01*
G01*
X86283Y25250D02*
G75*
G02*
X94217I3967J0D01*
G01*
G75*
G02*
X86283I-3967J0D01*
G01*
X26400Y190250D02*
G75*
G02*
X34100I3850J0D01*
G01*
G75*
G02*
X26400I-3850J0D01*
G01*
X37750Y211600D02*
G75*
G02*
Y203900I0J-3850D01*
G01*
X32750D01*
G75*
G02*
Y211600I0J3850D01*
G01*
X37750D01*
X36000Y172750D02*
G75*
G02*
X44500I4250J0D01*
G01*
G75*
G02*
X36000I-4250J0D01*
G01*
X71301Y141100D02*
G75*
G02*
X76400Y137750I1449J-3350D01*
G01*
G75*
G02*
X71301Y134400I-3650J0D01*
G01*
X49138D01*
X48606Y133868D01*
G75*
G02*
X48787Y132750I-3356J-1119D01*
G01*
G75*
G02*
X41713I-3537J0D01*
G01*
G75*
G02*
X41900Y133885I3538J0D01*
G01*
Y135250D01*
G75*
G02*
X42883Y137620I3350J0D01*
G01*
X45380Y140117D01*
G75*
G02*
X47750Y141100I2371J-2367D01*
G01*
X71301D01*
X36000Y194500D02*
X44500D01*
Y186000D01*
X36000D01*
Y194500D01*
X88831Y223554D02*
G75*
G02*
X93738Y220368I1419J-3186D01*
G01*
G75*
G02*
X86762I-3488J0D01*
G01*
G75*
G02*
X86951Y221500I3488J0D01*
G01*
X68624D01*
G75*
G02*
X67750Y213900I-874J-3750D01*
G01*
X62750D01*
G75*
G02*
X59108Y216500I0J3850D01*
G01*
X41392D01*
G75*
G02*
X37750Y213900I-3642J1250D01*
G01*
X32750D01*
G75*
G02*
Y221600I0J3850D01*
G01*
X37750D01*
G75*
G02*
X41392Y219000I0J-3850D01*
G01*
X59108D01*
G75*
G02*
X61876Y221500I3642J-1250D01*
G01*
X47750D01*
G75*
G02*
X46865Y221868I0J1250D01*
G01*
X42232Y226500D01*
X41392D01*
G75*
G02*
X37750Y223900I-3642J1250D01*
G01*
X32750D01*
G75*
G02*
Y231600I0J3850D01*
G01*
X37750D01*
G75*
G02*
X41392Y229000I0J-3850D01*
G01*
X42750D01*
G75*
G02*
X43635Y228632I0J-1250D01*
G01*
X48268Y224000D01*
X61876D01*
G75*
G02*
X62750Y231600I874J3750D01*
G01*
X67750D01*
G75*
G02*
X68624Y224000I0J-3850D01*
G01*
X87868D01*
G75*
G02*
X88754Y223632I0J-1250D01*
G01*
X88831Y223554D01*
X202250Y189000D02*
G75*
G02*
X208500Y187750I3000J-1250D01*
G01*
G75*
G02*
X202250Y186500I-3250J0D01*
G01*
X161124D01*
G75*
G02*
X163892Y184000I-874J-3750D01*
G01*
X166874D01*
G75*
G02*
X173850Y182750I3376J-1250D01*
G01*
G75*
G02*
X166874Y181500I-3600J0D01*
G01*
X163892D01*
G75*
G02*
X161124Y179000I-3642J1250D01*
G01*
X165250D01*
G75*
G02*
X166135Y178632I0J-1250D01*
G01*
X168747Y176021D01*
G75*
G02*
X173850Y172750I1503J-3271D01*
G01*
G75*
G02*
X166650I-3600J0D01*
G01*
G75*
G02*
X166979Y174253I3600J0D01*
G01*
X164732Y176500D01*
X161124D01*
G75*
G02*
X160250Y168900I-874J-3750D01*
G01*
X155250D01*
G75*
G02*
X151608Y171500I0J3850D01*
G01*
X148250D01*
G75*
G02*
X144013Y169745I-3000J1250D01*
G01*
X141135Y166868D01*
G75*
G02*
X140250Y166500I-885J882D01*
G01*
X132250D01*
G75*
G02*
X130250Y158500I-2000J-3750D01*
G01*
X125250D01*
G75*
G02*
X123250Y166500I0J4250D01*
G01*
X78250D01*
G75*
G02*
X72000Y167750I-3000J1250D01*
G01*
G75*
G02*
X78250Y169000I3250J0D01*
G01*
X124376D01*
G75*
G02*
X125250Y176600I874J3750D01*
G01*
X130250D01*
G75*
G02*
X131124Y169000I0J-3850D01*
G01*
X139732D01*
X142245Y171513D01*
G75*
G02*
X148250Y174000I3005J1237D01*
G01*
X151608D01*
G75*
G02*
X154376Y176500I3642J-1250D01*
G01*
X150250D01*
G75*
G02*
X149365Y176868I0J1250D01*
G01*
X144732Y181500D01*
X133892D01*
G75*
G02*
X130250Y178900I-3642J1250D01*
G01*
X125250D01*
G75*
G02*
Y186600I0J3850D01*
G01*
X130250D01*
G75*
G02*
X133892Y184000I0J-3850D01*
G01*
X145250D01*
G75*
G02*
X146135Y183632I0J-1250D01*
G01*
X150768Y179000D01*
X154376D01*
G75*
G02*
Y186500I874J3750D01*
G01*
X137750D01*
G75*
G02*
X136865Y186868I0J1250D01*
G01*
X133314Y190418D01*
G75*
G02*
X130250Y188900I-3064J2332D01*
G01*
X125250D01*
G75*
G02*
Y196600I0J3850D01*
G01*
X130250D01*
G75*
G02*
X134075Y193193I0J-3850D01*
G01*
X138268Y189000D01*
X154376D01*
G75*
G02*
X155250Y196600I874J3750D01*
G01*
X160250D01*
G75*
G02*
X163892Y194000I0J-3850D01*
G01*
X166874D01*
G75*
G02*
X173850Y192750I3376J-1250D01*
G01*
G75*
G02*
X166874Y191500I-3600J0D01*
G01*
X163892D01*
G75*
G02*
X161124Y189000I-3642J1250D01*
G01*
X202250D01*
X160250Y166600D02*
G75*
G02*
Y158900I0J-3850D01*
G01*
X155250D01*
G75*
G02*
X151608Y161500I0J3850D01*
G01*
X140750D01*
G75*
G02*
X134500Y162750I-3000J1250D01*
G01*
G75*
G02*
X140750Y164000I3250J0D01*
G01*
X151608D01*
G75*
G02*
X155250Y166600I3642J-1250D01*
G01*
X160250D01*
X187042Y174000D02*
G75*
G02*
X193738Y172632I3208J-1368D01*
G01*
G75*
G02*
X186951Y171500I-3488J0D01*
G01*
X183848D01*
Y169152D01*
X176652D01*
Y176348D01*
X183848D01*
Y174000D01*
X187042D01*
X186951Y184000D02*
G75*
G02*
X193738Y182868I3299J-1132D01*
G01*
G75*
G02*
X187042Y181500I-3488J0D01*
G01*
X183848D01*
Y179152D01*
X176652D01*
Y186348D01*
X183848D01*
Y184000D01*
X186951D01*
X166650Y152750D02*
G75*
G02*
X173850I3600J0D01*
G01*
G75*
G02*
X166650I-3600J0D01*
G01*
X202250Y169000D02*
G75*
G02*
X208500Y167750I3000J-1250D01*
G01*
G75*
G02*
X202250Y166500I-3250J0D01*
G01*
X175768D01*
X173521Y164253D01*
G75*
G02*
X170250Y159150I-3271J-1503D01*
G01*
G75*
G02*
Y166350I0J3600D01*
G01*
G75*
G02*
X171753Y166021I0J-3600D01*
G01*
X174365Y168632D01*
G75*
G02*
X175250Y169000I885J-882D01*
G01*
X202250D01*
X176400Y132750D02*
G75*
G02*
X184100I3850J0D01*
G01*
G75*
G02*
X176400I-3850J0D01*
G01*
X187042Y144000D02*
G75*
G02*
X193738Y142632I3208J-1368D01*
G01*
G75*
G02*
X186951Y141500I-3488J0D01*
G01*
X183848D01*
Y139152D01*
X176652D01*
Y146348D01*
X183848D01*
Y144000D01*
X187042D01*
X186762Y132632D02*
G75*
G02*
X193738I3488J0D01*
G01*
G75*
G02*
X186762I-3488J0D01*
G01*
X187042Y154000D02*
G75*
G02*
X193738Y152632I3208J-1368D01*
G01*
G75*
G02*
X186951Y151500I-3488J0D01*
G01*
X183848D01*
Y149152D01*
X176652D01*
Y156348D01*
X183848D01*
Y154000D01*
X187042D01*
Y164000D02*
G75*
G02*
X193738Y162632I3208J-1368D01*
G01*
G75*
G02*
X186951Y161500I-3488J0D01*
G01*
X183848D01*
Y159152D01*
X176652D01*
Y166348D01*
X183848D01*
Y164000D01*
X187042D01*
X292250Y139000D02*
G75*
G02*
X298500Y137750I3000J-1250D01*
G01*
G75*
G02*
X292250Y136500I-3250J0D01*
G01*
X208250D01*
G75*
G02*
X202000Y137750I-3000J1250D01*
G01*
G75*
G02*
X208250Y139000I3250J0D01*
G01*
X292250D01*
X298500Y142000D02*
X307000D01*
Y133500D01*
X298500D01*
Y142000D01*
X260250Y116600D02*
G75*
G02*
Y108900I0J-3850D01*
G01*
X255250D01*
G75*
G02*
Y116600I0J3850D01*
G01*
X260250D01*
Y126600D02*
G75*
G02*
Y118900I0J-3850D01*
G01*
X255250D01*
G75*
G02*
Y126600I0J3850D01*
G01*
X260250D01*
X334750Y79000D02*
G75*
G02*
X341000Y77750I3000J-1250D01*
G01*
G75*
G02*
X334750Y76500I-3250J0D01*
G01*
X291124D01*
G75*
G02*
X293892Y74000I-874J-3750D01*
G01*
X299374D01*
G75*
G02*
X306350Y72750I3376J-1250D01*
G01*
G75*
G02*
X299374Y71500I-3600J0D01*
G01*
X293892D01*
G75*
G02*
X290250Y68900I-3642J1250D01*
G01*
X285250D01*
G75*
G02*
X284376Y76500I0J3850D01*
G01*
X265768D01*
X263709Y74441D01*
G75*
G02*
X260250Y68900I-3459J-1691D01*
G01*
X255250D01*
G75*
G02*
Y76600I0J3850D01*
G01*
X260250D01*
G75*
G02*
X261941Y76209I0J-3851D01*
G01*
X264365Y78632D01*
G75*
G02*
X265250Y79000I885J-882D01*
G01*
X284376D01*
G75*
G02*
X282310Y85236I874J3750D01*
G01*
G75*
G02*
X279013Y84745I-2060J2514D01*
G01*
X276135Y81868D01*
G75*
G02*
X275250Y81500I-885J882D01*
G01*
X263892D01*
G75*
G02*
X260250Y78900I-3642J1250D01*
G01*
X255250D01*
G75*
G02*
Y86600I0J3850D01*
G01*
X260250D01*
G75*
G02*
X263892Y84000I0J-3850D01*
G01*
X274732D01*
X277245Y86513D01*
G75*
G02*
X282310Y90264I3005J1237D01*
G01*
G75*
G02*
X285250Y96600I2940J2486D01*
G01*
X290250D01*
G75*
G02*
X293892Y94000I0J-3850D01*
G01*
X299374D01*
G75*
G02*
X306350Y92750I3376J-1250D01*
G01*
G75*
G02*
X299374Y91500I-3600J0D01*
G01*
X293892D01*
G75*
G02*
X290250Y88900I-3642J1250D01*
G01*
X285250D01*
G75*
G02*
X282764Y89810I0J3851D01*
G01*
G75*
G02*
Y85690I-2514J-2060D01*
G01*
G75*
G02*
X285250Y86600I2486J-2941D01*
G01*
X290250D01*
G75*
G02*
X293892Y84000I0J-3850D01*
G01*
X299374D01*
G75*
G02*
X306350Y82750I3376J-1250D01*
G01*
G75*
G02*
X299374Y81500I-3600J0D01*
G01*
X293892D01*
G75*
G02*
X291124Y79000I-3642J1250D01*
G01*
X334750D01*
X319542Y54000D02*
G75*
G02*
X326238Y52632I3208J-1368D01*
G01*
G75*
G02*
X319451Y51500I-3488J0D01*
G01*
X316348D01*
Y49152D01*
X309152D01*
Y56348D01*
X316348D01*
Y54000D01*
X319542D01*
X319451Y64000D02*
G75*
G02*
X326238Y62868I3299J-1132D01*
G01*
G75*
G02*
X319542Y61500I-3488J0D01*
G01*
X316348D01*
Y59152D01*
X309152D01*
Y66348D01*
X316348D01*
Y64000D01*
X319451D01*
Y74000D02*
G75*
G02*
X326238Y72868I3299J-1132D01*
G01*
G75*
G02*
X319542Y71500I-3488J0D01*
G01*
X316348D01*
Y69152D01*
X309152D01*
Y76348D01*
X316348D01*
Y74000D01*
X319451D01*
X290250Y117000D02*
G75*
G02*
Y108500I0J-4250D01*
G01*
X285250D01*
G75*
G02*
Y117000I0J4250D01*
G01*
X290250D01*
Y106600D02*
G75*
G02*
Y98900I0J-3850D01*
G01*
X285250D01*
G75*
G02*
Y106600I0J3850D01*
G01*
X290250D01*
Y126600D02*
G75*
G02*
Y118900I0J-3850D01*
G01*
X285250D01*
G75*
G02*
Y126600I0J3850D01*
G01*
X290250D01*
X160250Y157000D02*
G75*
G02*
Y148500I0J-4250D01*
G01*
X155250D01*
G75*
G02*
Y157000I0J4250D01*
G01*
X160250D01*
X130250D02*
G75*
G02*
Y148500I0J-4250D01*
G01*
X125250D01*
G75*
G02*
Y157000I0J4250D01*
G01*
X130250D01*
X102250Y211500D02*
G75*
G02*
X108500Y210250I3000J-1250D01*
G01*
G75*
G02*
X102250Y209000I-3250J0D01*
G01*
X93458D01*
G75*
G02*
X86762Y210368I-3208J1368D01*
G01*
G75*
G02*
X93549Y211500I3488J0D01*
G01*
X102250D01*
X67750Y211600D02*
G75*
G02*
Y203900I0J-3850D01*
G01*
X62750D01*
G75*
G02*
Y211600I0J3850D01*
G01*
X67750D01*
X134750Y146500D02*
G75*
G02*
X141000Y145250I3000J-1250D01*
G01*
G75*
G02*
X134750Y144000I-3250J0D01*
G01*
X85250D01*
G75*
G02*
X84365Y144368I0J1250D01*
G01*
X72232Y156500D01*
X68250D01*
G75*
G02*
X62000Y157750I-3000J1250D01*
G01*
G75*
G02*
X68250Y159000I3250J0D01*
G01*
X72750D01*
G75*
G02*
X73635Y158632I0J-1250D01*
G01*
X85768Y146500D01*
X134750D01*
X166874Y144000D02*
G75*
G02*
X173850Y142750I3376J-1250D01*
G01*
G75*
G02*
X166874Y141500I-3600J0D01*
G01*
X156500D01*
Y140250D01*
G75*
G02*
X155250Y139000I-1250J0D01*
G01*
X115750D01*
G75*
G02*
X109500Y140250I-3000J1250D01*
G01*
G75*
G02*
X115750Y141500I3250J0D01*
G01*
X154000D01*
Y142750D01*
G75*
G02*
X155250Y144000I1250J0D01*
G01*
X166874D01*
X166000Y137000D02*
X174500D01*
Y128500D01*
X166000D01*
Y137000D01*
X260250Y106600D02*
G75*
G02*
Y98900I0J-3850D01*
G01*
X255250D01*
G75*
G02*
X251608Y101500I0J3850D01*
G01*
X200768D01*
X196135Y96868D01*
G75*
G02*
X195250Y96500I-885J882D01*
G01*
X185250D01*
G75*
G02*
X184365Y96868I0J1250D01*
G01*
X179732Y101500D01*
X163892D01*
G75*
G02*
X160250Y98900I-3642J1250D01*
G01*
X155250D01*
G75*
G02*
X154376Y106500I0J3850D01*
G01*
X131124D01*
G75*
G02*
X130250Y98900I-874J-3750D01*
G01*
X125250D01*
G75*
G02*
Y106600I0J3850D01*
G01*
X126500D01*
Y107750D01*
G75*
G02*
X127259Y108900I1250J0D01*
G01*
X125250D01*
G75*
G02*
Y116600I0J3850D01*
G01*
X130250D01*
G75*
G02*
X131124Y109000I0J-3850D01*
G01*
X153250D01*
G75*
G02*
X155250Y117000I2000J3750D01*
G01*
X160250D01*
G75*
G02*
X162250Y109000I0J-4250D01*
G01*
X202250D01*
G75*
G02*
X208500Y107750I3000J-1250D01*
G01*
G75*
G02*
X202250Y106500I-3250J0D01*
G01*
X161124D01*
G75*
G02*
X163892Y104000I-874J-3750D01*
G01*
X180250D01*
G75*
G02*
X181135Y103632I0J-1250D01*
G01*
X185768Y99000D01*
X194732D01*
X199365Y103632D01*
G75*
G02*
X200250Y104000I885J-882D01*
G01*
X251608D01*
G75*
G02*
X255250Y106600I3642J-1250D01*
G01*
X260250D01*
X186762Y102868D02*
G75*
G02*
X193738I3488J0D01*
G01*
G75*
G02*
X186762I-3488J0D01*
G01*
X260250Y96600D02*
G75*
G02*
Y88900I0J-3850D01*
G01*
X255250D01*
G75*
G02*
X251608Y91500I0J3850D01*
G01*
X243250D01*
G75*
G02*
X237000Y92750I-3000J1250D01*
G01*
G75*
G02*
X243250Y94000I3250J0D01*
G01*
X251608D01*
G75*
G02*
X255250Y96600I3642J-1250D01*
G01*
X260250D01*
X186951Y74000D02*
G75*
G02*
X193738Y72868I3299J-1132D01*
G01*
G75*
G02*
X187042Y71500I-3488J0D01*
G01*
X183848D01*
Y69152D01*
X176652D01*
Y76348D01*
X183848D01*
Y74000D01*
X186951D01*
Y84000D02*
G75*
G02*
X193738Y82868I3299J-1132D01*
G01*
G75*
G02*
X187042Y81500I-3488J0D01*
G01*
X183848D01*
Y79152D01*
X176652D01*
Y86348D01*
X183848D01*
Y84000D01*
X186951D01*
Y94000D02*
G75*
G02*
X193738Y92868I3299J-1132D01*
G01*
G75*
G02*
X187042Y91500I-3488J0D01*
G01*
X183848D01*
Y89152D01*
X176652D01*
Y96348D01*
X183848D01*
Y94000D01*
X186951D01*
X166874Y84000D02*
G75*
G02*
X173850Y82750I3376J-1250D01*
G01*
G75*
G02*
X166874Y81500I-3600J0D01*
G01*
X163892D01*
G75*
G02*
X160250Y78900I-3642J1250D01*
G01*
X155250D01*
G75*
G02*
Y86600I0J3850D01*
G01*
X160250D01*
G75*
G02*
X163892Y84000I0J-3850D01*
G01*
X166874D01*
Y94000D02*
G75*
G02*
X173850Y92750I3376J-1250D01*
G01*
G75*
G02*
X166874Y91500I-3600J0D01*
G01*
X163892D01*
G75*
G02*
X160250Y88900I-3642J1250D01*
G01*
X155250D01*
G75*
G02*
Y96600I0J3850D01*
G01*
X160250D01*
G75*
G02*
X163892Y94000I0J-3850D01*
G01*
X166874D01*
X130250Y126600D02*
G75*
G02*
Y118900I0J-3850D01*
G01*
X125250D01*
G75*
G02*
Y126600I0J3850D01*
G01*
X130250D01*
X160250D02*
G75*
G02*
Y118900I0J-3850D01*
G01*
X155250D01*
G75*
G02*
Y126600I0J3850D01*
G01*
X160250D01*
X37750Y241600D02*
G75*
G02*
Y233900I0J-3850D01*
G01*
X32750D01*
G75*
G02*
Y241600I0J3850D01*
G01*
X37750D01*
Y261600D02*
G75*
G02*
Y253900I0J-3850D01*
G01*
X36500D01*
Y251600D01*
X37750D01*
G75*
G02*
Y243900I0J-3850D01*
G01*
X32750D01*
G75*
G02*
Y251600I0J3850D01*
G01*
X34000D01*
Y253900D01*
X32750D01*
G75*
G02*
Y261600I0J3850D01*
G01*
X37750D01*
X102250Y274000D02*
G75*
G02*
X108500Y272750I3000J-1250D01*
G01*
G75*
G02*
X102250Y271500I-3250J0D01*
G01*
X68624D01*
G75*
G02*
X67750Y263900I-874J-3750D01*
G01*
X62750D01*
G75*
G02*
X61876Y271500I0J3850D01*
G01*
X54000D01*
Y267750D01*
G75*
G02*
X52750Y266500I-1250J0D01*
G01*
X41392D01*
G75*
G02*
X37750Y263900I-3642J1250D01*
G01*
X32750D01*
G75*
G02*
Y271600I0J3850D01*
G01*
X37750D01*
G75*
G02*
X41392Y269000I0J-3850D01*
G01*
X51500D01*
Y272750D01*
G75*
G02*
X52750Y274000I1250J0D01*
G01*
X102250D01*
X86762Y250368D02*
G75*
G02*
X93738I3488J0D01*
G01*
G75*
G02*
X86762I-3488J0D01*
G01*
X97250Y231500D02*
G75*
G02*
X103500Y230250I3000J-1250D01*
G01*
G75*
G02*
X97250Y229000I-3250J0D01*
G01*
X93458D01*
G75*
G02*
X86994Y229118I-3208J1368D01*
G01*
X77750D01*
G75*
G02*
X76500Y230368I0J1250D01*
G01*
Y236500D01*
X71392D01*
G75*
G02*
X67750Y233900I-3642J1250D01*
G01*
X62750D01*
G75*
G02*
Y241600I0J3850D01*
G01*
X67750D01*
G75*
G02*
X71392Y239000I0J-3850D01*
G01*
X77750D01*
G75*
G02*
X79000Y237750I0J-1250D01*
G01*
Y231618D01*
X86994D01*
G75*
G02*
X93549Y231500I3256J-1250D01*
G01*
X97250D01*
X144750Y251500D02*
G75*
G02*
X151000Y250250I3000J-1250D01*
G01*
G75*
G02*
X144750Y249000I-3250J0D01*
G01*
X120768D01*
X116135Y244368D01*
G75*
G02*
X115250Y244000I-885J882D01*
G01*
X80250D01*
G75*
G02*
X79365Y244368I0J1250D01*
G01*
X78987Y244745D01*
G75*
G02*
X74750Y246500I-1237J3005D01*
G01*
X71392D01*
G75*
G02*
X67750Y243900I-3642J1250D01*
G01*
X62750D01*
G75*
G02*
Y251600I0J3850D01*
G01*
X67750D01*
G75*
G02*
X71392Y249000I0J-3850D01*
G01*
X74750D01*
G75*
G02*
X80755Y246513I3000J-1250D01*
G01*
X80768Y246500D01*
X114732D01*
X119365Y251132D01*
G75*
G02*
X120250Y251500I885J-882D01*
G01*
X144750D01*
X260250Y231600D02*
G75*
G02*
Y223900I0J-3850D01*
G01*
X255250D01*
G75*
G02*
X251608Y226500I0J3850D01*
G01*
X181122D01*
G75*
G02*
X184100Y222750I-872J-3750D01*
G01*
G75*
G02*
X176400I-3850J0D01*
G01*
G75*
G02*
X179378Y226500I3850J0D01*
G01*
X174500D01*
Y218500D01*
X166000D01*
Y226500D01*
X161124D01*
G75*
G02*
X160250Y218900I-874J-3750D01*
G01*
X155250D01*
G75*
G02*
Y226600I0J3850D01*
G01*
X156500D01*
Y227750D01*
G75*
G02*
X156750Y228500I1250J0D01*
G01*
X155250D01*
G75*
G02*
Y237000I0J4250D01*
G01*
X160250D01*
G75*
G02*
X162250Y229000I0J-4250D01*
G01*
X251608D01*
G75*
G02*
X255250Y231600I3642J-1250D01*
G01*
X260250D01*
X186762Y222868D02*
G75*
G02*
X193738I3488J0D01*
G01*
G75*
G02*
X186762I-3488J0D01*
G01*
X299374Y149000D02*
G75*
G02*
X306350Y147750I3376J-1250D01*
G01*
G75*
G02*
X299374Y146500I-3600J0D01*
G01*
X240750D01*
G75*
G02*
X234500Y147750I-3000J1250D01*
G01*
G75*
G02*
X240750Y149000I3250J0D01*
G01*
X299374D01*
X260250Y221600D02*
G75*
G02*
Y213900I0J-3850D01*
G01*
X255250D01*
G75*
G02*
X251608Y216500I0J3850D01*
G01*
X240750D01*
G75*
G02*
X234500Y217750I-3000J1250D01*
G01*
G75*
G02*
X240750Y219000I3250J0D01*
G01*
X251608D01*
G75*
G02*
X255250Y221600I3642J-1250D01*
G01*
X260250D01*
Y211600D02*
G75*
G02*
Y203900I0J-3850D01*
G01*
X255250D01*
G75*
G02*
X251608Y206500I0J3850D01*
G01*
X248250D01*
G75*
G02*
X242000Y207750I-3000J1250D01*
G01*
G75*
G02*
X248250Y209000I3250J0D01*
G01*
X251608D01*
G75*
G02*
X255250Y211600I3642J-1250D01*
G01*
X260250D01*
Y201600D02*
G75*
G02*
Y193900I0J-3850D01*
G01*
X255250D01*
G75*
G02*
Y201600I0J3850D01*
G01*
X260250D01*
X186951Y194000D02*
G75*
G02*
X193738Y192868I3299J-1132D01*
G01*
G75*
G02*
X187042Y191500I-3488J0D01*
G01*
X183848D01*
Y189152D01*
X176652D01*
Y196348D01*
X183848D01*
Y194000D01*
X186951D01*
Y204000D02*
G75*
G02*
X193738Y202868I3299J-1132D01*
G01*
G75*
G02*
X187042Y201500I-3488J0D01*
G01*
X183848D01*
Y199152D01*
X176652D01*
Y206348D01*
X183848D01*
Y204000D01*
X186951D01*
Y214000D02*
G75*
G02*
X193738Y212868I3299J-1132D01*
G01*
G75*
G02*
X187042Y211500I-3488J0D01*
G01*
X183848D01*
Y209152D01*
X176652D01*
Y216348D01*
X183848D01*
Y214000D01*
X186951D01*
X166874D02*
G75*
G02*
X173850Y212750I3376J-1250D01*
G01*
G75*
G02*
X166874Y211500I-3600J0D01*
G01*
X163892D01*
G75*
G02*
X163190Y210264I-3642J1250D01*
G01*
G75*
G02*
X168500Y207750I2060J-2514D01*
G01*
G75*
G02*
X163190Y205236I-3250J0D01*
G01*
G75*
G02*
X163892Y204000I-2941J-2486D01*
G01*
X166874D01*
G75*
G02*
X173850Y202750I3376J-1250D01*
G01*
G75*
G02*
X166874Y201500I-3600J0D01*
G01*
X163892D01*
G75*
G02*
X160250Y198900I-3642J1250D01*
G01*
X155250D01*
G75*
G02*
X154376Y206500I0J3850D01*
G01*
X145768D01*
X141135Y201868D01*
G75*
G02*
X140250Y201500I-885J882D01*
G01*
X133892D01*
G75*
G02*
X130250Y198900I-3642J1250D01*
G01*
X125250D01*
G75*
G02*
Y206600I0J3850D01*
G01*
X130250D01*
G75*
G02*
X133892Y204000I0J-3850D01*
G01*
X139732D01*
X144365Y208632D01*
G75*
G02*
X145250Y209000I885J-882D01*
G01*
X154376D01*
G75*
G02*
X155250Y216600I874J3750D01*
G01*
X160250D01*
G75*
G02*
X163892Y214000I0J-3850D01*
G01*
X166874D01*
X130250Y216600D02*
G75*
G02*
Y208900I0J-3850D01*
G01*
X125250D01*
G75*
G02*
Y216600I0J3850D01*
G01*
X130250D01*
Y226600D02*
G75*
G02*
Y218900I0J-3850D01*
G01*
X125250D01*
G75*
G02*
Y226600I0J3850D01*
G01*
X130250D01*
Y236600D02*
G75*
G02*
Y228900I0J-3850D01*
G01*
X125250D01*
G75*
G02*
Y236600I0J3850D01*
G01*
X130250D01*
Y246600D02*
G75*
G02*
Y238900I0J-3850D01*
G01*
X125250D01*
G75*
G02*
Y246600I0J3850D01*
G01*
X130250D01*
X97250Y241500D02*
G75*
G02*
X103500Y240250I3000J-1250D01*
G01*
G75*
G02*
X97250Y239000I-3250J0D01*
G01*
X93458D01*
G75*
G02*
X86762Y240368I-3208J1368D01*
G01*
G75*
G02*
X93549Y241500I3488J0D01*
G01*
X97250D01*
X67750Y261600D02*
G75*
G02*
Y253900I0J-3850D01*
G01*
X62750D01*
G75*
G02*
Y261600I0J3850D01*
G01*
X67750D01*
X166874Y264000D02*
G75*
G02*
X173850Y262750I3376J-1250D01*
G01*
G75*
G02*
X166874Y261500I-3600J0D01*
G01*
X120750D01*
G75*
G02*
X114500Y262750I-3000J1250D01*
G01*
G75*
G02*
X120750Y264000I3250J0D01*
G01*
X166874D01*
X160250Y246600D02*
G75*
G02*
Y238900I0J-3850D01*
G01*
X155250D01*
G75*
G02*
Y246600I0J3850D01*
G01*
X160250D01*
X130250Y277000D02*
G75*
G02*
Y268500I0J-4250D01*
G01*
X125250D01*
G75*
G02*
Y277000I0J4250D01*
G01*
X130250D01*
X37750Y306600D02*
G75*
G02*
Y298900I0J-3850D01*
G01*
X32750D01*
G75*
G02*
Y306600I0J3850D01*
G01*
X37750D01*
Y316600D02*
G75*
G02*
Y308900I0J-3850D01*
G01*
X32750D01*
G75*
G02*
Y316600I0J3850D01*
G01*
X37750D01*
X107250Y329000D02*
G75*
G02*
X113500Y327750I3000J-1250D01*
G01*
G75*
G02*
X107250Y326500I-3250J0D01*
G01*
X68624D01*
G75*
G02*
X67750Y318900I-874J-3750D01*
G01*
X62750D01*
G75*
G02*
X61876Y326500I0J3850D01*
G01*
X38624D01*
G75*
G02*
X37750Y318900I-874J-3750D01*
G01*
X32750D01*
G75*
G02*
Y326600I0J3850D01*
G01*
X34000D01*
Y327750D01*
G75*
G02*
X34759Y328900I1250J0D01*
G01*
X32750D01*
G75*
G02*
Y336600I0J3850D01*
G01*
X34000D01*
Y338900D01*
X32750D01*
G75*
G02*
Y346600I0J3850D01*
G01*
X37750D01*
G75*
G02*
Y338900I0J-3850D01*
G01*
X36500D01*
Y336600D01*
X37750D01*
G75*
G02*
X38624Y329000I0J-3850D01*
G01*
X61876D01*
G75*
G02*
X62750Y336600I874J3750D01*
G01*
X67750D01*
G75*
G02*
X68624Y329000I0J-3850D01*
G01*
X107250D01*
X67750Y306600D02*
G75*
G02*
Y298900I0J-3850D01*
G01*
X62750D01*
G75*
G02*
Y306600I0J3850D01*
G01*
X67750D01*
Y316600D02*
G75*
G02*
Y308900I0J-3850D01*
G01*
X62750D01*
G75*
G02*
Y316600I0J3850D01*
G01*
X67750D01*
X82250Y364000D02*
G75*
G02*
X88500Y362750I3000J-1250D01*
G01*
G75*
G02*
X82250Y361500I-3250J0D01*
G01*
X36500D01*
Y356600D01*
X37750D01*
G75*
G02*
Y348900I0J-3850D01*
G01*
X32750D01*
G75*
G02*
Y356600I0J3850D01*
G01*
X34000D01*
Y362750D01*
G75*
G02*
X35250Y364000I1250J0D01*
G01*
X82250D01*
X67750Y346600D02*
G75*
G02*
Y338900I0J-3850D01*
G01*
X62750D01*
G75*
G02*
Y346600I0J3850D01*
G01*
X67750D01*
Y356600D02*
G75*
G02*
Y348900I0J-3850D01*
G01*
X62750D01*
G75*
G02*
Y356600I0J3850D01*
G01*
X67750D01*
X76000Y344500D02*
X84500D01*
Y336000D01*
X76000D01*
Y344500D01*
X80250Y354100D02*
G75*
G02*
X84100Y350250I0J-3850D01*
G01*
G75*
G02*
X80250Y346400I-3850J0D01*
G01*
G75*
G02*
X76400Y350250I0J3850D01*
G01*
G75*
G02*
X80250Y354100I3850J0D01*
G01*
X130250Y346600D02*
G75*
G02*
Y338900I0J-3850D01*
G01*
X125250D01*
G75*
G02*
X121608Y341500I0J3850D01*
G01*
X113250D01*
G75*
G02*
X107000Y342750I-3000J1250D01*
G01*
G75*
G02*
X113250Y344000I3250J0D01*
G01*
X121608D01*
G75*
G02*
X125250Y346600I3642J-1250D01*
G01*
X130250D01*
Y336600D02*
G75*
G02*
Y328900I0J-3850D01*
G01*
X125250D01*
G75*
G02*
X121608Y331500I0J3850D01*
G01*
X120750D01*
G75*
G02*
X114500Y332750I-3000J1250D01*
G01*
G75*
G02*
X120750Y334000I3250J0D01*
G01*
X121608D01*
G75*
G02*
X125250Y336600I3642J-1250D01*
G01*
X130250D01*
X197250Y309000D02*
G75*
G02*
X203500Y307750I3000J-1250D01*
G01*
G75*
G02*
X197250Y306500I-3250J0D01*
G01*
X161124D01*
G75*
G02*
X163892Y304000I-874J-3750D01*
G01*
X166874D01*
G75*
G02*
X173850Y302750I3376J-1250D01*
G01*
G75*
G02*
X166874Y301500I-3600J0D01*
G01*
X163892D01*
G75*
G02*
X161124Y299000I-3642J1250D01*
G01*
X165250D01*
G75*
G02*
X166135Y298632I0J-1250D01*
G01*
X168747Y296021D01*
G75*
G02*
X173850Y292750I1503J-3271D01*
G01*
G75*
G02*
X166650I-3600J0D01*
G01*
G75*
G02*
X166979Y294253I3600J0D01*
G01*
X164732Y296500D01*
X161124D01*
G75*
G02*
X160250Y288900I-874J-3750D01*
G01*
X155250D01*
G75*
G02*
X154376Y296500I0J3850D01*
G01*
X142750D01*
G75*
G02*
X141865Y296868I0J1250D01*
G01*
X137232Y301500D01*
X133892D01*
G75*
G02*
X130250Y298900I-3642J1250D01*
G01*
X125250D01*
G75*
G02*
Y306600I0J3850D01*
G01*
X130250D01*
G75*
G02*
X133892Y304000I0J-3850D01*
G01*
X137750D01*
G75*
G02*
X138635Y303632I0J-1250D01*
G01*
X143268Y299000D01*
X154376D01*
G75*
G02*
Y306500I874J3750D01*
G01*
X145250D01*
G75*
G02*
X144365Y306868I0J1250D01*
G01*
X139732Y311500D01*
X133892D01*
G75*
G02*
X130250Y308900I-3642J1250D01*
G01*
X125250D01*
G75*
G02*
Y316600I0J3850D01*
G01*
X130250D01*
G75*
G02*
X133892Y314000I0J-3850D01*
G01*
X140250D01*
G75*
G02*
X141135Y313632I0J-1250D01*
G01*
X145768Y309000D01*
X154376D01*
G75*
G02*
X155250Y316600I874J3750D01*
G01*
X160250D01*
G75*
G02*
X163892Y314000I0J-3850D01*
G01*
X166874D01*
G75*
G02*
X173850Y312750I3376J-1250D01*
G01*
G75*
G02*
X166874Y311500I-3600J0D01*
G01*
X163892D01*
G75*
G02*
X161124Y309000I-3642J1250D01*
G01*
X197250D01*
X187042Y294000D02*
G75*
G02*
X193738Y292632I3208J-1368D01*
G01*
G75*
G02*
X186951Y291500I-3488J0D01*
G01*
X183848D01*
Y289152D01*
X176652D01*
Y296348D01*
X183848D01*
Y294000D01*
X187042D01*
X186951Y304000D02*
G75*
G02*
X193738Y302868I3299J-1132D01*
G01*
G75*
G02*
X187042Y301500I-3488J0D01*
G01*
X183848D01*
Y299152D01*
X176652D01*
Y306348D01*
X183848D01*
Y304000D01*
X186951D01*
X197250Y289000D02*
G75*
G02*
X203500Y287750I3000J-1250D01*
G01*
G75*
G02*
X197250Y286500I-3250J0D01*
G01*
X175768D01*
X173521Y284253D01*
G75*
G02*
X170250Y279150I-3271J-1503D01*
G01*
G75*
G02*
Y286350I0J3600D01*
G01*
G75*
G02*
X171753Y286021I0J-3600D01*
G01*
X174365Y288632D01*
G75*
G02*
X175250Y289000I885J-882D01*
G01*
X197250D01*
X187042Y284000D02*
G75*
G02*
X193738Y282632I3208J-1368D01*
G01*
G75*
G02*
X186951Y281500I-3488J0D01*
G01*
X183848D01*
Y279152D01*
X176652D01*
Y286348D01*
X183848D01*
Y284000D01*
X187042D01*
X130250Y326600D02*
G75*
G02*
Y318900I0J-3850D01*
G01*
X125250D01*
G75*
G02*
Y326600I0J3850D01*
G01*
X130250D01*
Y356600D02*
G75*
G02*
Y348900I0J-3850D01*
G01*
X125250D01*
G75*
G02*
Y356600I0J3850D01*
G01*
X130250D01*
Y366600D02*
G75*
G02*
Y358900I0J-3850D01*
G01*
X125250D01*
G75*
G02*
Y366600I0J3850D01*
G01*
X130250D01*
X160250Y357000D02*
G75*
G02*
Y348500I0J-4250D01*
G01*
X155250D01*
G75*
G02*
Y357000I0J4250D01*
G01*
X160250D01*
X166874Y324000D02*
G75*
G02*
X173850Y322750I3376J-1250D01*
G01*
G75*
G02*
X166874Y321500I-3600J0D01*
G01*
X163892D01*
G75*
G02*
X160250Y318900I-3642J1250D01*
G01*
X155250D01*
G75*
G02*
Y326600I0J3850D01*
G01*
X160250D01*
G75*
G02*
X163892Y324000I0J-3850D01*
G01*
X166874D01*
Y334000D02*
G75*
G02*
X173850Y332750I3376J-1250D01*
G01*
G75*
G02*
X166874Y331500I-3600J0D01*
G01*
X163892D01*
G75*
G02*
X160250Y328900I-3642J1250D01*
G01*
X155250D01*
G75*
G02*
Y336600I0J3850D01*
G01*
X160250D01*
G75*
G02*
X163892Y334000I0J-3850D01*
G01*
X166874D01*
X260250Y346600D02*
G75*
G02*
Y338900I0J-3850D01*
G01*
X255250D01*
G75*
G02*
X251608Y341500I0J3850D01*
G01*
X196500D01*
Y337750D01*
G75*
G02*
X195250Y336500I-1250J0D01*
G01*
X185250D01*
G75*
G02*
X184000Y337750I0J1250D01*
G01*
Y341500D01*
X163892D01*
G75*
G02*
X160250Y338900I-3642J1250D01*
G01*
X155250D01*
G75*
G02*
Y346600I0J3850D01*
G01*
X160250D01*
G75*
G02*
X163892Y344000I0J-3850D01*
G01*
X185250D01*
G75*
G02*
X186500Y342750I0J-1250D01*
G01*
Y339000D01*
X194000D01*
Y342750D01*
G75*
G02*
X195250Y344000I1250J0D01*
G01*
X251608D01*
G75*
G02*
X255250Y346600I3642J-1250D01*
G01*
X260250D01*
Y336600D02*
G75*
G02*
Y328900I0J-3850D01*
G01*
X255250D01*
G75*
G02*
X251608Y331500I0J3850D01*
G01*
X248250D01*
G75*
G02*
X242000Y332750I-3000J1250D01*
G01*
G75*
G02*
X248250Y334000I3250J0D01*
G01*
X251608D01*
G75*
G02*
X255250Y336600I3642J-1250D01*
G01*
X260250D01*
Y296600D02*
G75*
G02*
Y288900I0J-3850D01*
G01*
X255250D01*
G75*
G02*
Y296600I0J3850D01*
G01*
X260250D01*
X332250Y309000D02*
G75*
G02*
X338500Y307750I3000J-1250D01*
G01*
G75*
G02*
X332250Y306500I-3250J0D01*
G01*
X291124D01*
G75*
G02*
X293892Y304000I-874J-3750D01*
G01*
X299374D01*
G75*
G02*
X306350Y302750I3376J-1250D01*
G01*
G75*
G02*
X299374Y301500I-3600J0D01*
G01*
X293892D01*
G75*
G02*
X291124Y299000I-3642J1250D01*
G01*
X302750D01*
G75*
G02*
X304000Y297750I0J-1250D01*
G01*
Y296126D01*
G75*
G02*
X302750Y289150I-1250J-3376D01*
G01*
G75*
G02*
X301500Y296126I0J3600D01*
G01*
Y296500D01*
X291124D01*
G75*
G02*
X290250Y288900I-874J-3750D01*
G01*
X285250D01*
G75*
G02*
X284376Y296500I0J3850D01*
G01*
X277750D01*
G75*
G02*
X276865Y296868I0J1250D01*
G01*
X272232Y301500D01*
X263892D01*
G75*
G02*
X260250Y298900I-3642J1250D01*
G01*
X255250D01*
G75*
G02*
Y306600I0J3850D01*
G01*
X260250D01*
G75*
G02*
X263892Y304000I0J-3850D01*
G01*
X272750D01*
G75*
G02*
X273635Y303632I0J-1250D01*
G01*
X278268Y299000D01*
X284376D01*
G75*
G02*
Y306500I874J3750D01*
G01*
X265250D01*
G75*
G02*
X264365Y306868I0J1250D01*
G01*
X261941Y309291D01*
G75*
G02*
X260250Y308900I-1691J3459D01*
G01*
X255250D01*
G75*
G02*
Y316600I0J3850D01*
G01*
X260250D01*
G75*
G02*
X263709Y311059I0J-3850D01*
G01*
X265768Y309000D01*
X284376D01*
G75*
G02*
X285250Y316600I874J3750D01*
G01*
X290250D01*
G75*
G02*
X293892Y314000I0J-3850D01*
G01*
X299374D01*
G75*
G02*
X306350Y312750I3376J-1250D01*
G01*
G75*
G02*
X299374Y311500I-3600J0D01*
G01*
X293892D01*
G75*
G02*
X291124Y309000I-3642J1250D01*
G01*
X332250D01*
X319542Y294000D02*
G75*
G02*
X326238Y292632I3208J-1368D01*
G01*
G75*
G02*
X319451Y291500I-3488J0D01*
G01*
X316348D01*
Y289152D01*
X309152D01*
Y296348D01*
X316348D01*
Y294000D01*
X319542D01*
X319451Y304000D02*
G75*
G02*
X326238Y302868I3299J-1132D01*
G01*
G75*
G02*
X319542Y301500I-3488J0D01*
G01*
X316348D01*
Y299152D01*
X309152D01*
Y306348D01*
X316348D01*
Y304000D01*
X319451D01*
X299150Y272750D02*
G75*
G02*
X306350I3600J0D01*
G01*
G75*
G02*
X299150I-3600J0D01*
G01*
X332250Y289000D02*
G75*
G02*
X338500Y287750I3000J-1250D01*
G01*
G75*
G02*
X332250Y286500I-3250J0D01*
G01*
X308268D01*
X306021Y284253D01*
G75*
G02*
X302750Y279150I-3271J-1503D01*
G01*
G75*
G02*
Y286350I0J3600D01*
G01*
G75*
G02*
X304253Y286021I0J-3600D01*
G01*
X306865Y288632D01*
G75*
G02*
X307750Y289000I885J-882D01*
G01*
X332250D01*
X308900Y137750D02*
G75*
G02*
X316600I3850J0D01*
G01*
G75*
G02*
X308900I-3850J0D01*
G01*
X319451Y84000D02*
G75*
G02*
X326238Y82868I3299J-1132D01*
G01*
G75*
G02*
X319542Y81500I-3488J0D01*
G01*
X316348D01*
Y79152D01*
X309152D01*
Y86348D01*
X316348D01*
Y84000D01*
X319451D01*
Y94000D02*
G75*
G02*
X326238Y92868I3299J-1132D01*
G01*
G75*
G02*
X319542Y91500I-3488J0D01*
G01*
X316348D01*
Y89152D01*
X309152D01*
Y96348D01*
X316348D01*
Y94000D01*
X319451D01*
X308900Y227750D02*
G75*
G02*
X316600I3850J0D01*
G01*
G75*
G02*
X308900I-3850J0D01*
G01*
X319542Y149000D02*
G75*
G02*
X326238Y147632I3208J-1368D01*
G01*
G75*
G02*
X319451Y146500I-3488J0D01*
G01*
X316348D01*
Y144152D01*
X309152D01*
Y151348D01*
X316348D01*
Y149000D01*
X319542D01*
X319262Y102868D02*
G75*
G02*
X326238I3488J0D01*
G01*
G75*
G02*
X319262I-3488J0D01*
G01*
Y137632D02*
G75*
G02*
X326238I3488J0D01*
G01*
G75*
G02*
X319262I-3488J0D01*
G01*
X319542Y159000D02*
G75*
G02*
X326238Y157632I3208J-1368D01*
G01*
G75*
G02*
X319451Y156500I-3488J0D01*
G01*
X316348D01*
Y154152D01*
X309152D01*
Y161348D01*
X316348D01*
Y159000D01*
X319542D01*
Y169000D02*
G75*
G02*
X326238Y167632I3208J-1368D01*
G01*
G75*
G02*
X319451Y166500I-3488J0D01*
G01*
X316348D01*
Y164152D01*
X309152D01*
Y171348D01*
X316348D01*
Y169000D01*
X319542D01*
Y179000D02*
G75*
G02*
X326238Y177632I3208J-1368D01*
G01*
G75*
G02*
X319451Y176500I-3488J0D01*
G01*
X316348D01*
Y174152D01*
X309152D01*
Y181348D01*
X316348D01*
Y179000D01*
X319542D01*
X319451Y189000D02*
G75*
G02*
X326238Y187868I3299J-1132D01*
G01*
G75*
G02*
X319542Y186500I-3488J0D01*
G01*
X316348D01*
Y184152D01*
X309152D01*
Y191348D01*
X316348D01*
Y189000D01*
X319451D01*
Y199000D02*
G75*
G02*
X326238Y197868I3299J-1132D01*
G01*
G75*
G02*
X319542Y196500I-3488J0D01*
G01*
X316348D01*
Y194152D01*
X309152D01*
Y201348D01*
X316348D01*
Y199000D01*
X319451D01*
Y209000D02*
G75*
G02*
X326238Y207868I3299J-1132D01*
G01*
G75*
G02*
X319542Y206500I-3488J0D01*
G01*
X316348D01*
Y204152D01*
X309152D01*
Y211348D01*
X316348D01*
Y209000D01*
X319451D01*
Y219000D02*
G75*
G02*
X326238Y217868I3299J-1132D01*
G01*
G75*
G02*
X319542Y216500I-3488J0D01*
G01*
X316348D01*
Y214152D01*
X309152D01*
Y221348D01*
X316348D01*
Y219000D01*
X319451D01*
X319542Y264000D02*
G75*
G02*
X326238Y262632I3208J-1368D01*
G01*
G75*
G02*
X319451Y261500I-3488J0D01*
G01*
X316348D01*
Y259152D01*
X309152D01*
Y266348D01*
X316348D01*
Y264000D01*
X319542D01*
X319262Y227868D02*
G75*
G02*
X326238I3488J0D01*
G01*
G75*
G02*
X319262I-3488J0D01*
G01*
Y252632D02*
G75*
G02*
X326238I3488J0D01*
G01*
G75*
G02*
X319262I-3488J0D01*
G01*
X319542Y274000D02*
G75*
G02*
X326238Y272632I3208J-1368D01*
G01*
G75*
G02*
X319451Y271500I-3488J0D01*
G01*
X316348D01*
Y269152D01*
X309152D01*
Y276348D01*
X316348D01*
Y274000D01*
X319542D01*
Y284000D02*
G75*
G02*
X326238Y282632I3208J-1368D01*
G01*
G75*
G02*
X319451Y281500I-3488J0D01*
G01*
X316348D01*
Y279152D01*
X309152D01*
Y286348D01*
X316348D01*
Y284000D01*
X319542D01*
X299374Y334000D02*
G75*
G02*
X306350Y332750I3376J-1250D01*
G01*
G75*
G02*
X299374Y331500I-3600J0D01*
G01*
X293892D01*
G75*
G02*
X293190Y330264I-3642J1250D01*
G01*
G75*
G02*
X298500Y327750I2060J-2514D01*
G01*
G75*
G02*
X293190Y325236I-3250J0D01*
G01*
G75*
G02*
X293892Y324000I-2941J-2486D01*
G01*
X299374D01*
G75*
G02*
X306350Y322750I3376J-1250D01*
G01*
G75*
G02*
X299374Y321500I-3600J0D01*
G01*
X293892D01*
G75*
G02*
X290250Y318900I-3642J1250D01*
G01*
X285250D01*
G75*
G02*
X284376Y326500I0J3850D01*
G01*
X278268D01*
X273635Y321868D01*
G75*
G02*
X272750Y321500I-885J882D01*
G01*
X263892D01*
G75*
G02*
X260250Y318900I-3642J1250D01*
G01*
X255250D01*
G75*
G02*
Y326600I0J3850D01*
G01*
X260250D01*
G75*
G02*
X263892Y324000I0J-3850D01*
G01*
X272232D01*
X276865Y328632D01*
G75*
G02*
X277750Y329000I885J-882D01*
G01*
X284376D01*
G75*
G02*
X285250Y336600I874J3750D01*
G01*
X290250D01*
G75*
G02*
X293892Y334000I0J-3850D01*
G01*
X299374D01*
X186951Y314000D02*
G75*
G02*
X193738Y312868I3299J-1132D01*
G01*
G75*
G02*
X187042Y311500I-3488J0D01*
G01*
X183848D01*
Y309152D01*
X176652D01*
Y316348D01*
X183848D01*
Y314000D01*
X186951D01*
Y324000D02*
G75*
G02*
X193738Y322868I3299J-1132D01*
G01*
G75*
G02*
X187042Y321500I-3488J0D01*
G01*
X183848D01*
Y319152D01*
X176652D01*
Y326348D01*
X183848D01*
Y324000D01*
X186951D01*
Y334000D02*
G75*
G02*
X193738Y332868I3299J-1132D01*
G01*
G75*
G02*
X187042Y331500I-3488J0D01*
G01*
X183848D01*
Y329152D01*
X176652D01*
Y336348D01*
X183848D01*
Y334000D01*
X186951D01*
X160250Y366600D02*
G75*
G02*
Y358900I0J-3850D01*
G01*
X155250D01*
G75*
G02*
Y366600I0J3850D01*
G01*
X160250D01*
X186762Y342868D02*
G75*
G02*
X193738I3488J0D01*
G01*
G75*
G02*
X186762I-3488J0D01*
G01*
X260250Y356600D02*
G75*
G02*
Y348900I0J-3850D01*
G01*
X255250D01*
G75*
G02*
Y356600I0J3850D01*
G01*
X260250D01*
Y366600D02*
G75*
G02*
Y358900I0J-3850D01*
G01*
X255250D01*
G75*
G02*
Y366600I0J3850D01*
G01*
X260250D01*
X290250Y357000D02*
G75*
G02*
Y348500I0J-4250D01*
G01*
X285250D01*
G75*
G02*
Y357000I0J4250D01*
G01*
X290250D01*
Y346600D02*
G75*
G02*
Y338900I0J-3850D01*
G01*
X285250D01*
G75*
G02*
Y346600I0J3850D01*
G01*
X290250D01*
Y366600D02*
G75*
G02*
Y358900I0J-3850D01*
G01*
X285250D01*
G75*
G02*
Y366600I0J3850D01*
G01*
X290250D01*
X319451Y314000D02*
G75*
G02*
X326238Y312868I3299J-1132D01*
G01*
G75*
G02*
X319542Y311500I-3488J0D01*
G01*
X316348D01*
Y309152D01*
X309152D01*
Y316348D01*
X316348D01*
Y314000D01*
X319451D01*
Y324000D02*
G75*
G02*
X326238Y322868I3299J-1132D01*
G01*
G75*
G02*
X319542Y321500I-3488J0D01*
G01*
X316348D01*
Y319152D01*
X309152D01*
Y326348D01*
X316348D01*
Y324000D01*
X319451D01*
Y334000D02*
G75*
G02*
X326238Y332868I3299J-1132D01*
G01*
G75*
G02*
X319542Y331500I-3488J0D01*
G01*
X316348D01*
Y329152D01*
X309152D01*
Y336348D01*
X316348D01*
Y334000D01*
X319451D01*
X319262Y342868D02*
G75*
G02*
X326238I3488J0D01*
G01*
G75*
G02*
X319262I-3488J0D01*
G01*
X10500Y12632D02*
G36*
X10500Y12632D02*
Y8000D01*
X380000D01*
Y12632D01*
X326238D01*
G75*
G02*
X319262I-3488J0D01*
G01*
X193738D01*
G75*
G02*
X186762I-3488J0D01*
G01*
X10500D01*
G37*
Y25250D02*
G36*
X10500Y25250D02*
Y12632D01*
X186762D01*
G75*
G02*
X193738I3488J0D01*
G01*
X319262D01*
G75*
G02*
X326238I3488J0D01*
G01*
X380000D01*
Y25250D01*
X325054D01*
G75*
G02*
X326238Y22632I-2305J-2618D01*
G01*
G75*
G02*
X319451Y21500I-3488J0D01*
G01*
X316348D01*
Y19152D01*
X309152D01*
Y25250D01*
X305341D01*
G75*
G02*
X306350Y22750I-2590J-2500D01*
G01*
Y22750D01*
Y22750D01*
G75*
G02*
X299374Y21500I-3600J0D01*
G01*
X243250D01*
G75*
G02*
X237000Y22750I-3000J1250D01*
G01*
G75*
G02*
X238173Y25250I3250J0D01*
G01*
X192554D01*
G75*
G02*
X193738Y22632I-2305J-2618D01*
G01*
G75*
G02*
X186951Y21500I-3488J0D01*
G01*
X183848D01*
Y19152D01*
X176652D01*
Y25250D01*
X172841D01*
G75*
G02*
X173850Y22750I-2590J-2500D01*
G01*
Y22750D01*
Y22750D01*
G75*
G02*
X166874Y21500I-3600J0D01*
G01*
X105750D01*
G75*
G02*
X99500Y22750I-3000J1250D01*
G01*
G75*
G02*
X100673Y25250I3250J0D01*
G01*
X94217D01*
G75*
G02*
X86283I-3967J0D01*
G01*
X73817D01*
G75*
G02*
X66683I-3567J0D01*
G01*
X49217D01*
G75*
G02*
X41283I-3967J0D01*
G01*
X28817D01*
G75*
G02*
X21683I-3567J0D01*
G01*
X10500D01*
G37*
X104827D02*
G36*
X104827Y25250D02*
G75*
G02*
X105750Y24000I-2077J-2500D01*
G01*
X166874D01*
G75*
G02*
X167659Y25250I3376J-1250D01*
G01*
X114827D01*
G75*
G02*
X110673I-2077J2500D01*
G01*
X104827D01*
G37*
X183848D02*
G36*
X183848Y25250D02*
Y24000D01*
X187042D01*
G75*
G02*
X187946Y25250I3208J-1368D01*
G01*
X183848D01*
G37*
X242327D02*
G36*
X242327Y25250D02*
G75*
G02*
X243250Y24000I-2077J-2500D01*
G01*
X299374D01*
G75*
G02*
X300159Y25250I3376J-1250D01*
G01*
X269827D01*
G75*
G02*
X265673I-2077J2500D01*
G01*
X242327D01*
G37*
X316348D02*
G36*
X316348Y25250D02*
Y24000D01*
X319542D01*
G75*
G02*
X320446Y25250I3208J-1368D01*
G01*
X316348D01*
G37*
X10500Y32746D02*
G36*
X10500Y32746D02*
Y25250D01*
X21683D01*
G75*
G02*
X28817I3567J0D01*
G01*
X41283D01*
G75*
G02*
X49217I3967J0D01*
G01*
X66683D01*
G75*
G02*
X73817I3567J0D01*
G01*
X86283D01*
G75*
G02*
X94217I3967J0D01*
G01*
X100673D01*
G75*
G02*
X104827I2077J-2500D01*
G01*
X110673D01*
G75*
G02*
X109500Y27750I2077J2500D01*
G01*
G75*
G02*
X115750Y29000I3250J0D01*
G01*
X123250D01*
G75*
G02*
X121000Y32746I2000J3750D01*
G01*
X10500D01*
G37*
X115750Y26500D02*
G36*
X115750Y26500D02*
G75*
G02*
X114827Y25250I-3000J1250D01*
G01*
X167659D01*
G75*
G02*
X172841I2591J-2500D01*
G01*
X176652D01*
Y26348D01*
X183848D01*
Y25250D01*
X187946D01*
G75*
G02*
X192554I2304J-2618D01*
G01*
X238173D01*
G75*
G02*
X242327I2077J-2500D01*
G01*
X265673D01*
G75*
G02*
X264750Y26500I2077J2500D01*
G01*
X240250D01*
G75*
G02*
X239365Y26868I0J1250D01*
G01*
X233486Y32746D01*
X193736D01*
G75*
G02*
X193738Y32632I-3489J-117D01*
G01*
G75*
G02*
X186951Y31500I-3488J0D01*
G01*
X183848D01*
Y29152D01*
X176652D01*
Y32746D01*
X173850D01*
G75*
G02*
X168747Y29479I-3600J4D01*
G01*
X166135Y26868D01*
G75*
G02*
X165250Y26500I-885J882D01*
G01*
X115750D01*
G37*
X134500Y32746D02*
G36*
X134500Y32746D02*
G75*
G02*
X132250Y29000I-4250J4D01*
G01*
X153250D01*
G75*
G02*
X151000Y32746I2000J3750D01*
G01*
X134500D01*
G37*
X164500D02*
G36*
X164500Y32746D02*
G75*
G02*
X162250Y29000I-4250J4D01*
G01*
X164732D01*
X166979Y31247D01*
G75*
G02*
X166650Y32746I3270J1503D01*
G01*
X164500D01*
G37*
X237022D02*
G36*
X237022Y32746D02*
X240768Y29000D01*
X253250D01*
G75*
G02*
X251000Y32746I2000J3750D01*
G01*
X237022D01*
G37*
X264500D02*
G36*
X264500Y32746D02*
G75*
G02*
X262250Y29000I-4250J4D01*
G01*
X264750D01*
G75*
G02*
X271000Y27750I3000J-1250D01*
G01*
G75*
G02*
X269827Y25250I-3250J0D01*
G01*
X300159D01*
G75*
G02*
X305341I2591J-2500D01*
G01*
X309152D01*
Y26348D01*
X316348D01*
Y25250D01*
X320446D01*
G75*
G02*
X325054I2304J-2618D01*
G01*
X380000D01*
Y32746D01*
X326236D01*
G75*
G02*
X326238Y32632I-3489J-117D01*
G01*
G75*
G02*
X319451Y31500I-3488J0D01*
G01*
X316348D01*
Y29152D01*
X309152D01*
Y32746D01*
X306350D01*
G75*
G02*
X299150I-3600J4D01*
G01*
X294500D01*
G75*
G02*
X290250Y28500I-4250J4D01*
G01*
X285250D01*
G75*
G02*
X281000Y32746I0J4250D01*
G01*
X264500D01*
G37*
X10500Y45250D02*
G36*
X10500Y45250D02*
Y32746D01*
X121000D01*
G75*
G02*
Y32750I4256J2D01*
G01*
G75*
G02*
X125250Y37000I4250J0D01*
G01*
X130250D01*
G75*
G02*
X134500Y32750I0J-4250D01*
G01*
G75*
G02*
Y32746I-4256J-2D01*
G01*
X151000D01*
G75*
G02*
Y32750I4256J2D01*
G01*
G75*
G02*
X155250Y37000I4250J0D01*
G01*
X160250D01*
G75*
G02*
X164500Y32750I0J-4250D01*
G01*
G75*
G02*
Y32746I-4256J-2D01*
G01*
X166650D01*
G75*
G02*
Y32750I3830J2D01*
G01*
Y32750D01*
G75*
G02*
X173850I3600J0D01*
G01*
G75*
G02*
Y32746I-3638J-2D01*
G01*
X176652D01*
Y36348D01*
X183848D01*
Y34000D01*
X187042D01*
G75*
G02*
X193736Y32746I3208J-1368D01*
G01*
X233486D01*
X229732Y36500D01*
X162750D01*
G75*
G02*
X161865Y36868I0J1250D01*
G01*
X159833Y38900D01*
X155250D01*
G75*
G02*
X151608Y41500I0J3851D01*
G01*
X140750D01*
G75*
G02*
X134500Y42750I-3000J1250D01*
G01*
G75*
G02*
X130250Y38500I-4250J0D01*
G01*
X125250D01*
G75*
G02*
X121000Y42750I0J4250D01*
G01*
G75*
G02*
X121813Y45250I4250J0D01*
G01*
X83817D01*
G75*
G02*
X76683I-3567J0D01*
G01*
X38817D01*
G75*
G02*
X31683I-3567J0D01*
G01*
X10500D01*
G37*
X133687D02*
G36*
X133687Y45250D02*
G75*
G02*
X134500Y42750I-3437J-2500D01*
G01*
G75*
G02*
X135673Y45250I3250J0D01*
G01*
X133687D01*
G37*
X139827D02*
G36*
X139827Y45250D02*
G75*
G02*
X140750Y44000I-2077J-2500D01*
G01*
X151608D01*
G75*
G02*
X152322Y45250I3642J-1250D01*
G01*
X139827D01*
G37*
X162582Y39686D02*
G36*
X162582Y39686D02*
X163268Y39000D01*
X230250D01*
G75*
G02*
X231135Y38632I0J-1250D01*
G01*
X237022Y32746D01*
X251000D01*
G75*
G02*
Y32750I4256J2D01*
G01*
G75*
G02*
X255250Y37000I4250J0D01*
G01*
X260250D01*
G75*
G02*
X264500Y32750I0J-4250D01*
G01*
G75*
G02*
Y32746I-4256J-2D01*
G01*
X281000D01*
G75*
G02*
Y32750I4423J2D01*
G01*
G75*
G02*
X281500Y34750I4250J0D01*
G01*
G75*
G02*
X277000Y37750I-1250J3000D01*
G01*
Y37750D01*
G75*
G02*
X282310Y40264I3250J0D01*
G01*
G75*
G02*
X281608Y41500I2943J2487D01*
G01*
X270750D01*
G75*
G02*
X264500Y42750I-3000J1250D01*
G01*
G75*
G02*
X260250Y38500I-4250J0D01*
G01*
X255250D01*
G75*
G02*
X251000Y42750I0J4250D01*
G01*
G75*
G02*
X251813Y45250I4250J0D01*
G01*
X202327D01*
G75*
G02*
X198173I-2077J2500D01*
G01*
X192554D01*
G75*
G02*
X193738Y42632I-2305J-2618D01*
G01*
G75*
G02*
X186951Y41500I-3488J0D01*
G01*
X183848D01*
Y39152D01*
X176652D01*
Y45250D01*
X174518D01*
X173521Y44253D01*
G75*
G02*
X173850Y42750I-3272J-1503D01*
G01*
G75*
G02*
X170250Y39150I-3600J0D01*
G01*
G75*
G02*
X166650Y42750I0J3600D01*
G01*
G75*
G02*
X167659Y45250I3600J0D01*
G01*
X163179D01*
G75*
G02*
X164101Y42750I-2928J-2500D01*
G01*
G75*
G02*
X162582Y39686I-3850J0D01*
G01*
G37*
X183848Y45250D02*
G36*
X183848Y45250D02*
Y44000D01*
X187042D01*
G75*
G02*
X187946Y45250I3208J-1368D01*
G01*
X183848D01*
G37*
X263687D02*
G36*
X263687Y45250D02*
G75*
G02*
X264500Y42750I-3437J-2500D01*
G01*
G75*
G02*
X265673Y45250I3250J0D01*
G01*
X263687D01*
G37*
X269827D02*
G36*
X269827Y45250D02*
G75*
G02*
X270750Y44000I-2077J-2500D01*
G01*
X281608D01*
G75*
G02*
X282322Y45250I3642J-1250D01*
G01*
X269827D01*
G37*
X294100Y42750D02*
G36*
X294100Y42750D02*
G75*
G02*
X291124Y39000I-3850J0D01*
G01*
X297750D01*
G75*
G02*
X298635Y38632I0J-1250D01*
G01*
X301247Y36021D01*
G75*
G02*
X306350Y32750I1503J-3271D01*
G01*
G75*
G02*
Y32746I-3638J-2D01*
G01*
X309152D01*
Y36348D01*
X316348D01*
Y34000D01*
X319542D01*
G75*
G02*
X326236Y32746I3208J-1368D01*
G01*
X380000D01*
Y45250D01*
X339827D01*
G75*
G02*
X335673I-2077J2500D01*
G01*
X325054D01*
G75*
G02*
X326238Y42632I-2305J-2618D01*
G01*
G75*
G02*
X319451Y41500I-3488J0D01*
G01*
X316348D01*
Y39152D01*
X309152D01*
Y45250D01*
X307018D01*
X306021Y44253D01*
G75*
G02*
X306350Y42750I-3272J-1503D01*
G01*
G75*
G02*
X302750Y39150I-3600J0D01*
G01*
G75*
G02*
X299150Y42750I0J3600D01*
G01*
G75*
G02*
X300159Y45250I3600J0D01*
G01*
X293178D01*
G75*
G02*
X294100Y42750I-2928J-2500D01*
G01*
G37*
X294500Y32750D02*
G36*
X294500Y32750D02*
G75*
G02*
Y32746I-4338J-2D01*
G01*
X299150D01*
G75*
G02*
Y32750I3638J2D01*
G01*
Y32750D01*
G75*
G02*
X299479Y34253I3599J0D01*
G01*
X297232Y36500D01*
X292250D01*
G75*
G02*
X294500Y32750I-2000J-3750D01*
G01*
G37*
X316348Y45250D02*
G36*
X316348Y45250D02*
Y44000D01*
X319542D01*
G75*
G02*
X320446Y45250I3208J-1368D01*
G01*
X316348D01*
G37*
X10500Y52746D02*
G36*
X10500Y52746D02*
Y45250D01*
X31683D01*
G75*
G02*
X38817I3567J0D01*
G01*
X76683D01*
G75*
G02*
X83817I3567J0D01*
G01*
X121813D01*
G75*
G02*
X125250Y47000I3437J-2500D01*
G01*
X130250D01*
G75*
G02*
X133687Y45250I0J-4250D01*
G01*
X135673D01*
G75*
G02*
X139827I2077J-2500D01*
G01*
X152322D01*
G75*
G02*
X154376Y46500I2928J-2500D01*
G01*
X140250D01*
G75*
G02*
X139000Y47750I0J1250D01*
G01*
Y52746D01*
X134100D01*
G75*
G02*
X130250Y48900I-3850J4D01*
G01*
X125250D01*
G75*
G02*
X121400Y52746I0J3850D01*
G01*
X10500D01*
G37*
X141500D02*
G36*
X141500Y52746D02*
Y49000D01*
X154376D01*
G75*
G02*
X151608Y51500I874J3750D01*
G01*
X148250D01*
G75*
G02*
X142000Y52746I-3000J1250D01*
G01*
X141500D01*
G37*
X161124Y46500D02*
G36*
X161124Y46500D02*
G75*
G02*
X163179Y45250I-873J-3750D01*
G01*
X167659D01*
G75*
G02*
X170250Y46350I2591J-2500D01*
G01*
G75*
G02*
X171753Y46021I0J-3598D01*
G01*
X174365Y48632D01*
G75*
G02*
X175250Y49000I885J-882D01*
G01*
X197250D01*
G75*
G02*
X203500Y47750I3000J-1250D01*
G01*
G75*
G02*
X202327Y45250I-3250J0D01*
G01*
X251813D01*
G75*
G02*
X255250Y47000I3437J-2500D01*
G01*
X260250D01*
G75*
G02*
X263687Y45250I0J-4250D01*
G01*
X265673D01*
G75*
G02*
X269827I2077J-2500D01*
G01*
X282322D01*
G75*
G02*
X285250Y46600I2929J-2500D01*
G01*
X290250D01*
G75*
G02*
X293178Y45250I0J-3850D01*
G01*
X300159D01*
G75*
G02*
X302750Y46350I2591J-2500D01*
G01*
G75*
G02*
X304253Y46021I0J-3598D01*
G01*
X306865Y48632D01*
G75*
G02*
X307750Y49000I885J-882D01*
G01*
X334750D01*
G75*
G02*
X341000Y47750I3000J-1250D01*
G01*
G75*
G02*
X339827Y45250I-3250J0D01*
G01*
X380000D01*
Y52746D01*
X326236D01*
G75*
G02*
X326238Y52632I-3489J-117D01*
G01*
G75*
G02*
X319451Y51500I-3488J0D01*
G01*
X316348D01*
Y49152D01*
X309152D01*
Y52746D01*
X306350D01*
G75*
G02*
X299150I-3600J4D01*
G01*
X294100D01*
G75*
G02*
X290250Y48900I-3850J4D01*
G01*
X285250D01*
G75*
G02*
X281608Y51500I0J3851D01*
G01*
X278250D01*
G75*
G02*
X272000Y52746I-3000J1250D01*
G01*
X264100D01*
G75*
G02*
X260250Y48900I-3850J4D01*
G01*
X255250D01*
G75*
G02*
X251400Y52746I0J3850D01*
G01*
X193736D01*
G75*
G02*
X193738Y52632I-3489J-117D01*
G01*
G75*
G02*
X186951Y51500I-3488J0D01*
G01*
X183848D01*
Y49152D01*
X176652D01*
Y52746D01*
X173850D01*
G75*
G02*
X170250Y49150I-3600J4D01*
G01*
G75*
G02*
X168747Y49479I0J3598D01*
G01*
X166135Y46868D01*
G75*
G02*
X165250Y46500I-885J882D01*
G01*
X161124D01*
G37*
X164100Y52746D02*
G36*
X164100Y52746D02*
G75*
G02*
X161124Y49000I-3850J4D01*
G01*
X164732D01*
X166979Y51247D01*
G75*
G02*
X166650Y52746I3271J1503D01*
G01*
X164100D01*
G37*
X175768Y46500D02*
G36*
X175768Y46500D02*
X174518Y45250D01*
X176652D01*
Y46348D01*
X183848D01*
Y45250D01*
X187946D01*
G75*
G02*
X192554I2304J-2618D01*
G01*
X198173D01*
G75*
G02*
X197250Y46500I2077J2500D01*
G01*
X175768D01*
G37*
X308268D02*
G36*
X308268Y46500D02*
X307018Y45250D01*
X309152D01*
Y46348D01*
X316348D01*
Y45250D01*
X320446D01*
G75*
G02*
X325054I2304J-2618D01*
G01*
X335673D01*
G75*
G02*
X334750Y46500I2077J2500D01*
G01*
X308268D01*
G37*
X10500Y60250D02*
G36*
X10500Y60250D02*
Y52746D01*
X121400D01*
G75*
G02*
Y52750I3889J2D01*
G01*
G75*
G02*
X125250Y56600I3850J0D01*
G01*
X130250D01*
G75*
G02*
X134100Y52750I0J-3850D01*
G01*
G75*
G02*
Y52746I-3889J-2D01*
G01*
X139000D01*
Y57232D01*
X135982Y60250D01*
X133178D01*
G75*
G02*
X130250Y58900I-2929J2500D01*
G01*
X125250D01*
G75*
G02*
X122322Y60250I0J3850D01*
G01*
X84100D01*
G75*
G02*
X76400I-3850J0D01*
G01*
X74500D01*
Y56000D01*
X66000D01*
Y60250D01*
X39100D01*
G75*
G02*
X31400I-3850J0D01*
G01*
X29500D01*
Y56000D01*
X21000D01*
Y60250D01*
X10500D01*
G37*
X139518D02*
G36*
X139518Y60250D02*
X141132Y58635D01*
G75*
G02*
X141500Y57750I-882J-885D01*
G01*
Y52746D01*
X142000D01*
G75*
G02*
Y52750I3418J2D01*
G01*
G75*
G02*
X148250Y54000I3250J0D01*
G01*
X151608D01*
G75*
G02*
X155250Y56600I3642J-1250D01*
G01*
X159833D01*
X161865Y58632D01*
G75*
G02*
X162750Y59000I885J-882D01*
G01*
X254376D01*
G75*
G02*
X252322Y60250I874J3750D01*
G01*
X192554D01*
G75*
G02*
X187946I-2304J2618D01*
G01*
X183848D01*
Y59152D01*
X176652D01*
Y60250D01*
X172841D01*
G75*
G02*
X167659I-2591J2500D01*
G01*
X163178D01*
G75*
G02*
X160250Y58900I-2929J2500D01*
G01*
X155250D01*
G75*
G02*
X152322Y60250I0J3850D01*
G01*
X139518D01*
G37*
X163268Y56500D02*
G36*
X163268Y56500D02*
X162582Y55814D01*
G75*
G02*
X164100Y52750I-2332J-3064D01*
G01*
G75*
G02*
Y52746I-3823J-2D01*
G01*
X166650D01*
G75*
G02*
Y52750I3698J2D01*
G01*
G75*
G02*
X170250Y56350I3600J0D01*
G01*
G75*
G02*
X173850Y52750I0J-3600D01*
G01*
G75*
G02*
Y52746I-3638J-2D01*
G01*
X176652D01*
Y56348D01*
X183848D01*
Y54000D01*
X187042D01*
G75*
G02*
X193736Y52746I3208J-1368D01*
G01*
X251400D01*
G75*
G02*
Y52750I3889J2D01*
G01*
G75*
G02*
X254376Y56500I3850J0D01*
G01*
X163268D01*
G37*
X264100Y52750D02*
G36*
X264100Y52750D02*
G75*
G02*
Y52746I-3889J-2D01*
G01*
X272000D01*
G75*
G02*
Y52750I3418J2D01*
G01*
G75*
G02*
X272245Y53987I3250J0D01*
G01*
X269732Y56500D01*
X261124D01*
G75*
G02*
X264100Y52750I-874J-3750D01*
G01*
G37*
X279518Y60250D02*
G36*
X279518Y60250D02*
X280768Y59000D01*
X284376D01*
G75*
G02*
X282322Y60250I874J3750D01*
G01*
X279518D01*
G37*
X293178D02*
G36*
X293178Y60250D02*
G75*
G02*
X291124Y59000I-2928J2500D01*
G01*
X297750D01*
G75*
G02*
X298635Y58632I0J-1250D01*
G01*
X301247Y56021D01*
G75*
G02*
X306350Y52750I1503J-3271D01*
G01*
G75*
G02*
Y52746I-3638J-2D01*
G01*
X309152D01*
Y56348D01*
X316348D01*
Y54000D01*
X319542D01*
G75*
G02*
X326236Y52746I3208J-1368D01*
G01*
X380000D01*
Y60250D01*
X325054D01*
G75*
G02*
X320446I-2304J2618D01*
G01*
X316348D01*
Y59152D01*
X309152D01*
Y60250D01*
X305341D01*
G75*
G02*
X300159I-2591J2500D01*
G01*
X293178D01*
G37*
X294100Y52750D02*
G36*
X294100Y52750D02*
G75*
G02*
Y52746I-3889J-2D01*
G01*
X299150D01*
G75*
G02*
Y52750I3638J2D01*
G01*
Y52750D01*
G75*
G02*
X299479Y54253I3599J0D01*
G01*
X297232Y56500D01*
X291124D01*
G75*
G02*
X294100Y52750I-874J-3750D01*
G01*
G37*
X10500Y72754D02*
G36*
X10500Y72754D02*
Y60250D01*
X21000D01*
Y64500D01*
X29500D01*
Y60250D01*
X31400D01*
G75*
G02*
X39100I3850J0D01*
G01*
X66000D01*
Y64500D01*
X74232D01*
X69732Y69000D01*
X43250D01*
G75*
G02*
X37000Y70250I-3000J1250D01*
G01*
G75*
G02*
X38178Y72754I3250J0D01*
G01*
X10500D01*
G37*
X42322D02*
G36*
X42322Y72754D02*
G75*
G02*
X43250Y71500I-2072J-2504D01*
G01*
X70250D01*
G75*
G02*
X71135Y71132I0J-1250D01*
G01*
X78559Y63709D01*
G75*
G02*
X84100Y60250I1691J-3459D01*
G01*
X122322D01*
G75*
G02*
X121400Y62750I2928J2500D01*
G01*
G75*
G02*
X125250Y66600I3850J0D01*
G01*
X130250D01*
G75*
G02*
X133892Y64000I0J-3851D01*
G01*
X135250D01*
G75*
G02*
X136135Y63632I0J-1250D01*
G01*
X139518Y60250D01*
X152322D01*
G75*
G02*
X151400Y62750I2928J2500D01*
G01*
G75*
G02*
X154376Y66500I3850J0D01*
G01*
X135250D01*
G75*
G02*
X134365Y66868I0J1250D01*
G01*
X131941Y69291D01*
G75*
G02*
X130250Y68900I-1692J3462D01*
G01*
X125250D01*
G75*
G02*
X121400Y72750I0J3850D01*
G01*
G75*
G02*
Y72754I3904J2D01*
G01*
X42322D01*
G37*
X74500Y64232D02*
G36*
X74500Y64232D02*
Y60250D01*
X76400D01*
G75*
G02*
X76791Y61941I3854J-1D01*
G01*
X74500Y64232D01*
G37*
X133892Y61500D02*
G36*
X133892Y61500D02*
G75*
G02*
X133178Y60250I-3642J1250D01*
G01*
X135982D01*
X134732Y61500D01*
X133892D01*
G37*
X134100Y72750D02*
G36*
X134100Y72750D02*
G75*
G02*
X133709Y71059I-3851J0D01*
G01*
X135768Y69000D01*
X154376D01*
G75*
G02*
X151400Y72750I874J3750D01*
G01*
G75*
G02*
Y72754I3904J2D01*
G01*
X134100D01*
G75*
G02*
Y72750I-3957J-2D01*
G01*
G37*
X163892Y61500D02*
G36*
X163892Y61500D02*
G75*
G02*
X163178Y60250I-3642J1250D01*
G01*
X167659D01*
G75*
G02*
X166874Y61500I2591J2500D01*
G01*
X163892D01*
G37*
X161124Y66500D02*
G36*
X161124Y66500D02*
G75*
G02*
X163892Y64000I-874J-3750D01*
G01*
X166874D01*
G75*
G02*
X173850Y62750I3376J-1250D01*
G01*
Y62750D01*
Y62750D01*
G75*
G02*
X172841Y60250I-3600J0D01*
G01*
X176652D01*
Y66348D01*
X183848D01*
Y64000D01*
X186951D01*
G75*
G02*
X193738Y62868I3299J-1132D01*
G01*
G75*
G02*
X192554Y60250I-3488J0D01*
G01*
X252322D01*
G75*
G02*
X251400Y62750I2928J2500D01*
G01*
G75*
G02*
X255250Y66600I3850J0D01*
G01*
X260250D01*
G75*
G02*
X263892Y64000I0J-3851D01*
G01*
X275250D01*
G75*
G02*
X276135Y63632I0J-1250D01*
G01*
X279518Y60250D01*
X282322D01*
G75*
G02*
X281400Y62750I2928J2500D01*
G01*
G75*
G02*
X285250Y66600I3850J0D01*
G01*
X290250D01*
G75*
G02*
X293892Y64000I0J-3851D01*
G01*
X299374D01*
G75*
G02*
X306350Y62750I3376J-1250D01*
G01*
Y62750D01*
Y62750D01*
G75*
G02*
X305341Y60250I-3600J0D01*
G01*
X309152D01*
Y66348D01*
X316348D01*
Y64000D01*
X319451D01*
G75*
G02*
X326238Y62868I3299J-1132D01*
G01*
G75*
G02*
X325054Y60250I-3488J0D01*
G01*
X380000D01*
Y72754D01*
X326236D01*
G75*
G02*
X319542Y71500I-3486J115D01*
G01*
X316348D01*
Y69152D01*
X309152D01*
Y72754D01*
X306350D01*
G75*
G02*
Y72750I-3405J-2D01*
G01*
Y72750D01*
Y72750D01*
G75*
G02*
X299374Y71500I-3600J0D01*
G01*
X293892D01*
G75*
G02*
X290250Y68900I-3642J1250D01*
G01*
X285250D01*
G75*
G02*
X281400Y72750I0J3850D01*
G01*
G75*
G02*
Y72754I3904J2D01*
G01*
X264100D01*
G75*
G02*
Y72750I-3839J-2D01*
G01*
G75*
G02*
X260250Y68900I-3850J0D01*
G01*
X255250D01*
G75*
G02*
X251400Y72750I0J3850D01*
G01*
G75*
G02*
Y72754I3904J2D01*
G01*
X193736D01*
G75*
G02*
X187042Y71500I-3486J115D01*
G01*
X183848D01*
Y69152D01*
X176652D01*
Y72754D01*
X173850D01*
G75*
G02*
Y72750I-3405J-2D01*
G01*
Y72750D01*
Y72750D01*
G75*
G02*
X166874Y71500I-3600J0D01*
G01*
X163892D01*
G75*
G02*
X161124Y69000I-3642J1250D01*
G01*
X197250D01*
G75*
G02*
X203500Y67750I3000J-1250D01*
G01*
G75*
G02*
X197250Y66500I-3250J0D01*
G01*
X161124D01*
G37*
X183848Y61500D02*
G36*
X183848Y61500D02*
Y60250D01*
X187946D01*
G75*
G02*
X187042Y61500I2304J2618D01*
G01*
X183848D01*
G37*
X293892D02*
G36*
X293892Y61500D02*
G75*
G02*
X293178Y60250I-3642J1250D01*
G01*
X300159D01*
G75*
G02*
X299374Y61500I2591J2500D01*
G01*
X293892D01*
G37*
X316348D02*
G36*
X316348Y61500D02*
Y60250D01*
X320446D01*
G75*
G02*
X319542Y61500I2304J2618D01*
G01*
X316348D01*
G37*
X10500Y82750D02*
G36*
X10500Y82750D02*
Y72754D01*
X38178D01*
G75*
G02*
X42322I2072J-2503D01*
G01*
X121400D01*
G75*
G02*
X125250Y76600I3850J-4D01*
G01*
X130250D01*
G75*
G02*
X134100Y72754I0J-3851D01*
G01*
X151400D01*
G75*
G02*
X155250Y76600I3850J-4D01*
G01*
X160250D01*
G75*
G02*
X163892Y74000I0J-3851D01*
G01*
X166874D01*
G75*
G02*
X173850Y72754I3376J-1250D01*
G01*
X176652D01*
Y76348D01*
X183848D01*
Y74000D01*
X186951D01*
G75*
G02*
X193738Y72868I3299J-1132D01*
G01*
G75*
G02*
X193736Y72754I-3492J3D01*
G01*
X251400D01*
G75*
G02*
X255250Y76600I3850J-4D01*
G01*
X260250D01*
G75*
G02*
X261941Y76209I-1J-3854D01*
G01*
X264365Y78632D01*
G75*
G02*
X265250Y79000I885J-882D01*
G01*
X284376D01*
G75*
G02*
X281400Y82750I874J3750D01*
G01*
X277018D01*
X276135Y81868D01*
G75*
G02*
X275250Y81500I-885J882D01*
G01*
X263892D01*
G75*
G02*
X260250Y78900I-3642J1250D01*
G01*
X255250D01*
G75*
G02*
X251400Y82750I0J3850D01*
G01*
X193736D01*
G75*
G02*
X187042Y81500I-3486J118D01*
G01*
X183848D01*
Y79152D01*
X176652D01*
Y82750D01*
X173850D01*
Y82750D01*
G75*
G02*
X166874Y81500I-3600J0D01*
G01*
X163892D01*
G75*
G02*
X160250Y78900I-3642J1250D01*
G01*
X155250D01*
G75*
G02*
X151400Y82750I0J3850D01*
G01*
X134100D01*
G75*
G02*
X130250Y78900I-3850J0D01*
G01*
X125250D01*
G75*
G02*
X121608Y81500I0J3851D01*
G01*
X115750D01*
G75*
G02*
X109500Y82750I-3000J1250D01*
G01*
X93100D01*
Y79900D01*
X87400D01*
Y82750D01*
X73100D01*
G75*
G02*
X67400I-2850J0D01*
G01*
X10500D01*
G37*
X263709Y74441D02*
G36*
X263709Y74441D02*
G75*
G02*
X264100Y72754I-3459J-1691D01*
G01*
X281400D01*
G75*
G02*
X284376Y76500I3850J-4D01*
G01*
X265768D01*
X263709Y74441D01*
G37*
X291124Y76500D02*
G36*
X291124Y76500D02*
G75*
G02*
X293892Y74000I-874J-3750D01*
G01*
X299374D01*
G75*
G02*
X306350Y72754I3376J-1250D01*
G01*
X309152D01*
Y76348D01*
X316348D01*
Y74000D01*
X319451D01*
G75*
G02*
X326238Y72868I3299J-1132D01*
G01*
G75*
G02*
X326236Y72754I-3492J3D01*
G01*
X380000D01*
Y82750D01*
X326236D01*
G75*
G02*
X319542Y81500I-3486J118D01*
G01*
X316348D01*
Y79152D01*
X309152D01*
Y82750D01*
X306350D01*
Y82750D01*
G75*
G02*
X299374Y81500I-3600J0D01*
G01*
X293892D01*
G75*
G02*
X291124Y79000I-3642J1250D01*
G01*
X334750D01*
G75*
G02*
X341000Y77750I3000J-1250D01*
G01*
G75*
G02*
X334750Y76500I-3250J0D01*
G01*
X291124D01*
G37*
X10500Y92750D02*
G36*
X10500Y92750D02*
Y82750D01*
X67400D01*
G75*
G02*
X73100I2850J0D01*
G01*
X87400D01*
Y85600D01*
X93100D01*
Y82750D01*
X109500D01*
G75*
G02*
X115750Y84000I3250J0D01*
G01*
X121608D01*
G75*
G02*
X125250Y86600I3642J-1250D01*
G01*
X130250D01*
G75*
G02*
X134100Y82750I0J-3850D01*
G01*
X151400D01*
G75*
G02*
X155250Y86600I3850J0D01*
G01*
X160250D01*
G75*
G02*
X163892Y84000I0J-3851D01*
G01*
X166874D01*
G75*
G02*
X173850Y82750I3376J-1250D01*
G01*
Y82750D01*
X176652D01*
Y86348D01*
X183848D01*
Y84000D01*
X186951D01*
G75*
G02*
X193738Y82868I3299J-1132D01*
G01*
G75*
G02*
X193736Y82750I-3493J-1D01*
G01*
X251400D01*
G75*
G02*
X255250Y86600I3850J0D01*
G01*
X260250D01*
G75*
G02*
X263892Y84000I0J-3851D01*
G01*
X274732D01*
X277245Y86513D01*
G75*
G02*
X277000Y87750I3005J1237D01*
G01*
G75*
G02*
X282310Y90264I3250J0D01*
G01*
G75*
G02*
X281400Y92750I2940J2486D01*
G01*
X264100D01*
G75*
G02*
X260250Y88900I-3850J0D01*
G01*
X255250D01*
G75*
G02*
X251608Y91500I0J3851D01*
G01*
X243250D01*
G75*
G02*
X237000Y92750I-3000J1250D01*
G01*
X193736D01*
G75*
G02*
X187042Y91500I-3486J118D01*
G01*
X183848D01*
Y89152D01*
X176652D01*
Y92750D01*
X173850D01*
Y92750D01*
G75*
G02*
X166874Y91500I-3600J0D01*
G01*
X163892D01*
G75*
G02*
X160250Y88900I-3642J1250D01*
G01*
X155250D01*
G75*
G02*
X151400Y92750I0J3850D01*
G01*
X134100D01*
G75*
G02*
X130250Y88900I-3850J0D01*
G01*
X125250D01*
G75*
G02*
X121608Y91500I0J3851D01*
G01*
X105750D01*
G75*
G02*
X99500Y92750I-3000J1250D01*
G01*
X83500D01*
G75*
G02*
X77000I-3250J0D01*
G01*
X49187D01*
G75*
G02*
X41313I-3937J0D01*
G01*
X38787D01*
G75*
G02*
X31713I-3537J0D01*
G01*
X10500D01*
G37*
X279013Y84745D02*
G36*
X279013Y84745D02*
X277018Y82750D01*
X281400D01*
G75*
G02*
X282310Y85236I3851J0D01*
G01*
G75*
G02*
X279013Y84745I-2060J2513D01*
G01*
G37*
X283500Y87750D02*
G36*
X283500Y87750D02*
G75*
G02*
X282764Y85690I-3250J0D01*
G01*
G75*
G02*
X285250Y86600I2485J-2938D01*
G01*
X290250D01*
G75*
G02*
X293892Y84000I0J-3851D01*
G01*
X299374D01*
G75*
G02*
X306350Y82750I3376J-1250D01*
G01*
Y82750D01*
X309152D01*
Y86348D01*
X316348D01*
Y84000D01*
X319451D01*
G75*
G02*
X326238Y82868I3299J-1132D01*
G01*
G75*
G02*
X326236Y82750I-3493J-1D01*
G01*
X380000D01*
Y92750D01*
X326236D01*
G75*
G02*
X319542Y91500I-3486J118D01*
G01*
X316348D01*
Y89152D01*
X309152D01*
Y92750D01*
X306350D01*
Y92750D01*
G75*
G02*
X299374Y91500I-3600J0D01*
G01*
X293892D01*
G75*
G02*
X290250Y88900I-3642J1250D01*
G01*
X285250D01*
G75*
G02*
X282764Y89810I0J3851D01*
G01*
G75*
G02*
X283500Y87750I-2513J-2060D01*
G01*
G37*
X10500Y102750D02*
G36*
X10500Y102750D02*
Y92750D01*
X31713D01*
G75*
G02*
X38787I3537J0D01*
G01*
X41313D01*
G75*
G02*
X49187I3937J0D01*
G01*
X77000D01*
G75*
G02*
X83500I3250J0D01*
G01*
X99500D01*
G75*
G02*
X105750Y94000I3250J0D01*
G01*
X121608D01*
G75*
G02*
X125250Y96600I3642J-1250D01*
G01*
X130250D01*
G75*
G02*
X134100Y92750I0J-3850D01*
G01*
X151400D01*
G75*
G02*
X155250Y96600I3850J0D01*
G01*
X160250D01*
G75*
G02*
X163892Y94000I0J-3851D01*
G01*
X166874D01*
G75*
G02*
X173850Y92750I3376J-1250D01*
G01*
Y92750D01*
X176652D01*
Y96348D01*
X183848D01*
Y94000D01*
X186951D01*
G75*
G02*
X193738Y92868I3299J-1132D01*
G01*
G75*
G02*
X193736Y92750I-3493J-1D01*
G01*
X237000D01*
G75*
G02*
X243250Y94000I3250J0D01*
G01*
X251608D01*
G75*
G02*
X255250Y96600I3642J-1250D01*
G01*
X260250D01*
G75*
G02*
X264100Y92750I0J-3850D01*
G01*
X281400D01*
G75*
G02*
X285250Y96600I3850J0D01*
G01*
X290250D01*
G75*
G02*
X293892Y94000I0J-3851D01*
G01*
X299374D01*
G75*
G02*
X306350Y92750I3376J-1250D01*
G01*
Y92750D01*
X309152D01*
Y96348D01*
X316348D01*
Y94000D01*
X319451D01*
G75*
G02*
X326238Y92868I3299J-1132D01*
G01*
G75*
G02*
X326236Y92750I-3493J-1D01*
G01*
X380000D01*
Y102750D01*
X326236D01*
G75*
G02*
X319264I-3486J118D01*
G01*
X294100D01*
G75*
G02*
X290250Y98900I-3850J0D01*
G01*
X285250D01*
G75*
G02*
X281400Y102750I0J3850D01*
G01*
X264100D01*
G75*
G02*
X260250Y98900I-3850J0D01*
G01*
X255250D01*
G75*
G02*
X251608Y101500I0J3851D01*
G01*
X200768D01*
X196135Y96868D01*
G75*
G02*
X195250Y96500I-885J882D01*
G01*
X185250D01*
G75*
G02*
X184365Y96868I0J1250D01*
G01*
X179732Y101500D01*
X163892D01*
G75*
G02*
X160250Y98900I-3642J1250D01*
G01*
X155250D01*
G75*
G02*
X151400Y102750I0J3850D01*
G01*
X134100D01*
G75*
G02*
X130250Y98900I-3850J0D01*
G01*
X125250D01*
G75*
G02*
X121400Y102750I0J3850D01*
G01*
X86187D01*
G75*
G02*
X79313I-3437J2500D01*
G01*
X75678D01*
G75*
G02*
X72750Y101400I-2928J2500D01*
G01*
G75*
G02*
X69822Y102750I0J3850D01*
G01*
X48787D01*
G75*
G02*
X41713I-3537J0D01*
G01*
X38787D01*
G75*
G02*
X31713I-3537J0D01*
G01*
X10500D01*
G37*
X182018D02*
G36*
X182018Y102750D02*
X185768Y99000D01*
X194732D01*
X198482Y102750D01*
X193736D01*
G75*
G02*
X186764I-3486J118D01*
G01*
X182018D01*
G37*
X10500Y112750D02*
G36*
X10500Y112750D02*
Y102750D01*
X31713D01*
G75*
G02*
X38787I3537J0D01*
G01*
X41713D01*
G75*
G02*
X48787I3537J0D01*
G01*
X69822D01*
G75*
G02*
X68900Y105250I2928J2500D01*
G01*
Y105250D01*
Y105250D01*
G75*
G02*
X72750Y109100I3850J0D01*
G01*
G75*
G02*
X76600Y105250I0J-3850D01*
G01*
Y105250D01*
Y105250D01*
G75*
G02*
X75678Y102750I-3850J0D01*
G01*
X79313D01*
G75*
G02*
X78500Y105250I3437J2500D01*
G01*
G75*
G02*
X87000I4250J0D01*
G01*
G75*
G02*
X86187Y102750I-4250J0D01*
G01*
X121400D01*
G75*
G02*
X125250Y106600I3850J0D01*
G01*
X126500D01*
Y107750D01*
G75*
G02*
Y107751I1157J0D01*
G01*
G75*
G02*
X127259Y108900I1249J0D01*
G01*
X125250D01*
G75*
G02*
X121400Y112750I0J3850D01*
G01*
X93500D01*
G75*
G02*
X87250Y111500I-3250J0D01*
G01*
X48559D01*
G75*
G02*
X41713Y112750I-3309J1250D01*
G01*
X38787D01*
G75*
G02*
X31941Y111500I-3537J0D01*
G01*
X23250D01*
G75*
G02*
X17000Y112750I-3000J1250D01*
G01*
X10500D01*
G37*
X134100Y102750D02*
G36*
X134100Y102750D02*
X151400D01*
G75*
G02*
X154376Y106500I3850J0D01*
G01*
X131124D01*
G75*
G02*
X134100Y102750I-874J-3750D01*
G01*
G37*
Y112750D02*
G36*
X134100Y112750D02*
G75*
G02*
X131124Y109000I-3850J0D01*
G01*
X153250D01*
G75*
G02*
X151000Y112750I2000J3750D01*
G01*
X134100D01*
G37*
X161124Y106500D02*
G36*
X161124Y106500D02*
G75*
G02*
X163892Y104000I-874J-3750D01*
G01*
X180250D01*
G75*
G02*
X181135Y103632I0J-1250D01*
G01*
X182018Y102750D01*
X186764D01*
G75*
G02*
X186762Y102868I3487J117D01*
G01*
G75*
G02*
X193738I3488J0D01*
G01*
G75*
G02*
X193736Y102750I-3489J-1D01*
G01*
X198482D01*
X199365Y103632D01*
G75*
G02*
X200250Y104000I885J-882D01*
G01*
X251608D01*
G75*
G02*
X255250Y106600I3642J-1250D01*
G01*
X260250D01*
G75*
G02*
X264100Y102750I0J-3850D01*
G01*
X281400D01*
G75*
G02*
X285250Y106600I3850J0D01*
G01*
X290250D01*
G75*
G02*
X294100Y102750I0J-3850D01*
G01*
X319264D01*
G75*
G02*
X319262Y102868I3487J117D01*
G01*
G75*
G02*
X326238I3488J0D01*
G01*
G75*
G02*
X326236Y102750I-3489J-1D01*
G01*
X380000D01*
Y112750D01*
X294500D01*
G75*
G02*
X290250Y108500I-4250J0D01*
G01*
X285250D01*
G75*
G02*
X281000Y112750I0J4250D01*
G01*
X264100D01*
G75*
G02*
X260250Y108900I-3850J0D01*
G01*
X255250D01*
G75*
G02*
X251400Y112750I0J3850D01*
G01*
X164500D01*
G75*
G02*
X162250Y109000I-4250J0D01*
G01*
X202250D01*
G75*
G02*
X208500Y107750I3000J-1250D01*
G01*
G75*
G02*
X202250Y106500I-3250J0D01*
G01*
X161124D01*
G37*
X10500Y125593D02*
G36*
X10500Y125593D02*
Y112750D01*
X17000D01*
G75*
G02*
X23250Y114000I3250J0D01*
G01*
X31941D01*
G75*
G02*
X38787Y112750I3309J-1250D01*
G01*
X41713D01*
G75*
G02*
X48559Y114000I3537J0D01*
G01*
X87250D01*
G75*
G02*
X93500Y112750I3000J-1250D01*
G01*
X121400D01*
G75*
G02*
X125250Y116600I3850J0D01*
G01*
X130250D01*
G75*
G02*
X134100Y112750I0J-3850D01*
G01*
X151000D01*
G75*
G02*
X155250Y117000I4250J0D01*
G01*
X160250D01*
G75*
G02*
X164500Y112750I0J-4250D01*
G01*
X251400D01*
G75*
G02*
X255250Y116600I3850J0D01*
G01*
X260250D01*
G75*
G02*
X264100Y112750I0J-3850D01*
G01*
X281000D01*
G75*
G02*
X285250Y117000I4250J0D01*
G01*
X290250D01*
G75*
G02*
X294500Y112750I0J-4250D01*
G01*
X380000D01*
Y125593D01*
X292846D01*
G75*
G02*
X294100Y122750I-2596J-2843D01*
G01*
G75*
G02*
X290250Y118900I-3850J0D01*
G01*
X285250D01*
G75*
G02*
X281400Y122750I0J3850D01*
G01*
G75*
G02*
X282654Y125593I3850J0D01*
G01*
X262846D01*
G75*
G02*
X264100Y122750I-2596J-2843D01*
G01*
G75*
G02*
X260250Y118900I-3850J0D01*
G01*
X255250D01*
G75*
G02*
X251400Y122750I0J3850D01*
G01*
G75*
G02*
X252654Y125593I3850J0D01*
G01*
X162846D01*
G75*
G02*
X164100Y122750I-2596J-2843D01*
G01*
G75*
G02*
X160250Y118900I-3850J0D01*
G01*
X155250D01*
G75*
G02*
X151400Y122750I0J3850D01*
G01*
G75*
G02*
X152654Y125593I3850J0D01*
G01*
X132846D01*
G75*
G02*
X134100Y122750I-2596J-2843D01*
G01*
G75*
G02*
X130250Y118900I-3850J0D01*
G01*
X125250D01*
G75*
G02*
X121400Y122750I0J3850D01*
G01*
G75*
G02*
X122654Y125593I3850J0D01*
G01*
X97681D01*
G75*
G02*
X92819I-2431J2157D01*
G01*
X87000D01*
Y119000D01*
X97250D01*
G75*
G02*
X103500Y117750I3000J-1250D01*
G01*
G75*
G02*
X97250Y116500I-3250J0D01*
G01*
X45250D01*
G75*
G02*
X44000Y117750I0J1250D01*
G01*
Y119441D01*
G75*
G02*
X41713Y122750I1251J3309D01*
G01*
G75*
G02*
X43146Y125593I3537J0D01*
G01*
X37354D01*
G75*
G02*
X38787Y122750I-2104J-2844D01*
G01*
G75*
G02*
X31713I-3537J0D01*
G01*
G75*
G02*
X33146Y125593I3538J0D01*
G01*
X10500D01*
G37*
X46500Y119441D02*
G36*
X46500Y119441D02*
Y119000D01*
X71878D01*
G75*
G02*
X68900Y122750I872J3750D01*
G01*
G75*
G02*
X70154Y125593I3850J0D01*
G01*
X47354D01*
G75*
G02*
X48787Y122750I-2104J-2843D01*
G01*
G75*
G02*
X46500Y119441I-3538J0D01*
G01*
G37*
X10500Y135306D02*
G36*
X10500Y135306D02*
Y125593D01*
X33146D01*
G75*
G02*
X34000Y126059I2104J-2844D01*
G01*
Y127750D01*
G75*
G02*
X34668Y128856I1250J0D01*
G01*
G75*
G02*
X31313Y132750I582J3894D01*
G01*
G75*
G02*
X32256Y135306I3937J0D01*
G01*
X10500D01*
G37*
X36500Y126500D02*
G36*
X36500Y126500D02*
Y126059D01*
G75*
G02*
X37354Y125593I-1251J-3309D01*
G01*
X43146D01*
G75*
G02*
X47354I2104J-2844D01*
G01*
X70154D01*
G75*
G02*
X71878Y126500I2596J-2843D01*
G01*
X36500D01*
G37*
X39187Y132750D02*
G36*
X39187Y132750D02*
G75*
G02*
X36449Y129000I-3937J0D01*
G01*
X92250D01*
G75*
G02*
X98500Y127750I3000J-1250D01*
G01*
G75*
G02*
X97681Y125593I-3250J0D01*
G01*
X122654D01*
G75*
G02*
X125250Y126600I2596J-2843D01*
G01*
X130250D01*
G75*
G02*
X132846Y125593I0J-3850D01*
G01*
X152654D01*
G75*
G02*
X155250Y126600I2596J-2843D01*
G01*
X160250D01*
G75*
G02*
X162846Y125593I0J-3850D01*
G01*
X252654D01*
G75*
G02*
X255250Y126600I2596J-2843D01*
G01*
X260250D01*
G75*
G02*
X262846Y125593I0J-3850D01*
G01*
X282654D01*
G75*
G02*
X285250Y126600I2596J-2843D01*
G01*
X290250D01*
G75*
G02*
X292846Y125593I0J-3850D01*
G01*
X380000D01*
Y135306D01*
X325349D01*
G75*
G02*
X320151I-2599J2326D01*
G01*
X315725D01*
G75*
G02*
X309775I-2975J2444D01*
G01*
X307000D01*
Y133500D01*
X298500D01*
Y135306D01*
X297393D01*
G75*
G02*
X293107I-2143J2444D01*
G01*
X207393D01*
G75*
G02*
X203107I-2143J2444D01*
G01*
X192489D01*
G75*
G02*
X193738Y132632I-2239J-2674D01*
G01*
G75*
G02*
X186762I-3488J0D01*
G01*
G75*
G02*
X188011Y135306I3488J0D01*
G01*
X183129D01*
G75*
G02*
X184100Y132750I-2879J-2556D01*
G01*
G75*
G02*
X176400I-3850J0D01*
G01*
G75*
G02*
X177371Y135306I3850J0D01*
G01*
X174500D01*
Y128500D01*
X166000D01*
Y135306D01*
X75461D01*
G75*
G02*
X71301Y134400I-2711J2444D01*
G01*
X49138D01*
X48606Y133868D01*
G75*
G02*
X48787Y132750I-3351J-1118D01*
G01*
Y132750D01*
G75*
G02*
X41713I-3537J0D01*
G01*
G75*
G02*
X41900Y133885I3551J-2D01*
G01*
Y135250D01*
G75*
G02*
X41900Y135306I3350J5D01*
G01*
X38244D01*
G75*
G02*
X39187Y132750I-2994J-2557D01*
G01*
G37*
X87000Y126500D02*
G36*
X87000Y126500D02*
Y125593D01*
X92819D01*
G75*
G02*
X92250Y126500I2431J2156D01*
G01*
X87000D01*
G37*
X10500Y142746D02*
G36*
X10500Y142746D02*
Y135306D01*
X32256D01*
G75*
G02*
X38244I2994J-2556D01*
G01*
X41900D01*
G75*
G02*
X42883Y137620I3349J-56D01*
G01*
X45380Y140117D01*
G75*
G02*
X47750Y141100I2370J-2367D01*
G01*
X71301D01*
G75*
G02*
X76400Y137750I1449J-3350D01*
G01*
G75*
G02*
X75461Y135306I-3650J0D01*
G01*
X166000D01*
Y137000D01*
X174500D01*
Y135306D01*
X177371D01*
G75*
G02*
X183129I2879J-2556D01*
G01*
X188011D01*
G75*
G02*
X192489I2239J-2675D01*
G01*
X203107D01*
G75*
G02*
X202000Y137750I2143J2443D01*
G01*
G75*
G02*
X208250Y139000I3250J0D01*
G01*
X292250D01*
G75*
G02*
X298500Y137750I3000J-1250D01*
G01*
Y142000D01*
X307000D01*
Y135306D01*
X309775D01*
G75*
G02*
X308900Y137750I2975J2443D01*
G01*
G75*
G02*
X316600I3850J0D01*
G01*
G75*
G02*
X315725Y135306I-3850J0D01*
G01*
X320151D01*
G75*
G02*
X319262Y137632I2599J2326D01*
G01*
G75*
G02*
X326238I3488J0D01*
G01*
G75*
G02*
X325349Y135306I-3488J0D01*
G01*
X380000D01*
Y142746D01*
X193736D01*
G75*
G02*
X193738Y142632I-3489J-117D01*
G01*
G75*
G02*
X186951Y141500I-3488J0D01*
G01*
X183848D01*
Y139152D01*
X176652D01*
Y142746D01*
X173850D01*
G75*
G02*
X166874Y141500I-3600J4D01*
G01*
X156500D01*
Y140250D01*
G75*
G02*
X155250Y139000I-1250J0D01*
G01*
X115750D01*
G75*
G02*
X109500Y140250I-3000J1250D01*
G01*
G75*
G02*
X110669Y142746I3250J0D01*
G01*
X10500D01*
G37*
X114831D02*
G36*
X114831Y142746D02*
G75*
G02*
X115750Y141500I-2081J-2496D01*
G01*
X154000D01*
Y142746D01*
X139822D01*
G75*
G02*
X135678I-2072J2504D01*
G01*
X114831D01*
G37*
X208250Y136500D02*
G36*
X208250Y136500D02*
G75*
G02*
X207393Y135306I-3000J1250D01*
G01*
X293107D01*
G75*
G02*
X292250Y136500I2143J2443D01*
G01*
X208250D01*
G37*
X297393Y135306D02*
G36*
X297393Y135306D02*
X298500D01*
Y137750D01*
G75*
G02*
X297393Y135306I-3250J0D01*
G01*
G37*
X10500Y147750D02*
G36*
X10500Y147750D02*
Y142746D01*
X110669D01*
G75*
G02*
X114831I2081J-2496D01*
G01*
X135678D01*
G75*
G02*
X134750Y144000I2072J2504D01*
G01*
X85250D01*
G75*
G02*
X84365Y144368I0J1250D01*
G01*
X80982Y147750D01*
X10500D01*
G37*
X84518D02*
G36*
X84518Y147750D02*
X85768Y146500D01*
X134750D01*
G75*
G02*
X135673Y147750I3000J-1250D01*
G01*
X84518D01*
G37*
X141000Y145250D02*
G36*
X141000Y145250D02*
G75*
G02*
X139822Y142746I-3250J0D01*
G01*
X154000D01*
Y142750D01*
G75*
G02*
X155250Y144000I1250J0D01*
G01*
X166874D01*
G75*
G02*
X173850Y142750I3376J-1250D01*
G01*
Y142750D01*
Y142750D01*
G75*
G02*
Y142746I-3441J-2D01*
G01*
X176652D01*
Y146348D01*
X183848D01*
Y144000D01*
X187042D01*
G75*
G02*
X193736Y142746I3208J-1368D01*
G01*
X380000D01*
Y147750D01*
X326236D01*
G75*
G02*
X326238Y147632I-3491J-117D01*
G01*
G75*
G02*
X319451Y146500I-3488J0D01*
G01*
X316348D01*
Y144152D01*
X309152D01*
Y147750D01*
X306350D01*
Y147750D01*
G75*
G02*
X299374Y146500I-3600J0D01*
G01*
X240750D01*
G75*
G02*
X234500Y147750I-3000J1250D01*
G01*
X139827D01*
G75*
G02*
X141000Y145250I-2077J-2500D01*
G01*
G37*
X10500Y152750D02*
G36*
X10500Y152750D02*
Y147750D01*
X80982D01*
X75982Y152750D01*
X10500D01*
G37*
X79518D02*
G36*
X79518Y152750D02*
X84518Y147750D01*
X135673D01*
G75*
G02*
X139827I2077J-2500D01*
G01*
X234500D01*
G75*
G02*
X240750Y149000I3250J0D01*
G01*
X299374D01*
G75*
G02*
X306350Y147750I3376J-1250D01*
G01*
Y147750D01*
X309152D01*
Y151348D01*
X316348D01*
Y149000D01*
X319542D01*
G75*
G02*
X326236Y147750I3208J-1368D01*
G01*
X380000D01*
Y152750D01*
X193736D01*
G75*
G02*
X193738Y152632I-3491J-117D01*
G01*
G75*
G02*
X186951Y151500I-3488J0D01*
G01*
X183848D01*
Y149152D01*
X176652D01*
Y152750D01*
X173850D01*
G75*
G02*
X166650I-3600J0D01*
G01*
X164500D01*
G75*
G02*
X160250Y148500I-4250J0D01*
G01*
X155250D01*
G75*
G02*
X151000Y152750I0J4250D01*
G01*
X134500D01*
G75*
G02*
X130250Y148500I-4250J0D01*
G01*
X125250D01*
G75*
G02*
X121000Y152750I0J4250D01*
G01*
X79518D01*
G37*
X10500Y157746D02*
G36*
X10500Y157746D02*
Y152750D01*
X75982D01*
X72232Y156500D01*
X68250D01*
G75*
G02*
X62000Y157746I-3000J1250D01*
G01*
X10500D01*
G37*
X74522D02*
G36*
X74522Y157746D02*
X79518Y152750D01*
X121000D01*
G75*
G02*
X125250Y157000I4250J0D01*
G01*
X130250D01*
G75*
G02*
X134500Y152750I0J-4250D01*
G01*
X151000D01*
G75*
G02*
X155250Y157000I4250J0D01*
G01*
X160250D01*
G75*
G02*
X164500Y152750I0J-4250D01*
G01*
X166650D01*
G75*
G02*
X173850I3600J0D01*
G01*
X176652D01*
Y156348D01*
X183848D01*
Y154000D01*
X187042D01*
G75*
G02*
X193736Y152750I3208J-1368D01*
G01*
X380000D01*
Y157746D01*
X326236D01*
G75*
G02*
X326238Y157632I-3489J-117D01*
G01*
G75*
G02*
X319451Y156500I-3488J0D01*
G01*
X316348D01*
Y154152D01*
X309152D01*
Y157746D01*
X306350D01*
G75*
G02*
X299150I-3600J4D01*
G01*
X294500D01*
G75*
G02*
X290250Y153500I-4250J4D01*
G01*
X285250D01*
G75*
G02*
X281000Y157746I0J4250D01*
G01*
X264500D01*
G75*
G02*
X260250Y153500I-4250J4D01*
G01*
X255250D01*
G75*
G02*
X251000Y157746I0J4250D01*
G01*
X74522D01*
G37*
X10500Y162750D02*
G36*
X10500Y162750D02*
Y157746D01*
X62000D01*
G75*
G02*
Y157750I3418J2D01*
G01*
G75*
G02*
X68250Y159000I3250J0D01*
G01*
X72750D01*
G75*
G02*
X73635Y158632I0J-1250D01*
G01*
X74522Y157746D01*
X251000D01*
G75*
G02*
Y157750I4338J2D01*
G01*
G75*
G02*
X253250Y161500I4250J0D01*
G01*
X248250D01*
G75*
G02*
X242000Y162750I-3000J1250D01*
G01*
X193736D01*
G75*
G02*
X193738Y162632I-3491J-117D01*
G01*
G75*
G02*
X186951Y161500I-3488J0D01*
G01*
X183848D01*
Y159152D01*
X176652D01*
Y162750D01*
X173850D01*
G75*
G02*
X170250Y159150I-3600J0D01*
G01*
G75*
G02*
X166650Y162750I0J3600D01*
G01*
X164100D01*
G75*
G02*
X160250Y158900I-3850J0D01*
G01*
X155250D01*
G75*
G02*
X151608Y161500I0J3851D01*
G01*
X140750D01*
G75*
G02*
X134500Y162731I-3000J1250D01*
G01*
G75*
G02*
X130250Y158500I-4250J19D01*
G01*
X125250D01*
G75*
G02*
X121000Y162750I0J4250D01*
G01*
X10500D01*
G37*
X264500Y157750D02*
G36*
X264500Y157750D02*
G75*
G02*
Y157746I-4338J-2D01*
G01*
X281000D01*
G75*
G02*
Y157750I4338J2D01*
G01*
G75*
G02*
X283250Y161500I4250J0D01*
G01*
X262250D01*
G75*
G02*
X264500Y157750I-2000J-3750D01*
G01*
G37*
X294500D02*
G36*
X294500Y157750D02*
G75*
G02*
Y157746I-4338J-2D01*
G01*
X299150D01*
G75*
G02*
Y157750I3638J2D01*
G01*
Y157750D01*
G75*
G02*
X299479Y159253I3599J0D01*
G01*
X297232Y161500D01*
X292250D01*
G75*
G02*
X294500Y157750I-2000J-3750D01*
G01*
G37*
X299518Y162750D02*
G36*
X299518Y162750D02*
X301247Y161021D01*
G75*
G02*
X306350Y157750I1503J-3271D01*
G01*
G75*
G02*
Y157746I-3638J-2D01*
G01*
X309152D01*
Y161348D01*
X316348D01*
Y159000D01*
X319542D01*
G75*
G02*
X326236Y157746I3208J-1368D01*
G01*
X380000D01*
Y162750D01*
X299518D01*
G37*
X10500Y167746D02*
G36*
X10500Y167746D02*
Y162750D01*
X121000D01*
G75*
G02*
X123250Y166500I4250J0D01*
G01*
X78250D01*
G75*
G02*
X72000Y167746I-3000J1250D01*
G01*
X10500D01*
G37*
X132250Y166500D02*
G36*
X132250Y166500D02*
G75*
G02*
X134500Y162769I-2000J-3750D01*
G01*
G75*
G02*
X140750Y164000I3250J-19D01*
G01*
X151608D01*
G75*
G02*
X155250Y166600I3642J-1250D01*
G01*
X160250D01*
G75*
G02*
X164100Y162750I0J-3850D01*
G01*
X166650D01*
G75*
G02*
X170250Y166350I3600J0D01*
G01*
G75*
G02*
X171753Y166021I0J-3598D01*
G01*
X173478Y167746D01*
X142014D01*
X141135Y166868D01*
G75*
G02*
X140250Y166500I-885J882D01*
G01*
X132250D01*
G37*
X173850Y162750D02*
G36*
X173850Y162750D02*
X176652D01*
Y166348D01*
X183848D01*
Y164000D01*
X187042D01*
G75*
G02*
X193736Y162750I3208J-1368D01*
G01*
X242000D01*
G75*
G02*
X248250Y164000I3250J0D01*
G01*
X253250D01*
G75*
G02*
X251000Y167746I2000J3750D01*
G01*
X208500D01*
G75*
G02*
X202250Y166500I-3250J4D01*
G01*
X175768D01*
X173521Y164253D01*
G75*
G02*
X173850Y162750I-3272J-1503D01*
G01*
G37*
X294100Y167746D02*
G36*
X294100Y167746D02*
G75*
G02*
X291124Y164000I-3850J4D01*
G01*
X297750D01*
G75*
G02*
X298635Y163632I0J-1250D01*
G01*
X299518Y162750D01*
X380000D01*
Y167746D01*
X326236D01*
G75*
G02*
X326238Y167632I-3489J-117D01*
G01*
G75*
G02*
X319451Y166500I-3488J0D01*
G01*
X316348D01*
Y164152D01*
X309152D01*
Y167746D01*
X306350D01*
G75*
G02*
X299150I-3600J4D01*
G01*
X294100D01*
G37*
X10500Y172550D02*
G36*
X10500Y172550D02*
Y167746D01*
X72000D01*
G75*
G02*
Y167750I3418J2D01*
G01*
G75*
G02*
X78250Y169000I3250J0D01*
G01*
X124376D01*
G75*
G02*
X121405Y172550I874J3750D01*
G01*
X44495D01*
G75*
G02*
X36005I-4245J200D01*
G01*
X34095D01*
G75*
G02*
X30250Y168900I-3844J200D01*
G01*
G75*
G02*
X26405Y172550I0J3850D01*
G01*
X10500D01*
G37*
X134095D02*
G36*
X134095Y172550D02*
G75*
G02*
X131124Y169000I-3845J200D01*
G01*
X139732D01*
X142245Y171513D01*
G75*
G02*
X142006Y172550I3005J1237D01*
G01*
X134095D01*
G37*
X144013Y169745D02*
G36*
X144013Y169745D02*
X142014Y167746D01*
X173478D01*
X174365Y168632D01*
G75*
G02*
X175250Y169000I885J-882D01*
G01*
X202250D01*
G75*
G02*
X208500Y167750I3000J-1250D01*
G01*
G75*
G02*
Y167746I-3418J-2D01*
G01*
X251000D01*
G75*
G02*
Y167750I4256J2D01*
G01*
G75*
G02*
X255250Y172000I4250J0D01*
G01*
X260250D01*
G75*
G02*
X262250Y171500I1J-4247D01*
G01*
G75*
G02*
X262006Y172550I3001J1250D01*
G01*
X193737D01*
G75*
G02*
X186951Y171500I-3487J82D01*
G01*
X183848D01*
Y169152D01*
X176652D01*
Y172550D01*
X173844D01*
G75*
G02*
X166656I-3594J200D01*
G01*
X164095D01*
G75*
G02*
X160250Y168900I-3845J200D01*
G01*
X155250D01*
G75*
G02*
X151608Y171500I0J3851D01*
G01*
X148250D01*
G75*
G02*
X144013Y169745I-3000J1251D01*
G01*
G37*
X294100Y167750D02*
G36*
X294100Y167750D02*
G75*
G02*
Y167746I-3889J-2D01*
G01*
X299150D01*
G75*
G02*
Y167750I3638J2D01*
G01*
Y167750D01*
G75*
G02*
X299479Y169253I3599J0D01*
G01*
X297232Y171500D01*
X291124D01*
G75*
G02*
X294100Y167750I-874J-3750D01*
G01*
G37*
X299718Y172550D02*
G36*
X299718Y172550D02*
X301247Y171021D01*
G75*
G02*
X306350Y167750I1503J-3271D01*
G01*
G75*
G02*
Y167746I-3638J-2D01*
G01*
X309152D01*
Y171348D01*
X316348D01*
Y169000D01*
X319542D01*
G75*
G02*
X326236Y167746I3208J-1368D01*
G01*
X380000D01*
Y172550D01*
X299718D01*
G37*
X10500Y177746D02*
G36*
X10500Y177746D02*
Y172550D01*
X26405D01*
G75*
G02*
X26400Y172750I3843J198D01*
G01*
Y172750D01*
Y172750D01*
G75*
G02*
X30250Y176600I3850J0D01*
G01*
G75*
G02*
X34100Y172750I0J-3850D01*
G01*
Y172750D01*
Y172750D01*
G75*
G02*
X34095Y172550I-3848J-1D01*
G01*
X36005D01*
G75*
G02*
X36000Y172750I4246J200D01*
G01*
G75*
G02*
X44500I4250J0D01*
G01*
G75*
G02*
X44495Y172550I-4250J0D01*
G01*
X121405D01*
G75*
G02*
X121400Y172750I3846J198D01*
G01*
G75*
G02*
X125250Y176600I3850J0D01*
G01*
X130250D01*
G75*
G02*
X134100Y172750I0J-3850D01*
G01*
G75*
G02*
X134095Y172550I-3851J-2D01*
G01*
X142006D01*
G75*
G02*
X142000Y172750I3241J202D01*
G01*
G75*
G02*
X148250Y174000I3250J0D01*
G01*
X151608D01*
G75*
G02*
X154376Y176500I3642J-1250D01*
G01*
X150250D01*
G75*
G02*
X149365Y176868I0J1250D01*
G01*
X148486Y177746D01*
X10500D01*
G37*
X164100Y172750D02*
G36*
X164100Y172750D02*
G75*
G02*
X164095Y172550I-3851J-2D01*
G01*
X166656D01*
G75*
G02*
X166650Y172750I3595J199D01*
G01*
Y172750D01*
G75*
G02*
X166979Y174253I3599J0D01*
G01*
X164732Y176500D01*
X161124D01*
G75*
G02*
X164100Y172750I-874J-3750D01*
G01*
G37*
X167022Y177746D02*
G36*
X167022Y177746D02*
X168747Y176021D01*
G75*
G02*
X173850Y172750I1503J-3271D01*
G01*
G75*
G02*
X173844Y172550I-3601J-1D01*
G01*
X176652D01*
Y176348D01*
X183848D01*
Y174000D01*
X187042D01*
G75*
G02*
X193738Y172632I3208J-1368D01*
G01*
G75*
G02*
X193737Y172550I-3489J-7D01*
G01*
X262006D01*
G75*
G02*
X262000Y172750I3248J202D01*
G01*
G75*
G02*
X262736Y174810I3250J0D01*
G01*
G75*
G02*
X260250Y173900I-2485J2938D01*
G01*
X255250D01*
G75*
G02*
X251400Y177746I0J3850D01*
G01*
X167022D01*
G37*
X264100D02*
G36*
X264100Y177746D02*
G75*
G02*
X263190Y175264I-3850J4D01*
G01*
G75*
G02*
X268250Y174000I2060J-2514D01*
G01*
X284376D01*
G75*
G02*
X281608Y176500I874J3750D01*
G01*
X278250D01*
G75*
G02*
X272000Y177746I-3000J1250D01*
G01*
X264100D01*
G37*
X294100D02*
G36*
X294100Y177746D02*
G75*
G02*
X291124Y174000I-3850J4D01*
G01*
X297750D01*
G75*
G02*
X298635Y173632I0J-1250D01*
G01*
X299718Y172550D01*
X380000D01*
Y177746D01*
X326236D01*
G75*
G02*
X326238Y177632I-3489J-117D01*
G01*
G75*
G02*
X319451Y176500I-3488J0D01*
G01*
X316348D01*
Y174152D01*
X309152D01*
Y177746D01*
X306350D01*
G75*
G02*
X299150I-3600J4D01*
G01*
X294100D01*
G37*
X10500Y182754D02*
G36*
X10500Y182754D02*
Y177746D01*
X148486D01*
X144732Y181500D01*
X133892D01*
G75*
G02*
X130250Y178900I-3642J1250D01*
G01*
X125250D01*
G75*
G02*
X121400Y182750I0J3850D01*
G01*
G75*
G02*
Y182754I3904J2D01*
G01*
X10500D01*
G37*
X147014D02*
G36*
X147014Y182754D02*
X150768Y179000D01*
X154376D01*
G75*
G02*
X151400Y182750I874J3750D01*
G01*
G75*
G02*
Y182754I3904J2D01*
G01*
X147014D01*
G37*
X163892Y181500D02*
G36*
X163892Y181500D02*
G75*
G02*
X161124Y179000I-3642J1250D01*
G01*
X165250D01*
G75*
G02*
X166135Y178632I0J-1250D01*
G01*
X167022Y177746D01*
X251400D01*
G75*
G02*
Y177750I3889J2D01*
G01*
G75*
G02*
X255250Y181600I3850J0D01*
G01*
X260250D01*
G75*
G02*
X264100Y177750I0J-3851D01*
G01*
G75*
G02*
X264100Y177746I-3691J408D01*
G01*
X272000D01*
G75*
G02*
Y177750I3418J2D01*
G01*
G75*
G02*
X278250Y179000I3250J0D01*
G01*
X281608D01*
G75*
G02*
X284376Y181500I3642J-1250D01*
G01*
X275250D01*
G75*
G02*
X274365Y181868I0J1250D01*
G01*
X273479Y182754D01*
X193736D01*
G75*
G02*
X187042Y181500I-3486J115D01*
G01*
X183848D01*
Y179152D01*
X176652D01*
Y182754D01*
X173850D01*
G75*
G02*
Y182750I-3405J-2D01*
G01*
Y182750D01*
Y182750D01*
G75*
G02*
X166874Y181500I-3600J0D01*
G01*
X163892D01*
G37*
X294100Y177750D02*
G36*
X294100Y177750D02*
G75*
G02*
Y177746I-3889J-2D01*
G01*
X299150D01*
G75*
G02*
Y177750I3638J2D01*
G01*
Y177750D01*
G75*
G02*
X299479Y179253I3599J0D01*
G01*
X297232Y181500D01*
X291124D01*
G75*
G02*
X294100Y177750I-874J-3750D01*
G01*
G37*
X299514Y182754D02*
G36*
X299514Y182754D02*
X301247Y181021D01*
G75*
G02*
X306350Y177750I1503J-3271D01*
G01*
G75*
G02*
Y177746I-3638J-2D01*
G01*
X309152D01*
Y181348D01*
X316348D01*
Y179000D01*
X319542D01*
G75*
G02*
X326236Y177746I3208J-1368D01*
G01*
X380000D01*
Y182754D01*
X299514D01*
G37*
X10500Y190250D02*
G36*
X10500Y190250D02*
Y182754D01*
X121400D01*
G75*
G02*
X125250Y186600I3850J-4D01*
G01*
X130250D01*
G75*
G02*
X133892Y184000I0J-3851D01*
G01*
X145250D01*
G75*
G02*
X146135Y183632I0J-1250D01*
G01*
X147014Y182754D01*
X151400D01*
G75*
G02*
X154376Y186500I3850J-4D01*
G01*
X137750D01*
G75*
G02*
X136865Y186868I0J1250D01*
G01*
X133482Y190250D01*
X133179D01*
G75*
G02*
X130250Y188900I-2929J2500D01*
G01*
X125250D01*
G75*
G02*
X122322Y190250I0J3850D01*
G01*
X44500D01*
Y186000D01*
X36000D01*
Y190250D01*
X34100D01*
G75*
G02*
X26400I-3850J0D01*
G01*
X10500D01*
G37*
X137018D02*
G36*
X137018Y190250D02*
X138268Y189000D01*
X154376D01*
G75*
G02*
X152322Y190250I874J3750D01*
G01*
X137018D01*
G37*
X163178D02*
G36*
X163178Y190250D02*
G75*
G02*
X161124Y189000I-2928J2500D01*
G01*
X202250D01*
G75*
G02*
X203173Y190250I3000J-1250D01*
G01*
X192554D01*
G75*
G02*
X187946I-2304J2618D01*
G01*
X183848D01*
Y189152D01*
X176652D01*
Y190250D01*
X172841D01*
G75*
G02*
X167659I-2591J2500D01*
G01*
X163178D01*
G37*
X161124Y186500D02*
G36*
X161124Y186500D02*
G75*
G02*
X163892Y184000I-874J-3750D01*
G01*
X166874D01*
G75*
G02*
X173850Y182754I3376J-1250D01*
G01*
X176652D01*
Y186348D01*
X183848D01*
Y184000D01*
X186951D01*
G75*
G02*
X193738Y182868I3299J-1132D01*
G01*
G75*
G02*
X193736Y182754I-3492J3D01*
G01*
X273479D01*
X269732Y186500D01*
X263892D01*
G75*
G02*
X260250Y183900I-3642J1250D01*
G01*
X255250D01*
G75*
G02*
X251400Y187750I0J3850D01*
G01*
G75*
G02*
X252322Y190250I3850J0D01*
G01*
X207327D01*
G75*
G02*
X208500Y187750I-2077J-2500D01*
G01*
G75*
G02*
X202250Y186500I-3250J0D01*
G01*
X161124D01*
G37*
X263178Y190250D02*
G36*
X263178Y190250D02*
G75*
G02*
X263892Y189000I-2929J-2500D01*
G01*
X270250D01*
G75*
G02*
X271135Y188632I0J-1250D01*
G01*
X275768Y184000D01*
X284376D01*
G75*
G02*
X281400Y187750I874J3750D01*
G01*
G75*
G02*
X282322Y190250I3850J0D01*
G01*
X263178D01*
G37*
X293892Y186500D02*
G36*
X293892Y186500D02*
G75*
G02*
X291124Y184000I-3642J1250D01*
G01*
X297750D01*
G75*
G02*
X298635Y183632I0J-1250D01*
G01*
X299514Y182754D01*
X380000D01*
Y190250D01*
X325298D01*
G75*
G02*
X326238Y187868I-2548J-2382D01*
G01*
G75*
G02*
X319542Y186500I-3488J0D01*
G01*
X316348D01*
Y184152D01*
X309152D01*
Y190250D01*
X305341D01*
G75*
G02*
X306350Y187750I-2590J-2500D01*
G01*
Y187750D01*
Y187750D01*
G75*
G02*
X299374Y186500I-3600J0D01*
G01*
X293892D01*
G37*
X293178Y190250D02*
G36*
X293178Y190250D02*
G75*
G02*
X293892Y189000I-2929J-2500D01*
G01*
X299374D01*
G75*
G02*
X300159Y190250I3376J-1250D01*
G01*
X293178D01*
G37*
X316348D02*
G36*
X316348Y190250D02*
Y189000D01*
X319451D01*
G75*
G02*
X320202Y190250I3299J-1132D01*
G01*
X316348D01*
G37*
X10500Y197750D02*
G36*
X10500Y197750D02*
Y190250D01*
X26400D01*
G75*
G02*
X34100I3850J0D01*
G01*
X36000D01*
Y194500D01*
X44500D01*
Y190250D01*
X122322D01*
G75*
G02*
X121400Y192750I2928J2500D01*
G01*
G75*
G02*
X125250Y196600I3850J0D01*
G01*
X130250D01*
G75*
G02*
X134075Y193193I-1J-3851D01*
G01*
X137018Y190250D01*
X152322D01*
G75*
G02*
X151400Y192750I2928J2500D01*
G01*
G75*
G02*
X155250Y196600I3850J0D01*
G01*
X160250D01*
G75*
G02*
X163892Y194000I0J-3851D01*
G01*
X166874D01*
G75*
G02*
X173850Y192750I3376J-1250D01*
G01*
Y192750D01*
Y192750D01*
G75*
G02*
X172841Y190250I-3600J0D01*
G01*
X176652D01*
Y196348D01*
X183848D01*
Y194000D01*
X186951D01*
G75*
G02*
X193738Y192868I3299J-1132D01*
G01*
G75*
G02*
X192554Y190250I-3488J0D01*
G01*
X203173D01*
G75*
G02*
X207327I2077J-2500D01*
G01*
X252322D01*
G75*
G02*
X255250Y191600I2928J-2500D01*
G01*
X260250D01*
G75*
G02*
X263178Y190250I0J-3851D01*
G01*
X282322D01*
G75*
G02*
X285250Y191600I2928J-2500D01*
G01*
X290250D01*
G75*
G02*
X293178Y190250I0J-3851D01*
G01*
X300159D01*
G75*
G02*
X305341I2591J-2500D01*
G01*
X309152D01*
Y191348D01*
X316348D01*
Y190250D01*
X320202D01*
G75*
G02*
X325298I2548J-2382D01*
G01*
X380000D01*
Y197750D01*
X326236D01*
G75*
G02*
X319542Y196500I-3486J118D01*
G01*
X316348D01*
Y194152D01*
X309152D01*
Y197750D01*
X306350D01*
Y197750D01*
G75*
G02*
X299374Y196500I-3600J0D01*
G01*
X293892D01*
G75*
G02*
X290250Y193900I-3642J1250D01*
G01*
X285250D01*
G75*
G02*
X281400Y197750I0J3850D01*
G01*
X264100D01*
G75*
G02*
X260250Y193900I-3850J0D01*
G01*
X255250D01*
G75*
G02*
X251400Y197750I0J3850D01*
G01*
X10500D01*
G37*
X133314Y190418D02*
G36*
X133314Y190418D02*
G75*
G02*
X133179Y190250I-3065J2330D01*
G01*
X133482D01*
X133314Y190418D01*
G37*
X163892Y191500D02*
G36*
X163892Y191500D02*
G75*
G02*
X163178Y190250I-3642J1250D01*
G01*
X167659D01*
G75*
G02*
X166874Y191500I2591J2500D01*
G01*
X163892D01*
G37*
X183848D02*
G36*
X183848Y191500D02*
Y190250D01*
X187946D01*
G75*
G02*
X187042Y191500I2304J2618D01*
G01*
X183848D01*
G37*
X10500Y202754D02*
G36*
X10500Y202754D02*
Y197750D01*
X251400D01*
G75*
G02*
X255250Y201600I3850J0D01*
G01*
X260250D01*
G75*
G02*
X264100Y197750I0J-3850D01*
G01*
X281400D01*
G75*
G02*
X285250Y201600I3850J0D01*
G01*
X290250D01*
G75*
G02*
X293892Y199000I0J-3851D01*
G01*
X299374D01*
G75*
G02*
X306350Y197750I3376J-1250D01*
G01*
Y197750D01*
X309152D01*
Y201348D01*
X316348D01*
Y199000D01*
X319451D01*
G75*
G02*
X326238Y197868I3299J-1132D01*
G01*
G75*
G02*
X326236Y197750I-3493J-1D01*
G01*
X380000D01*
Y202754D01*
X193736D01*
G75*
G02*
X187042Y201500I-3486J115D01*
G01*
X183848D01*
Y199152D01*
X176652D01*
Y202754D01*
X173850D01*
G75*
G02*
Y202750I-3405J-2D01*
G01*
Y202750D01*
Y202750D01*
G75*
G02*
X166874Y201500I-3600J0D01*
G01*
X163892D01*
G75*
G02*
X160250Y198900I-3642J1250D01*
G01*
X155250D01*
G75*
G02*
X151400Y202750I0J3850D01*
G01*
G75*
G02*
Y202754I3904J2D01*
G01*
X142021D01*
X141135Y201868D01*
G75*
G02*
X140250Y201500I-885J882D01*
G01*
X133892D01*
G75*
G02*
X130250Y198900I-3642J1250D01*
G01*
X125250D01*
G75*
G02*
X121400Y202750I0J3850D01*
G01*
G75*
G02*
Y202754I3904J2D01*
G01*
X10500D01*
G37*
Y207750D02*
G36*
X10500Y207750D02*
Y202754D01*
X121400D01*
G75*
G02*
X125250Y206600I3850J-4D01*
G01*
X130250D01*
G75*
G02*
X133892Y204000I0J-3851D01*
G01*
X139732D01*
X143482Y207750D01*
X107327D01*
G75*
G02*
X103173I-2077J2500D01*
G01*
X92554D01*
G75*
G02*
X87946I-2304J2618D01*
G01*
X71600D01*
G75*
G02*
X67750Y203900I-3850J0D01*
G01*
X62750D01*
G75*
G02*
X58900Y207750I0J3850D01*
G01*
X41600D01*
G75*
G02*
X37750Y203900I-3850J0D01*
G01*
X32750D01*
G75*
G02*
X28900Y207750I0J3850D01*
G01*
X10500D01*
G37*
X145768Y206500D02*
G36*
X145768Y206500D02*
X142021Y202754D01*
X151400D01*
G75*
G02*
X154376Y206500I3850J-4D01*
G01*
X145768D01*
G37*
X163190Y205236D02*
G36*
X163190Y205236D02*
G75*
G02*
X163892Y204000I-2943J-2487D01*
G01*
X166874D01*
G75*
G02*
X173850Y202754I3376J-1250D01*
G01*
X176652D01*
Y206348D01*
X183848D01*
Y204000D01*
X186951D01*
G75*
G02*
X193738Y202868I3299J-1132D01*
G01*
G75*
G02*
X193736Y202754I-3492J3D01*
G01*
X380000D01*
Y207750D01*
X326236D01*
G75*
G02*
X319542Y206500I-3486J118D01*
G01*
X316348D01*
Y204152D01*
X309152D01*
Y207750D01*
X306350D01*
Y207750D01*
G75*
G02*
X299374Y206500I-3600J0D01*
G01*
X293892D01*
G75*
G02*
X290250Y203900I-3642J1250D01*
G01*
X285250D01*
G75*
G02*
X281400Y207750I0J3850D01*
G01*
X264100D01*
G75*
G02*
X260250Y203900I-3850J0D01*
G01*
X255250D01*
G75*
G02*
X251608Y206500I0J3851D01*
G01*
X248250D01*
G75*
G02*
X242000Y207750I-3000J1250D01*
G01*
X168500D01*
G75*
G02*
X163190Y205236I-3250J0D01*
G01*
G37*
X10500Y212754D02*
G36*
X10500Y212754D02*
Y207750D01*
X28900D01*
G75*
G02*
X32750Y211600I3850J0D01*
G01*
X37750D01*
G75*
G02*
X41600Y207750I0J-3850D01*
G01*
X58900D01*
G75*
G02*
X62750Y211600I3850J0D01*
G01*
X67750D01*
G75*
G02*
X71600Y207750I0J-3850D01*
G01*
X87946D01*
G75*
G02*
X86762Y210368I2305J2618D01*
G01*
G75*
G02*
X87706Y212754I3488J0D01*
G01*
X10500D01*
G37*
X93458Y209000D02*
G36*
X93458Y209000D02*
G75*
G02*
X92554Y207750I-3208J1368D01*
G01*
X103173D01*
G75*
G02*
X102250Y209000I2077J2500D01*
G01*
X93458D01*
G37*
X92794Y212754D02*
G36*
X92794Y212754D02*
G75*
G02*
X93549Y211500I-2544J-2386D01*
G01*
X102250D01*
G75*
G02*
X103178Y212754I3000J-1250D01*
G01*
X92794D01*
G37*
X108500Y210250D02*
G36*
X108500Y210250D02*
G75*
G02*
X107327Y207750I-3250J0D01*
G01*
X143482D01*
X144365Y208632D01*
G75*
G02*
X145250Y209000I885J-882D01*
G01*
X154376D01*
G75*
G02*
X151400Y212750I874J3750D01*
G01*
G75*
G02*
Y212754I3904J2D01*
G01*
X134100D01*
G75*
G02*
Y212750I-3904J-2D01*
G01*
G75*
G02*
X130250Y208900I-3850J0D01*
G01*
X125250D01*
G75*
G02*
X121400Y212750I0J3850D01*
G01*
G75*
G02*
Y212754I3904J2D01*
G01*
X107322D01*
G75*
G02*
X108500Y210250I-2072J-2504D01*
G01*
G37*
X163892Y211500D02*
G36*
X163892Y211500D02*
G75*
G02*
X163190Y210264I-3644J1251D01*
G01*
G75*
G02*
X168500Y207750I2060J-2514D01*
G01*
X242000D01*
G75*
G02*
X248250Y209000I3250J0D01*
G01*
X251608D01*
G75*
G02*
X255250Y211600I3642J-1250D01*
G01*
X260250D01*
G75*
G02*
X264100Y207750I0J-3850D01*
G01*
X281400D01*
G75*
G02*
X285250Y211600I3850J0D01*
G01*
X290250D01*
G75*
G02*
X293892Y209000I0J-3851D01*
G01*
X299374D01*
G75*
G02*
X306350Y207750I3376J-1250D01*
G01*
Y207750D01*
X309152D01*
Y211348D01*
X316348D01*
Y209000D01*
X319451D01*
G75*
G02*
X326238Y207868I3299J-1132D01*
G01*
G75*
G02*
X326236Y207750I-3493J-1D01*
G01*
X380000D01*
Y212754D01*
X193736D01*
G75*
G02*
X187042Y211500I-3486J115D01*
G01*
X183848D01*
Y209152D01*
X176652D01*
Y212754D01*
X173850D01*
G75*
G02*
Y212750I-3405J-2D01*
G01*
Y212750D01*
Y212750D01*
G75*
G02*
X166874Y211500I-3600J0D01*
G01*
X163892D01*
G37*
X10500Y217750D02*
G36*
X10500Y217750D02*
Y212754D01*
X87706D01*
G75*
G02*
X92794I2544J-2386D01*
G01*
X103178D01*
G75*
G02*
X107322I2072J-2503D01*
G01*
X121400D01*
G75*
G02*
X125250Y216600I3850J-4D01*
G01*
X130250D01*
G75*
G02*
X134100Y212754I0J-3850D01*
G01*
X151400D01*
G75*
G02*
X155250Y216600I3850J-4D01*
G01*
X160250D01*
G75*
G02*
X163892Y214000I0J-3851D01*
G01*
X166874D01*
G75*
G02*
X173850Y212754I3376J-1250D01*
G01*
X176652D01*
Y216348D01*
X183848D01*
Y214000D01*
X186951D01*
G75*
G02*
X193738Y212868I3299J-1132D01*
G01*
G75*
G02*
X193736Y212754I-3492J3D01*
G01*
X380000D01*
Y217750D01*
X326236D01*
G75*
G02*
X319542Y216500I-3486J118D01*
G01*
X316348D01*
Y214152D01*
X309152D01*
Y217750D01*
X306350D01*
Y217750D01*
G75*
G02*
X299374Y216500I-3600J0D01*
G01*
X293892D01*
G75*
G02*
X290250Y213900I-3642J1250D01*
G01*
X285250D01*
G75*
G02*
X281400Y217750I0J3850D01*
G01*
X264100D01*
G75*
G02*
X260250Y213900I-3850J0D01*
G01*
X255250D01*
G75*
G02*
X251608Y216500I0J3851D01*
G01*
X240750D01*
G75*
G02*
X234500Y217750I-3000J1250D01*
G01*
X92554D01*
G75*
G02*
X87946I-2304J2618D01*
G01*
X71600D01*
G75*
G02*
X67750Y213900I-3850J0D01*
G01*
X62750D01*
G75*
G02*
X59108Y216500I0J3851D01*
G01*
X41392D01*
G75*
G02*
X37750Y213900I-3642J1250D01*
G01*
X32750D01*
G75*
G02*
X28900Y217750I0J3850D01*
G01*
X10500D01*
G37*
Y222868D02*
G36*
X10500Y222868D02*
Y217750D01*
X28900D01*
G75*
G02*
X32750Y221600I3850J0D01*
G01*
X37750D01*
G75*
G02*
X41392Y219000I0J-3851D01*
G01*
X59108D01*
G75*
G02*
X61876Y221500I3642J-1250D01*
G01*
X47750D01*
G75*
G02*
X46865Y221868I0J1250D01*
G01*
X45864Y222868D01*
X10500D01*
G37*
X71600Y217750D02*
G36*
X71600Y217750D02*
X87946D01*
G75*
G02*
X86762Y220368I2304J2618D01*
G01*
G75*
G02*
Y220370I3470J1D01*
G01*
G75*
G02*
X86951Y221500I3477J0D01*
G01*
X68624D01*
G75*
G02*
X71600Y217750I-874J-3750D01*
G01*
G37*
X93738Y220368D02*
G36*
X93738Y220368D02*
G75*
G02*
X92554Y217750I-3488J0D01*
G01*
X234500D01*
G75*
G02*
X240750Y219000I3250J0D01*
G01*
X251608D01*
G75*
G02*
X255250Y221600I3642J-1250D01*
G01*
X260250D01*
G75*
G02*
X264100Y217750I0J-3850D01*
G01*
X281400D01*
G75*
G02*
X285250Y221600I3850J0D01*
G01*
X290250D01*
G75*
G02*
X293892Y219000I0J-3851D01*
G01*
X299374D01*
G75*
G02*
X306350Y217750I3376J-1250D01*
G01*
Y217750D01*
X309152D01*
Y221348D01*
X316348D01*
Y219000D01*
X319451D01*
G75*
G02*
X326238Y217868I3299J-1132D01*
G01*
G75*
G02*
X326236Y217750I-3493J-1D01*
G01*
X380000D01*
Y222868D01*
X193738D01*
G75*
G02*
X186762I-3488J0D01*
G01*
X184098D01*
G75*
G02*
X184100Y222750I-3848J-123D01*
G01*
Y222750D01*
G75*
G02*
X176400I-3850J0D01*
G01*
Y222750D01*
G75*
G02*
X176402Y222868I3850J-6D01*
G01*
X174500D01*
Y218500D01*
X166000D01*
Y222868D01*
X164098D01*
G75*
G02*
X164100Y222750I-3850J-123D01*
G01*
G75*
G02*
X160250Y218900I-3850J0D01*
G01*
X155250D01*
G75*
G02*
X151400Y222750I0J3850D01*
G01*
G75*
G02*
X151402Y222868I3852J-5D01*
G01*
X134098D01*
G75*
G02*
X134100Y222750I-3850J-123D01*
G01*
G75*
G02*
X130250Y218900I-3850J0D01*
G01*
X125250D01*
G75*
G02*
X121400Y222750I0J3850D01*
G01*
G75*
G02*
X121402Y222868I3852J-5D01*
G01*
X92682D01*
G75*
G02*
X93738Y220369I-2432J-2500D01*
G01*
Y220368D01*
G37*
X10500Y227750D02*
G36*
X10500Y227750D02*
Y222868D01*
X45864D01*
X42232Y226500D01*
X41392D01*
G75*
G02*
X37750Y223900I-3642J1250D01*
G01*
X32750D01*
G75*
G02*
X28900Y227750I0J3850D01*
G01*
X10500D01*
G37*
X44518D02*
G36*
X44518Y227750D02*
X48268Y224000D01*
X61876D01*
G75*
G02*
X58900Y227750I874J3750D01*
G01*
X44518D01*
G37*
X71600D02*
G36*
X71600Y227750D02*
G75*
G02*
X68624Y224000I-3850J0D01*
G01*
X87868D01*
G75*
G02*
X88754Y223632I0J-1250D01*
G01*
X88831Y223554D01*
G75*
G02*
X92682Y222868I1419J-3186D01*
G01*
X121402D01*
G75*
G02*
X125250Y226600I3848J-118D01*
G01*
X130250D01*
G75*
G02*
X134098Y222868I0J-3850D01*
G01*
X151402D01*
G75*
G02*
X155250Y226600I3848J-118D01*
G01*
X156500D01*
Y227750D01*
X102327D01*
G75*
G02*
X98173I-2077J2500D01*
G01*
X92554D01*
G75*
G02*
X87945I-2304J2618D01*
G01*
X71600D01*
G37*
X161124Y226500D02*
G36*
X161124Y226500D02*
G75*
G02*
X164098Y222868I-874J-3750D01*
G01*
X166000D01*
Y226500D01*
X161124D01*
G37*
X174500D02*
G36*
X174500Y226500D02*
Y222868D01*
X176402D01*
G75*
G02*
X179378Y226500I3848J-118D01*
G01*
X174500D01*
G37*
X181122D02*
G36*
X181122Y226500D02*
G75*
G02*
X184098Y222868I-871J-3750D01*
G01*
X186762D01*
G75*
G02*
X193738I3488J0D01*
G01*
X380000D01*
Y227750D01*
X326236D01*
G75*
G02*
X319264I-3486J118D01*
G01*
X316600D01*
G75*
G02*
X308900I-3850J0D01*
G01*
X307000D01*
Y223500D01*
X298500D01*
Y227750D01*
X294100D01*
G75*
G02*
X290250Y223900I-3850J0D01*
G01*
X285250D01*
G75*
G02*
X281400Y227750I0J3850D01*
G01*
X264100D01*
G75*
G02*
X260250Y223900I-3850J0D01*
G01*
X255250D01*
G75*
G02*
X251608Y226500I0J3851D01*
G01*
X181122D01*
G37*
X10500Y232750D02*
G36*
X10500Y232750D02*
Y227750D01*
X28900D01*
G75*
G02*
X32750Y231600I3850J0D01*
G01*
X37750D01*
G75*
G02*
X41392Y229000I0J-3851D01*
G01*
X42750D01*
G75*
G02*
X43635Y228632I0J-1250D01*
G01*
X44518Y227750D01*
X58900D01*
G75*
G02*
X62750Y231600I3850J0D01*
G01*
X67750D01*
G75*
G02*
X71600Y227750I0J-3850D01*
G01*
X87945D01*
G75*
G02*
X86994Y229118I2305J2618D01*
G01*
X77750D01*
G75*
G02*
X76500Y230368I0J1250D01*
G01*
Y232750D01*
X10500D01*
G37*
X79000D02*
G36*
X79000Y232750D02*
Y231618D01*
X86994D01*
G75*
G02*
X87702Y232750I3256J-1250D01*
G01*
X79000D01*
G37*
X93458Y229000D02*
G36*
X93458Y229000D02*
G75*
G02*
X92554Y227750I-3209J1369D01*
G01*
X98173D01*
G75*
G02*
X97250Y229000I2077J2500D01*
G01*
X93458D01*
G37*
X92798Y232750D02*
G36*
X92798Y232750D02*
G75*
G02*
X93549Y231500I-2548J-2382D01*
G01*
X97250D01*
G75*
G02*
X98173Y232750I3000J-1250D01*
G01*
X92798D01*
G37*
X103500Y230250D02*
G36*
X103500Y230250D02*
G75*
G02*
X102327Y227750I-3250J0D01*
G01*
X156500D01*
G75*
G02*
X156750Y228500I1250J0D01*
G01*
X155250D01*
G75*
G02*
X151000Y232750I0J4250D01*
G01*
X134100D01*
G75*
G02*
X130250Y228900I-3850J0D01*
G01*
X125250D01*
G75*
G02*
X121400Y232750I0J3850D01*
G01*
X102327D01*
G75*
G02*
X103500Y230250I-2077J-2500D01*
G01*
G37*
X164500Y232750D02*
G36*
X164500Y232750D02*
G75*
G02*
X162250Y229000I-4250J0D01*
G01*
X251608D01*
G75*
G02*
X255250Y231600I3642J-1250D01*
G01*
X260250D01*
G75*
G02*
X264100Y227750I0J-3850D01*
G01*
X281400D01*
G75*
G02*
X285250Y231600I3850J0D01*
G01*
X290250D01*
G75*
G02*
X294100Y227750I0J-3850D01*
G01*
X298500D01*
Y232000D01*
X307000D01*
Y227750D01*
X308900D01*
G75*
G02*
X316600I3850J0D01*
G01*
X319264D01*
G75*
G02*
X319262Y227868I3487J117D01*
G01*
G75*
G02*
X326238I3488J0D01*
G01*
G75*
G02*
X326236Y227750I-3489J-1D01*
G01*
X380000D01*
Y232750D01*
X164500D01*
G37*
X10500Y237750D02*
G36*
X10500Y237750D02*
Y232750D01*
X76500D01*
Y236500D01*
X71392D01*
G75*
G02*
X67750Y233900I-3642J1250D01*
G01*
X62750D01*
G75*
G02*
X58900Y237750I0J3850D01*
G01*
X41600D01*
G75*
G02*
X37750Y233900I-3850J0D01*
G01*
X32750D01*
G75*
G02*
X28900Y237750I0J3850D01*
G01*
X10500D01*
G37*
X79000D02*
G36*
X79000Y237750D02*
Y232750D01*
X87702D01*
G75*
G02*
X92798I2548J-2382D01*
G01*
X98173D01*
G75*
G02*
X102327I2077J-2500D01*
G01*
X121400D01*
G75*
G02*
X125250Y236600I3850J0D01*
G01*
X130250D01*
G75*
G02*
X134100Y232750I0J-3850D01*
G01*
X151000D01*
G75*
G02*
X155250Y237000I4250J0D01*
G01*
X160250D01*
G75*
G02*
X164500Y232750I0J-4250D01*
G01*
X380000D01*
Y237750D01*
X294500D01*
G75*
G02*
X290250Y233500I-4250J0D01*
G01*
X285250D01*
G75*
G02*
X281000Y237750I0J4250D01*
G01*
X264100D01*
G75*
G02*
X260250Y233900I-3850J0D01*
G01*
X255250D01*
G75*
G02*
X251400Y237750I0J3850D01*
G01*
X102327D01*
G75*
G02*
X98173I-2077J2500D01*
G01*
X92554D01*
G75*
G02*
X87946I-2304J2618D01*
G01*
X79000D01*
G37*
X10500Y242750D02*
G36*
X10500Y242750D02*
Y237750D01*
X28900D01*
G75*
G02*
X32750Y241600I3850J0D01*
G01*
X37750D01*
G75*
G02*
X41600Y237750I0J-3850D01*
G01*
X58900D01*
G75*
G02*
X62750Y241600I3850J0D01*
G01*
X67750D01*
G75*
G02*
X71392Y239000I0J-3851D01*
G01*
X77750D01*
G75*
G02*
X79000Y237750I0J-1250D01*
G01*
X87946D01*
G75*
G02*
X86762Y240368I2305J2618D01*
G01*
G75*
G02*
X87702Y242750I3488J0D01*
G01*
X10500D01*
G37*
X93458Y239000D02*
G36*
X93458Y239000D02*
G75*
G02*
X92554Y237750I-3208J1368D01*
G01*
X98173D01*
G75*
G02*
X97250Y239000I2077J2500D01*
G01*
X93458D01*
G37*
X92798Y242750D02*
G36*
X92798Y242750D02*
G75*
G02*
X93549Y241500I-2548J-2382D01*
G01*
X97250D01*
G75*
G02*
X98173Y242750I3000J-1250D01*
G01*
X92798D01*
G37*
X103500Y240250D02*
G36*
X103500Y240250D02*
G75*
G02*
X102327Y237750I-3250J0D01*
G01*
X251400D01*
G75*
G02*
X255250Y241600I3850J0D01*
G01*
X260250D01*
G75*
G02*
X264100Y237750I0J-3850D01*
G01*
X281000D01*
G75*
G02*
X285250Y242000I4250J0D01*
G01*
X290250D01*
G75*
G02*
X294500Y237750I0J-4250D01*
G01*
X380000D01*
Y242750D01*
X164100D01*
G75*
G02*
X160250Y238900I-3850J0D01*
G01*
X155250D01*
G75*
G02*
X151400Y242750I0J3850D01*
G01*
X134100D01*
G75*
G02*
X130250Y238900I-3850J0D01*
G01*
X125250D01*
G75*
G02*
X121400Y242750I0J3850D01*
G01*
X102327D01*
G75*
G02*
X103500Y240250I-2077J-2500D01*
G01*
G37*
X10500Y247750D02*
G36*
X10500Y247750D02*
Y242750D01*
X87702D01*
G75*
G02*
X92798I2548J-2382D01*
G01*
X98173D01*
G75*
G02*
X102327I2077J-2500D01*
G01*
X121400D01*
G75*
G02*
X125250Y246600I3850J0D01*
G01*
X130250D01*
G75*
G02*
X134100Y242750I0J-3850D01*
G01*
X151400D01*
G75*
G02*
X155250Y246600I3850J0D01*
G01*
X160250D01*
G75*
G02*
X164100Y242750I0J-3850D01*
G01*
X380000D01*
Y247750D01*
X294100D01*
G75*
G02*
X290250Y243900I-3850J0D01*
G01*
X285250D01*
G75*
G02*
X281400Y247750I0J3850D01*
G01*
X264100D01*
G75*
G02*
X260250Y243900I-3850J0D01*
G01*
X255250D01*
G75*
G02*
X251400Y247750I0J3850D01*
G01*
X149827D01*
G75*
G02*
X145673I-2077J2500D01*
G01*
X119518D01*
X116135Y244368D01*
G75*
G02*
X115250Y244000I-885J882D01*
G01*
X80250D01*
G75*
G02*
X79365Y244368I0J1250D01*
G01*
X78987Y244745D01*
G75*
G02*
X74750Y246500I-1237J3006D01*
G01*
X71392D01*
G75*
G02*
X67750Y243900I-3642J1250D01*
G01*
X62750D01*
G75*
G02*
X58900Y247750I0J3850D01*
G01*
X41600D01*
G75*
G02*
X37750Y243900I-3850J0D01*
G01*
X32750D01*
G75*
G02*
X28900Y247750I0J3850D01*
G01*
X10500D01*
G37*
X80755Y246513D02*
G36*
X80755Y246513D02*
X80768Y246500D01*
X114732D01*
X115982Y247750D01*
X92554D01*
G75*
G02*
X87946I-2304J2618D01*
G01*
X81000D01*
G75*
G02*
X80755Y246513I-3250J0D01*
G01*
G37*
X10500Y252632D02*
G36*
X10500Y252632D02*
Y247750D01*
X28900D01*
G75*
G02*
X32750Y251600I3850J0D01*
G01*
X34000D01*
Y252632D01*
X10500D01*
G37*
X36500D02*
G36*
X36500Y252632D02*
Y251600D01*
X37750D01*
G75*
G02*
X41600Y247750I0J-3850D01*
G01*
X58900D01*
G75*
G02*
X62750Y251600I3850J0D01*
G01*
X67750D01*
G75*
G02*
X71392Y249000I0J-3851D01*
G01*
X74750D01*
G75*
G02*
X81000Y247750I3000J-1250D01*
G01*
X87946D01*
G75*
G02*
X86762Y250368I2304J2618D01*
G01*
G75*
G02*
X87597Y252632I3488J0D01*
G01*
X36500D01*
G37*
X93738Y250368D02*
G36*
X93738Y250368D02*
G75*
G02*
X92554Y247750I-3488J0D01*
G01*
X115982D01*
X119365Y251132D01*
G75*
G02*
X120250Y251500I885J-882D01*
G01*
X144750D01*
G75*
G02*
X145539Y252632I3000J-1250D01*
G01*
X92903D01*
G75*
G02*
X93738Y250368I-2653J-2264D01*
G01*
G37*
X120768Y249000D02*
G36*
X120768Y249000D02*
X119518Y247750D01*
X145673D01*
G75*
G02*
X144750Y249000I2077J2500D01*
G01*
X120768D01*
G37*
X151000Y250250D02*
G36*
X151000Y250250D02*
G75*
G02*
X149827Y247750I-3250J0D01*
G01*
X251400D01*
G75*
G02*
X255250Y251600I3850J0D01*
G01*
X260250D01*
G75*
G02*
X264100Y247750I0J-3850D01*
G01*
X281400D01*
G75*
G02*
X285250Y251600I3850J0D01*
G01*
X290250D01*
G75*
G02*
X294100Y247750I0J-3850D01*
G01*
X380000D01*
Y252632D01*
X326238D01*
G75*
G02*
X319262I-3488J0D01*
G01*
X193738D01*
G75*
G02*
X186762I-3488J0D01*
G01*
X149961D01*
G75*
G02*
X151000Y250250I-2211J-2381D01*
G01*
G37*
X10500Y257750D02*
G36*
X10500Y257750D02*
Y252632D01*
X34000D01*
Y253900D01*
X32750D01*
G75*
G02*
X28900Y257750I0J3850D01*
G01*
X10500D01*
G37*
X36500Y253900D02*
G36*
X36500Y253900D02*
Y252632D01*
X87597D01*
G75*
G02*
X92903I2653J-2264D01*
G01*
X145539D01*
G75*
G02*
X149961I2211J-2382D01*
G01*
X186762D01*
G75*
G02*
X193738I3488J0D01*
G01*
X319262D01*
G75*
G02*
X326238I3488J0D01*
G01*
X380000D01*
Y257750D01*
X71600D01*
G75*
G02*
X67750Y253900I-3850J0D01*
G01*
X62750D01*
G75*
G02*
X58900Y257750I0J3850D01*
G01*
X41600D01*
G75*
G02*
X37750Y253900I-3850J0D01*
G01*
X36500D01*
G37*
X10500Y262746D02*
G36*
X10500Y262746D02*
Y257750D01*
X28900D01*
G75*
G02*
X32750Y261600I3850J0D01*
G01*
X37750D01*
G75*
G02*
X41600Y257750I0J-3850D01*
G01*
X58900D01*
G75*
G02*
X62750Y261600I3850J0D01*
G01*
X67750D01*
G75*
G02*
X71600Y257750I0J-3850D01*
G01*
X380000D01*
Y262746D01*
X326236D01*
G75*
G02*
X326238Y262632I-3489J-117D01*
G01*
G75*
G02*
X319451Y261500I-3488J0D01*
G01*
X316348D01*
Y259152D01*
X309152D01*
Y262746D01*
X306350D01*
G75*
G02*
X299374Y261500I-3600J4D01*
G01*
X248250D01*
G75*
G02*
X242000Y262746I-3000J1250D01*
G01*
X193736D01*
G75*
G02*
X193738Y262632I-3489J-117D01*
G01*
G75*
G02*
X186951Y261500I-3488J0D01*
G01*
X183848D01*
Y259152D01*
X176652D01*
Y262746D01*
X173850D01*
G75*
G02*
X166874Y261500I-3600J4D01*
G01*
X120750D01*
G75*
G02*
X114500Y262746I-3000J1250D01*
G01*
X10500D01*
G37*
Y272750D02*
G36*
X10500Y272750D02*
Y262746D01*
X114500D01*
G75*
G02*
Y262750I3418J2D01*
G01*
G75*
G02*
X120750Y264000I3250J0D01*
G01*
X166874D01*
G75*
G02*
X173850Y262750I3376J-1250D01*
G01*
Y262750D01*
Y262750D01*
G75*
G02*
Y262746I-3441J-2D01*
G01*
X176652D01*
Y266348D01*
X183848D01*
Y264000D01*
X187042D01*
G75*
G02*
X193736Y262746I3208J-1368D01*
G01*
X242000D01*
G75*
G02*
Y262750I3418J2D01*
G01*
G75*
G02*
X248250Y264000I3250J0D01*
G01*
X299374D01*
G75*
G02*
X306350Y262750I3376J-1250D01*
G01*
Y262750D01*
Y262750D01*
G75*
G02*
Y262746I-3441J-2D01*
G01*
X309152D01*
Y266348D01*
X316348D01*
Y264000D01*
X319542D01*
G75*
G02*
X326236Y262746I3208J-1368D01*
G01*
X380000D01*
Y272750D01*
X326236D01*
G75*
G02*
X326238Y272632I-3491J-117D01*
G01*
G75*
G02*
X319451Y271500I-3488J0D01*
G01*
X316348D01*
Y269152D01*
X309152D01*
Y272750D01*
X306350D01*
G75*
G02*
X299150I-3600J0D01*
G01*
X294500D01*
G75*
G02*
X290250Y268500I-4250J0D01*
G01*
X285250D01*
G75*
G02*
X281000Y272750I0J4250D01*
G01*
X264500D01*
G75*
G02*
X260250Y268500I-4250J0D01*
G01*
X255250D01*
G75*
G02*
X251000Y272750I0J4250D01*
G01*
X193736D01*
G75*
G02*
X193738Y272632I-3491J-117D01*
G01*
G75*
G02*
X186951Y271500I-3488J0D01*
G01*
X183848D01*
Y269152D01*
X176652D01*
Y272750D01*
X173850D01*
G75*
G02*
X168747Y269479I-3600J0D01*
G01*
X166135Y266868D01*
G75*
G02*
X165250Y266500I-885J882D01*
G01*
X140750D01*
G75*
G02*
X134500Y267750I-3000J1250D01*
G01*
G75*
G02*
X140750Y269000I3250J0D01*
G01*
X153250D01*
G75*
G02*
X151000Y272750I2000J3750D01*
G01*
X134500D01*
G75*
G02*
X130250Y268500I-4250J0D01*
G01*
X125250D01*
G75*
G02*
X121000Y272750I0J4250D01*
G01*
X108500D01*
G75*
G02*
X102250Y271500I-3250J0D01*
G01*
X68624D01*
G75*
G02*
X71600Y267750I-874J-3750D01*
G01*
G75*
G02*
X67750Y263900I-3850J0D01*
G01*
X62750D01*
G75*
G02*
X58900Y267750I0J3850D01*
G01*
G75*
G02*
X61876Y271500I3850J0D01*
G01*
X54000D01*
Y267750D01*
G75*
G02*
X52750Y266500I-1250J0D01*
G01*
X41392D01*
G75*
G02*
X37750Y263900I-3642J1250D01*
G01*
X32750D01*
G75*
G02*
X28900Y267750I0J3850D01*
G01*
G75*
G02*
X32750Y271600I3850J0D01*
G01*
X37750D01*
G75*
G02*
X41392Y269000I0J-3851D01*
G01*
X51500D01*
Y272750D01*
X10500D01*
G37*
X164500D02*
G36*
X164500Y272750D02*
G75*
G02*
X162250Y269000I-4250J0D01*
G01*
X164732D01*
X166979Y271247D01*
G75*
G02*
X166650Y272750I3270J1503D01*
G01*
Y272750D01*
X164500D01*
G37*
X10500Y282550D02*
G36*
X10500Y282550D02*
Y272750D01*
X51500D01*
G75*
G02*
X52750Y274000I1250J0D01*
G01*
X102250D01*
G75*
G02*
X108500Y272750I3000J-1250D01*
G01*
X121000D01*
G75*
G02*
X125250Y277000I4250J0D01*
G01*
X130250D01*
G75*
G02*
X134500Y272750I0J-4250D01*
G01*
X151000D01*
G75*
G02*
X155250Y277000I4250J0D01*
G01*
X160250D01*
G75*
G02*
X164500Y272750I0J-4250D01*
G01*
X166650D01*
G75*
G02*
X173850I3600J0D01*
G01*
X176652D01*
Y276348D01*
X183848D01*
Y274000D01*
X187042D01*
G75*
G02*
X193736Y272750I3208J-1368D01*
G01*
X251000D01*
G75*
G02*
X253250Y276500I4250J0D01*
G01*
X165250D01*
G75*
G02*
X164365Y276868I0J1250D01*
G01*
X161941Y279291D01*
G75*
G02*
X160250Y278900I-1692J3462D01*
G01*
X155250D01*
G75*
G02*
X151608Y281500I0J3851D01*
G01*
X142750D01*
G75*
G02*
X141865Y281868I0J1250D01*
G01*
X141182Y282550D01*
X134495D01*
G75*
G02*
X130250Y278500I-4245J200D01*
G01*
X125250D01*
G75*
G02*
X121005Y282550I0J4250D01*
G01*
X10500D01*
G37*
X164095D02*
G36*
X164095Y282550D02*
G75*
G02*
X163709Y281059I-3846J199D01*
G01*
X165768Y279000D01*
X253250D01*
G75*
G02*
X251005Y282550I2000J3750D01*
G01*
X193737D01*
G75*
G02*
X186951Y281500I-3487J82D01*
G01*
X183848D01*
Y279152D01*
X176652D01*
Y282550D01*
X173844D01*
G75*
G02*
X170250Y279150I-3594J200D01*
G01*
G75*
G02*
X166656Y282550I0J3600D01*
G01*
X164095D01*
G37*
X264495D02*
G36*
X264495Y282550D02*
G75*
G02*
X262250Y279000I-4245J200D01*
G01*
X264732D01*
X268282Y282550D01*
X264495D01*
G37*
X262250Y276500D02*
G36*
X262250Y276500D02*
G75*
G02*
X264500Y272750I-2000J-3750D01*
G01*
X281000D01*
G75*
G02*
X285250Y277000I4250J0D01*
G01*
X290250D01*
G75*
G02*
X294500Y272750I0J-4250D01*
G01*
X299150D01*
G75*
G02*
X306350I3600J0D01*
G01*
X309152D01*
Y276348D01*
X316348D01*
Y274000D01*
X319542D01*
G75*
G02*
X326236Y272750I3208J-1368D01*
G01*
X380000D01*
Y282550D01*
X326237D01*
G75*
G02*
X319451Y281500I-3487J82D01*
G01*
X316348D01*
Y279152D01*
X309152D01*
Y282550D01*
X306344D01*
G75*
G02*
X302750Y279150I-3594J200D01*
G01*
G75*
G02*
X299156Y282550I0J3600D01*
G01*
X294095D01*
G75*
G02*
X290250Y278900I-3845J200D01*
G01*
X285250D01*
G75*
G02*
X281608Y281500I0J3851D01*
G01*
X270768D01*
X266135Y276868D01*
G75*
G02*
X265250Y276500I-885J882D01*
G01*
X262250D01*
G37*
X10500Y292746D02*
G36*
X10500Y292746D02*
Y282550D01*
X121005D01*
G75*
G02*
X121000Y282750I4247J200D01*
G01*
G75*
G02*
X123250Y286500I4250J0D01*
G01*
X25750D01*
G75*
G02*
X19500Y287750I-3000J1250D01*
G01*
G75*
G02*
X25750Y289000I3250J0D01*
G01*
X31876D01*
G75*
G02*
X28900Y292746I874J3750D01*
G01*
X10500D01*
G37*
X41600D02*
G36*
X41600Y292746D02*
G75*
G02*
X38624Y289000I-3850J4D01*
G01*
X61876D01*
G75*
G02*
X58900Y292746I874J3750D01*
G01*
X41600D01*
G37*
X71600D02*
G36*
X71600Y292746D02*
G75*
G02*
X68624Y289000I-3850J4D01*
G01*
X124376D01*
G75*
G02*
X121400Y292746I874J3750D01*
G01*
X71600D01*
G37*
X134100D02*
G36*
X134100Y292746D02*
G75*
G02*
X131124Y289000I-3850J4D01*
G01*
X137750D01*
G75*
G02*
X138635Y288632I0J-1250D01*
G01*
X143268Y284000D01*
X151608D01*
G75*
G02*
X155250Y286600I3642J-1250D01*
G01*
X160250D01*
G75*
G02*
X164100Y282750I0J-3851D01*
G01*
G75*
G02*
X164095Y282550I-3850J6D01*
G01*
X166656D01*
G75*
G02*
X166650Y282750I3595J199D01*
G01*
G75*
G02*
X170250Y286350I3600J0D01*
G01*
G75*
G02*
X171753Y286021I0J-3598D01*
G01*
X174365Y288632D01*
G75*
G02*
X175250Y289000I885J-882D01*
G01*
X197250D01*
G75*
G02*
X203500Y287750I3000J-1250D01*
G01*
G75*
G02*
X197250Y286500I-3250J0D01*
G01*
X175768D01*
X173521Y284253D01*
G75*
G02*
X173850Y282750I-3272J-1503D01*
G01*
G75*
G02*
X173844Y282550I-3600J-1D01*
G01*
X176652D01*
Y286348D01*
X183848D01*
Y284000D01*
X187042D01*
G75*
G02*
X193738Y282632I3208J-1368D01*
G01*
G75*
G02*
X193737Y282550I-3489J-7D01*
G01*
X251005D01*
G75*
G02*
X251000Y282750I4246J200D01*
G01*
G75*
G02*
X255250Y287000I4250J0D01*
G01*
X260250D01*
G75*
G02*
X264500Y282750I0J-4250D01*
G01*
G75*
G02*
X264495Y282550I-4250J0D01*
G01*
X268282D01*
X269365Y283632D01*
G75*
G02*
X270250Y284000I885J-882D01*
G01*
X281608D01*
G75*
G02*
X285250Y286600I3642J-1250D01*
G01*
X290250D01*
G75*
G02*
X294100Y282750I0J-3850D01*
G01*
G75*
G02*
X294095Y282550I-3851J-2D01*
G01*
X299156D01*
G75*
G02*
X299150Y282750I3595J199D01*
G01*
G75*
G02*
X302750Y286350I3600J0D01*
G01*
G75*
G02*
X304253Y286021I0J-3598D01*
G01*
X306865Y288632D01*
G75*
G02*
X307750Y289000I885J-882D01*
G01*
X332250D01*
G75*
G02*
X338500Y287750I3000J-1250D01*
G01*
G75*
G02*
X332250Y286500I-3250J0D01*
G01*
X308268D01*
X306021Y284253D01*
G75*
G02*
X306350Y282750I-3272J-1503D01*
G01*
G75*
G02*
X306344Y282550I-3600J-1D01*
G01*
X309152D01*
Y286348D01*
X316348D01*
Y284000D01*
X319542D01*
G75*
G02*
X326238Y282632I3208J-1368D01*
G01*
G75*
G02*
X326237Y282550I-3489J-7D01*
G01*
X380000D01*
Y292746D01*
X326236D01*
G75*
G02*
X326238Y292632I-3489J-117D01*
G01*
G75*
G02*
X319451Y291500I-3488J0D01*
G01*
X316348D01*
Y289152D01*
X309152D01*
Y292746D01*
X306350D01*
G75*
G02*
X302750Y289150I-3600J4D01*
G01*
G75*
G02*
X299150Y292746I0J3600D01*
G01*
X294100D01*
G75*
G02*
X290250Y288900I-3850J4D01*
G01*
X285250D01*
G75*
G02*
X281400Y292746I0J3850D01*
G01*
X264100D01*
G75*
G02*
X260250Y288900I-3850J4D01*
G01*
X255250D01*
G75*
G02*
X251400Y292746I0J3850D01*
G01*
X193736D01*
G75*
G02*
X193738Y292632I-3489J-117D01*
G01*
G75*
G02*
X186951Y291500I-3488J0D01*
G01*
X183848D01*
Y289152D01*
X176652D01*
Y292746D01*
X173850D01*
G75*
G02*
X166650I-3600J4D01*
G01*
X164100D01*
G75*
G02*
X160250Y288900I-3850J4D01*
G01*
X155250D01*
G75*
G02*
X151400Y292746I0J3850D01*
G01*
X134100D01*
G37*
X134500Y282750D02*
G36*
X134500Y282750D02*
G75*
G02*
X134495Y282550I-4252J0D01*
G01*
X141182D01*
X137232Y286500D01*
X132250D01*
G75*
G02*
X134500Y282750I-2000J-3750D01*
G01*
G37*
X10500Y302750D02*
G36*
X10500Y302750D02*
Y292746D01*
X28900D01*
G75*
G02*
Y292750I3889J2D01*
G01*
G75*
G02*
X32750Y296600I3850J0D01*
G01*
X37750D01*
G75*
G02*
X41600Y292750I0J-3850D01*
G01*
G75*
G02*
Y292746I-3889J-2D01*
G01*
X58900D01*
G75*
G02*
Y292750I3889J2D01*
G01*
G75*
G02*
X62750Y296600I3850J0D01*
G01*
X67750D01*
G75*
G02*
X71600Y292750I0J-3850D01*
G01*
G75*
G02*
Y292746I-3889J-2D01*
G01*
X121400D01*
G75*
G02*
Y292750I3889J2D01*
G01*
G75*
G02*
X125250Y296600I3850J0D01*
G01*
X130250D01*
G75*
G02*
X134100Y292750I0J-3850D01*
G01*
G75*
G02*
Y292746I-3889J-2D01*
G01*
X151400D01*
G75*
G02*
Y292750I3889J2D01*
G01*
G75*
G02*
X154376Y296500I3850J0D01*
G01*
X142750D01*
G75*
G02*
X141865Y296868I0J1250D01*
G01*
X137232Y301500D01*
X133892D01*
G75*
G02*
X130250Y298900I-3642J1250D01*
G01*
X125250D01*
G75*
G02*
X121400Y302750I0J3850D01*
G01*
X71600D01*
G75*
G02*
X67750Y298900I-3850J0D01*
G01*
X62750D01*
G75*
G02*
X58900Y302750I0J3850D01*
G01*
X41600D01*
G75*
G02*
X37750Y298900I-3850J0D01*
G01*
X32750D01*
G75*
G02*
X28900Y302750I0J3850D01*
G01*
X10500D01*
G37*
X139518D02*
G36*
X139518Y302750D02*
X143268Y299000D01*
X154376D01*
G75*
G02*
X151400Y302750I874J3750D01*
G01*
X139518D01*
G37*
X163892Y301500D02*
G36*
X163892Y301500D02*
G75*
G02*
X161124Y299000I-3642J1250D01*
G01*
X165250D01*
G75*
G02*
X166135Y298632I0J-1250D01*
G01*
X168747Y296021D01*
G75*
G02*
X173850Y292750I1503J-3271D01*
G01*
G75*
G02*
Y292746I-3638J-2D01*
G01*
X176652D01*
Y296348D01*
X183848D01*
Y294000D01*
X187042D01*
G75*
G02*
X193736Y292746I3208J-1368D01*
G01*
X251400D01*
G75*
G02*
Y292750I3889J2D01*
G01*
G75*
G02*
X255250Y296600I3850J0D01*
G01*
X260250D01*
G75*
G02*
X264100Y292750I0J-3850D01*
G01*
G75*
G02*
Y292746I-3889J-2D01*
G01*
X281400D01*
G75*
G02*
Y292750I3889J2D01*
G01*
G75*
G02*
X284376Y296500I3850J0D01*
G01*
X277750D01*
G75*
G02*
X276865Y296868I0J1250D01*
G01*
X272232Y301500D01*
X263892D01*
G75*
G02*
X260250Y298900I-3642J1250D01*
G01*
X255250D01*
G75*
G02*
X251400Y302750I0J3850D01*
G01*
X193736D01*
G75*
G02*
X187042Y301500I-3486J118D01*
G01*
X183848D01*
Y299152D01*
X176652D01*
Y302750D01*
X173850D01*
Y302750D01*
G75*
G02*
X166874Y301500I-3600J0D01*
G01*
X163892D01*
G37*
X164100Y292750D02*
G36*
X164100Y292750D02*
G75*
G02*
Y292746I-3889J-2D01*
G01*
X166650D01*
G75*
G02*
Y292750I3638J2D01*
G01*
Y292750D01*
G75*
G02*
X166979Y294253I3599J0D01*
G01*
X164732Y296500D01*
X161124D01*
G75*
G02*
X164100Y292750I-874J-3750D01*
G01*
G37*
X274518Y302750D02*
G36*
X274518Y302750D02*
X278268Y299000D01*
X284376D01*
G75*
G02*
X281400Y302750I874J3750D01*
G01*
X274518D01*
G37*
X293892Y301500D02*
G36*
X293892Y301500D02*
G75*
G02*
X291124Y299000I-3642J1250D01*
G01*
X302750D01*
G75*
G02*
X304000Y297750I0J-1250D01*
G01*
Y296126D01*
G75*
G02*
X306350Y292750I-1250J-3376D01*
G01*
G75*
G02*
Y292746I-3698J-2D01*
G01*
X309152D01*
Y296348D01*
X316348D01*
Y294000D01*
X319542D01*
G75*
G02*
X326236Y292746I3208J-1368D01*
G01*
X380000D01*
Y302750D01*
X326236D01*
G75*
G02*
X319542Y301500I-3486J118D01*
G01*
X316348D01*
Y299152D01*
X309152D01*
Y302750D01*
X306350D01*
Y302750D01*
G75*
G02*
X299374Y301500I-3600J0D01*
G01*
X293892D01*
G37*
X294100Y292750D02*
G36*
X294100Y292750D02*
G75*
G02*
Y292746I-3889J-2D01*
G01*
X299150D01*
G75*
G02*
Y292750I3698J2D01*
G01*
G75*
G02*
X301500Y296126I3600J0D01*
G01*
Y296500D01*
X291124D01*
G75*
G02*
X294100Y292750I-874J-3750D01*
G01*
G37*
X10500Y312750D02*
G36*
X10500Y312750D02*
Y302750D01*
X28900D01*
G75*
G02*
X32750Y306600I3850J0D01*
G01*
X37750D01*
G75*
G02*
X41600Y302750I0J-3850D01*
G01*
X58900D01*
G75*
G02*
X62750Y306600I3850J0D01*
G01*
X67750D01*
G75*
G02*
X71600Y302750I0J-3850D01*
G01*
X121400D01*
G75*
G02*
X125250Y306600I3850J0D01*
G01*
X130250D01*
G75*
G02*
X133892Y304000I0J-3851D01*
G01*
X137750D01*
G75*
G02*
X138635Y303632I0J-1250D01*
G01*
X139518Y302750D01*
X151400D01*
G75*
G02*
X154376Y306500I3850J0D01*
G01*
X145250D01*
G75*
G02*
X144365Y306868I0J1250D01*
G01*
X139732Y311500D01*
X133892D01*
G75*
G02*
X130250Y308900I-3642J1250D01*
G01*
X125250D01*
G75*
G02*
X121400Y312750I0J3850D01*
G01*
X71600D01*
G75*
G02*
X67750Y308900I-3850J0D01*
G01*
X62750D01*
G75*
G02*
X58900Y312750I0J3850D01*
G01*
X41600D01*
G75*
G02*
X37750Y308900I-3850J0D01*
G01*
X32750D01*
G75*
G02*
X28900Y312750I0J3850D01*
G01*
X10500D01*
G37*
X142018D02*
G36*
X142018Y312750D02*
X145768Y309000D01*
X154376D01*
G75*
G02*
X151400Y312750I874J3750D01*
G01*
X142018D01*
G37*
X161124Y306500D02*
G36*
X161124Y306500D02*
G75*
G02*
X163892Y304000I-874J-3750D01*
G01*
X166874D01*
G75*
G02*
X173850Y302750I3376J-1250D01*
G01*
Y302750D01*
X176652D01*
Y306348D01*
X183848D01*
Y304000D01*
X186951D01*
G75*
G02*
X193738Y302868I3299J-1132D01*
G01*
G75*
G02*
X193736Y302750I-3493J-1D01*
G01*
X251400D01*
G75*
G02*
X255250Y306600I3850J0D01*
G01*
X260250D01*
G75*
G02*
X263892Y304000I0J-3851D01*
G01*
X272750D01*
G75*
G02*
X273635Y303632I0J-1250D01*
G01*
X274518Y302750D01*
X281400D01*
G75*
G02*
X284376Y306500I3850J0D01*
G01*
X265250D01*
G75*
G02*
X264365Y306868I0J1250D01*
G01*
X261941Y309291D01*
G75*
G02*
X260250Y308900I-1692J3462D01*
G01*
X255250D01*
G75*
G02*
X251400Y312750I0J3850D01*
G01*
X193736D01*
G75*
G02*
X187042Y311500I-3486J118D01*
G01*
X183848D01*
Y309152D01*
X176652D01*
Y312750D01*
X173850D01*
Y312750D01*
G75*
G02*
X166874Y311500I-3600J0D01*
G01*
X163892D01*
G75*
G02*
X161124Y309000I-3642J1250D01*
G01*
X197250D01*
G75*
G02*
X203500Y307750I3000J-1250D01*
G01*
G75*
G02*
X197250Y306500I-3250J0D01*
G01*
X161124D01*
G37*
X264100Y312750D02*
G36*
X264100Y312750D02*
G75*
G02*
X263709Y311059I-3851J0D01*
G01*
X265768Y309000D01*
X284376D01*
G75*
G02*
X281400Y312750I874J3750D01*
G01*
X264100D01*
Y312750D01*
G37*
X291124Y306500D02*
G36*
X291124Y306500D02*
G75*
G02*
X293892Y304000I-874J-3750D01*
G01*
X299374D01*
G75*
G02*
X306350Y302750I3376J-1250D01*
G01*
Y302750D01*
X309152D01*
Y306348D01*
X316348D01*
Y304000D01*
X319451D01*
G75*
G02*
X326238Y302868I3299J-1132D01*
G01*
G75*
G02*
X326236Y302750I-3493J-1D01*
G01*
X380000D01*
Y312750D01*
X326236D01*
G75*
G02*
X319542Y311500I-3486J118D01*
G01*
X316348D01*
Y309152D01*
X309152D01*
Y312750D01*
X306350D01*
Y312750D01*
G75*
G02*
X299374Y311500I-3600J0D01*
G01*
X293892D01*
G75*
G02*
X291124Y309000I-3642J1250D01*
G01*
X332250D01*
G75*
G02*
X338500Y307750I3000J-1250D01*
G01*
G75*
G02*
X332250Y306500I-3250J0D01*
G01*
X291124D01*
G37*
X10500Y322750D02*
G36*
X10500Y322750D02*
Y312750D01*
X28900D01*
G75*
G02*
X32750Y316600I3850J0D01*
G01*
X37750D01*
G75*
G02*
X41600Y312750I0J-3850D01*
G01*
X58900D01*
G75*
G02*
X62750Y316600I3850J0D01*
G01*
X67750D01*
G75*
G02*
X71600Y312750I0J-3850D01*
G01*
X121400D01*
G75*
G02*
X125250Y316600I3850J0D01*
G01*
X130250D01*
G75*
G02*
X133892Y314000I0J-3851D01*
G01*
X140250D01*
G75*
G02*
X141135Y313632I0J-1250D01*
G01*
X142018Y312750D01*
X151400D01*
G75*
G02*
X155250Y316600I3850J0D01*
G01*
X160250D01*
G75*
G02*
X163892Y314000I0J-3851D01*
G01*
X166874D01*
G75*
G02*
X173850Y312750I3376J-1250D01*
G01*
Y312750D01*
X176652D01*
Y316348D01*
X183848D01*
Y314000D01*
X186951D01*
G75*
G02*
X193738Y312868I3299J-1132D01*
G01*
G75*
G02*
X193736Y312750I-3493J-1D01*
G01*
X251400D01*
G75*
G02*
X255250Y316600I3850J0D01*
G01*
X260250D01*
G75*
G02*
X264100Y312750I0J-3850D01*
G01*
X281400D01*
G75*
G02*
X285250Y316600I3850J0D01*
G01*
X290250D01*
G75*
G02*
X293892Y314000I0J-3851D01*
G01*
X299374D01*
G75*
G02*
X306350Y312750I3376J-1250D01*
G01*
Y312750D01*
X309152D01*
Y316348D01*
X316348D01*
Y314000D01*
X319451D01*
G75*
G02*
X326238Y312868I3299J-1132D01*
G01*
G75*
G02*
X326236Y312750I-3493J-1D01*
G01*
X380000D01*
Y322750D01*
X326236D01*
G75*
G02*
X319542Y321500I-3486J118D01*
G01*
X316348D01*
Y319152D01*
X309152D01*
Y322750D01*
X306350D01*
Y322750D01*
G75*
G02*
X299374Y321500I-3600J0D01*
G01*
X293892D01*
G75*
G02*
X290250Y318900I-3642J1250D01*
G01*
X285250D01*
G75*
G02*
X281400Y322750I0J3850D01*
G01*
X274518D01*
X273635Y321868D01*
G75*
G02*
X272750Y321500I-885J882D01*
G01*
X263892D01*
G75*
G02*
X260250Y318900I-3642J1250D01*
G01*
X255250D01*
G75*
G02*
X251400Y322750I0J3850D01*
G01*
X193736D01*
G75*
G02*
X187042Y321500I-3486J118D01*
G01*
X183848D01*
Y319152D01*
X176652D01*
Y322750D01*
X173850D01*
Y322750D01*
G75*
G02*
X166874Y321500I-3600J0D01*
G01*
X163892D01*
G75*
G02*
X160250Y318900I-3642J1250D01*
G01*
X155250D01*
G75*
G02*
X151400Y322750I0J3850D01*
G01*
X134100D01*
G75*
G02*
X130250Y318900I-3850J0D01*
G01*
X125250D01*
G75*
G02*
X121400Y322750I0J3850D01*
G01*
X71600D01*
G75*
G02*
X67750Y318900I-3850J0D01*
G01*
X62750D01*
G75*
G02*
X58900Y322750I0J3850D01*
G01*
X41600D01*
G75*
G02*
X37750Y318900I-3850J0D01*
G01*
X32750D01*
G75*
G02*
X28900Y322750I0J3850D01*
G01*
X10500D01*
G37*
Y332750D02*
G36*
X10500Y332750D02*
Y322750D01*
X28900D01*
G75*
G02*
X32750Y326600I3850J0D01*
G01*
X34000D01*
Y327750D01*
G75*
G02*
Y327751I1157J0D01*
G01*
G75*
G02*
X34759Y328900I1249J0D01*
G01*
X32750D01*
G75*
G02*
X28900Y332750I0J3850D01*
G01*
X10500D01*
G37*
X41600Y322750D02*
G36*
X41600Y322750D02*
X58900D01*
G75*
G02*
X61876Y326500I3850J0D01*
G01*
X38624D01*
G75*
G02*
X41600Y322750I-874J-3750D01*
G01*
G37*
Y332750D02*
G36*
X41600Y332750D02*
G75*
G02*
X38624Y329000I-3850J0D01*
G01*
X61876D01*
G75*
G02*
X58900Y332750I874J3750D01*
G01*
X41600D01*
G37*
X71600Y322750D02*
G36*
X71600Y322750D02*
X121400D01*
G75*
G02*
X125250Y326600I3850J0D01*
G01*
X130250D01*
G75*
G02*
X134100Y322750I0J-3850D01*
G01*
X151400D01*
G75*
G02*
X155250Y326600I3850J0D01*
G01*
X160250D01*
G75*
G02*
X163892Y324000I0J-3851D01*
G01*
X166874D01*
G75*
G02*
X173850Y322750I3376J-1250D01*
G01*
Y322750D01*
X176652D01*
Y326348D01*
X183848D01*
Y324000D01*
X186951D01*
G75*
G02*
X193738Y322868I3299J-1132D01*
G01*
G75*
G02*
X193736Y322750I-3493J-1D01*
G01*
X251400D01*
G75*
G02*
X255250Y326600I3850J0D01*
G01*
X260250D01*
G75*
G02*
X263892Y324000I0J-3851D01*
G01*
X272232D01*
X276865Y328632D01*
G75*
G02*
X277750Y329000I885J-882D01*
G01*
X284376D01*
G75*
G02*
X281400Y332750I874J3750D01*
G01*
X264100D01*
G75*
G02*
X260250Y328900I-3850J0D01*
G01*
X255250D01*
G75*
G02*
X251608Y331500I0J3851D01*
G01*
X248250D01*
G75*
G02*
X242000Y332750I-3000J1250D01*
G01*
X193736D01*
G75*
G02*
X187042Y331500I-3486J118D01*
G01*
X183848D01*
Y329152D01*
X176652D01*
Y332750D01*
X173850D01*
Y332750D01*
G75*
G02*
X166874Y331500I-3600J0D01*
G01*
X163892D01*
G75*
G02*
X160250Y328900I-3642J1250D01*
G01*
X155250D01*
G75*
G02*
X151400Y332750I0J3850D01*
G01*
X134100D01*
G75*
G02*
X130250Y328900I-3850J0D01*
G01*
X125250D01*
G75*
G02*
X121608Y331500I0J3851D01*
G01*
X120750D01*
G75*
G02*
X114500Y332750I-3000J1250D01*
G01*
X71600D01*
G75*
G02*
X68624Y329000I-3850J0D01*
G01*
X107250D01*
G75*
G02*
X113500Y327750I3000J-1250D01*
G01*
G75*
G02*
X107250Y326500I-3250J0D01*
G01*
X68624D01*
G75*
G02*
X71600Y322750I-874J-3750D01*
G01*
G37*
X278268Y326500D02*
G36*
X278268Y326500D02*
X274518Y322750D01*
X281400D01*
G75*
G02*
X284376Y326500I3850J0D01*
G01*
X278268D01*
G37*
X293190Y325236D02*
G36*
X293190Y325236D02*
G75*
G02*
X293892Y324000I-2943J-2487D01*
G01*
X299374D01*
G75*
G02*
X306350Y322750I3376J-1250D01*
G01*
Y322750D01*
X309152D01*
Y326348D01*
X316348D01*
Y324000D01*
X319451D01*
G75*
G02*
X326238Y322868I3299J-1132D01*
G01*
G75*
G02*
X326236Y322750I-3493J-1D01*
G01*
X380000D01*
Y332750D01*
X326236D01*
G75*
G02*
X319542Y331500I-3486J118D01*
G01*
X316348D01*
Y329152D01*
X309152D01*
Y332750D01*
X306350D01*
Y332750D01*
G75*
G02*
X299374Y331500I-3600J0D01*
G01*
X293892D01*
G75*
G02*
X293190Y330264I-3644J1251D01*
G01*
G75*
G02*
X298500Y327750I2060J-2514D01*
G01*
G75*
G02*
X293190Y325236I-3250J0D01*
G01*
G37*
X10500Y342750D02*
G36*
X10500Y342750D02*
Y332750D01*
X28900D01*
G75*
G02*
X32750Y336600I3850J0D01*
G01*
X34000D01*
Y338900D01*
X32750D01*
G75*
G02*
X28900Y342750I0J3850D01*
G01*
X10500D01*
G37*
X36500Y338900D02*
G36*
X36500Y338900D02*
Y336600D01*
X37750D01*
G75*
G02*
X41600Y332750I0J-3850D01*
G01*
X58900D01*
G75*
G02*
X62750Y336600I3850J0D01*
G01*
X67750D01*
G75*
G02*
X71600Y332750I0J-3850D01*
G01*
X114500D01*
G75*
G02*
X120750Y334000I3250J0D01*
G01*
X121608D01*
G75*
G02*
X125250Y336600I3642J-1250D01*
G01*
X130250D01*
G75*
G02*
X134100Y332750I0J-3850D01*
G01*
X151400D01*
G75*
G02*
X155250Y336600I3850J0D01*
G01*
X160250D01*
G75*
G02*
X163892Y334000I0J-3851D01*
G01*
X166874D01*
G75*
G02*
X173850Y332750I3376J-1250D01*
G01*
Y332750D01*
X176652D01*
Y336348D01*
X183848D01*
Y334000D01*
X186951D01*
G75*
G02*
X193738Y332868I3299J-1132D01*
G01*
G75*
G02*
X193736Y332750I-3493J-1D01*
G01*
X242000D01*
G75*
G02*
X248250Y334000I3250J0D01*
G01*
X251608D01*
G75*
G02*
X255250Y336600I3642J-1250D01*
G01*
X260250D01*
G75*
G02*
X264100Y332750I0J-3850D01*
G01*
X281400D01*
G75*
G02*
X285250Y336600I3850J0D01*
G01*
X290250D01*
G75*
G02*
X293892Y334000I0J-3851D01*
G01*
X299374D01*
G75*
G02*
X306350Y332750I3376J-1250D01*
G01*
Y332750D01*
X309152D01*
Y336348D01*
X316348D01*
Y334000D01*
X319451D01*
G75*
G02*
X326238Y332868I3299J-1132D01*
G01*
G75*
G02*
X326236Y332750I-3493J-1D01*
G01*
X380000D01*
Y342750D01*
X326236D01*
G75*
G02*
X319264I-3486J118D01*
G01*
X294100D01*
G75*
G02*
X290250Y338900I-3850J0D01*
G01*
X285250D01*
G75*
G02*
X281400Y342750I0J3850D01*
G01*
X264100D01*
G75*
G02*
X260250Y338900I-3850J0D01*
G01*
X255250D01*
G75*
G02*
X251608Y341500I0J3851D01*
G01*
X196500D01*
Y337750D01*
G75*
G02*
X195250Y336500I-1250J0D01*
G01*
X185250D01*
G75*
G02*
X184000Y337750I0J1250D01*
G01*
Y341500D01*
X163892D01*
G75*
G02*
X160250Y338900I-3642J1250D01*
G01*
X155250D01*
G75*
G02*
X151400Y342750I0J3850D01*
G01*
X134100D01*
G75*
G02*
X130250Y338900I-3850J0D01*
G01*
X125250D01*
G75*
G02*
X121608Y341500I0J3851D01*
G01*
X113250D01*
G75*
G02*
X107000Y342750I-3000J1250D01*
G01*
X84500D01*
Y336000D01*
X76000D01*
Y342750D01*
X71600D01*
G75*
G02*
X67750Y338900I-3850J0D01*
G01*
X62750D01*
G75*
G02*
X58900Y342750I0J3850D01*
G01*
X41600D01*
G75*
G02*
X37750Y338900I-3850J0D01*
G01*
X36500D01*
G37*
X186500Y342750D02*
G36*
X186500Y342750D02*
Y339000D01*
X194000D01*
Y342750D01*
X193736D01*
G75*
G02*
X186764I-3486J118D01*
G01*
X186500D01*
G37*
X10500Y352750D02*
G36*
X10500Y352750D02*
Y342750D01*
X28900D01*
G75*
G02*
X32750Y346600I3850J0D01*
G01*
X37750D01*
G75*
G02*
X41600Y342750I0J-3850D01*
G01*
X58900D01*
G75*
G02*
X62750Y346600I3850J0D01*
G01*
X67750D01*
G75*
G02*
X71600Y342750I0J-3850D01*
G01*
X76000D01*
Y344500D01*
X84500D01*
Y342750D01*
X107000D01*
G75*
G02*
X113250Y344000I3250J0D01*
G01*
X121608D01*
G75*
G02*
X125250Y346600I3642J-1250D01*
G01*
X130250D01*
G75*
G02*
X134100Y342750I0J-3850D01*
G01*
X151400D01*
G75*
G02*
X155250Y346600I3850J0D01*
G01*
X160250D01*
G75*
G02*
X163892Y344000I0J-3851D01*
G01*
X185250D01*
G75*
G02*
X186500Y342750I0J-1250D01*
G01*
X186764D01*
G75*
G02*
X186762Y342868I3487J117D01*
G01*
G75*
G02*
X193738I3488J0D01*
G01*
G75*
G02*
X193736Y342750I-3489J-1D01*
G01*
X194000D01*
G75*
G02*
X195250Y344000I1250J0D01*
G01*
X251608D01*
G75*
G02*
X255250Y346600I3642J-1250D01*
G01*
X260250D01*
G75*
G02*
X264100Y342750I0J-3850D01*
G01*
X281400D01*
G75*
G02*
X285250Y346600I3850J0D01*
G01*
X290250D01*
G75*
G02*
X294100Y342750I0J-3850D01*
G01*
X319264D01*
G75*
G02*
X319262Y342868I3487J117D01*
G01*
G75*
G02*
X326238I3488J0D01*
G01*
G75*
G02*
X326236Y342750I-3489J-1D01*
G01*
X380000D01*
Y352750D01*
X294500D01*
G75*
G02*
X290250Y348500I-4250J0D01*
G01*
X285250D01*
G75*
G02*
X281000Y352750I0J4250D01*
G01*
X264100D01*
G75*
G02*
X260250Y348900I-3850J0D01*
G01*
X255250D01*
G75*
G02*
X251400Y352750I0J3850D01*
G01*
X164500D01*
G75*
G02*
X160250Y348500I-4250J0D01*
G01*
X155250D01*
G75*
G02*
X151000Y352750I0J4250D01*
G01*
X134100D01*
G75*
G02*
X130250Y348900I-3850J0D01*
G01*
X125250D01*
G75*
G02*
X121400Y352750I0J3850D01*
G01*
X83178D01*
G75*
G02*
X84100Y350250I-2928J-2500D01*
G01*
Y350250D01*
Y350250D01*
G75*
G02*
X80250Y346400I-3850J0D01*
G01*
G75*
G02*
X76400Y350250I0J3850D01*
G01*
Y350250D01*
Y350250D01*
G75*
G02*
X77322Y352750I3850J0D01*
G01*
X71600D01*
G75*
G02*
X67750Y348900I-3850J0D01*
G01*
X62750D01*
G75*
G02*
X58900Y352750I0J3850D01*
G01*
X41600D01*
G75*
G02*
X37750Y348900I-3850J0D01*
G01*
X32750D01*
G75*
G02*
X28900Y352750I0J3850D01*
G01*
X10500D01*
G37*
Y357450D02*
G36*
X10500Y357450D02*
Y352750D01*
X28900D01*
G75*
G02*
X32750Y356600I3850J0D01*
G01*
X34000D01*
Y357450D01*
X10500D01*
G37*
X36500D02*
G36*
X36500Y357450D02*
Y356600D01*
X37750D01*
G75*
G02*
X41600Y352750I0J-3850D01*
G01*
X58900D01*
G75*
G02*
X62750Y356600I3850J0D01*
G01*
X67750D01*
G75*
G02*
X71600Y352750I0J-3850D01*
G01*
X77322D01*
G75*
G02*
X80250Y354100I2928J-2500D01*
G01*
G75*
G02*
X83178Y352750I0J-3850D01*
G01*
X121400D01*
G75*
G02*
X125250Y356600I3850J0D01*
G01*
X130250D01*
G75*
G02*
X134100Y352750I0J-3850D01*
G01*
X151000D01*
G75*
G02*
X155250Y357000I4250J0D01*
G01*
X160250D01*
G75*
G02*
X164500Y352750I0J-4250D01*
G01*
X251400D01*
G75*
G02*
X255250Y356600I3850J0D01*
G01*
X260250D01*
G75*
G02*
X264100Y352750I0J-3850D01*
G01*
X281000D01*
G75*
G02*
X285250Y357000I4250J0D01*
G01*
X290250D01*
G75*
G02*
X294500Y352750I0J-4250D01*
G01*
X380000D01*
Y357450D01*
X36500D01*
G37*
X10500Y362750D02*
G36*
X10500Y362750D02*
Y357450D01*
X34000D01*
Y362750D01*
X10500D01*
G37*
X36500Y361500D02*
G36*
X36500Y361500D02*
Y357450D01*
X380000D01*
Y362750D01*
X294100D01*
G75*
G02*
X290250Y358900I-3850J0D01*
G01*
X285250D01*
G75*
G02*
X281400Y362750I0J3850D01*
G01*
X264100D01*
G75*
G02*
X260250Y358900I-3850J0D01*
G01*
X255250D01*
G75*
G02*
X251400Y362750I0J3850D01*
G01*
X164100D01*
G75*
G02*
X160250Y358900I-3850J0D01*
G01*
X155250D01*
G75*
G02*
X151400Y362750I0J3850D01*
G01*
X134100D01*
G75*
G02*
X130250Y358900I-3850J0D01*
G01*
X125250D01*
G75*
G02*
X121400Y362750I0J3850D01*
G01*
X88500D01*
G75*
G02*
X82250Y361500I-3250J0D01*
G01*
X36500D01*
G37*
X10500Y380000D02*
G36*
X10500Y380000D02*
Y362750D01*
X34000D01*
G75*
G02*
X35250Y364000I1250J0D01*
G01*
X82250D01*
G75*
G02*
X88500Y362750I3000J-1250D01*
G01*
X121400D01*
G75*
G02*
X125250Y366600I3850J0D01*
G01*
X130250D01*
G75*
G02*
X134100Y362750I0J-3850D01*
G01*
X151400D01*
G75*
G02*
X155250Y366600I3850J0D01*
G01*
X160250D01*
G75*
G02*
X164100Y362750I0J-3850D01*
G01*
X251400D01*
G75*
G02*
X255250Y366600I3850J0D01*
G01*
X260250D01*
G75*
G02*
X264100Y362750I0J-3850D01*
G01*
X281400D01*
G75*
G02*
X285250Y366600I3850J0D01*
G01*
X290250D01*
G75*
G02*
X294100Y362750I0J-3850D01*
G01*
X380000D01*
Y380000D01*
X10500D01*
G37*
X73622Y126500D02*
G75*
G02*
Y119000I-872J-3750D01*
G01*
X78500D01*
Y126500D01*
X73622D01*
G36*
X73622Y126500D02*
G75*
G02*
Y119000I-872J-3750D01*
G01*
X78500D01*
Y126500D01*
X73622D01*
G37*
X268250Y171500D02*
G75*
G02*
X264000Y169750I-3000J1250D01*
G01*
G75*
G02*
X262250Y164000I-3750J-2000D01*
G01*
X284376D01*
G75*
G02*
X281608Y166500I874J3750D01*
G01*
X273250D01*
G75*
G02*
X267000Y167750I-3000J1250D01*
G01*
G75*
G02*
X273250Y169000I3250J0D01*
G01*
X281608D01*
G75*
G02*
X284376Y171500I3642J-1250D01*
G01*
X268250D01*
G36*
X268250Y171500D02*
G75*
G02*
X264000Y169750I-3000J1250D01*
G01*
G75*
G02*
X262250Y164000I-3750J-2000D01*
G01*
X284376D01*
G75*
G02*
X281608Y166500I874J3750D01*
G01*
X273250D01*
G75*
G02*
X267000Y167750I-3000J1250D01*
G01*
G75*
G02*
X273250Y169000I3250J0D01*
G01*
X281608D01*
G75*
G02*
X284376Y171500I3642J-1250D01*
G01*
X268250D01*
G37*
D02*
D14*
X22750Y60250D02*
X20750D01*
X25250Y57750D02*
Y55750D01*
Y62750D02*
Y64750D01*
X27750Y60250D02*
X29750D01*
X33704Y131204D02*
X32289Y129789D01*
X33704Y134296D02*
X32289Y135711D01*
X36796Y131204D02*
X38211Y129789D01*
X36796Y134296D02*
X38211Y135711D01*
X37750Y172750D02*
X35750D01*
X37750Y190250D02*
X35750D01*
X40250Y170250D02*
Y168250D01*
Y175250D02*
Y177250D01*
Y187750D02*
Y185750D01*
Y192750D02*
Y194750D01*
X42750Y172750D02*
X44750D01*
X42750Y190250D02*
X44750D01*
X43033Y25250D02*
X41033D01*
X43063Y92750D02*
X41063D01*
X45250Y23033D02*
Y21033D01*
Y27467D02*
Y29467D01*
Y90563D02*
Y88563D01*
Y94937D02*
Y96937D01*
X47437Y92750D02*
X49437D01*
X47467Y25250D02*
X49467D01*
X67750Y60250D02*
X65750D01*
X70250Y57750D02*
Y55750D01*
Y62750D02*
Y64750D01*
X72750Y60250D02*
X74750D01*
X77750Y340250D02*
X75750D01*
X78750Y92750D02*
X76750D01*
X80250Y91250D02*
Y89250D01*
Y94250D02*
Y96250D01*
Y105250D02*
X78250D01*
X80250Y122750D02*
X78250D01*
X80250Y337750D02*
Y335750D01*
Y342750D02*
Y344750D01*
X81750Y92750D02*
X83750D01*
X82750Y102750D02*
Y100750D01*
Y107750D02*
Y109750D01*
Y340250D02*
X84750D01*
X85250Y105250D02*
X87250D01*
X85250Y122750D02*
X87250D01*
X88033Y25250D02*
X86033D01*
X90250Y23033D02*
Y21033D01*
Y27467D02*
Y29467D01*
X92467Y25250D02*
X94467D01*
X122750Y32750D02*
X120750D01*
X122750Y152750D02*
X120750D01*
X122750Y162750D02*
X120750D01*
X122750Y272750D02*
X120750D01*
X122750Y282750D02*
X120750D01*
X125140Y40140D02*
X123574Y38574D01*
X125140Y45360D02*
X123574Y46926D01*
X127750Y35250D02*
Y37250D01*
Y150250D02*
Y148250D01*
Y155250D02*
Y157250D01*
Y160250D02*
Y158250D01*
Y270250D02*
Y268250D01*
Y275250D02*
Y277250D01*
Y280250D02*
Y278250D01*
X130360Y40140D02*
X131926Y38574D01*
X130360Y45360D02*
X131926Y46926D01*
X132750Y32750D02*
X134750D01*
X132750Y152750D02*
X134750D01*
X132750Y272750D02*
X134750D01*
X132750Y282750D02*
X134750D01*
X152750Y32750D02*
X150750D01*
X152750Y112750D02*
X150750D01*
X152750Y152750D02*
X150750D01*
X152750Y232750D02*
X150750D01*
X152750Y272750D02*
X150750D01*
X152750Y352750D02*
X150750D01*
X157750Y35250D02*
Y37250D01*
Y115250D02*
Y117250D01*
Y150250D02*
Y148250D01*
Y155250D02*
Y157250D01*
Y235250D02*
Y237250D01*
Y275250D02*
Y277250D01*
Y350250D02*
Y348250D01*
Y355250D02*
Y357250D01*
X162750Y32750D02*
X164750D01*
X162750Y112750D02*
X164750D01*
X162750Y152750D02*
X164750D01*
X162750Y232750D02*
X164750D01*
X162750Y272750D02*
X164750D01*
X162750Y352750D02*
X164750D01*
X167750Y132750D02*
X165750D01*
X167750Y222750D02*
X165750D01*
X170250Y130250D02*
Y128250D01*
Y135250D02*
Y137250D01*
Y220250D02*
Y218250D01*
X172750Y132750D02*
X174750D01*
X172750Y222750D02*
X174750D01*
X252750Y32750D02*
X250750D01*
X252750Y157750D02*
X250750D01*
X252750Y167750D02*
X250750D01*
X252750Y272750D02*
X250750D01*
X252750Y282750D02*
X250750D01*
X255140Y40140D02*
X253574Y38574D01*
X255140Y45360D02*
X253574Y46926D01*
X257750Y35250D02*
Y37250D01*
Y155250D02*
Y153250D01*
Y170250D02*
Y172250D01*
Y270250D02*
Y268250D01*
Y285250D02*
Y287250D01*
X260360Y40140D02*
X261926Y38574D01*
X260360Y45360D02*
X261926Y46926D01*
X262750Y32750D02*
X264750D01*
X262750Y157750D02*
X264750D01*
X262750Y167750D02*
X264750D01*
X262750Y272750D02*
X264750D01*
X262750Y282750D02*
X264750D01*
X282750Y32750D02*
X280750D01*
X282750Y112750D02*
X280750D01*
X282750Y157750D02*
X280750D01*
X282750Y237750D02*
X280750D01*
X282750Y272750D02*
X280750D01*
X282750Y352750D02*
X280750D01*
X287750Y30250D02*
Y28250D01*
Y110250D02*
Y108250D01*
Y115250D02*
Y117250D01*
Y155250D02*
Y153250D01*
Y235250D02*
Y233250D01*
Y240250D02*
Y242250D01*
Y270250D02*
Y268250D01*
Y275250D02*
Y277250D01*
Y350250D02*
Y348250D01*
Y355250D02*
Y357250D01*
X292750Y32750D02*
X294750D01*
X292750Y112750D02*
X294750D01*
X292750Y157750D02*
X294750D01*
X292750Y237750D02*
X294750D01*
X292750Y272750D02*
X294750D01*
X292750Y352750D02*
X294750D01*
X300104Y135104D02*
X298250Y133250D01*
X300104Y140396D02*
X298250Y142250D01*
X300250Y227750D02*
X298250D01*
X302750Y225250D02*
Y223250D01*
Y230250D02*
Y232250D01*
X305250Y227750D02*
X307250D01*
X305396Y135104D02*
X307250Y133250D01*
X305396Y140396D02*
X307250Y142250D01*
D02*
D15*
X20250Y112750D02*
X35250D01*
Y227750D02*
X42750D01*
X47750Y222750D01*
X87868D01*
X90250Y220368D01*
X35250Y247750D02*
Y257750D01*
Y322750D02*
Y327750D01*
X110250D01*
X35250Y332750D02*
Y342750D01*
Y352750D02*
Y362750D01*
X85250D01*
X40250Y70250D02*
X70250D01*
X80250Y60250D01*
X65250Y157750D02*
X72750D01*
X85250Y145250D01*
X137750D01*
X65250Y217750D02*
X35250D01*
X77750Y247750D02*
X80250Y245250D01*
X115250D01*
X120250Y250250D01*
X147750D01*
X77750Y247750D02*
X65250D01*
X90250Y112750D02*
X45250D01*
X90250Y230368D02*
X77750D01*
Y237750D01*
X65250D01*
X90250Y230368D02*
Y230250D01*
X100250D01*
X95250Y127750D02*
X35250D01*
Y122750D01*
X100250Y117750D02*
X45250D01*
Y122750D01*
X100250Y240250D02*
X90250D01*
Y240368D01*
X102750Y22750D02*
X170250D01*
X102750Y92750D02*
X127750D01*
X105250Y210250D02*
X90250D01*
Y210368D01*
X105250Y272750D02*
X52750D01*
Y267750D01*
X35250D01*
X110250Y342750D02*
X127750D01*
X112750Y82750D02*
X127750D01*
X112750Y140250D02*
X155250D01*
Y142750D01*
X170250D01*
X117750Y262750D02*
X170250D01*
X117750Y332750D02*
X127750D01*
Y102750D02*
Y107750D01*
X205250D01*
X127750Y182750D02*
X145250D01*
X150250Y177750D01*
X165250D01*
X170250Y172750D01*
X127750Y192750D02*
X132750D01*
X137750Y187750D01*
X205250D01*
X127750Y302750D02*
X137750D01*
X142750Y297750D01*
X165250D01*
X170250Y292750D01*
X137750Y162750D02*
X157750D01*
X137750Y267750D02*
X165250D01*
X170250Y272750D01*
X145250Y172750D02*
X140250Y167750D01*
X75250D01*
X145250Y172750D02*
X157750D01*
Y42750D02*
X162750Y37750D01*
X230250D01*
X240250Y27750D01*
X267750D01*
X157750Y42750D02*
X137750D01*
X157750Y52750D02*
X162750Y57750D01*
X270250D01*
X275250Y52750D01*
X157750D02*
X145250D01*
X157750Y102750D02*
X180250D01*
X185250Y97750D01*
X195250D01*
X200250Y102750D01*
X257750D01*
X157750Y222750D02*
Y227750D01*
X257750D01*
X157750Y282750D02*
X160250D01*
X165250Y277750D01*
X265250D01*
X270250Y282750D01*
X287750D01*
X157750D02*
X142750D01*
X137750Y287750D01*
X22750D01*
X165250Y207750D02*
X145250D01*
X140250Y202750D01*
X127750D01*
X170250Y32750D02*
X165250Y27750D01*
X112750D01*
X170250Y42750D02*
X175250Y47750D01*
X200250D01*
X170250Y52750D02*
X165250Y47750D01*
X140250D01*
Y57750D01*
X135250Y62750D01*
X127750D01*
X170250D02*
X157750D01*
X170250Y72750D02*
X157750D01*
X170250Y82750D02*
X157750D01*
X170250Y92750D02*
X157750D01*
X170250Y182750D02*
X157750D01*
X170250Y192750D02*
X157750D01*
X170250Y202750D02*
X157750D01*
X170250Y212750D02*
X157750D01*
X170250Y282750D02*
X175250Y287750D01*
X200250D01*
X170250Y302750D02*
X157750D01*
X170250Y312750D02*
X157750D01*
X170250Y322750D02*
X157750D01*
X170250Y332750D02*
X157750D01*
X180250Y22750D02*
X190250D01*
Y22632D01*
X180250Y32750D02*
X190250D01*
Y32632D01*
X180250Y42750D02*
X190250D01*
Y42632D01*
X180250Y52750D02*
X190250D01*
Y52632D01*
X180250Y62750D02*
X190250D01*
Y62868D01*
X180250Y72750D02*
X190250D01*
Y72868D01*
X180250Y82750D02*
X190250D01*
Y82868D01*
X180250Y92750D02*
X190250D01*
Y92868D01*
X180250Y142750D02*
X190250D01*
Y142632D01*
X180250Y152750D02*
X190250D01*
Y152632D01*
X180250Y162750D02*
X190250D01*
Y162632D01*
X180250Y172750D02*
X190250D01*
Y172632D01*
X180250Y182750D02*
X190250D01*
Y182868D01*
X180250Y192750D02*
X190250D01*
Y192868D01*
X180250Y202750D02*
X190250D01*
Y202868D01*
X180250Y212750D02*
X190250D01*
Y212868D01*
X180250Y262750D02*
X190250D01*
Y262632D01*
X180250Y272750D02*
X190250D01*
Y272632D01*
X180250Y282750D02*
X190250D01*
Y282632D01*
X180250Y292750D02*
X190250D01*
Y292632D01*
X180250Y302750D02*
X190250D01*
Y302868D01*
X180250Y312750D02*
X190250D01*
Y312868D01*
X180250Y322750D02*
X190250D01*
Y322868D01*
X180250Y332750D02*
X190250D01*
Y332868D01*
X200250Y67750D02*
X135250D01*
X130250Y72750D01*
X127750D01*
X200250Y307750D02*
X145250D01*
X140250Y312750D01*
X127750D01*
X205250Y167750D02*
X175250D01*
X170250Y162750D01*
X237750Y147750D02*
X302750D01*
X237750Y217750D02*
X257750D01*
X240250Y22750D02*
X302750D01*
X240250Y92750D02*
X257750D01*
X245250Y207750D02*
X257750D01*
X245250Y262750D02*
X302750D01*
X245250Y332750D02*
X257750D01*
Y62750D02*
X275250D01*
X280250Y57750D01*
X297750D01*
X302750Y52750D01*
X257750Y72750D02*
X260250D01*
X265250Y77750D01*
X337750D01*
X257750Y312750D02*
X260250D01*
X265250Y307750D01*
X335250D01*
X257750Y342750D02*
X195250D01*
Y337750D01*
X185250D01*
Y342750D01*
X157750D01*
X270250Y167750D02*
X287750D01*
X275250Y177750D02*
X287750D01*
X280250Y37750D02*
X297750D01*
X302750Y32750D01*
X280250Y87750D02*
X275250Y82750D01*
X257750D01*
X287750Y42750D02*
X267750D01*
X287750Y52750D02*
X275250D01*
X295250Y137750D02*
X205250D01*
X295250Y327750D02*
X277750D01*
X272750Y322750D01*
X257750D01*
X302750Y42750D02*
X307750Y47750D01*
X337750D01*
X302750Y62750D02*
X287750D01*
X302750Y72750D02*
X287750D01*
X302750Y82750D02*
X287750D01*
X302750Y92750D02*
X287750D01*
X302750Y157750D02*
X297750Y162750D01*
X245250D01*
X302750Y167750D02*
X297750Y172750D01*
X265250D01*
X302750Y177750D02*
X297750Y182750D01*
X275250D01*
X270250Y187750D01*
X257750D01*
X302750D02*
X287750D01*
X302750Y197750D02*
X287750D01*
X302750Y207750D02*
X287750D01*
X302750Y217750D02*
X287750D01*
X302750Y292750D02*
Y297750D01*
X277750D01*
X272750Y302750D01*
X257750D01*
X302750D02*
X287750D01*
X302750Y312750D02*
X287750D01*
X302750Y322750D02*
X287750D01*
X302750Y332750D02*
X287750D01*
X312750Y22750D02*
X322750D01*
Y22632D01*
X312750Y32750D02*
X322750D01*
Y32632D01*
X312750Y42750D02*
X322750D01*
Y42632D01*
X312750Y52750D02*
X322750D01*
Y52632D01*
X312750Y62750D02*
X322750D01*
Y62868D01*
X312750Y72750D02*
X322750D01*
Y72868D01*
X312750Y82750D02*
X322750D01*
Y82868D01*
X312750Y92750D02*
X322750D01*
Y92868D01*
X312750Y147750D02*
X322750D01*
Y147632D01*
X312750Y157750D02*
X322750D01*
Y157632D01*
X312750Y167750D02*
X322750D01*
Y167632D01*
X312750Y177750D02*
X322750D01*
Y177632D01*
X312750Y187750D02*
X322750D01*
Y187868D01*
X312750Y197750D02*
X322750D01*
Y197868D01*
X312750Y207750D02*
X322750D01*
Y207868D01*
X312750Y217750D02*
X322750D01*
Y217868D01*
X312750Y262750D02*
X322750D01*
Y262632D01*
X312750Y272750D02*
X322750D01*
Y272632D01*
X312750Y282750D02*
X322750D01*
Y282632D01*
X312750Y292750D02*
X322750D01*
Y292632D01*
X312750Y302750D02*
X322750D01*
Y302868D01*
X312750Y312750D02*
X322750D01*
Y312868D01*
X312750Y322750D02*
X322750D01*
Y322868D01*
X312750Y332750D02*
X322750D01*
Y332868D01*
X335250Y287750D02*
X307750D01*
X302750Y282750D01*
D02*
D16*
X20250Y112750D03*
X22750Y287750D03*
X40250Y70250D03*
X65250Y157750D03*
X75250Y167750D03*
X77750Y247750D03*
X85250Y362750D03*
X90250Y112750D03*
X95250Y127750D03*
X100250Y117750D03*
Y230250D03*
Y240250D03*
X102750Y22750D03*
Y92750D03*
X105250Y210250D03*
Y272750D03*
X110250Y327750D03*
Y342750D03*
X112750Y27750D03*
Y82750D03*
Y140250D03*
X117750Y262750D03*
Y332750D03*
X137750Y42750D03*
Y145250D03*
Y162750D03*
Y267750D03*
X145250Y52750D03*
Y172750D03*
X147750Y250250D03*
X165250Y207750D03*
X200250Y47750D03*
Y67750D03*
Y287750D03*
Y307750D03*
X205250Y107750D03*
Y137750D03*
Y167750D03*
Y187750D03*
X237750Y147750D03*
Y217750D03*
X240250Y22750D03*
Y92750D03*
X245250Y162750D03*
Y207750D03*
Y262750D03*
Y332750D03*
X265250Y172750D03*
X267750Y27750D03*
Y42750D03*
X270250Y167750D03*
X275250Y52750D03*
Y177750D03*
X280250Y37750D03*
Y87750D03*
X295250Y137750D03*
Y327750D03*
X335250Y287750D03*
Y307750D03*
X337750Y47750D03*
Y77750D03*
D02*
D17*
X45250Y132750D02*
Y135250D01*
X47750Y137750D01*
X72750D01*
D02*
D18*
D03*
D02*
D19*
X35250Y92750D03*
Y102750D03*
Y112750D03*
Y122750D03*
Y132750D03*
X45250Y92750D03*
Y102750D03*
Y112750D03*
Y122750D03*
Y132750D03*
D02*
D70*
X25250Y60250D03*
X40250Y190250D03*
X70250Y60250D03*
X80250Y340250D03*
X82750Y122750D03*
X170250Y132750D03*
Y222750D03*
X302750Y137750D03*
Y227750D03*
D02*
D71*
X30250Y172750D03*
Y190250D03*
X35250Y60250D03*
X40250Y172750D03*
X72750Y105250D03*
Y122750D03*
X80250Y60250D03*
Y350250D03*
X82750Y105250D03*
X180250Y132750D03*
Y222750D03*
X312750Y137750D03*
Y227750D03*
D02*
D20*
X90250Y82750D03*
D02*
D21*
X70250D03*
X80250Y92750D03*
D02*
D22*
X35250Y207750D03*
Y217750D03*
Y227750D03*
Y237750D03*
Y247750D03*
Y257750D03*
Y267750D03*
Y292750D03*
Y302750D03*
Y312750D03*
Y322750D03*
Y332750D03*
Y342750D03*
Y352750D03*
X65250Y207750D03*
Y217750D03*
Y227750D03*
Y237750D03*
Y247750D03*
Y257750D03*
Y267750D03*
Y292750D03*
Y302750D03*
Y312750D03*
Y322750D03*
Y332750D03*
Y342750D03*
Y352750D03*
X127750Y32750D03*
Y42750D03*
Y52750D03*
Y62750D03*
Y72750D03*
Y82750D03*
Y92750D03*
Y102750D03*
Y112750D03*
Y122750D03*
Y152750D03*
Y162750D03*
Y172750D03*
Y182750D03*
Y192750D03*
Y202750D03*
Y212750D03*
Y222750D03*
Y232750D03*
Y242750D03*
Y272750D03*
Y282750D03*
Y292750D03*
Y302750D03*
Y312750D03*
Y322750D03*
Y332750D03*
Y342750D03*
Y352750D03*
Y362750D03*
X157750Y32750D03*
Y42750D03*
Y52750D03*
Y62750D03*
Y72750D03*
Y82750D03*
Y92750D03*
Y102750D03*
Y112750D03*
Y122750D03*
Y152750D03*
Y162750D03*
Y172750D03*
Y182750D03*
Y192750D03*
Y202750D03*
Y212750D03*
Y222750D03*
Y232750D03*
Y242750D03*
Y272750D03*
Y282750D03*
Y292750D03*
Y302750D03*
Y312750D03*
Y322750D03*
Y332750D03*
Y342750D03*
Y352750D03*
Y362750D03*
X257750Y32750D03*
Y42750D03*
Y52750D03*
Y62750D03*
Y72750D03*
Y82750D03*
Y92750D03*
Y102750D03*
Y112750D03*
Y122750D03*
Y157750D03*
Y167750D03*
Y177750D03*
Y187750D03*
Y197750D03*
Y207750D03*
Y217750D03*
Y227750D03*
Y237750D03*
Y247750D03*
Y272750D03*
Y282750D03*
Y292750D03*
Y302750D03*
Y312750D03*
Y322750D03*
Y332750D03*
Y342750D03*
Y352750D03*
Y362750D03*
X287750Y32750D03*
Y42750D03*
Y52750D03*
Y62750D03*
Y72750D03*
Y82750D03*
Y92750D03*
Y102750D03*
Y112750D03*
Y122750D03*
Y157750D03*
Y167750D03*
Y177750D03*
Y187750D03*
Y197750D03*
Y207750D03*
Y217750D03*
Y227750D03*
Y237750D03*
Y247750D03*
Y272750D03*
Y282750D03*
Y292750D03*
Y302750D03*
Y312750D03*
Y322750D03*
Y332750D03*
Y342750D03*
Y352750D03*
Y362750D03*
D02*
D23*
X25250Y25250D03*
X35250Y45250D03*
X45250Y25250D03*
X70250D03*
X80250Y45250D03*
X90250Y25250D03*
D02*
D24*
Y210368D03*
Y220368D03*
Y230368D03*
Y240368D03*
Y250368D03*
X190250Y12632D03*
Y22632D03*
Y32632D03*
Y42632D03*
Y52632D03*
Y62868D03*
Y72868D03*
Y82868D03*
Y92868D03*
Y102868D03*
Y132632D03*
Y142632D03*
Y152632D03*
Y162632D03*
Y172632D03*
Y182868D03*
Y192868D03*
Y202868D03*
Y212868D03*
Y222868D03*
Y252632D03*
Y262632D03*
Y272632D03*
Y282632D03*
Y292632D03*
Y302868D03*
Y312868D03*
Y322868D03*
Y332868D03*
Y342868D03*
X322750Y12632D03*
Y22632D03*
Y32632D03*
Y42632D03*
Y52632D03*
Y62868D03*
Y72868D03*
Y82868D03*
Y92868D03*
Y102868D03*
Y137632D03*
Y147632D03*
Y157632D03*
Y167632D03*
Y177632D03*
Y187868D03*
Y197868D03*
Y207868D03*
Y217868D03*
Y227868D03*
Y252632D03*
Y262632D03*
Y272632D03*
Y282632D03*
Y292632D03*
Y302868D03*
Y312868D03*
Y322868D03*
Y332868D03*
Y342868D03*
D02*
D25*
X180250Y22750D03*
Y32750D03*
Y42750D03*
Y52750D03*
Y62750D03*
Y72750D03*
Y82750D03*
Y92750D03*
Y142750D03*
Y152750D03*
Y162750D03*
Y172750D03*
Y182750D03*
Y192750D03*
Y202750D03*
Y212750D03*
Y262750D03*
Y272750D03*
Y282750D03*
Y292750D03*
Y302750D03*
Y312750D03*
Y322750D03*
Y332750D03*
X312750Y22750D03*
Y32750D03*
Y42750D03*
Y52750D03*
Y62750D03*
Y72750D03*
Y82750D03*
Y92750D03*
Y147750D03*
Y157750D03*
Y167750D03*
Y177750D03*
Y187750D03*
Y197750D03*
Y207750D03*
Y217750D03*
Y262750D03*
Y272750D03*
Y282750D03*
Y292750D03*
Y302750D03*
Y312750D03*
Y322750D03*
Y332750D03*
D02*
D26*
X170250Y22750D03*
Y32750D03*
Y42750D03*
Y52750D03*
Y62750D03*
Y72750D03*
Y82750D03*
Y92750D03*
Y142750D03*
Y152750D03*
Y162750D03*
Y172750D03*
Y182750D03*
Y192750D03*
Y202750D03*
Y212750D03*
Y262750D03*
Y272750D03*
Y282750D03*
Y292750D03*
Y302750D03*
Y312750D03*
Y322750D03*
Y332750D03*
X302750Y22750D03*
Y32750D03*
Y42750D03*
Y52750D03*
Y62750D03*
Y72750D03*
Y82750D03*
Y92750D03*
Y147750D03*
Y157750D03*
Y167750D03*
Y177750D03*
Y187750D03*
Y197750D03*
Y207750D03*
Y217750D03*
Y262750D03*
Y272750D03*
Y282750D03*
Y292750D03*
Y302750D03*
Y312750D03*
Y322750D03*
Y332750D03*
X0Y0D02*
M02*
