G04 DesignSpark PCB Gerber Version 10.0 Build 5299*
G04 #@! TF.Part,Single*
G04 #@! TF.FileFunction,Soldermask,Top*
G04 #@! TF.FilePolarity,Negative*
%FSLAX35Y35*%
%MOIN*%
G04 #@! TA.AperFunction,ComponentPad*
%ADD72R,0.05000X0.05000*%
%ADD77R,0.06500X0.06500*%
%ADD28R,0.07000X0.07000*%
%ADD73C,0.05000*%
%ADD76C,0.06276*%
%ADD27C,0.06374*%
%ADD75C,0.06433*%
%ADD78C,0.06500*%
%ADD29C,0.07000*%
%ADD74O,0.12000X0.07000*%
G04 #@! TD.AperFunction*
X0Y0D02*
D02*
D27*
X35250Y92750D03*
Y102750D03*
Y112750D03*
Y122750D03*
Y132750D03*
X45250Y92750D03*
Y102750D03*
Y112750D03*
Y122750D03*
Y132750D03*
D02*
D28*
X25250Y60250D03*
X40250Y190250D03*
X70250Y60250D03*
X80250Y340250D03*
X82750Y122750D03*
X170250Y132750D03*
Y222750D03*
X302750Y137750D03*
Y227750D03*
D02*
D29*
X30250Y172750D03*
Y190250D03*
X35250Y60250D03*
X40250Y172750D03*
X72750Y105250D03*
Y122750D03*
X80250Y60250D03*
Y350250D03*
X82750Y105250D03*
X180250Y132750D03*
Y222750D03*
X312750Y137750D03*
Y227750D03*
D02*
D72*
X90250Y82750D03*
D02*
D73*
X70250D03*
X80250Y92750D03*
D02*
D74*
X35250Y207750D03*
Y217750D03*
Y227750D03*
Y237750D03*
Y247750D03*
Y257750D03*
Y267750D03*
Y292750D03*
Y302750D03*
Y312750D03*
Y322750D03*
Y332750D03*
Y342750D03*
Y352750D03*
X65250Y207750D03*
Y217750D03*
Y227750D03*
Y237750D03*
Y247750D03*
Y257750D03*
Y267750D03*
Y292750D03*
Y302750D03*
Y312750D03*
Y322750D03*
Y332750D03*
Y342750D03*
Y352750D03*
X127750Y32750D03*
Y42750D03*
Y52750D03*
Y62750D03*
Y72750D03*
Y82750D03*
Y92750D03*
Y102750D03*
Y112750D03*
Y122750D03*
Y152750D03*
Y162750D03*
Y172750D03*
Y182750D03*
Y192750D03*
Y202750D03*
Y212750D03*
Y222750D03*
Y232750D03*
Y242750D03*
Y272750D03*
Y282750D03*
Y292750D03*
Y302750D03*
Y312750D03*
Y322750D03*
Y332750D03*
Y342750D03*
Y352750D03*
Y362750D03*
X157750Y32750D03*
Y42750D03*
Y52750D03*
Y62750D03*
Y72750D03*
Y82750D03*
Y92750D03*
Y102750D03*
Y112750D03*
Y122750D03*
Y152750D03*
Y162750D03*
Y172750D03*
Y182750D03*
Y192750D03*
Y202750D03*
Y212750D03*
Y222750D03*
Y232750D03*
Y242750D03*
Y272750D03*
Y282750D03*
Y292750D03*
Y302750D03*
Y312750D03*
Y322750D03*
Y332750D03*
Y342750D03*
Y352750D03*
Y362750D03*
X257750Y32750D03*
Y42750D03*
Y52750D03*
Y62750D03*
Y72750D03*
Y82750D03*
Y92750D03*
Y102750D03*
Y112750D03*
Y122750D03*
Y157750D03*
Y167750D03*
Y177750D03*
Y187750D03*
Y197750D03*
Y207750D03*
Y217750D03*
Y227750D03*
Y237750D03*
Y247750D03*
Y272750D03*
Y282750D03*
Y292750D03*
Y302750D03*
Y312750D03*
Y322750D03*
Y332750D03*
Y342750D03*
Y352750D03*
Y362750D03*
X287750Y32750D03*
Y42750D03*
Y52750D03*
Y62750D03*
Y72750D03*
Y82750D03*
Y92750D03*
Y102750D03*
Y112750D03*
Y122750D03*
Y157750D03*
Y167750D03*
Y177750D03*
Y187750D03*
Y197750D03*
Y207750D03*
Y217750D03*
Y227750D03*
Y237750D03*
Y247750D03*
Y272750D03*
Y282750D03*
Y292750D03*
Y302750D03*
Y312750D03*
Y322750D03*
Y332750D03*
Y342750D03*
Y352750D03*
Y362750D03*
D02*
D75*
X25250Y25250D03*
X35250Y45250D03*
X45250Y25250D03*
X70250D03*
X80250Y45250D03*
X90250Y25250D03*
D02*
D76*
Y210368D03*
Y220368D03*
Y230368D03*
Y240368D03*
Y250368D03*
X190250Y12632D03*
Y22632D03*
Y32632D03*
Y42632D03*
Y52632D03*
Y62868D03*
Y72868D03*
Y82868D03*
Y92868D03*
Y102868D03*
Y132632D03*
Y142632D03*
Y152632D03*
Y162632D03*
Y172632D03*
Y182868D03*
Y192868D03*
Y202868D03*
Y212868D03*
Y222868D03*
Y252632D03*
Y262632D03*
Y272632D03*
Y282632D03*
Y292632D03*
Y302868D03*
Y312868D03*
Y322868D03*
Y332868D03*
Y342868D03*
X322750Y12632D03*
Y22632D03*
Y32632D03*
Y42632D03*
Y52632D03*
Y62868D03*
Y72868D03*
Y82868D03*
Y92868D03*
Y102868D03*
Y137632D03*
Y147632D03*
Y157632D03*
Y167632D03*
Y177632D03*
Y187868D03*
Y197868D03*
Y207868D03*
Y217868D03*
Y227868D03*
Y252632D03*
Y262632D03*
Y272632D03*
Y282632D03*
Y292632D03*
Y302868D03*
Y312868D03*
Y322868D03*
Y332868D03*
Y342868D03*
D02*
D77*
X180250Y22750D03*
Y32750D03*
Y42750D03*
Y52750D03*
Y62750D03*
Y72750D03*
Y82750D03*
Y92750D03*
Y142750D03*
Y152750D03*
Y162750D03*
Y172750D03*
Y182750D03*
Y192750D03*
Y202750D03*
Y212750D03*
Y262750D03*
Y272750D03*
Y282750D03*
Y292750D03*
Y302750D03*
Y312750D03*
Y322750D03*
Y332750D03*
X312750Y22750D03*
Y32750D03*
Y42750D03*
Y52750D03*
Y62750D03*
Y72750D03*
Y82750D03*
Y92750D03*
Y147750D03*
Y157750D03*
Y167750D03*
Y177750D03*
Y187750D03*
Y197750D03*
Y207750D03*
Y217750D03*
Y262750D03*
Y272750D03*
Y282750D03*
Y292750D03*
Y302750D03*
Y312750D03*
Y322750D03*
Y332750D03*
D02*
D78*
X170250Y22750D03*
Y32750D03*
Y42750D03*
Y52750D03*
Y62750D03*
Y72750D03*
Y82750D03*
Y92750D03*
Y142750D03*
Y152750D03*
Y162750D03*
Y172750D03*
Y182750D03*
Y192750D03*
Y202750D03*
Y212750D03*
Y262750D03*
Y272750D03*
Y282750D03*
Y292750D03*
Y302750D03*
Y312750D03*
Y322750D03*
Y332750D03*
X302750Y22750D03*
Y32750D03*
Y42750D03*
Y52750D03*
Y62750D03*
Y72750D03*
Y82750D03*
Y92750D03*
Y147750D03*
Y157750D03*
Y167750D03*
Y177750D03*
Y187750D03*
Y197750D03*
Y207750D03*
Y217750D03*
Y262750D03*
Y272750D03*
Y282750D03*
Y292750D03*
Y302750D03*
Y312750D03*
Y322750D03*
Y332750D03*
X0Y0D02*
M02*
